<svg width="82" height="102" viewBox="0 0 82 102" fill="none" xmlns="http://www.w3.org/2000/svg">
<g clip-path="url(#clip0_29_287)">
<path d="M57.9312 13.2676H73.0822C73.0822 13.2676 71.7434 10.8079 67.8421 11.1752C64.1183 11.517 63.9247 9.96403 62.0352 9.78037C60.1456 9.59671 58.5625 11.0381 57.9312 13.2676Z" fill="#E0E0E0"/>
<path d="M18.3286 53.677C18.3286 53.677 16.8101 54.5046 19.0199 57.7035C21.2298 60.9024 22.6677 62.4368 22.6677 62.4368C22.6677 62.4368 23.0871 63.1923 22.4373 63.4085C21.7874 63.6247 20.2873 63.5945 20.103 64.457C19.9117 65.3544 20.6376 66.0844 21.9787 66.6074C23.3198 67.1305 26.2187 68.4161 26.4791 68.5324C26.7395 68.6486 27.0252 68.9857 26.6058 69.2042C26.1864 69.4228 22.935 70.2295 23.4051 71.7615C23.8752 73.2935 27.8571 74.1607 28.2903 74.263C28.7235 74.3653 28.8456 74.528 28.8433 74.7605C28.841 74.9929 27.7234 75.1603 26.8063 75.4277C25.8892 75.695 24.8752 76.1693 25.2209 77.0318C25.5665 77.8943 28.0691 79.4589 33.5949 79.238L36.1481 78.9683L37.2357 76.6087C39.2566 71.4174 38.6183 68.5184 37.927 67.9047C37.2357 67.2909 36.4569 68.1046 35.9061 68.8904C35.3554 69.6762 34.83 70.6851 34.6111 70.6107C34.3922 70.5363 34.2816 70.3666 34.3277 69.9133C34.3737 69.46 34.8738 65.3893 33.5926 64.4361C32.3114 63.4829 30.4863 66.3145 30.1361 66.6423C29.7858 66.9701 29.5715 66.5842 29.5484 66.3006C29.5254 66.0169 29.2835 62.8343 29.2258 61.379C29.1682 59.9237 28.7327 58.9984 27.8317 58.8868C26.9307 58.7752 26.4998 60.2166 26.0827 60.7653C25.6656 61.3139 25.0965 60.6653 25.0965 60.6653C25.0965 60.6653 24.1309 58.7915 21.8704 55.6345C19.6098 52.4774 18.2987 53.7002 18.2987 53.7002" fill="#EBEBEB"/>
<path d="M36.3624 79.5565C34.7056 77.2317 31.8321 73.0471 29.3457 69.4693C26.8593 65.8914 24.608 62.6553 22.9627 60.3212C22.14 59.1588 21.4764 58.215 21.0132 57.5617L20.4832 56.8085L20.3472 56.6132C20.3173 56.569 20.3035 56.5435 20.3035 56.5435C20.3035 56.5435 20.3219 56.5644 20.3542 56.6086L20.497 56.7992C20.6215 56.9735 20.8035 57.2223 21.0386 57.5431C21.4994 58.1871 22.1907 59.1263 23.0088 60.2887C24.6656 62.6135 26.9261 65.8449 29.4102 69.4228C31.8943 73.0006 34.7632 77.1899 36.4085 79.5217" fill="#E0E0E0"/>
<path d="M22.2 64.5872C22.2621 64.5897 22.3238 64.5983 22.3843 64.6127C22.5018 64.6337 22.67 64.6685 22.8797 64.715C23.2968 64.8057 23.8683 64.9475 24.4928 65.1149L26.1058 65.5496L26.5943 65.6798C26.6554 65.6903 26.715 65.7083 26.7718 65.7333C26.7097 65.7325 26.6478 65.7247 26.5874 65.71C26.4699 65.6891 26.3017 65.6542 26.092 65.6054C25.6772 65.5101 25.1057 65.3729 24.4789 65.1939L22.8659 64.7708L22.3774 64.643C22.316 64.6325 22.2563 64.6137 22.2 64.5872Z" fill="#E0E0E0"/>
<path d="M26.9239 65.5566C26.9009 65.5566 27.1382 64.3478 27.4516 62.8692C27.765 61.3906 28.0392 60.1934 28.0599 60.198C28.0807 60.2027 27.8456 61.4046 27.53 62.8855C27.2143 64.3664 26.9446 65.5566 26.9239 65.5566Z" fill="#E0E0E0"/>
<path d="M30.4956 71.2128C30.5154 71.1524 30.5425 71.0946 30.5763 71.0408L30.8205 70.5758C31.0256 70.1899 31.309 69.6459 31.5971 69.0508C31.8851 68.4556 32.134 67.8884 32.3068 67.4955L32.5142 67.0189C32.5341 66.9577 32.5628 66.8997 32.5995 66.8469C32.5867 66.9097 32.5682 66.9712 32.5442 67.0305C32.5027 67.1468 32.4405 67.3118 32.3598 67.5164C32.1985 67.9256 31.9612 68.4835 31.6685 69.088C31.3759 69.6924 31.0855 70.2225 30.8689 70.6037C30.7583 70.792 30.6661 70.9455 30.6016 71.0501C30.5712 71.1075 30.5358 71.1619 30.4956 71.2128Z" fill="#E0E0E0"/>
<path d="M26.0344 71.2965C26.0907 71.2808 26.1489 71.2737 26.2072 71.2756L26.6842 71.2477C27.0852 71.2268 27.6406 71.2058 28.2535 71.1849C28.8665 71.164 29.4218 71.1524 29.8251 71.1477H30.3021C30.3602 71.1402 30.4191 71.1402 30.4772 71.1477C30.4196 71.1603 30.361 71.1673 30.3021 71.1686L29.8274 71.1965C29.4241 71.2151 28.8688 71.2384 28.2558 71.257C27.6429 71.2756 27.0875 71.2895 26.6842 71.2942H26.2096C26.1515 71.3018 26.0927 71.3026 26.0344 71.2965Z" fill="#E0E0E0"/>
<path d="M28.5576 76.7156C28.6333 76.6986 28.7105 76.69 28.7881 76.69L29.3987 76.6528C29.9126 76.6249 30.6246 76.5901 31.4104 76.5575C32.1962 76.525 32.9082 76.5017 33.4221 76.4878L34.0327 76.4738C34.1094 76.4676 34.1865 76.4676 34.2632 76.4738C34.1872 76.4887 34.1101 76.4972 34.0327 76.4994L33.4221 76.5366C32.9082 76.5645 32.1962 76.5994 31.4104 76.6319C30.6246 76.6645 29.9126 76.6877 29.3987 76.7016L28.7881 76.7156C28.7114 76.722 28.6343 76.722 28.5576 76.7156Z" fill="#E0E0E0"/>
<path d="M34.1111 76.4367C34.1371 76.3604 34.1695 76.2865 34.2079 76.2158L34.4982 75.623C34.7425 75.1231 35.0743 74.4327 35.42 73.6585C35.7656 72.8844 36.0652 72.1776 36.2772 71.6615L36.5283 71.0525C36.5559 70.9772 36.589 70.9042 36.6274 70.8339C36.6115 70.9137 36.5875 70.9915 36.556 71.0664C36.5053 71.2152 36.4293 71.4267 36.3256 71.6848C36.1274 72.2055 35.837 72.9193 35.4891 73.6934C35.1411 74.4676 34.7978 75.158 34.542 75.6509C34.413 75.8973 34.3116 76.0972 34.2286 76.2321C34.1946 76.3031 34.1553 76.3715 34.1111 76.4367Z" fill="#E0E0E0"/>
<path d="M55.5391 42.1274C52.797 39.0239 53.0597 34.544 54.0989 30.7104C54.2717 30.0688 54.3616 29.3713 54.7902 28.8785C55.2188 28.3856 56.0277 28.1671 56.5369 28.5763C56.9586 28.9157 57.0347 29.5225 57.1913 30.0479C57.3996 30.7465 57.799 31.3718 58.3435 31.8519C58.7007 32.1634 59.1731 32.4122 59.6293 32.2866C60.2538 32.1099 60.4981 31.3567 60.6456 30.7127C60.9175 29.5147 61.1909 28.3167 61.4659 27.1186C61.5798 26.4685 61.7953 25.8408 62.1042 25.2588C62.4453 24.6962 63.0259 24.2359 63.6619 24.2103C64.2979 24.1847 64.9731 24.7148 64.9524 25.3727C64.9142 25.6443 64.8581 25.9131 64.7842 26.1771C64.7495 26.309 64.754 26.4482 64.797 26.5775C64.84 26.7069 64.9197 26.8206 65.0261 26.9047C65.2565 27.0419 65.5584 26.921 65.7935 26.7769C66.6023 26.2864 67.2452 25.5587 67.8558 24.8264C68.4665 24.0941 69.0702 23.3432 69.833 22.7783C70.5957 22.2133 71.5497 21.8483 72.4738 22.0157C73.3978 22.1831 74.2343 22.9828 74.2527 23.9383C74.2711 24.8938 73.5338 25.6935 72.7918 26.2887C71.6961 27.1721 70.4799 27.8916 69.1808 28.4252C68.9352 28.4943 68.718 28.6409 68.561 28.8436C68.3305 29.2388 68.6232 29.7596 69.008 30.006C69.4458 30.278 69.9712 30.3524 70.4551 30.5291C70.9391 30.7058 71.423 31.0568 71.499 31.5729C71.605 32.2913 70.8999 32.8492 70.2593 33.1724C68.9764 33.8156 67.5938 34.2323 66.1714 34.4045C65.6621 34.465 65.1344 34.4998 64.6782 34.7393C64.2219 34.9787 63.8601 35.5041 63.9869 36.0109C64.1136 36.5177 64.6597 36.8037 65.1713 36.8269C65.6829 36.8502 66.1852 36.6898 66.6945 36.6247C67.6462 36.4991 68.7684 36.8293 69.1417 37.7266C69.2526 38.0316 69.2916 38.3584 69.2556 38.6812C69.2196 39.0041 69.1096 39.314 68.9343 39.5865C68.5834 40.1241 68.1289 40.585 67.5978 40.9418C65.8178 42.2893 63.7154 43.1365 61.5051 43.3968C59.3113 43.6293 57.3849 43.3642 55.5437 42.1391" fill="#F5F5F5"/>
<path d="M56.0967 42.4994C56.5944 41.0022 56.0736 41.7531 57.0991 39.9421C58.2297 37.9873 59.4708 36.0995 60.816 34.2883C61.1693 33.8047 61.5188 33.3281 61.8644 32.8585C62.2101 32.3936 62.5557 31.9286 62.9152 31.4892C63.6146 30.6584 64.3584 29.8668 65.1435 29.1179C65.8878 28.3972 66.6206 27.7417 67.3119 27.1326C68.0032 26.5235 68.6576 25.9702 69.2752 25.4936C70.2475 24.7333 71.2776 24.0516 72.3561 23.4547C72.7363 23.2432 73.0474 23.0898 73.2433 22.9898L73.4737 22.8759L73.5544 22.841C73.5306 22.859 73.5051 22.8746 73.4783 22.8875L73.2479 23.013C73.0451 23.1223 72.7479 23.2827 72.3722 23.4989C71.3066 24.1111 70.2883 24.8036 69.3259 25.5703C68.713 26.0515 68.0631 26.6072 67.3764 27.2163C66.6897 27.8253 65.9616 28.4856 65.2196 29.2063C64.4396 29.9551 63.7004 30.7459 63.0051 31.5752C62.6456 32.0053 62.3138 32.4679 61.9612 32.9376L60.9128 34.3673C59.5721 36.1725 58.332 38.0515 57.1982 39.9956C56.1704 41.802 56.6866 41.0394 56.1796 42.5273" fill="#E0E0E0"/>
<path d="M62.9592 31.4939C62.9498 31.398 62.9498 31.3015 62.9592 31.2056C62.9592 31.0196 62.9892 30.7407 63.0191 30.4222C63.0791 29.7596 63.1943 28.8506 63.3233 27.8486C63.4524 26.8466 63.5538 25.9376 63.6021 25.2774C63.6275 24.9496 63.6459 24.6823 63.6574 24.4963C63.6566 24.4001 63.6666 24.3042 63.6874 24.2103C63.7025 24.3056 63.7079 24.4022 63.7035 24.4986C63.7035 24.6823 63.7035 24.9636 63.6874 25.2821C63.6598 25.9469 63.5722 26.8606 63.4408 27.8649C63.3095 28.8692 63.1943 29.748 63.1044 30.4222C63.0652 30.7314 63.033 30.9917 63.0076 31.201C63.0023 31.3001 62.9861 31.3984 62.9592 31.4939Z" fill="#E0E0E0"/>
<path d="M71.4853 31.9054C71.3729 31.9046 71.2609 31.8922 71.1511 31.8682C70.9368 31.8356 70.6258 31.7891 70.2409 31.7426C69.4736 31.645 68.3975 31.5497 67.2268 31.4939C66.0562 31.4381 64.9755 31.4381 64.199 31.459C63.8118 31.459 63.5076 31.4823 63.2772 31.4916C63.1645 31.5011 63.0512 31.5011 62.9385 31.4916C63.0488 31.464 63.1614 31.4469 63.2749 31.4404C63.4915 31.4172 63.8049 31.3893 64.1966 31.3707C64.9732 31.3265 66.0401 31.3149 67.2338 31.3707C68.2449 31.4148 69.2531 31.5103 70.2548 31.6566C70.6373 31.7147 70.9461 31.7752 71.1604 31.8194C71.2711 31.8375 71.38 31.8663 71.4853 31.9054Z" fill="#E0E0E0"/>
<path d="M57.2352 39.812C57.2184 39.7761 57.2075 39.7376 57.203 39.6981C57.1845 39.6074 57.1615 39.4981 57.1315 39.3656C57.0739 39.0774 56.9979 38.6682 56.9126 38.1381C56.7398 37.099 56.5462 35.6553 56.3527 34.0581C56.1591 32.461 55.9794 31.0173 55.8296 29.9758C55.7558 29.469 55.6936 29.0459 55.6475 28.7437C55.6291 28.6088 55.613 28.4973 55.5991 28.4066C55.5955 28.3672 55.5955 28.3275 55.5991 28.288C55.6158 28.3242 55.6274 28.3626 55.6337 28.4019L55.7028 28.7344C55.7628 29.0227 55.8365 29.4318 55.9218 29.9619C56.0946 31.001 56.2881 32.4447 56.4817 34.0419C56.6753 35.639 56.855 37.0827 57.0048 38.1242C57.0808 38.631 57.1408 39.0541 57.1868 39.3587C57.2076 39.4912 57.2214 39.6028 57.2352 39.6934C57.2402 39.7328 57.2402 39.7726 57.2352 39.812Z" fill="#E0E0E0"/>
<path d="M68.9342 38.8751C68.8962 38.8874 68.8566 38.8936 68.8167 38.8937L68.4756 38.9262L67.2221 39.0285C66.1644 39.1145 64.7034 39.261 63.0904 39.4051C61.4773 39.5493 60.0118 39.6818 58.9426 39.7469C58.4126 39.7794 57.984 39.8004 57.6867 39.8097H57.3457C57.306 39.8162 57.2655 39.8162 57.2258 39.8097C57.2641 39.7985 57.3036 39.7922 57.3434 39.7911L57.6844 39.7585L58.938 39.6562C59.9956 39.5702 61.4566 39.4237 63.0696 39.2796C64.6827 39.1355 66.1459 39.003 67.2175 38.9402C67.7498 38.9076 68.1784 38.8844 68.4756 38.8751H68.8167C68.8557 38.8702 68.8952 38.8702 68.9342 38.8751Z" fill="#E0E0E0"/>
<path d="M78.0087 62.5344C78.0006 62.5722 77.9882 62.6088 77.9718 62.6437L77.8451 62.9529C77.7276 63.2319 77.5616 63.6247 77.3543 64.1153L75.5776 68.2604L75.5661 68.2836H75.5407L69.9596 69.2135L68.0885 69.5227L68.0032 69.5367L68.024 69.453C68.4848 67.642 68.8973 65.9658 69.2545 64.5593L69.2798 64.6128L66.0008 63.1342L65.0952 62.7181L64.8647 62.6065C64.8371 62.5947 64.8108 62.5799 64.7864 62.5623L64.8693 62.5925L65.1113 62.6925L66.033 63.0854L69.3282 64.5268L69.3651 64.543V64.5802C69.0148 65.9983 68.6024 67.6675 68.1553 69.4809L68.0908 69.4111L69.9619 69.0996L75.5453 68.1836L75.5062 68.2139L77.3197 64.0874C77.5386 63.5945 77.7137 63.204 77.8382 62.925L77.9764 62.6204C77.9855 62.5911 77.9962 62.5624 78.0087 62.5344Z" fill="#E0E0E0"/>
<path d="M68.7408 68.8718L68.5887 69.2763L68.833 69.632L68.4044 69.611L68.144 69.9551L68.0311 69.5367L67.6255 69.3948L67.985 69.1577L67.9942 68.723L68.3306 68.995L68.7408 68.8718Z" fill="#E0E0E0"/>
<path d="M64.9086 62.3019L64.8326 62.5042L64.9547 62.6809L64.7427 62.6716L64.6114 62.8413L64.5561 62.6344L64.3533 62.5623L64.533 62.4437L64.5376 62.2299L64.7058 62.3647L64.9086 62.3019Z" fill="#E0E0E0"/>
<path d="M75.732 68.0139L75.656 68.2162L75.7781 68.3929L75.5661 68.3812L75.4347 68.5533L75.3794 68.3464L75.179 68.2743L75.3564 68.1557L75.361 67.9395L75.5292 68.0744L75.732 68.0139Z" fill="#E0E0E0"/>
<path d="M69.4872 64.3873L69.4112 64.5895L69.5333 64.7662L69.319 64.7569L69.19 64.9266L69.1347 64.7197L68.9319 64.6476L69.1116 64.5291L69.1162 64.3152L69.2821 64.45L69.4872 64.3873Z" fill="#E0E0E0"/>
<path d="M78.2692 62.3345L78.1932 62.5367L78.3153 62.7134L78.101 62.7018L77.972 62.8738L77.9167 62.6669L77.7139 62.5948L77.8913 62.4763L77.8982 62.2601L78.0641 62.3949L78.2692 62.3345Z" fill="#E0E0E0"/>
<path d="M8.42456 79.252H20.4901C20.4901 79.252 19.4232 77.2922 16.3169 77.5781C13.3512 77.8501 13.2015 76.6134 11.6921 76.4622C10.1828 76.3111 8.92921 77.4759 8.42456 79.252Z" fill="#E0E0E0"/>
<path d="M10.821 31.3335H22.8843C22.8843 31.3335 21.8174 29.376 18.7111 29.6596C15.7477 29.9339 15.5956 28.6972 14.0886 28.5461C12.5816 28.3949 11.3234 29.5597 10.821 31.3335Z" fill="#F5F5F5"/>
<path d="M72.0889 39.798H81.9975C81.9975 39.798 81.1219 38.1892 78.571 38.4217C76.133 38.6542 76.0086 37.6313 74.7711 37.5058C73.5337 37.3802 72.5013 38.3404 72.0889 39.798Z" fill="#F5F5F5"/>
<path d="M52.2971 59.5331C52.7902 55.7879 50.1794 52.696 46.9164 50.8384C43.6535 48.9809 39.8675 48.3533 36.2635 47.3257C32.8646 46.3516 29.4841 44.9288 26.9678 42.4274C24.4514 39.9259 22.9398 36.1667 23.8431 32.7214C24.0735 31.8566 24.4768 30.9871 25.2142 30.4873C25.9515 29.9874 27.0738 30.0014 27.6245 30.7035C28.7951 32.2006 26.5138 34.8881 27.9425 36.1295C28.2697 36.4178 28.7214 36.5224 29.0601 36.7944C29.9611 37.5221 29.6708 38.9332 29.7975 40.091C30.0487 42.3809 32.1779 43.971 34.2679 44.8986C37.0677 46.1401 40.1002 46.7236 43.0682 47.4559C46.0362 48.1882 49.0341 49.1204 51.5067 50.9431C53.9792 52.7657 56.1292 55.5926 56.1154 58.6823C56.1154 59.5448 56.0025 60.6049 55.4655 61.2744C54.9286 61.944 54.2465 62.0858 53.4723 61.7184C52.698 61.3511 52.1588 60.7885 52.3017 59.5378" fill="#009344"/>
<g opacity="0.8">
<path opacity="0.8" d="M52.2971 59.5331C52.7902 55.7879 50.1794 52.696 46.9164 50.8384C43.6535 48.9809 39.8675 48.3533 36.2635 47.3257C32.8646 46.3516 29.4841 44.9288 26.9678 42.4274C24.4514 39.9259 22.9398 36.1667 23.8431 32.7214C24.0735 31.8566 24.4768 30.9871 25.2142 30.4873C25.9515 29.9874 27.0738 30.0014 27.6245 30.7035C28.7951 32.2006 26.5138 34.8881 27.9425 36.1295C28.2697 36.4178 28.7214 36.5224 29.0601 36.7944C29.9611 37.5221 29.6708 38.9332 29.7975 40.091C30.0487 42.3809 32.1779 43.971 34.2679 44.8986C37.0677 46.1401 40.1002 46.7236 43.0682 47.4559C46.0362 48.1882 49.0341 49.1204 51.5067 50.9431C53.9792 52.7657 56.1292 55.5926 56.1154 58.6823C56.1154 59.5448 56.0025 60.6049 55.4655 61.2744C54.9286 61.944 54.2465 62.0858 53.4723 61.7184C52.698 61.3511 52.1588 60.7885 52.3017 59.5378" fill="white"/>
</g>
<path d="M36.5124 29.755C36.3949 28.3601 37.4203 27.1582 38.5863 26.5119C39.7523 25.8656 41.0888 25.6006 42.2894 25.0264C45.2735 23.599 47.17 20.2396 47.3105 16.7966C47.4511 13.3536 45.9694 9.90829 43.6558 7.37892C42.7134 6.35136 41.5566 5.27266 41.5428 3.87082C41.5289 2.4062 42.9254 1.25311 44.3402 1.27171C45.7551 1.2903 47.0409 2.24114 47.882 3.43376C48.7231 4.62637 49.1863 6.04217 49.6402 7.43704C49.3176 6.85119 49.979 6.12818 50.6196 6.19095C51.2602 6.25372 51.7717 6.79075 52.1566 7.32545C53.8614 9.66065 54.679 12.5355 54.4609 15.4273C54.23 18.2653 52.9561 20.9137 50.8892 22.8527C48.6148 24.945 45.6076 25.9237 42.6903 26.8537L36.6046 28.7902" fill="#009344"/>
<g opacity="0.8">
<path opacity="0.8" d="M36.5124 29.755C36.3949 28.3601 37.4203 27.1582 38.5863 26.5119C39.7523 25.8656 41.0888 25.6006 42.2894 25.0264C45.2735 23.599 47.17 20.2396 47.3105 16.7966C47.4511 13.3536 45.9694 9.90829 43.6558 7.37892C42.7134 6.35136 41.5566 5.27266 41.5428 3.87082C41.5289 2.4062 42.9254 1.25311 44.3402 1.27171C45.7551 1.2903 47.0409 2.24114 47.882 3.43376C48.7231 4.62637 49.1863 6.04217 49.6402 7.43704C49.3176 6.85119 49.979 6.12818 50.6196 6.19095C51.2602 6.25372 51.7717 6.79075 52.1566 7.32545C53.8614 9.66065 54.679 12.5355 54.4609 15.4273C54.23 18.2653 52.9561 20.9137 50.8892 22.8527C48.6148 24.945 45.6076 25.9237 42.6903 26.8537L36.6046 28.7902" fill="white"/>
</g>
<path d="M34.8187 0.583554C34.5101 0.712001 34.2626 0.955717 34.1278 1.26385C33.993 1.57197 33.9814 1.92071 34.0953 2.23728C34.2093 2.55385 34.44 2.81381 34.7394 2.96289C35.0387 3.11198 35.3836 3.13868 35.702 3.03743C36.0203 2.93617 36.2877 2.71479 36.4482 2.41946C36.6087 2.12414 36.6499 1.7777 36.5633 1.45243C36.4767 1.12716 36.269 0.848191 35.9834 0.673737C35.6979 0.499284 35.3566 0.442823 35.0307 0.516135" fill="#009344"/>
<g opacity="0.8">
<path opacity="0.8" d="M34.8187 0.583554C34.5101 0.712001 34.2626 0.955717 34.1278 1.26385C33.993 1.57197 33.9814 1.92071 34.0953 2.23728C34.2093 2.55385 34.44 2.81381 34.7394 2.96289C35.0387 3.11198 35.3836 3.13868 35.702 3.03743C36.0203 2.93617 36.2877 2.71479 36.4482 2.41946C36.6087 2.12414 36.6499 1.7777 36.5633 1.45243C36.4767 1.12716 36.269 0.848191 35.9834 0.673737C35.6979 0.499284 35.3566 0.442823 35.0307 0.516135" fill="white"/>
</g>
<path d="M42.3239 90.1622C41.5773 88.6023 42.2294 86.6564 43.4184 85.4057C44.6075 84.155 46.2297 83.4412 47.7967 82.7438C51.267 81.2001 54.9401 79.3636 56.703 75.9787C57.2975 74.8372 57.6362 73.5818 57.9704 72.3357C58.6179 69.9273 59.2262 67.191 57.9243 65.0684C57.5487 64.457 56.9864 63.9061 56.2859 63.7898C55.4863 63.6457 54.6728 64.0897 54.1751 64.7383C53.7136 65.4161 53.4363 66.204 53.3709 67.0236C53.1773 68.5649 53.3386 70.1342 53.1773 71.6732C53.016 73.2122 52.4607 74.8558 51.2071 75.7346C49.6701 76.8156 47.4787 76.5738 45.9878 77.7153C44.7826 78.6452 44.324 80.2354 43.3839 81.4349C42.5912 82.4369 41.4828 83.1204 40.4689 83.8922C39.455 84.6641 38.4733 85.6033 38.1277 86.8378C37.9463 87.483 37.9533 88.1674 38.1477 88.8088C38.3421 89.4502 38.7157 90.0214 39.2238 90.454C39.7319 90.8866 40.3528 91.1621 41.0122 91.2477C41.6716 91.3333 42.3414 91.2252 42.9414 90.9364" fill="#009344"/>
<g opacity="0.8">
<path opacity="0.8" d="M42.3239 90.1622C41.5773 88.6023 42.2294 86.6564 43.4184 85.4057C44.6075 84.155 46.2297 83.4412 47.7967 82.7438C51.267 81.2001 54.9401 79.3636 56.703 75.9787C57.2975 74.8372 57.6362 73.5818 57.9704 72.3357C58.6179 69.9273 59.2262 67.191 57.9243 65.0684C57.5487 64.457 56.9864 63.9061 56.2859 63.7898C55.4863 63.6457 54.6728 64.0897 54.1751 64.7383C53.7136 65.4161 53.4363 66.204 53.3709 67.0236C53.1773 68.5649 53.3386 70.1342 53.1773 71.6732C53.016 73.2122 52.4607 74.8558 51.2071 75.7346C49.6701 76.8156 47.4787 76.5738 45.9878 77.7153C44.7826 78.6452 44.324 80.2354 43.3839 81.4349C42.5912 82.4369 41.4828 83.1204 40.4689 83.8922C39.455 84.6641 38.4733 85.6033 38.1277 86.8378C37.9463 87.483 37.9533 88.1674 38.1477 88.8088C38.3421 89.4502 38.7157 90.0214 39.2238 90.454C39.7319 90.8866 40.3528 91.1621 41.0122 91.2477C41.6716 91.3333 42.3414 91.2252 42.9414 90.9364" fill="white"/>
</g>
<path d="M19.2527 11.3566C18.6392 10.897 18.1431 10.2964 17.8058 9.60465C17.4684 8.91288 17.2995 8.14991 17.313 7.37907C17.3265 6.60823 17.5221 5.85176 17.8835 5.17247C18.2449 4.49318 18.7617 3.91065 19.391 3.47325C20.1007 2.98272 20.9395 2.6805 21.5709 2.07838C22.1308 1.55298 22.4926 0.825321 23.1217 0.383611C23.5143 0.10273 23.9856 -0.0442595 24.4668 -0.0359185C24.948 -0.0275776 25.414 0.135657 25.7968 0.429979C26.1797 0.7243 26.4592 1.13431 26.5948 1.60021C26.7304 2.06611 26.7149 2.56353 26.5506 3.01992C26.2625 3.83592 25.5367 4.43339 25.2325 5.24242C24.9053 6.11654 25.1173 7.10224 25.0021 8.01821C24.9266 8.58848 24.725 9.13432 24.412 9.61526C24.099 10.0962 23.6827 10.4999 23.1941 10.7964C22.7054 11.0929 22.1568 11.2747 21.589 11.3282C21.0212 11.3817 20.4487 11.3056 19.9141 11.1055" fill="#009344"/>
<g opacity="0.8">
<path opacity="0.8" d="M19.2527 11.3566C18.6392 10.897 18.1431 10.2964 17.8058 9.60465C17.4684 8.91288 17.2995 8.14991 17.313 7.37907C17.3265 6.60823 17.5221 5.85176 17.8835 5.17247C18.2449 4.49318 18.7617 3.91065 19.391 3.47325C20.1007 2.98272 20.9395 2.6805 21.5709 2.07838C22.1308 1.55298 22.4926 0.825321 23.1217 0.383611C23.5143 0.10273 23.9856 -0.0442595 24.4668 -0.0359185C24.948 -0.0275776 25.414 0.135657 25.7968 0.429979C26.1797 0.7243 26.4592 1.13431 26.5948 1.60021C26.7304 2.06611 26.7149 2.56353 26.5506 3.01992C26.2625 3.83592 25.5367 4.43339 25.2325 5.24242C24.9053 6.11654 25.1173 7.10224 25.0021 8.01821C24.9266 8.58848 24.725 9.13432 24.412 9.61526C24.099 10.0962 23.6827 10.4999 23.1941 10.7964C22.7054 11.0929 22.1568 11.2747 21.589 11.3282C21.0212 11.3817 20.4487 11.3056 19.9141 11.1055" fill="white"/>
</g>
<path d="M19.3403 6.37225H22.1724V12.2609C22.1724 12.4261 22.1401 12.5896 22.0775 12.7422C22.0148 12.8948 21.923 13.0335 21.8072 13.1503C21.6915 13.2671 21.554 13.3597 21.4028 13.4229C21.2515 13.4861 21.0894 13.5186 20.9257 13.5186H20.587C20.2563 13.5186 19.9393 13.3861 19.7055 13.1503C19.4717 12.9144 19.3403 12.5945 19.3403 12.2609V6.37225Z" fill="#009344"/>
<path d="M19.3403 6.37223L20.7552 3.7522L22.1724 6.37223H19.3403Z" fill="#FFBE9D"/>
<path d="M20.1953 4.78905C20.1953 4.78905 20.6262 5.44232 21.3175 4.78905L20.7576 3.7522L20.1953 4.78905Z" fill="#009344"/>
<path d="M22.2116 11.975C21.7339 12.0332 21.2522 12.0527 20.7714 12.0331C20.2913 12.0527 19.8105 12.0333 19.3335 11.975C19.8105 11.9167 20.2913 11.8973 20.7714 11.9169C21.2522 11.8973 21.7339 11.9167 22.2116 11.975Z" fill="#263238"/>
<path d="M22.1723 11.5356C21.7046 11.5938 21.2329 11.6133 20.7621 11.5937C20.2912 11.6133 19.8195 11.5938 19.3518 11.5356C19.8198 11.4803 20.2913 11.4616 20.7621 11.4798C21.2329 11.4616 21.7044 11.4803 22.1723 11.5356Z" fill="#263238"/>
<path d="M20.1721 6.41412C20.2021 6.41412 20.2297 7.55327 20.2297 8.95977C20.2297 10.3663 20.2021 11.517 20.1721 11.517C20.1422 11.517 20.1145 10.3756 20.1145 8.95977C20.1145 7.54397 20.1398 6.41412 20.1721 6.41412Z" fill="#FAFAFA"/>
<path d="M21.3174 6.41412C21.3496 6.41412 21.375 7.55327 21.375 8.95977C21.375 10.3663 21.3496 11.517 21.3174 11.517C21.2851 11.517 21.2598 10.3756 21.2598 8.95977C21.2598 7.54397 21.2851 6.41412 21.3174 6.41412Z" fill="#FAFAFA"/>
<path d="M43.9439 86.8796L56.8113 87.4352L57.1201 88.1908L48.6885 102L33.4661 101.551L43.9439 86.8796Z" fill="#263238"/>
<path d="M32.8875 100.205L48.2021 101.089L56.2028 88.565L50.5848 89.0253L36.3693 94.0771L32.8875 100.205Z" fill="#E0E0E0"/>
<path d="M30.7377 99.2776L44.7941 99.5101C44.2111 97.6944 45.5868 95.1395 47.4787 94.2793C48.7323 93.7098 51.0896 92.9705 52.3063 92.3405C54.6106 91.1432 56.7076 88.8789 56.5255 86.933L50.7463 86.7401L43.3724 86.4518C42.7548 88.2977 41.4367 89.5042 39.4319 90.2319C37.6392 90.8828 35.5975 90.8805 33.8462 91.6268C31.0303 92.817 29.6777 96.6739 30.7261 99.2846" fill="#EBEBEB"/>
<path d="M30.7376 99.2777C30.7376 99.2777 30.7238 99.2474 30.703 99.1847L30.6063 98.9127C30.5552 98.7608 30.5151 98.6054 30.4864 98.4477C30.4394 98.2348 30.4071 98.0189 30.3896 97.8014C30.2821 96.3747 30.638 94.9515 31.4036 93.747C31.5257 93.5479 31.6604 93.3568 31.8068 93.1751C31.8829 93.0844 31.9566 92.9845 32.0373 92.8961L32.2976 92.6288C32.3847 92.5371 32.4787 92.4524 32.5788 92.3754C32.6779 92.294 32.7746 92.208 32.8806 92.1313C33.1001 91.9754 33.3312 91.8371 33.5719 91.7175C34.5467 91.2223 35.7104 91.02 36.9225 90.7875C37.5308 90.6759 38.1576 90.5551 38.7844 90.3853C39.4293 90.207 40.0518 89.9542 40.6394 89.6321C40.9429 89.4664 41.2319 89.2751 41.5035 89.0602C41.7833 88.8431 42.0404 88.5977 42.2708 88.3279C42.7481 87.7714 43.1114 87.1251 43.3401 86.4262L43.3539 86.3867H43.3931L49.5341 86.6192C51.6656 86.7029 53.8709 86.761 56.1292 86.8377L56.5393 86.8517H56.59V86.9028C56.6209 87.3481 56.558 87.7949 56.4057 88.214C56.3329 88.421 56.2467 88.6229 56.1476 88.8184C56.0458 89.0106 55.9335 89.1969 55.8112 89.3764C55.3253 90.0802 54.7381 90.707 54.0691 91.2362C53.4222 91.7558 52.7159 92.1953 51.9652 92.5451C51.2232 92.8822 50.472 93.1565 49.7369 93.4308C49.0018 93.7051 48.2737 93.9655 47.5847 94.2677C47.2454 94.4194 46.9271 94.6148 46.6376 94.8489C46.4878 94.9559 46.3634 95.093 46.2274 95.2116C46.0914 95.3302 45.9739 95.4743 45.8656 95.6208C45.4172 96.1678 45.0826 96.8003 44.8817 97.4806C44.6783 98.1248 44.6663 98.815 44.8471 99.466L44.8678 99.5287H44.8033L34.5743 99.3474L31.74 99.2893L30.9957 99.2684H30.7399C30.7399 99.2684 30.8275 99.2684 30.9957 99.2684H31.74L34.5766 99.3009L44.8033 99.445L44.7595 99.5055C44.5703 98.8369 44.5807 98.1269 44.7895 97.4643C44.99 96.7684 45.3296 96.1212 45.7873 95.5627C45.8956 95.4139 46.0315 95.286 46.1537 95.1465C46.2758 95.007 46.421 94.8838 46.5731 94.7722C46.8681 94.532 47.1935 94.3327 47.5409 94.1794C48.2322 93.8725 48.965 93.6098 49.7 93.3355C50.4351 93.0612 51.184 92.7845 51.9191 92.4498C52.6603 92.1043 53.3568 91.6687 53.993 91.1525C54.6532 90.6316 55.2326 90.0142 55.7121 89.3206C55.8324 89.1466 55.944 88.9666 56.0462 88.7812C56.1426 88.5909 56.2265 88.3945 56.2974 88.1931C56.4442 87.7896 56.5054 87.3596 56.4771 86.9307L56.5324 86.9819L56.1199 86.9702C53.8617 86.8935 51.6564 86.8331 49.5272 86.7378L43.3838 86.5053L43.4368 86.4681C43.2017 87.1794 42.8306 87.8373 42.3446 88.4046C42.1093 88.679 41.8468 88.9283 41.5611 89.1486C41.2851 89.3672 40.9905 89.5609 40.6808 89.7274C40.0871 90.0531 39.4576 90.3075 38.8051 90.4853C38.1714 90.6597 37.5423 90.7759 36.934 90.8852C35.7219 91.1037 34.5628 91.3083 33.6019 91.7918C33.3667 91.9087 33.141 92.0439 32.9267 92.1964C32.8207 92.2708 32.7263 92.3568 32.6272 92.4288C32.5279 92.5051 32.4346 92.589 32.3483 92.6799L32.081 92.9473C31.9981 93.0356 31.9266 93.1333 31.8506 93.2239C31.7038 93.4021 31.569 93.59 31.4473 93.7865C31.0137 94.4671 30.7068 95.2219 30.5417 96.0137C30.418 96.6016 30.3753 97.204 30.415 97.8037C30.4287 98.0203 30.458 98.2355 30.5026 98.4477C30.5283 98.6052 30.5652 98.7606 30.6132 98.9127C30.6523 99.0336 30.68 99.1242 30.7007 99.1893C30.7215 99.2544 30.7376 99.2777 30.7376 99.2777Z" fill="#263238"/>
<path d="M47.3334 86.682C47.3334 86.682 47.3518 86.5913 47.3657 86.4286C47.3826 86.1997 47.3447 85.97 47.2551 85.759C47.1296 85.4444 46.8932 85.1877 46.5914 85.0383C46.4064 84.9514 46.206 84.903 46.0021 84.8958C45.7982 84.8887 45.5949 84.923 45.4044 84.9967C45.2139 85.0705 45.0401 85.1822 44.8932 85.3251C44.7464 85.468 44.6296 85.6393 44.5497 85.8288C44.4086 86.1373 44.3612 86.4811 44.4138 86.8168C44.4472 87.0426 44.5256 87.2593 44.6442 87.4538C44.7318 87.5933 44.7963 87.6584 44.7894 87.6653C44.718 87.6158 44.657 87.5526 44.6097 87.4794C44.4669 87.288 44.37 87.0661 44.3262 86.8307C44.2578 86.4781 44.2988 86.1128 44.4437 85.7846C44.528 85.5809 44.6523 85.3967 44.8093 85.2431C44.9663 85.0894 45.1527 84.9696 45.357 84.8909C45.5613 84.8122 45.7794 84.7762 45.9979 84.7852C46.2165 84.7941 46.4309 84.8478 46.6283 84.943C46.9491 85.1071 47.1961 85.388 47.3196 85.7288C47.4057 85.9504 47.4327 86.1908 47.3979 86.4262C47.3887 86.4904 47.3732 86.5534 47.3518 86.6145C47.3472 86.6634 47.338 86.682 47.3334 86.682Z" fill="#263238"/>
<path d="M49.5387 86.6819C49.5272 86.6819 49.5572 86.5913 49.571 86.4285C49.5868 86.1997 49.5489 85.9703 49.4604 85.759C49.3338 85.4443 49.0967 85.1878 48.7944 85.0383C48.6094 84.9517 48.409 84.9035 48.2052 84.8966C48.0014 84.8896 47.7982 84.924 47.6078 84.9977C47.4174 85.0714 47.2436 85.1829 47.0967 85.3257C46.9499 85.4685 46.8329 85.6395 46.7528 85.8288C46.6122 86.1375 46.5657 86.4814 46.6191 86.8168C46.6515 87.0429 46.73 87.2598 46.8496 87.4538C46.9371 87.5933 47.0016 87.6584 46.9947 87.6653C46.9217 87.6171 46.8596 87.5537 46.8127 87.4793C46.6709 87.2875 46.574 87.0657 46.5293 86.8307C46.4629 86.4778 46.5047 86.1129 46.6491 85.7846C46.7333 85.5812 46.8576 85.3973 47.0145 85.2438C47.1713 85.0904 47.3574 84.9707 47.5614 84.892C47.7655 84.8133 47.9833 84.7772 48.2016 84.786C48.4198 84.7948 48.6341 84.8482 48.8313 84.943C49.1521 85.1071 49.3992 85.388 49.5226 85.7288C49.608 85.9505 49.6358 86.1906 49.6033 86.4262C49.5945 86.4907 49.5783 86.5539 49.5549 86.6145C49.5543 86.6379 49.5488 86.6609 49.5387 86.6819Z" fill="#263238"/>
<path d="M51.207 86.7982C51.207 86.7982 51.2209 86.7052 51.2255 86.5425C51.2291 86.3129 51.1785 86.0859 51.078 85.8799C50.9338 85.5737 50.6828 85.332 50.3729 85.2011C50.1838 85.1256 49.9817 85.0888 49.7783 85.0927C49.575 85.0967 49.3745 85.1415 49.1884 85.2243C48.814 85.3974 48.5231 85.7135 48.3796 86.1031C48.2562 86.4195 48.2282 86.7656 48.299 87.0981C48.3475 87.3228 48.4417 87.5349 48.5755 87.7211C48.67 87.8537 48.7391 87.9164 48.7322 87.9234C48.657 87.8795 48.5918 87.8201 48.5409 87.749C48.3877 87.5657 48.2782 87.3494 48.2206 87.1167C48.1342 86.7684 48.1551 86.4019 48.2805 86.0659C48.3532 85.8578 48.4671 85.6667 48.6152 85.5044C48.7633 85.3421 48.9427 85.2118 49.1422 85.1216C49.3418 85.0313 49.5575 84.983 49.7762 84.9795C49.9949 84.9759 50.212 85.0173 50.4143 85.1011C50.744 85.2469 51.0073 85.5124 51.1517 85.845C51.2503 86.0633 51.2908 86.3036 51.2693 86.5425C51.2644 86.6072 51.252 86.6712 51.2324 86.7331C51.2255 86.7773 51.207 86.7982 51.207 86.7982Z" fill="#263238"/>
<path d="M53.0068 86.9005C53.0068 86.9005 53.0068 86.8075 53.0068 86.6447C52.9992 86.4154 52.9367 86.1912 52.8247 85.9915C52.6653 85.6926 52.4018 85.464 52.085 85.3498C51.8919 85.284 51.6877 85.258 51.4845 85.2734C51.2812 85.2887 51.0831 85.3451 50.9019 85.4392C50.7207 85.5334 50.5601 85.6633 50.4297 85.8212C50.2992 85.9792 50.2015 86.162 50.1425 86.3588C50.0353 86.6811 50.0256 87.0283 50.1148 87.3561C50.1755 87.5783 50.2806 87.7856 50.4236 87.9652C50.525 88.0908 50.5964 88.1489 50.5895 88.1582C50.5123 88.1174 50.4441 88.0612 50.389 87.9931C50.227 87.8181 50.1065 87.6082 50.0365 87.3794C49.9302 87.0365 49.9302 86.6691 50.0365 86.3262C50.0983 86.1154 50.2019 85.9193 50.3409 85.75C50.4799 85.5806 50.6515 85.4414 50.8454 85.3408C51.0392 85.2402 51.2512 85.1803 51.4686 85.1646C51.6861 85.149 51.9044 85.178 52.1104 85.2499C52.446 85.3762 52.7223 85.6251 52.8846 85.9473C52.9963 86.1619 53.0495 86.4026 53.039 86.6447C53.0369 86.709 53.0284 86.7728 53.0137 86.8354C53.0183 86.8795 53.0114 86.9005 53.0068 86.9005Z" fill="#263238"/>
<path d="M54.804 86.8586C54.804 86.8586 54.804 86.7656 54.804 86.6029C54.79 86.3735 54.7212 86.151 54.6036 85.9543C54.4358 85.6607 54.1667 85.4397 53.8477 85.3336C53.6528 85.2727 53.4476 85.2521 53.2446 85.2731C53.0416 85.294 52.8448 85.356 52.666 85.4554C52.4873 85.5548 52.3302 85.6895 52.2043 85.8515C52.0783 86.0135 51.986 86.1995 51.9328 86.3983C51.85 86.6707 51.8363 86.9597 51.8931 87.2388C51.9498 87.5178 52.0752 87.778 52.2578 87.9954C52.3638 88.1187 52.4375 88.1745 52.4306 88.1814C52.3517 88.1454 52.2816 88.0922 52.2255 88.0257C52.0595 87.8544 51.9336 87.6479 51.8568 87.4212C51.742 87.081 51.7331 86.7135 51.8314 86.3681C51.8881 86.1551 51.9863 85.9557 52.1205 85.7816C52.2547 85.6076 52.422 85.4623 52.6126 85.3545C52.8047 85.2486 53.0161 85.1833 53.234 85.1626C53.4519 85.1418 53.6717 85.1659 53.88 85.2336C54.22 85.3513 54.5038 85.5936 54.675 85.9124C54.7927 86.1254 54.8524 86.3661 54.8478 86.6099C54.8477 86.6747 54.8408 86.7394 54.8271 86.8028C54.8156 86.8354 54.8087 86.8586 54.804 86.8586Z" fill="#263238"/>
<path d="M56.3205 87.0609C56.3205 87.0609 56.3205 86.9679 56.3205 86.8051C56.3155 86.5755 56.2554 86.3506 56.1454 86.1495C55.989 85.8502 55.729 85.6194 55.4149 85.5009C55.2226 85.4325 55.0187 85.4038 54.8152 85.4166C54.6117 85.4294 54.4128 85.4834 54.2305 85.5754C54.0481 85.6674 53.886 85.7955 53.7538 85.952C53.6215 86.1086 53.5219 86.2904 53.4608 86.4866C53.3679 86.7555 53.3431 87.0434 53.3886 87.3244C53.4341 87.6053 53.5484 87.8704 53.7212 88.0954C53.8226 88.2233 53.8917 88.2814 53.8871 88.2907C53.8103 88.2493 53.7428 88.1923 53.6889 88.1233C53.5279 87.9469 53.4095 87.7352 53.3433 87.5049C53.2417 87.1605 53.2473 86.7929 53.3594 86.4518C53.4241 86.2411 53.53 86.0458 53.6709 85.8772C53.8118 85.7087 53.9849 85.5705 54.1798 85.4707C54.376 85.3726 54.59 85.3158 54.8086 85.3038C55.0273 85.2918 55.2461 85.3249 55.4518 85.401C55.7872 85.5313 56.0608 85.7857 56.2168 86.1124C56.3264 86.3275 56.3773 86.5682 56.3643 86.8098C56.3616 86.8741 56.3524 86.938 56.3366 87.0004C56.332 87.0399 56.3251 87.0632 56.3205 87.0609Z" fill="#263238"/>
<path d="M62.9591 39.4377C62.3225 39.4184 61.6855 39.4479 61.0534 39.526C59.1354 39.775 57.3739 40.7229 56.1006 42.1912C54.8273 43.6595 54.1301 45.5468 54.1403 47.4977C54.1335 48.7812 54.2986 50.0598 54.6312 51.2987C55.7395 55.2648 56.0806 58.759 55.9539 60.463L59.6638 62.474C59.6638 62.474 61.3806 59.9841 63.0397 58.9101C64.6988 57.836 70.22 54.9579 72.4069 52.0171C73.8148 50.1154 74.0867 46.2051 70.727 42.797C68.66 40.7144 65.8794 39.5119 62.9591 39.4377Z" fill="#009344"/>
<path d="M54.1796 64.7917L57.5301 66.619L55.3479 69.4157L53.115 68.3905L54.1796 64.7917Z" fill="#455A64"/>
<path d="M54.3432 64.9057C54.3132 64.894 54.6451 63.8897 55.0852 62.6646C55.5253 61.4394 55.9055 60.4514 55.9355 60.463C55.9654 60.4746 55.6336 61.4766 55.1935 62.7041C54.7534 63.9316 54.3731 64.915 54.3432 64.9057Z" fill="#263238"/>
<path d="M57.3204 66.4866C57.2927 66.4703 57.8181 65.5218 58.491 64.3687C59.1638 63.2156 59.733 62.3019 59.763 62.3019C59.7929 62.3019 59.2652 63.2667 58.5901 64.4198C57.9149 65.5729 57.3457 66.4982 57.3204 66.4866Z" fill="#263238"/>
<g opacity="0.4">
<path opacity="0.4" d="M64.0653 39.5446C63.9155 39.5446 62.072 41.7299 61.2563 43.2038C58.5118 48.1626 58.3874 52.9865 57.627 58.6125C57.5187 59.4169 57.1223 61.1488 57.1292 61.1093C57.5348 61.4301 58.899 62.0695 58.899 62.0695C58.899 62.0695 60.1871 60.5026 60.6987 59.7145C62.7449 56.5597 64.9686 54.0978 66.7222 50.7664C68.4758 47.4349 70.1626 44.4894 68.5403 41.0813C68.5403 41.0813 65.7244 39.4493 64.0653 39.5446Z" fill="black"/>
</g>
<path d="M72.407 52.5146C72.3876 52.4806 72.3714 52.4448 72.3586 52.4076C72.3286 52.3379 72.2918 52.2286 72.2296 52.0938C72.0559 51.7036 71.8387 51.3347 71.582 50.9942C71.1881 50.4685 70.7071 50.0155 70.1603 49.6551C69.4594 49.1865 68.6604 48.8881 67.826 48.7833H67.7983L67.7845 48.7647C67.3366 48.1441 66.8362 47.5638 66.289 47.0304C65.6899 46.4472 64.9992 45.968 64.245 45.6123C63.4871 45.2663 62.6586 45.107 61.8278 45.1473C61.0707 45.1772 60.3378 45.4239 59.7147 45.8587L59.6801 45.882L59.6502 45.8541C59.0167 45.2934 58.229 44.9406 57.3919 44.8428C56.7417 44.7681 56.0833 44.8527 55.4724 45.0892C55.0768 45.2419 54.7056 45.4526 54.3709 45.7146C54.2557 45.8076 54.1681 45.882 54.1128 45.9331C54.0854 45.9609 54.0553 45.9858 54.0229 46.0075C54.0474 45.9773 54.0736 45.9486 54.1013 45.9215C54.1543 45.8657 54.2373 45.7866 54.3502 45.689C54.6804 45.4121 55.0522 45.19 55.4516 45.0311C56.0704 44.7807 56.7404 44.6866 57.4034 44.7568C58.2607 44.85 59.069 45.2062 59.7193 45.7773H59.6548C60.2931 45.3281 61.0455 45.0724 61.8231 45.0404C62.6706 44.9966 63.5164 45.1559 64.2911 45.5053C65.0572 45.8669 65.7581 46.3548 66.365 46.949C66.9168 47.4877 67.4196 48.0751 67.8674 48.7043L67.8329 48.6833C68.6817 48.7925 69.4931 49.1015 70.2017 49.5854C70.7528 49.9561 71.2356 50.421 71.6281 50.9593C71.8818 51.3071 72.0923 51.685 72.2549 52.0845C72.3148 52.2217 72.3448 52.3333 72.3701 52.4053C72.3847 52.4409 72.397 52.4774 72.407 52.5146Z" fill="#263238"/>
<path d="M65.5077 57.4548C65.4508 57.1669 65.3422 56.892 65.1874 56.6434C65.0061 56.359 64.7625 56.1204 64.4754 55.946C64.1082 55.7167 63.6772 55.6139 63.2472 55.6531H63.2011V55.6066C63.1111 55.05 62.8816 54.5259 62.5343 54.0841C62.1871 53.6422 61.7336 53.2972 61.217 53.0818C60.7592 52.9012 60.2672 52.8258 59.7768 52.861C59.3263 52.894 58.8876 53.0215 58.4887 53.2353L58.4541 53.2539L58.4265 53.2237C58.0815 52.8589 57.6303 52.6146 57.1384 52.5262C56.7564 52.4514 56.3626 52.4641 55.9862 52.5634C55.6522 52.6573 55.3393 52.8152 55.0645 53.0284C55.0645 53.0284 55.0783 53.0075 55.1128 52.9772C55.1474 52.947 55.1981 52.8982 55.2695 52.8447C55.4799 52.6945 55.7135 52.5806 55.9608 52.5076C56.3465 52.3955 56.7527 52.3748 57.1476 52.4472C57.6622 52.5329 58.1354 52.785 58.4956 53.1655L58.4334 53.1539C58.8431 52.9343 59.2935 52.8029 59.7561 52.768C60.2633 52.7321 60.772 52.8116 61.2447 53.0005C61.8133 53.2322 62.306 53.6205 62.6665 54.121C62.9907 54.5607 63.2028 55.074 63.284 55.6159L63.231 55.574C63.6808 55.5385 64.1298 55.652 64.51 55.8972C64.8017 56.0809 65.0477 56.3299 65.2289 56.6248C65.3444 56.8138 65.427 57.0214 65.4732 57.2386C65.4848 57.2954 65.4933 57.3528 65.4985 57.4106C65.5028 57.425 65.5059 57.4398 65.5077 57.4548Z" fill="#263238"/>
<path d="M56.8827 67.5002C56.8827 67.5002 56.8458 67.4537 56.7606 67.4165C56.6321 67.3772 56.4943 67.3821 56.3688 67.4304C56.2724 67.461 56.1725 67.4789 56.0716 67.4839C56.0093 67.4834 55.9478 67.4701 55.8908 67.4449C55.8338 67.4197 55.7824 67.3832 55.7397 67.3374C55.5623 67.1491 55.4955 66.8725 55.3273 66.6935C55.2889 66.6494 55.2413 66.6146 55.1878 66.5917C55.1344 66.5688 55.0765 66.5583 55.0185 66.5609C54.8998 66.574 54.7825 66.5981 54.6682 66.633C54.5543 66.6658 54.4346 66.6721 54.318 66.6516C54.1954 66.621 54.0838 66.5561 53.9962 66.4644C53.9085 66.3727 53.8483 66.2579 53.8225 66.1332C53.8069 66.0817 53.8069 66.0266 53.8225 65.9751C53.8225 65.9751 53.8225 66.0309 53.8617 66.1239C53.905 66.2523 53.9852 66.3648 54.0921 66.447C54.1623 66.5035 54.2456 66.5411 54.3341 66.5563C54.437 66.5703 54.5418 66.5608 54.6406 66.5284C54.7612 66.4893 54.8855 66.4628 55.0116 66.4494C55.0857 66.445 55.1598 66.4576 55.2285 66.4862C55.2971 66.5147 55.3584 66.5586 55.4079 66.6144C55.6038 66.8469 55.6637 67.1026 55.8135 67.263C55.8797 67.3376 55.9725 67.3828 56.0716 67.3886C56.1643 67.3875 56.2565 67.3742 56.3458 67.3491C56.4879 67.3044 56.6414 67.3144 56.7767 67.3769C56.8735 67.4327 56.8873 67.5002 56.8827 67.5002Z" fill="#263238"/>
<path d="M57.2674 66.9515C56.7061 66.7159 56.1603 66.4442 55.6336 66.1378C55.0879 65.8653 54.5593 65.5594 54.0505 65.2219C54.612 65.4588 55.1584 65.7306 55.6866 66.0355C56.2314 66.3084 56.7593 66.6143 57.2674 66.9515Z" fill="#263238"/>
<path d="M56.6014 67.8093C56.6014 67.8093 56.5553 67.8326 56.4747 67.8698C56.4332 67.8884 56.3871 67.9163 56.3226 67.9442C56.2487 67.9702 56.1702 67.9805 56.0922 67.9744C55.8898 67.9631 55.6962 67.8874 55.5391 67.7582C55.4473 67.6795 55.3754 67.5799 55.3294 67.4676C55.2918 67.3577 55.2366 67.2548 55.1658 67.163C55.0827 67.0924 54.9858 67.0402 54.8814 67.0098C54.777 66.9794 54.6674 66.9714 54.5598 66.9863C54.3637 67.0095 54.165 66.9905 53.9768 66.9306C53.8478 66.8809 53.7423 66.7837 53.6818 66.6586C53.6449 66.5679 53.6588 66.5098 53.6634 66.5121C53.668 66.5144 53.6772 66.5632 53.7233 66.6376C53.79 66.7407 53.8902 66.8172 54.0067 66.8538C54.186 66.8993 54.3725 66.908 54.5552 66.8794C54.6782 66.8612 54.8037 66.87 54.923 66.9053C55.0423 66.9406 55.1527 67.0016 55.2465 67.084C55.3244 67.1856 55.3852 67.2995 55.4262 67.4211C55.4651 67.5196 55.5258 67.6078 55.6036 67.6791C55.7431 67.7971 55.9137 67.8714 56.0945 67.893C56.2179 67.9042 56.3421 67.8817 56.4539 67.8279C56.5484 67.8023 56.6014 67.8023 56.6014 67.8093Z" fill="#263238"/>
<path d="M31.3021 46.0982L37.0975 45.231L34.3323 41.2789L32.8483 41.3672C32.3579 41.3957 31.885 41.5612 31.4825 41.8453C31.0801 42.1295 30.7639 42.5209 30.5693 42.976C30.3589 43.4695 30.3003 44.0154 30.4011 44.5429L31.3021 46.0982Z" fill="#009344"/>
<path opacity="0.4" d="M31.3021 46.0982L37.0975 45.231L34.3323 41.2789L32.8483 41.3672C32.3579 41.3957 31.885 41.5612 31.4825 41.8453C31.0801 42.1295 30.7639 42.5209 30.5693 42.976C30.3589 43.4695 30.3003 44.0154 30.4011 44.5429L31.3021 46.0982Z" fill="black"/>
<path d="M56.1937 52.575C56.2536 52.7424 56.3181 52.94 56.3849 53.1771C56.4401 53.3814 56.4611 53.5936 56.4471 53.8048C56.438 54.0669 56.3938 54.3265 56.3158 54.5767C56.2213 54.8091 56.4425 55.023 56.6292 54.9114C56.8158 54.7998 57.09 54.1954 57.09 53.4189C57.09 52.6424 57.8597 53.5724 58.1523 53.9071C58.445 54.2419 59.399 55.2346 59.5718 55.2253C59.8253 55.2113 59.8576 54.9347 59.558 54.6069C59.2584 54.2791 58.4266 53.2353 58.6086 53.0865C58.7906 52.9377 60.2562 54.665 60.2562 54.665C60.2562 54.665 60.5097 55.0858 60.7171 54.9231C61.1088 54.6278 59.4151 52.9098 59.2492 52.7517C59.1363 52.6401 59.3276 52.4727 59.4451 52.5983C59.5626 52.7238 60.8692 54.3535 61.2701 54.0559C61.5766 53.8234 59.8875 52.6308 59.8046 52.1426C59.7216 51.6544 60.9936 53.1818 61.277 52.954C61.3853 52.8679 61.4522 52.7889 60.5857 52.024C60.171 51.6474 58.5902 50.5315 58.5902 50.5315L53.834 36.7944L50.1609 38.9169L56.1937 52.575Z" fill="#FFBE9D"/>
<path d="M27.8802 26.5932L22.5664 20.1954C22.4993 19.9747 22.4122 19.7606 22.306 19.5561C22.1827 19.3009 22.0073 19.0749 21.7912 18.893C21.5752 18.711 21.3234 18.5773 21.0524 18.5007C20.716 18.4263 20.3288 18.4635 20.0638 18.2403C19.9463 18.1403 19.868 18.0078 19.7435 17.9055C19.6191 17.8032 19.414 17.7939 19.3334 17.9264C19.3127 17.9781 19.304 18.0339 19.308 18.0896C19.312 18.1452 19.3285 18.1991 19.3564 18.2473C19.556 18.7206 19.8735 19.1339 20.2781 19.4469C19.7804 19.6003 19.0684 19.8328 19.0684 19.8328C19.0684 19.8328 17.9462 18.603 17.3701 18.6053C16.794 18.6076 17.8309 19.7049 17.8309 19.7049C17.8309 19.7049 16.9092 18.8447 16.6235 19.0865C16.3377 19.3283 17.0705 19.9676 17.0705 19.9676C16.8504 19.8166 16.5874 19.7424 16.3216 19.7561C16.0612 19.8002 15.8377 20.1094 15.9782 20.3349C16.0382 20.4162 16.1174 20.4809 16.2087 20.5232L17.6235 21.3183C17.8499 21.4706 18.109 21.5662 18.3794 21.5973C19.0983 21.6205 19.6445 21.1719 20.3611 21.1904C20.3611 21.1904 24.3684 29.7015 24.7739 30.1409C25.1795 30.5803 33.9913 31.1777 33.9913 31.1777L39.0862 26.749L27.8802 26.5932Z" fill="#FFBE9D"/>
<path d="M43.8448 72.9564L49.2715 75.3393L46.368 82.1672C45.7366 81.8487 45.944 77.7501 45.944 77.7501L42.4045 76.3669L43.8448 72.9564Z" fill="#009344"/>
<g opacity="0.6">
<path opacity="0.6" d="M46.5455 75.5161C46.5932 75.4586 46.6603 75.4208 46.7338 75.4101C46.8074 75.3994 46.8823 75.4164 46.9442 75.4579C47.0022 75.5043 47.0405 75.5713 47.0512 75.6452C47.0619 75.7191 47.0442 75.7943 47.0018 75.8555C46.9514 75.9158 46.8807 75.9552 46.8032 75.966C46.7257 75.9767 46.647 75.958 46.5824 75.9136C46.526 75.8593 46.4927 75.7851 46.4897 75.7065C46.4867 75.6279 46.5142 75.5513 46.5663 75.4928" fill="white"/>
</g>
<path opacity="0.6" d="M49.2716 75.3393L48.7139 75.1208L46.1377 81.7487C46.1377 81.7487 46.1377 82.1114 46.3681 82.1672L49.2716 75.3393Z" fill="white"/>
<path d="M45.8587 77.8501C45.8933 77.8617 45.9785 77.7013 46.156 77.5851C46.3334 77.4688 46.5062 77.4386 46.5062 77.4038C46.5062 77.3689 46.2942 77.334 46.0845 77.4805C45.8748 77.6269 45.8265 77.8432 45.8587 77.8501Z" fill="#263238"/>
<path d="M45.8473 78.6917C45.8773 78.7149 45.9948 78.594 46.1838 78.5406C46.3727 78.4871 46.5317 78.5196 46.5456 78.4871C46.5594 78.4545 46.3796 78.3499 46.1469 78.4197C45.9142 78.4894 45.8174 78.6777 45.8473 78.6917Z" fill="#263238"/>
<path d="M46.5247 79.4682C46.5455 79.4403 46.398 79.3217 46.1814 79.3287C45.9648 79.3356 45.8265 79.4612 45.8473 79.4868C45.868 79.5123 46.0063 79.4589 46.186 79.4565C46.3657 79.4542 46.5063 79.5054 46.5247 79.4682Z" fill="#263238"/>
<path d="M45.0869 77.4433C45.1237 77.4433 45.1422 77.2689 45.2367 77.0876C45.3311 76.9062 45.451 76.783 45.4302 76.7528C45.4095 76.7226 45.2297 76.8132 45.1237 77.0294C45.0178 77.2456 45.0546 77.4479 45.0869 77.4433Z" fill="#263238"/>
<path d="M44.3542 76.9318C44.368 76.9318 44.444 76.8155 44.497 76.59C44.5287 76.4576 44.5434 76.3217 44.5408 76.1855C44.5397 76.1077 44.5336 76.0301 44.5224 75.9531C44.5173 75.9057 44.5049 75.8594 44.4855 75.8159C44.4716 75.784 44.4474 75.7577 44.4169 75.7412C44.3864 75.7248 44.3513 75.7191 44.3173 75.7252C44.287 75.7312 44.2587 75.7445 44.2346 75.7639C44.2105 75.7833 44.1914 75.8083 44.179 75.8368C44.1604 75.8806 44.148 75.9267 44.1422 75.974C44.1052 76.1912 44.1234 76.4144 44.1952 76.6226C44.2712 76.8434 44.3726 76.9504 44.3841 76.9411C44.3956 76.9318 44.3311 76.8086 44.2781 76.597C44.2496 76.4728 44.2364 76.3455 44.2389 76.2181C44.2407 76.1401 44.2484 76.0624 44.262 75.9856C44.2735 75.9066 44.2989 75.8438 44.3403 75.8391C44.3818 75.8345 44.3588 75.8391 44.3749 75.8624C44.3872 75.8954 44.3957 75.9297 44.4002 75.9647C44.4134 76.0416 44.4218 76.1192 44.4256 76.1972C44.4325 76.3252 44.4271 76.4537 44.4095 76.5807C44.3832 76.6964 44.3647 76.8136 44.3542 76.9318Z" fill="#263238"/>
<path d="M44.4185 76.9109C44.4185 76.9109 44.3402 76.783 44.1305 76.6784C44.0075 76.6177 43.8749 76.5791 43.7387 76.5645C43.6621 76.556 43.5849 76.556 43.5083 76.5645C43.4556 76.5639 43.4037 76.5768 43.3574 76.602C43.311 76.6273 43.2718 76.6639 43.2433 76.7086C43.2314 76.7394 43.2284 76.773 43.2345 76.8054C43.2406 76.8379 43.2556 76.868 43.2779 76.8923C43.3106 76.9266 43.3478 76.9563 43.3885 76.9806C43.4598 77.0256 43.5375 77.0593 43.6189 77.0806C43.7536 77.1142 43.8944 77.1142 44.0291 77.0806C44.2595 77.0225 44.3609 76.9016 44.3517 76.8946C44.2407 76.9336 44.1276 76.9662 44.0129 76.9922C43.891 77.0099 43.7667 77.0003 43.6489 76.9643C43.5804 76.9425 43.5153 76.9112 43.4553 76.8713C43.3885 76.8295 43.3424 76.7784 43.3608 76.7551C43.3807 76.7317 43.4055 76.7131 43.4334 76.7007C43.4613 76.6882 43.4916 76.6822 43.5221 76.683C43.5987 76.6755 43.6759 76.6755 43.7525 76.683C43.8778 76.6918 44.0011 76.7184 44.1189 76.7621C44.2941 76.8365 44.407 76.9271 44.4185 76.9109Z" fill="#263238"/>
<path d="M39.6646 82.3346L41.909 87.0795L42.6118 91.3618C42.6237 91.4346 42.6504 91.5042 42.6901 91.5662C42.7299 91.6281 42.7819 91.6812 42.8428 91.722C42.9038 91.7628 42.9725 91.7904 43.0445 91.8033C43.1166 91.8161 43.1905 91.8138 43.2616 91.7965C43.3445 91.7772 43.4216 91.7379 43.4862 91.682C43.5508 91.6262 43.601 91.5554 43.6326 91.4757C44.0451 90.4458 45.5452 86.6448 45.3609 86.3077C45.1489 85.9171 43.3215 81.1443 43.3215 81.1443L39.6646 82.3346Z" fill="#009344"/>
<path opacity="0.6" d="M43.2617 91.7849L45.2158 85.9729L45.308 86.1752C45.3862 86.3506 45.4001 86.5483 45.3471 86.7331C45.2043 87.2283 44.7826 88.5929 43.6465 91.4571C43.6144 91.5396 43.5624 91.6128 43.4952 91.67C43.428 91.7273 43.3478 91.7667 43.2617 91.7849Z" fill="white"/>
<g opacity="0.6">
<path opacity="0.6" d="M43.5521 84.8687C43.5128 84.9382 43.5004 85.0199 43.5175 85.0981C43.5345 85.1763 43.5797 85.2453 43.6442 85.2918C43.7121 85.3341 43.7934 85.3485 43.8714 85.332C43.9495 85.3156 44.0183 85.2696 44.0636 85.2034C44.1041 85.1291 44.1162 85.0423 44.0975 84.9596C44.0788 84.8769 44.0307 84.804 43.9623 84.7547C43.8872 84.718 43.8009 84.7123 43.7217 84.7388C43.6425 84.7653 43.5767 84.8219 43.5383 84.8965" fill="white"/>
</g>
<path d="M43.4136 89.1974C43.2392 89.0841 43.0378 89.0205 42.8305 89.0131C42.6233 89.0058 42.4179 89.055 42.2361 89.1555C42.2361 89.1555 42.2707 89.0811 42.3743 89.0161C42.5131 88.9317 42.6734 88.8905 42.8352 88.8975C42.9961 88.9024 43.1521 88.9541 43.2846 89.0463C43.3859 89.1207 43.4228 89.1881 43.4136 89.1974Z" fill="#263238"/>
<path d="M43.3721 89.9925C43.2021 89.9767 43.0312 89.9721 42.8606 89.9785C42.6942 90.0185 42.5304 90.0682 42.3697 90.1273C42.3444 90.1087 42.5287 89.8948 42.8444 89.8623C42.9363 89.8397 43.0322 89.8398 43.124 89.8624C43.2159 89.8851 43.301 89.9297 43.3721 89.9925Z" fill="#263238"/>
<path d="M43.6763 88.0885C43.416 88.0427 43.1525 88.0171 42.8882 88.0117C42.6249 88.0416 42.3645 88.0929 42.1094 88.1652C42.336 88.0026 42.604 87.9089 42.8817 87.8953C43.1594 87.8817 43.4352 87.9488 43.6763 88.0885Z" fill="#263238"/>
<path d="M43.1141 86.589C43.1141 86.6239 42.803 86.6309 42.4551 86.775C42.1071 86.9191 41.8744 87.1214 41.8513 87.0958C41.9831 86.8905 42.1821 86.7384 42.4136 86.6657C42.6308 86.5575 42.8789 86.5303 43.1141 86.589Z" fill="#263238"/>
<path d="M42.4898 85.1778C42.2525 85.2051 42.02 85.2645 41.7985 85.3545C41.593 85.4756 41.4053 85.625 41.2408 85.7986C41.2293 85.7986 41.2523 85.7079 41.3353 85.5963C41.4437 85.4486 41.586 85.3298 41.7501 85.2499C41.9124 85.168 42.0917 85.1266 42.2732 85.129C42.4114 85.1337 42.4921 85.1662 42.4898 85.1778Z" fill="#263238"/>
<path d="M41.6877 85.0848C41.6478 85.0311 41.6181 84.9705 41.6001 84.9058C41.5433 84.7321 41.5206 84.5489 41.5333 84.3665C41.5306 84.2321 41.5719 84.1005 41.6508 83.9922C41.6793 83.9606 41.7163 83.9383 41.7573 83.928C41.7983 83.9176 41.8415 83.9197 41.8813 83.9341C41.9589 83.9723 42.0202 84.0375 42.0541 84.1177C42.1148 84.2839 42.1162 84.4662 42.0582 84.6333C42.0001 84.8005 41.8863 84.942 41.7361 85.0337C41.5858 85.121 41.4132 85.1613 41.2401 85.1498C41.067 85.1382 40.9012 85.0751 40.7637 84.9686C40.7286 84.9408 40.7002 84.9056 40.6802 84.8654C40.6603 84.8252 40.6495 84.781 40.6484 84.7361C40.6508 84.6916 40.667 84.6491 40.6947 84.6144C40.7224 84.5798 40.7602 84.5548 40.8028 84.5432C40.9317 84.5169 41.0651 84.5249 41.19 84.5664C41.3663 84.6129 41.5327 84.6917 41.6808 84.7989C41.7845 84.8709 41.8306 84.9244 41.826 84.9314C41.6234 84.8048 41.4027 84.7107 41.1715 84.6524C41.0614 84.6196 40.9448 84.6155 40.8328 84.6408C40.8094 84.6467 40.7884 84.6601 40.7731 84.6789C40.7577 84.6978 40.7488 84.7211 40.7475 84.7454C40.7516 84.7739 40.7613 84.8013 40.7759 84.8261C40.7905 84.8508 40.8099 84.8724 40.8328 84.8895C40.9539 84.9784 41.0978 85.0302 41.2474 85.0389C41.3969 85.0476 41.5458 85.0127 41.6762 84.9384C41.8068 84.8617 41.9071 84.7418 41.96 84.5989C42.0129 84.4561 42.0152 84.2992 41.9665 84.1549C41.9458 84.0978 41.9047 84.0506 41.8513 84.0224C41.8293 84.0123 41.8047 84.0095 41.7811 84.0145C41.7574 84.0195 41.736 84.0321 41.72 84.0503C41.6524 84.1417 41.6153 84.2524 41.614 84.3665C41.5965 84.6084 41.6214 84.8516 41.6877 85.0848Z" fill="#263238"/>
<path d="M47.2274 73.5353L41.0725 69.3507L43.1095 49.1739L37.2795 45.7402L31.9496 44.4941C31.9496 44.4941 29.7236 49.1669 28.7235 52.1659C26.6197 58.5288 25.1403 60.8094 25.479 65.4172C25.585 66.8771 30.9265 70.5317 34.3 72.5566C34.3379 72.9618 34.3979 73.3646 34.4798 73.7631C35.6319 79.0218 39.153 86.0148 39.153 86.0148L44.4991 83.5063L42.7754 77.5432L44.5705 78.601L47.2274 73.5353ZM33.9982 60.5165L34.7171 57.2827C34.565 59.3402 34.4268 61.4859 34.3277 63.5434C33.9802 62.5778 33.8672 61.5422 33.9982 60.5235V60.5165Z" fill="#263238"/>
<path d="M39.1621 86.0147C39.1457 85.9874 39.1318 85.9586 39.1206 85.9287L39.0077 85.6753L38.5952 84.6919C38.2404 83.8341 37.7311 82.5996 37.1205 81.0537C36.5098 79.5077 35.7862 77.6757 35.0466 75.6067C34.8645 75.0883 34.6871 74.5559 34.5189 74.0049C34.4451 73.7259 34.3506 73.4516 34.3023 73.1564C34.2884 73.0843 34.2723 73.0099 34.2608 72.9378L34.2354 72.717L34.187 72.2753C34.1225 71.6801 34.071 71.0741 34.0326 70.4573C34.0142 70.1504 33.9981 69.8389 33.9843 69.5274C33.9704 69.2158 33.9612 68.8973 33.9843 68.5788C34.0764 66.0448 34.2861 63.641 34.4613 61.4534C34.6364 59.2657 34.8046 57.299 34.9429 55.6414C35.0811 53.9838 35.1733 52.6494 35.2194 51.7218C35.2493 51.2569 35.2655 50.8988 35.2747 50.6571C35.2747 50.5385 35.2747 50.4455 35.2908 50.3781C35.2867 50.3472 35.2867 50.316 35.2908 50.2851C35.2934 50.316 35.2934 50.3471 35.2908 50.3781C35.2908 50.4478 35.2908 50.5385 35.2908 50.6571C35.2908 50.9012 35.2793 51.2615 35.2586 51.7241C35.2194 52.6541 35.1387 53.9931 35.0166 55.6484C34.8945 57.3036 34.7309 59.2727 34.5557 61.4603C34.3806 63.648 34.1801 66.0518 34.0949 68.5788C34.0764 68.895 34.0949 69.2065 34.0949 69.5204C34.0949 69.8342 34.1225 70.1411 34.1433 70.4503C34.1801 71.0702 34.23 71.6739 34.293 72.2613L34.3414 72.7053L34.3668 72.9239C34.3783 72.9959 34.3944 73.0657 34.4083 73.1377C34.4543 73.4214 34.5465 73.698 34.6203 73.9747C34.7839 74.521 34.9613 75.0534 35.141 75.5718C35.8646 77.6385 36.5812 79.4774 37.1804 81.0234C37.7795 82.5694 38.2795 83.8132 38.6229 84.6733C38.7911 85.1011 38.9248 85.4336 39.0169 85.666C39.0584 85.7753 39.093 85.8613 39.116 85.9241C39.1391 85.9868 39.1621 86.0147 39.1621 86.0147Z" fill="#455A64"/>
<path d="M35.0465 49.6016C35.0465 49.6016 34.9935 49.5691 34.9083 49.4877C34.7982 49.3627 34.7101 49.2196 34.6479 49.0646C34.4655 48.5518 34.3765 48.0099 34.3852 47.4651C34.3781 46.9216 34.4035 46.3782 34.4612 45.8378C34.472 45.6146 34.5029 45.3928 34.5534 45.1752C34.5723 45.398 34.5723 45.622 34.5534 45.8448C34.5327 46.2563 34.5004 46.8258 34.5096 47.4535C34.506 47.987 34.5837 48.5178 34.74 49.0274C34.7942 49.1768 34.8679 49.3183 34.959 49.4482C35.0143 49.5435 35.0534 49.597 35.0465 49.6016Z" fill="#455A64"/>
<path d="M32.747 44.801C32.8011 44.9832 32.8168 45.1748 32.7931 45.3636C32.7624 45.8264 32.6098 46.2726 32.3509 46.656C32.092 47.0394 31.7363 47.346 31.3206 47.5442C31.1548 47.6354 30.9719 47.6909 30.7837 47.7069C30.7837 47.6883 30.9842 47.6326 31.2837 47.4745C31.6736 47.2652 32.0073 46.9635 32.2562 46.5955C32.505 46.2274 32.6616 45.8038 32.7124 45.3612C32.7516 45.0172 32.7263 44.801 32.747 44.801Z" fill="#455A64"/>
<path d="M42.31 56.5318C42.31 56.5318 42.31 56.5527 42.31 56.5922C42.31 56.6318 42.31 56.6992 42.2961 56.7713C42.2777 56.9386 42.2547 57.1711 42.227 57.4687C42.1602 58.0755 42.068 58.938 41.9528 59.9981C41.7224 62.1438 41.3813 65.0893 41.0172 68.3464C40.8874 69.8796 40.9892 71.4238 41.3191 72.9262C41.4635 73.5806 41.649 74.2251 41.8744 74.8558C42.0818 75.4509 42.2731 76.0065 42.4505 76.5157C42.7985 77.5246 43.0796 78.3453 43.2778 78.9218C43.37 79.2008 43.4437 79.4193 43.5082 79.5774L43.5635 79.7494C43.5712 79.7679 43.5759 79.7876 43.5774 79.8076C43.5774 79.8076 43.5774 79.7913 43.552 79.7518C43.5267 79.7122 43.5128 79.6541 43.4875 79.5844C43.4276 79.4286 43.3492 79.2124 43.2571 78.9358L42.3952 76.5436C42.2155 76.0368 42.0173 75.4811 41.8053 74.8883C41.5744 74.2543 41.3843 73.6059 41.2361 72.9471C40.8968 71.4351 40.7903 69.8794 40.9204 68.3347C41.2799 65.0684 41.6394 62.1252 41.8906 59.9888C42.0219 58.9287 42.121 58.0662 42.2017 57.4617C42.2385 57.1688 42.2685 56.941 42.2915 56.7643C42.2915 56.6922 42.31 56.6341 42.3169 56.5876C42.312 56.5694 42.3096 56.5506 42.31 56.5318Z" fill="#455A64"/>
<path d="M31.9495 44.4593L32.8942 42.0275L35.0465 45.2683L32.1753 44.5429" fill="#FFBE9D"/>
<path d="M54.4906 37.1431L51.9351 31.3614C51.6287 30.4315 51.0549 30.2874 50.5756 29.748L44.1718 26.1051C39.5032 24.1755 36.9615 30.643 36.9615 30.643L32.7192 40.4071C27.7303 42.074 31.2629 45.9401 31.2629 45.9401C31.2629 45.9401 29.9056 43.5596 31.2421 42.7017C32.6386 41.802 34.1871 44.171 35.6757 46.4214C37.4339 49.0763 43.1441 50.8013 43.1441 50.8013C43.8123 50.0899 43.6257 47.6047 44.1488 46.2726C44.3147 45.8495 48.2689 36.6084 48.2689 36.6084L49.8013 40.3537C49.8013 40.3537 51.7646 38.0289 52.7186 37.6616C53.2936 37.4384 53.8865 37.2649 54.4906 37.1431Z" fill="#009344"/>
<path d="M43.1419 41.2534C43.0832 41.307 43.0182 41.3531 42.9483 41.3905C42.7622 41.4995 42.5671 41.592 42.3653 41.6672C41.6941 41.9223 40.969 41.9983 40.2601 41.8879C39.5513 41.7775 38.8826 41.4845 38.3189 41.0372C38.1486 40.9045 37.9905 40.7567 37.8465 40.5955C37.7894 40.5406 37.7411 40.4771 37.7036 40.4072C37.7197 40.3909 37.934 40.6536 38.3673 40.9721C38.9303 41.3911 39.5856 41.6663 40.2771 41.774C40.9685 41.8817 41.6756 41.8187 42.3376 41.5905C42.8492 41.4184 43.1419 41.2348 43.1419 41.2534Z" fill="#263238"/>
<path d="M32.5418 32.0797L36.4938 32.4564L42.8169 25.7145L39.0977 25.5843L32.4773 26.2445C32.8256 28.1719 32.8474 30.145 32.5418 32.0797Z" fill="#009344"/>
<path d="M38.0192 28.5321C38.0096 28.5755 37.9933 28.6171 37.9708 28.6553L37.8118 28.9994C37.669 29.3109 37.4685 29.741 37.2265 30.2617C36.7357 31.3311 36.0744 32.819 35.3831 34.4696C34.6918 36.1202 34.0327 37.615 33.5396 38.6868C33.2976 39.2238 33.0971 39.6539 32.952 39.9515L32.7861 40.2909C32.7684 40.3322 32.746 40.3712 32.7192 40.4071C32.731 40.364 32.7464 40.322 32.7653 40.2816L32.9128 39.9329L33.4658 38.6542C33.9267 37.5592 34.5696 36.0691 35.2701 34.4231C35.9707 32.7772 36.6527 31.2893 37.1528 30.2269C37.4086 29.6968 37.6137 29.2714 37.7727 28.9785L37.9501 28.6437C37.9691 28.6041 37.9923 28.5667 38.0192 28.5321Z" fill="#263238"/>
<path d="M50.0824 30.4919C50.0939 30.5129 49.852 30.6407 49.5132 30.929C49.319 31.097 49.1407 31.283 48.9809 31.4846C48.7862 31.7336 48.6179 32.0024 48.4786 32.2867C48.3448 32.5729 48.2399 32.872 48.1652 33.1794C48.1073 33.4321 48.0733 33.6897 48.0638 33.9489C48.0477 34.3906 48.0984 34.6649 48.0753 34.6673C48.051 34.6071 48.0355 34.5436 48.0292 34.479C48.0119 34.4025 48.0011 34.3248 47.997 34.2465C47.9852 34.1446 47.9798 34.0421 47.9808 33.9396C47.9791 33.6739 48.0061 33.4089 48.0615 33.1492C48.1306 32.8285 48.235 32.5166 48.3726 32.2193C48.5169 31.9281 48.6923 31.6537 48.8957 31.4009C49.0641 31.1977 49.2533 31.0131 49.4602 30.85C49.5383 30.7854 49.6206 30.7263 49.7068 30.6733C49.7688 30.6285 49.8343 30.5888 49.9027 30.5547C49.9589 30.5243 50.0196 30.5032 50.0824 30.4919Z" fill="#263238"/>
<path d="M51.1862 21.2322L47.4785 28.2252C47.1863 28.7752 46.6985 29.1931 46.1133 29.395C45.528 29.5968 44.8887 29.5676 44.3239 29.3132C44.0195 29.1743 43.7466 28.974 43.522 28.7246C43.2973 28.4751 43.1257 28.1819 43.0178 27.863C42.9098 27.5441 42.8678 27.2062 42.8942 26.8703C42.9207 26.5343 43.0152 26.2074 43.1717 25.9097L43.81 24.6962C43.81 24.6962 42.197 23.643 42.9528 21.8855C43.6257 20.3186 46.0959 15.8922 46.619 14.9576L49.7437 16.3688C50.1596 16.5876 50.5279 16.8884 50.8266 17.2533C51.1254 17.6181 51.3486 18.0397 51.4831 18.4932C51.6176 18.9466 51.6606 19.4226 51.6096 19.893C51.5586 20.3635 51.4147 20.8189 51.1862 21.2322Z" fill="#FFBE9D"/>
<path d="M43.8101 24.6706C44.6035 25.0465 45.4898 25.1759 46.3564 25.0426C46.3564 25.0426 45.2641 26.0585 43.605 25.1216L43.8101 24.6706Z" fill="#EB996E"/>
<path d="M45.0013 19.0795C44.9712 19.1443 44.9676 19.2185 44.9914 19.2859C45.0151 19.3534 45.0642 19.4087 45.1281 19.4398C45.1584 19.4564 45.1917 19.4668 45.2261 19.4703C45.2604 19.4738 45.2951 19.4703 45.3282 19.4601C45.3612 19.45 45.3919 19.4333 45.4185 19.411C45.445 19.3888 45.4669 19.3614 45.4829 19.3306C45.5124 19.2657 45.5157 19.1917 45.492 19.1245C45.4684 19.0572 45.4196 19.0018 45.3562 18.9702C45.3258 18.9536 45.2925 18.9433 45.2582 18.9398C45.2238 18.9363 45.1891 18.9397 45.1561 18.9499C45.1231 18.9601 45.0924 18.9768 45.0658 18.999C45.0392 19.0213 45.0173 19.0486 45.0013 19.0795Z" fill="#263238"/>
<path d="M45.0152 18.8586C45.0313 18.9051 45.2802 18.8586 45.5475 18.9702C45.8148 19.0818 45.9484 19.312 45.9922 19.2934C46.036 19.2748 46.006 19.212 45.9507 19.112C45.8707 18.9796 45.7525 18.875 45.612 18.8121C45.4732 18.7494 45.3184 18.7323 45.1695 18.7633C45.0612 18.7889 45.0059 18.8284 45.0152 18.8586Z" fill="#263238"/>
<path d="M47.4923 20.3163C47.4622 20.3811 47.4586 20.4552 47.4823 20.5227C47.506 20.5901 47.5552 20.6454 47.619 20.6766C47.6495 20.6931 47.683 20.7033 47.7174 20.7066C47.7519 20.71 47.7866 20.7063 47.8197 20.6959C47.8527 20.6855 47.8834 20.6686 47.9099 20.6461C47.9363 20.6237 47.9581 20.5961 47.9739 20.565C48.0027 20.5004 48.0056 20.427 47.982 20.3603C47.9583 20.2935 47.91 20.2386 47.8472 20.207C47.8169 20.1901 47.7835 20.1795 47.7491 20.1758C47.7147 20.1722 47.6799 20.1755 47.6468 20.1857C47.6137 20.1959 47.5829 20.2127 47.5564 20.2351C47.5298 20.2576 47.5081 20.2852 47.4923 20.3163Z" fill="#263238"/>
<path d="M47.6099 20.0884C47.626 20.1349 47.8749 20.0884 48.1422 20.2C48.4095 20.3116 48.5431 20.5441 48.5869 20.5255C48.6307 20.5069 48.603 20.4441 48.5431 20.3418C48.4644 20.2098 48.3468 20.1058 48.2067 20.0443C48.0683 19.9804 47.9131 19.9633 47.7643 19.9955C47.656 20.021 47.6007 20.0675 47.6099 20.0884Z" fill="#263238"/>
<path d="M45.7594 21.6437C45.6386 21.5374 45.5055 21.4461 45.3631 21.3717C45.2986 21.3322 45.2386 21.2904 45.2479 21.2392C45.2571 21.1881 45.317 21.1207 45.3838 21.0556L45.817 20.6231C46.1996 20.2646 46.5533 19.8759 46.8747 19.4608C46.4623 19.7857 46.077 20.1441 45.7226 20.5325L45.2963 20.9719C45.2169 21.0354 45.1622 21.1251 45.1419 21.2253C45.1415 21.2538 45.1473 21.2821 45.1588 21.3082C45.1704 21.3343 45.1874 21.3576 45.2087 21.3764C45.242 21.4031 45.2783 21.4258 45.317 21.4438C45.4547 21.5307 45.6035 21.5979 45.7594 21.6437Z" fill="#263238"/>
<path d="M46.46 22.1831C46.4185 22.1622 46.2895 22.4528 45.9507 22.5481C45.612 22.6434 45.317 22.4737 45.2963 22.5132C45.2756 22.5527 45.3401 22.5992 45.4691 22.662C45.637 22.7412 45.8273 22.7577 46.006 22.7085C46.1784 22.6624 46.3257 22.5496 46.4162 22.3946C46.4807 22.2784 46.4807 22.1924 46.46 22.1831Z" fill="#263238"/>
<path d="M48.0085 19.0051C48.0085 19.0911 48.2828 19.1748 48.5777 19.3538C48.8727 19.5328 49.0893 19.7328 49.1584 19.6863C49.1907 19.663 49.1769 19.5747 49.1077 19.4538C49.0095 19.3063 48.8795 19.1831 48.7275 19.0933C48.5755 19.0036 48.4053 18.9496 48.2298 18.9354C48.0961 18.9354 48.0108 18.9656 48.0085 19.0051Z" fill="#263238"/>
<path d="M45.4575 18.131C45.4782 18.2147 45.6879 18.2333 45.9184 18.3286C46.1488 18.4239 46.3078 18.5611 46.3792 18.5099C46.4115 18.4867 46.4092 18.4123 46.3516 18.3193C46.2757 18.1986 46.1634 18.1057 46.0313 18.0543C45.9006 17.9973 45.7554 17.9835 45.6165 18.0148C45.5036 18.0334 45.446 18.0845 45.4575 18.131Z" fill="#263238"/>
<path d="M50.0201 22.2807C50.057 22.2807 51.3681 22.462 50.8013 23.6407C50.2344 24.8194 49.1882 24.001 49.1882 23.9662C49.1882 23.9313 50.0201 22.2807 50.0201 22.2807Z" fill="#FFBE9D"/>
<path d="M49.7644 23.6942C49.7644 23.6942 49.7782 23.7174 49.8036 23.7523C49.8427 23.7965 49.8971 23.8239 49.9556 23.829C50.0557 23.8189 50.1513 23.7818 50.2324 23.7217C50.3134 23.6616 50.377 23.5806 50.4165 23.4873C50.468 23.3879 50.4971 23.2784 50.5018 23.1664C50.5083 23.1242 50.5045 23.081 50.4909 23.0405C50.4773 23 50.4541 22.9635 50.4234 22.934C50.4027 22.9166 50.3766 22.907 50.3497 22.907C50.3227 22.907 50.2967 22.9166 50.276 22.934C50.246 22.9595 50.2414 22.9851 50.2345 22.9851C50.2276 22.9851 50.2183 22.9526 50.2506 22.9084C50.2717 22.8824 50.301 22.8643 50.3336 22.8573C50.3775 22.8489 50.4229 22.8581 50.4603 22.8828C50.5033 22.916 50.5373 22.9596 50.559 23.0096C50.5808 23.0596 50.5896 23.1144 50.5847 23.1688C50.5851 23.295 50.5551 23.4195 50.4972 23.5314C50.4528 23.6393 50.3776 23.7314 50.2812 23.796C50.1847 23.8606 50.0714 23.8947 49.9556 23.8941C49.9199 23.8878 49.8859 23.8737 49.8561 23.8528C49.8263 23.8319 49.8013 23.8048 49.7828 23.7732C49.7529 23.7244 49.7598 23.6942 49.7644 23.6942Z" fill="#EB996E"/>
<path d="M50.6977 22.5481C50.5892 22.4927 50.4682 22.4673 50.3468 22.4742C50.2255 22.4811 50.108 22.5203 50.0064 22.5876C49.8543 22.7224 49.7506 22.9084 49.5986 23.0525C49.5285 23.1275 49.4357 23.1769 49.3347 23.1929C49.2338 23.2089 49.1304 23.1906 49.0409 23.1409C48.9885 23.0937 48.9494 23.0333 48.9275 22.966C48.9057 22.8986 48.9019 22.8266 48.9165 22.7573C48.9474 22.6182 49.0045 22.4864 49.0847 22.3691C49.4004 21.8436 49.7622 21.3415 50.0341 20.7905C50.3299 20.2463 50.459 19.6257 50.4051 19.0074C50.3738 18.6999 50.2611 18.4066 50.0786 18.1582C49.8961 17.9099 49.6507 17.7158 49.3681 17.5963C48.9879 17.4614 48.5639 17.5009 48.1745 17.3894C47.944 17.3195 47.7322 17.1979 47.555 17.0336C47.3778 16.8693 47.2398 16.6667 47.1514 16.4408C47.1055 16.3498 47.0547 16.2613 46.9993 16.1758C47.0131 16.1479 47.1514 15.9108 47.2873 15.8643C48.315 15.5133 49.7046 15.9154 50.5549 16.592C50.9889 16.9322 51.3441 17.364 51.5956 17.8571C51.8472 18.3501 51.989 18.8927 52.0112 19.4468C52.0227 20.5394 51.3406 21.7437 50.707 22.5574" fill="#263238"/>
<path d="M50.7092 22.4202C51.0341 21.8623 51.5595 21.4601 51.9605 20.9579C52.3614 20.4558 52.6518 19.7467 52.3522 19.1702C52.2554 18.9726 52.0987 18.8075 52.0181 18.6029C51.9542 18.3905 51.9155 18.1712 51.9028 17.9497C51.8508 17.6111 51.7234 17.2887 51.5303 17.0069C51.3371 16.725 51.0832 16.491 50.7875 16.3223C50.3774 16.0898 49.905 15.9968 49.4879 15.776C48.8312 15.4273 48.3496 14.781 47.6444 14.5043C47.5334 14.4497 47.4121 14.4193 47.2886 14.4153C47.165 14.4113 47.0421 14.4337 46.9278 14.4811C46.8731 14.5079 46.8246 14.5461 46.7855 14.5931C46.7464 14.6401 46.7175 14.6948 46.7008 14.7538C46.684 14.8128 46.6798 14.8747 46.6883 14.9355C46.6969 14.9962 46.718 15.0545 46.7503 15.1065C46.7367 15.0529 46.7116 15.003 46.6769 14.9603C46.6421 14.9175 46.5985 14.883 46.5491 14.8591C46.4997 14.8351 46.4457 14.8224 46.3909 14.8218C46.3361 14.8211 46.2818 14.8326 46.2319 14.8554C46.1338 14.9093 46.0537 14.9912 46.0016 15.0909C45.9496 15.1906 45.9279 15.3036 45.9392 15.4156C45.9663 15.6394 46.0531 15.8516 46.1904 16.0294C46.6177 16.6405 47.2467 17.0781 47.9647 17.2639L49.557 17.1383L50.8613 18.1124L51.8245 19.663L50.0755 21.9553L50.7092 22.4202Z" fill="#263238"/>
<path d="M40.7568 13.2722C40.6921 12.2593 40.3589 11.2824 39.7921 10.4438C39.2253 9.60516 38.4457 8.93548 37.5346 8.50471C36.6236 8.07394 35.6147 7.8979 34.6132 7.99498C33.6117 8.09205 32.6544 8.45868 31.8413 9.05656C31.0283 9.65444 30.3893 10.4616 29.9911 11.3938C29.593 12.326 29.4502 13.3489 29.5779 14.3558C29.7055 15.3626 30.0988 16.3164 30.7166 17.1175C31.3345 17.9186 32.1542 18.5376 33.0903 18.9098C33.134 19.5793 33.1824 20.3372 33.1824 20.3372L38.0953 20.0164C38.0953 20.0164 38.0745 19.2143 38.0377 18.4983C38.9233 17.9636 39.6457 17.1929 40.1255 16.2709C40.6052 15.3489 40.8236 14.3113 40.7568 13.2722Z" fill="#009344"/>
<path d="M36.3163 20.1094C36.3163 20.1094 36.3163 20.0838 36.3163 20.0396C36.3163 19.9954 36.3163 19.9211 36.3163 19.8327C36.3163 19.6537 36.3417 19.3864 36.3693 19.0446C36.397 18.7029 36.4362 18.2821 36.5122 17.8008C36.5963 17.2526 36.7329 16.7138 36.9201 16.1921C37.0302 15.8884 37.1667 15.5951 37.3279 15.3157C37.4157 15.163 37.5401 15.0351 37.6897 14.9437C37.7707 14.8981 37.8613 14.8729 37.9539 14.8701C38.0465 14.8672 38.1385 14.8869 38.222 14.9274C38.3104 14.9704 38.379 15.0462 38.4133 15.139C38.4512 15.2329 38.4512 15.338 38.4133 15.4319C38.331 15.6126 38.1859 15.7565 38.0054 15.8364C37.8152 15.9115 37.6121 15.9479 37.4078 15.9432C37.2036 15.9386 37.0023 15.8931 36.8156 15.8094C36.6289 15.7258 36.4606 15.6055 36.3203 15.4557C36.18 15.3059 36.0706 15.1295 35.9983 14.9367C35.9131 14.7312 35.8868 14.5057 35.9223 14.2858C35.9416 14.1688 36.0007 14.0624 36.0894 13.9847C36.1782 13.907 36.291 13.8631 36.4085 13.8603C36.4693 13.8623 36.5286 13.88 36.5806 13.9118C36.6327 13.9436 36.6758 13.9883 36.7058 14.0417C36.7677 14.1448 36.7914 14.2667 36.7726 14.3857C36.7184 14.6151 36.5933 14.821 36.4154 14.9739C36.246 15.1382 36.0441 15.2646 35.8229 15.3447C35.6017 15.4249 35.3662 15.4569 35.1319 15.4389C34.8971 15.4166 34.6711 15.3373 34.4733 15.2077C34.2754 15.0782 34.1116 14.9022 33.9959 14.6949C33.9364 14.5928 33.8985 14.4793 33.8846 14.3617C33.8707 14.2441 33.8811 14.1248 33.9152 14.0114C33.9319 13.9533 33.961 13.8995 34.0006 13.854C34.0401 13.8084 34.0891 13.7721 34.144 13.7478C34.1989 13.7234 34.2585 13.7114 34.3185 13.7128C34.3785 13.7142 34.4375 13.7288 34.4913 13.7557C34.5974 13.8052 34.6858 13.8864 34.7448 13.9882C34.7998 14.0874 34.8358 14.1963 34.8508 14.309C34.8803 14.5267 34.8654 14.7483 34.807 14.96C34.6987 15.3749 34.4374 15.7325 34.0765 15.9596C33.732 16.1728 33.3236 16.2552 32.9243 16.1921C32.7303 16.1738 32.5475 16.0922 32.4036 15.9596C32.3331 15.8904 32.2882 15.799 32.276 15.7006C32.2639 15.6022 32.2853 15.5025 32.3367 15.4179C32.3965 15.3401 32.4843 15.2891 32.581 15.2761C32.6731 15.2642 32.7667 15.2762 32.8529 15.311C33.0118 15.3893 33.1407 15.5185 33.2193 15.6783C33.3806 15.9759 33.5119 16.2665 33.6456 16.5431C34.1664 17.6544 34.5443 18.5727 34.7978 19.2097C34.9245 19.5282 35.0282 19.7769 35.0835 19.9443C35.1135 20.028 35.1365 20.0931 35.1549 20.1373C35.1634 20.1592 35.1703 20.1817 35.1757 20.2047L35.148 20.1396L35.0697 19.9513L34.7724 19.219C34.5097 18.5866 34.1249 17.6707 33.5995 16.5641C33.4659 16.2897 33.3299 15.9945 33.1709 15.7039C33.0975 15.5558 32.9776 15.4365 32.8299 15.3645C32.7567 15.3187 32.669 15.3029 32.5847 15.3204C32.5004 15.3379 32.426 15.3873 32.3767 15.4585C32.3274 15.5296 32.307 15.6172 32.3198 15.703C32.3325 15.7889 32.3773 15.8666 32.445 15.9201C32.5794 16.0437 32.7502 16.1196 32.9313 16.1363C33.3164 16.1941 33.7093 16.1117 34.0396 15.9038C34.3821 15.6824 34.629 15.3386 34.7309 14.9414C34.7873 14.738 34.8014 14.5251 34.7724 14.316C34.7657 14.2121 34.7327 14.1116 34.6766 14.0241C34.6206 13.9366 34.5433 13.8651 34.4521 13.8162C34.4062 13.7949 34.3563 13.7839 34.3058 13.7839C34.2553 13.7839 34.2054 13.7949 34.1595 13.8162C34.1128 13.8386 34.0715 13.8711 34.0385 13.9112C34.0055 13.9513 33.9815 13.9982 33.9682 14.0486C33.9372 14.1529 33.928 14.2625 33.9411 14.3705C33.9542 14.4786 33.9893 14.5827 34.0443 14.6763C34.1564 14.8714 34.3133 15.0366 34.5017 15.1579C34.6901 15.2793 34.9047 15.3533 35.1273 15.3738C35.3518 15.3905 35.5773 15.3592 35.789 15.2819C36.0006 15.2046 36.1937 15.083 36.3555 14.9251C36.5212 14.7821 36.6381 14.5902 36.6896 14.3764C36.7058 14.2728 36.6854 14.1666 36.632 14.0765C36.6073 14.0332 36.5722 13.9969 36.5299 13.9709C36.4876 13.9449 36.4395 13.9301 36.3901 13.9278C36.2884 13.9284 36.1906 13.9674 36.1159 14.037C36.0408 14.1063 35.9906 14.1986 35.973 14.2997C35.9389 14.507 35.9637 14.7198 36.0444 14.9135C36.1133 15.1 36.2184 15.2707 36.3536 15.4157C36.4887 15.5606 36.6512 15.6769 36.8315 15.7577C37.0118 15.8384 37.2063 15.8821 37.4035 15.886C37.6007 15.8899 37.7967 15.8541 37.9801 15.7806C38.1467 15.7072 38.2811 15.5749 38.358 15.4086C38.391 15.3303 38.3931 15.2422 38.364 15.1623C38.3349 15.0824 38.2767 15.0167 38.2013 14.9786C38.1258 14.9418 38.0426 14.9238 37.9588 14.9263C37.875 14.9287 37.793 14.9514 37.7197 14.9925C37.5802 15.079 37.4638 15.1988 37.3809 15.3412C37.2211 15.617 37.0854 15.9064 36.9754 16.206C36.7861 16.7228 36.6472 17.2569 36.5606 17.8008C36.4799 18.2821 36.4362 18.7005 36.4039 19.0423C36.3716 19.384 36.3555 19.6467 36.3394 19.8304L36.3232 20.035C36.3209 20.0861 36.3163 20.1094 36.3163 20.1094Z" fill="#263238"/>
<path d="M37.775 20.9579L33.5581 21.2346C33.4738 21.2397 33.391 21.211 33.3276 21.1549C33.2641 21.0987 33.2252 21.0196 33.2193 20.9347C33.2143 20.8499 33.2427 20.7666 33.2984 20.703C33.3542 20.6394 33.4326 20.6006 33.5166 20.5952L37.7358 20.3209C37.7773 20.3181 37.8189 20.3235 37.8583 20.337C37.8977 20.3504 37.9341 20.3715 37.9653 20.3992C37.9966 20.4268 38.0221 20.4605 38.0405 20.4981C38.0588 20.5357 38.0696 20.5766 38.0723 20.6185C38.0773 20.7032 38.0489 20.7865 37.9931 20.8502C37.9374 20.9138 37.859 20.9525 37.775 20.9579Z" fill="#263238"/>
<path d="M37.7935 21.2369L33.5742 21.5135C33.4905 21.5191 33.4124 21.558 33.357 21.6216C33.3017 21.6853 33.2737 21.7685 33.2792 21.853C33.2847 21.9374 33.3233 22.0162 33.3864 22.072C33.4495 22.1279 33.532 22.1561 33.6157 22.1505L34.0765 22.1203L34.7679 23.2618C34.8072 23.3255 34.8629 23.3773 34.929 23.4116C34.9951 23.446 35.0692 23.4617 35.1435 23.4571L36.6505 23.3594C36.7251 23.3536 36.7967 23.3276 36.8579 23.2843C36.9192 23.2409 36.9677 23.1818 36.9985 23.113L37.5192 21.8971L37.8349 21.8762C37.9157 21.8664 37.9896 21.8257 38.0416 21.7626C38.0935 21.6994 38.1195 21.6186 38.1142 21.5367C38.1089 21.4549 38.0727 21.3782 38.013 21.3224C37.9534 21.2666 37.8748 21.236 37.7935 21.2369Z" fill="#263238"/>
<g opacity="0.2">
<path opacity="0.2" d="M31.3182 10.2686C31.629 9.93506 31.9927 9.65614 32.3944 9.44327C32.6572 9.29823 32.9398 9.19326 33.2331 9.13175C33.4451 9.09688 33.5673 9.1085 33.5811 9.15267C33.611 9.25496 33.1963 9.43397 32.6593 9.85011C31.9421 10.3766 31.3902 11.1003 31.0695 11.9346C30.7487 12.7689 30.6727 13.6787 30.8504 14.5555C30.9726 15.2413 31.1592 15.6551 31.0809 15.7179C31.0394 15.7434 30.9426 15.669 30.8113 15.4993C30.6308 15.254 30.4893 14.9819 30.3919 14.6926C30.2426 14.2621 30.1647 13.8097 30.1614 13.3536C30.1507 12.786 30.2485 12.2216 30.4495 11.6913" fill="white"/>
</g>
<g opacity="0.2">
<path opacity="0.2" d="M34.9498 9.31077C34.5949 9.32937 34.2746 9.25265 34.2262 9.06435C34.2055 8.97135 34.2654 8.86674 34.3875 8.78072C34.5456 8.68377 34.7248 8.62717 34.9095 8.61583C35.0942 8.60449 35.2789 8.63874 35.4475 8.71563C35.5812 8.7877 35.6503 8.88534 35.6411 8.98065" fill="white"/>
</g>
<path d="M36.9202 23.2177C36.8199 23.2001 36.7206 23.1768 36.6229 23.1479C36.3863 23.0953 36.143 23.0796 35.9017 23.1014C35.6639 23.1273 35.4311 23.1875 35.2104 23.2804C35.0398 23.3548 34.9384 23.4153 34.9338 23.406C35.0083 23.3343 35.0949 23.2768 35.1896 23.2362C35.4137 23.1261 35.6557 23.0575 35.904 23.034C36.1524 23.0098 36.4031 23.0319 36.6437 23.0991C36.7418 23.1225 36.8353 23.1626 36.9202 23.2177Z" fill="#455A64"/>
<path d="M37.5307 21.9111C37.5307 21.9297 36.7702 21.9948 35.8278 22.0575C34.8853 22.1203 34.1249 22.1529 34.1226 22.1319C34.1203 22.111 34.883 22.0482 35.8232 21.9878C36.7633 21.9274 37.5284 21.8925 37.5307 21.9111Z" fill="#455A64"/>
<path d="M37.298 22.4342C37.1626 22.4681 37.0247 22.4906 36.8856 22.5016C36.6298 22.5365 36.2749 22.5737 35.8809 22.6062C35.4868 22.6387 35.132 22.655 34.8739 22.662C34.7351 22.6747 34.5955 22.6747 34.4568 22.662C34.5934 22.634 34.7322 22.6184 34.8716 22.6155L35.8763 22.5388L36.881 22.4551C37.0191 22.4362 37.1587 22.4292 37.298 22.4342Z" fill="#455A64"/>
<path d="M6.91748 50.9105L7.83922 52.3914C7.83922 52.3914 11.7566 48.7624 15.6256 49.7877C15.6187 49.783 12.1345 46.8026 6.91748 50.9105Z" fill="#009344"/>
<path d="M15.6189 49.783C15.6189 49.783 18.4878 46.6399 22.6955 47.3559L23.8477 47.5303L23.4836 46.8631C23.4836 46.8631 16.1581 44.3337 15.6189 49.783Z" fill="#009344"/>
<path d="M9.56286 39.1843C9.56286 39.1843 3.81583 38.187 0.0505371 40.2444L6.04182 51.608C6.04182 51.608 10.9409 46.8445 15.6279 49.7784L9.56286 39.1843Z" fill="#F5F5F5"/>
<path d="M9.56297 39.1843C9.5748 39.199 9.58558 39.2146 9.59523 39.2308L9.68049 39.3749L10.0123 39.9399L11.2567 42.0926L15.6626 49.7644C15.6681 49.7742 15.6702 49.7854 15.6687 49.7965C15.6673 49.8076 15.6622 49.8179 15.6543 49.8259C15.6465 49.8338 15.6363 49.8389 15.6253 49.8404C15.6143 49.8419 15.6031 49.8397 15.5934 49.8342C14.9179 49.4127 14.1698 49.1233 13.3882 48.981C12.9776 48.9139 12.5619 48.8843 12.1461 48.8926C11.7184 48.9116 11.293 48.966 10.8741 49.0554C9.10356 49.4943 7.47005 50.3735 6.12259 51.6126L6.07189 51.6591C6.06672 51.6647 6.06047 51.6691 6.05354 51.6721C6.0466 51.6752 6.03913 51.6767 6.03157 51.6767C6.02401 51.6767 6.01653 51.6752 6.0096 51.6721C6.00266 51.6691 5.99641 51.6647 5.99124 51.6591V51.6475L0.00686631 40.2677C0.00368907 40.2624 0.00164168 40.2565 0.000853701 40.2504C6.5726e-05 40.2443 0.000555263 40.2381 0.0022918 40.2322C0.00402835 40.2262 0.00697326 40.2208 0.0109362 40.2161C0.0148992 40.2114 0.0197923 40.2076 0.0253015 40.2049C1.22623 39.6005 2.52209 39.2111 3.85512 39.0541C4.8716 38.9279 5.89637 38.8828 6.91989 38.9193C7.77019 38.9495 8.43154 39.0169 8.87858 39.0727C9.10902 39.1006 9.27493 39.1262 9.39015 39.1471L9.52149 39.1704H9.56297H9.51919L9.38784 39.1541C9.27262 39.1401 9.1021 39.1169 8.87628 39.0936C8.41541 39.0472 7.76558 38.989 6.91989 38.9681C5.89967 38.9396 4.8788 38.9917 3.86664 39.1239C2.54463 39.2879 1.26065 39.6811 0.0713876 40.2863L0.0898227 40.2235L6.08111 51.5871L5.99124 51.5708L6.04194 51.5243C6.74059 50.8944 7.50922 50.3483 8.33245 49.8969C9.12207 49.4581 9.96924 49.134 10.8488 48.9345C11.2742 48.8427 11.7068 48.7882 12.1415 48.7717C12.5643 48.7619 12.9871 48.7923 13.4043 48.8624C14.1982 49.0098 14.9578 49.3054 15.6441 49.7342L15.5727 49.8039C13.7799 46.6446 12.2729 43.992 11.2152 42.1321L9.98927 39.9608L9.66897 39.3842C9.63441 39.3192 9.60675 39.2703 9.58832 39.2331C9.57874 39.2175 9.57027 39.2012 9.56297 39.1843Z" fill="#263238"/>
<path d="M18.596 36.8525C18.596 36.8525 14.25 34.0628 9.63672 39.1773L15.6925 49.776C15.6925 49.776 16.9277 45.4752 24.1587 46.97L18.596 36.8525Z" fill="#F5F5F5"/>
<path d="M18.596 36.8525C18.6078 36.8659 18.6179 36.8807 18.6259 36.8967L18.7043 37.0339L19.0108 37.5732L20.1629 39.6283L24.2024 46.9584C24.2057 46.964 24.2078 46.9702 24.2086 46.9767C24.2095 46.9832 24.209 46.9897 24.2073 46.996C24.2056 47.0023 24.2026 47.0082 24.1986 47.0133C24.1946 47.0184 24.1897 47.0227 24.184 47.0258C24.1729 47.0301 24.1606 47.0301 24.1494 47.0258L23.0733 46.8468C22.8895 46.8153 22.7041 46.7944 22.518 46.784L21.9511 46.7399C21.7589 46.7216 21.5656 46.7162 21.3727 46.7236L20.7897 46.7259C20.5915 46.7259 20.3957 46.7654 20.1975 46.784C19.9975 46.8006 19.7989 46.8309 19.603 46.8747L19.0108 47.0095L18.4278 47.2164C18.2361 47.2945 18.0484 47.3821 17.8655 47.4791C17.7704 47.5228 17.6795 47.5749 17.5936 47.6349L17.3286 47.8069C17.1535 47.9255 16.9968 48.0696 16.8331 48.2022C16.6788 48.3481 16.5333 48.5034 16.3976 48.6671C16.1187 48.9976 15.9002 49.3754 15.7524 49.783C15.7472 49.7975 15.7365 49.8093 15.7227 49.8158C15.7089 49.8224 15.693 49.8231 15.6787 49.8179C15.6659 49.8133 15.6553 49.8042 15.6487 49.7923L15.4045 49.3669C13.2637 45.6123 11.2566 42.1135 9.59982 39.1913C9.59426 39.1826 9.59131 39.1725 9.59131 39.1622C9.59131 39.1519 9.59426 39.1418 9.59982 39.1332C10.5145 38.0884 11.6301 37.2421 12.8789 36.6456C13.8479 36.1993 14.9102 35.9983 15.9736 36.0598C16.6529 36.1007 17.3212 36.2514 17.9531 36.5062C18.1184 36.5747 18.28 36.6523 18.437 36.7386L18.5568 36.8084L18.5937 36.8363L18.5522 36.8153L18.4301 36.7526C18.3218 36.6991 18.1604 36.6201 17.9438 36.5364C17.1354 36.2259 16.2735 36.0822 15.4091 36.1138C14.5446 36.1453 13.6952 36.3515 12.9112 36.72C11.6765 37.3181 10.5744 38.1618 9.67125 39.2006V39.1448L15.4897 49.3274L15.7432 49.7481L15.6372 49.7621C15.7895 49.3381 16.015 48.9445 16.3031 48.5997C16.4437 48.4315 16.593 48.2709 16.7502 48.1185C16.9207 47.9813 17.0797 47.8325 17.2594 47.714L17.5291 47.5373C17.6173 47.4765 17.7106 47.4236 17.8079 47.3792C18.0014 47.2885 18.1835 47.1792 18.3817 47.1095L18.9739 46.9026L19.5776 46.7654C19.7764 46.7203 19.9782 46.69 20.1814 46.6748C20.3818 46.6562 20.58 46.619 20.7782 46.6167H21.3704C21.5648 46.6073 21.7596 46.612 21.9534 46.6306L22.5249 46.6794C22.7126 46.6885 22.8997 46.7094 23.0848 46.7422L24.1679 46.9258L24.1149 47.0002C22.4627 43.978 21.0824 41.4463 20.1099 39.6632C19.6283 38.7775 19.2481 38.0754 18.9877 37.5918L18.6928 37.0432C18.6628 36.9827 18.6374 36.9362 18.619 36.9014C18.6006 36.8665 18.596 36.8525 18.596 36.8525Z" fill="#263238"/>
<path d="M1.66357 34.7812L8.14569 47.3699C8.14569 47.3699 13.4111 47.1374 15.6417 49.7272L9.6366 39.1843C9.6366 39.1843 6.11556 34.7812 1.66357 34.7812Z" fill="#F5F5F5"/>
<path d="M1.66368 34.7811H1.82959L2.32733 34.8021C2.38264 34.8021 2.44255 34.8021 2.50246 34.8021L2.69372 34.8346L3.12694 34.9067C3.29478 34.9348 3.46037 34.9752 3.62237 35.0276C3.81016 35.073 3.99552 35.1281 4.17772 35.1926C5.72624 35.7134 7.80475 36.9734 9.67127 39.1448L15.6856 49.6807C15.6932 49.694 15.6952 49.7097 15.6913 49.7245C15.6875 49.7393 15.6779 49.752 15.6649 49.7597C15.6551 49.7677 15.6429 49.772 15.6303 49.772C15.6177 49.772 15.6055 49.7677 15.5957 49.7597L15.3423 49.504C14.8599 49.0379 14.2977 48.6637 13.6831 48.3997C13.0875 48.1311 12.4658 47.9254 11.8281 47.786C10.6182 47.5151 9.38031 47.3918 8.14119 47.4187C8.1314 47.4188 8.12176 47.4162 8.11325 47.4113C8.10475 47.4064 8.09769 47.3993 8.0928 47.3908C6.20324 43.6944 4.5902 40.535 3.44494 38.2986C2.88729 37.1943 2.44025 36.3109 2.12455 35.7018C1.97477 35.4065 1.85725 35.1764 1.77659 35.0043L1.68903 34.83L1.66138 34.7719C1.67514 34.7914 1.68673 34.8125 1.69594 34.8346C1.72129 34.8788 1.75125 34.9369 1.79272 35.0136L2.15681 35.7111L3.50716 38.3195L8.18497 47.3443L8.13658 47.3164C9.38397 47.2859 10.6304 47.4077 11.8489 47.6791C12.4933 47.8203 13.1218 48.0275 13.7246 48.2975C14.3517 48.5675 14.9248 48.9503 15.416 49.4273L15.6764 49.6877L15.5842 49.7551C13.3559 45.8378 11.2935 42.2065 9.59292 39.2099C8.75991 38.2289 7.80673 37.3586 6.75628 36.6201C5.95462 36.0487 5.08032 35.5889 4.15698 35.2531C3.9756 35.1871 3.79101 35.1305 3.60394 35.0834C3.44364 35.0293 3.27958 34.9873 3.11311 34.9578L2.6822 34.8788L2.49555 34.8439L2.32503 34.83L1.66368 34.7811Z" fill="#263238"/>
<path d="M21.8959 70.4852L22.0342 70.7177C22.1904 70.9795 22.4174 71.1908 22.6886 71.3268L22.9191 71.4477L22.6886 71.5872C22.43 71.7457 22.2208 71.9745 22.0849 72.2474L21.9651 72.4915L21.8268 72.259C21.6706 71.9973 21.4436 71.7859 21.1724 71.6499L20.9304 71.529L21.1609 71.3896C21.4209 71.2327 21.6305 71.0034 21.7646 70.7293L21.8959 70.4852Z" fill="#009344"/>
<path d="M9.11835 22.5318L9.25891 22.7643C9.41525 23.0254 9.64232 23.2359 9.91335 23.371L10.1438 23.4919L9.91335 23.6337C9.65289 23.7901 9.44312 24.0195 9.30961 24.294L9.18979 24.5265L9.05152 24.294C8.89511 24.0316 8.66712 23.8201 8.39479 23.6849L8.15283 23.564L8.38327 23.4245C8.64225 23.2653 8.8515 23.0357 8.987 22.762L9.11835 22.5318Z" fill="#009344"/>
<path d="M68.2455 30.8057L68.3838 31.0382C68.5402 31.3006 68.7682 31.5121 69.0405 31.6473L69.2825 31.7682L69.052 31.9077C68.7931 32.0662 68.5844 32.2961 68.4506 32.5702L68.3308 32.8027L68.1902 32.5702C68.0345 32.3087 67.8072 32.098 67.5358 31.9635L67.2915 31.8472L67.5219 31.7054C67.7824 31.5491 67.9922 31.3197 68.1257 31.0452L68.2455 30.8057Z" fill="#009344"/>
<path d="M61.2632 73.4958L61.4015 73.7283C61.5586 73.9895 61.7865 74.2 62.0582 74.335L62.3002 74.4559L62.0697 74.5977C61.8104 74.7554 61.6009 74.9845 61.466 75.258L61.3485 75.5021L61.2079 75.2696C61.0524 75.0072 60.8252 74.7958 60.5535 74.6605L60.3115 74.5396L60.542 74.4001C60.8021 74.2423 61.0117 74.0123 61.1457 73.7376L61.2632 73.4958Z" fill="#009344"/>
<path d="M62.593 82.4671L62.6599 82.495C62.7331 82.5238 62.8128 82.5319 62.8903 82.5183L62.9617 82.5043L62.9341 82.5717C62.9055 82.6457 62.8975 82.7261 62.911 82.8042L62.9248 82.8763L62.858 82.8484C62.7847 82.8197 62.7051 82.8117 62.6276 82.8251L62.5562 82.8391L62.5838 82.7717C62.6124 82.6977 62.6203 82.6173 62.6068 82.5392L62.593 82.4671Z" fill="#009344"/>
<path d="M66.614 21.8065L66.6785 21.8344C66.7519 21.8629 66.8315 21.8709 66.909 21.8577L66.9781 21.8437L66.9528 21.9111C66.9231 21.9848 66.9151 22.0655 66.9297 22.1436L66.9435 22.2157L66.8767 22.1878C66.8034 22.1593 66.7238 22.1513 66.6463 22.1645L66.5771 22.1785L66.6025 22.1111C66.6321 22.0374 66.6402 21.9567 66.6255 21.8786L66.614 21.8065Z" fill="#009344"/>
<path d="M11.7175 16.2712L11.7844 16.2968C11.8574 16.3267 11.9374 16.3347 12.0148 16.32H12.0862L12.0586 16.3851C12.0304 16.4591 12.0224 16.5394 12.0355 16.6176L12.0494 16.6873L11.9825 16.6617C11.9095 16.6318 11.8295 16.6238 11.7521 16.6385L11.6807 16.6524L11.7083 16.585C11.7365 16.511 11.7445 16.4307 11.7314 16.3525L11.7175 16.2712Z" fill="#009344"/>
<path d="M18.4856 63.5015L18.5524 63.5271C18.6252 63.5581 18.7055 63.5662 18.7829 63.5503L18.8543 63.5387L18.8266 63.6061C18.7981 63.6801 18.7901 63.7605 18.8036 63.8386L18.8174 63.9084L18.7506 63.8828C18.6776 63.8529 18.5976 63.8448 18.5202 63.8596L18.4487 63.8735L18.4764 63.8061C18.5046 63.7321 18.5126 63.6518 18.4994 63.5736L18.4856 63.5015Z" fill="#009344"/>
<path d="M25.8386 81.7581L25.7741 81.8255L25.5828 82.0184L24.8385 82.76L22.0733 85.4498V85.4219C22.2185 88.3395 22.4028 92.2917 22.5964 96.7087V96.8064L22.5135 96.7529L21.5157 96.0787L15.1926 91.8081H15.1787V91.7941C14.234 88.9509 13.439 86.5518 12.8744 84.8593C12.5979 84.0177 12.3813 83.3529 12.2292 82.8926L12.0633 82.3695C12.0448 82.3137 12.031 82.2695 12.0218 82.237C12.0218 82.2044 12.008 82.1905 12.0103 82.1905L12.0287 82.2323C12.0395 82.2664 12.0556 82.3106 12.0771 82.3648C12.1186 82.488 12.1785 82.6601 12.2568 82.8833L12.9251 84.843C13.4966 86.5332 14.3077 88.9254 15.2617 91.7639L15.2433 91.7407L21.5733 96.0043L22.5711 96.6762L22.4927 96.7204C22.3061 92.3033 22.1378 88.3511 22.0134 85.4289V85.4126H22.0249L24.8086 82.7484L25.5667 82.0301L25.7649 81.8464C25.8133 81.7767 25.8386 81.7581 25.8386 81.7581Z" fill="#009344"/>
<path d="M22.8936 95.3743L22.8728 96.0322L23.3982 96.4228L22.7715 96.6065L22.5664 97.2318L22.2 96.6855L21.5479 96.6832L21.9465 96.1624L21.7483 95.5347L22.3636 95.7579L22.8936 95.3743Z" fill="#009344"/>
<path d="M15.2756 90.9061L15.2871 91.3339L15.642 91.564L15.2456 91.7082L15.1373 92.1197L14.8792 91.7826L14.4575 91.8058L14.6949 91.4548L14.5428 91.0572L14.9483 91.1758L15.2756 90.9061Z" fill="#009344"/>
<path d="M11.9941 81.3931L12.3121 81.8046L12.8306 81.7743L12.5403 82.2067L12.7292 82.6949L12.2292 82.5485L11.8282 82.8809L11.8121 82.3579L11.3743 82.0766L11.8628 81.8975L11.9941 81.3931Z" fill="#009344"/>
<path d="M25.5182 80.9792L25.8362 81.3931L26.3547 81.3605L26.0643 81.7952L26.2533 82.2811L25.7555 82.137L25.3546 82.4694L25.3362 81.9464L24.9006 81.6627L25.3869 81.4861L25.5182 80.9792Z" fill="#009344"/>
<path d="M21.9673 84.9662L22.1724 85.2289L22.5019 85.208L22.3152 85.4847L22.4374 85.7962L22.1194 85.7032L21.8636 85.9148L21.8521 85.5823L21.5732 85.4033L21.8843 85.2894L21.9673 84.9662Z" fill="#009344"/>
<path d="M9.77259 67.3817C12.3103 67.3817 14.3674 65.3062 14.3674 62.746C14.3674 60.1858 12.3103 58.1104 9.77259 58.1104C7.23492 58.1104 5.17773 60.1858 5.17773 62.746C5.17773 65.3062 7.23492 67.3817 9.77259 67.3817Z" fill="#009344"/>
<g opacity="0.3">
<path opacity="0.3" d="M9.17577 64.192C9.17622 64.3421 9.13249 64.489 9.05012 64.614C8.96775 64.7389 8.85045 64.8365 8.71309 64.8941C8.57573 64.9518 8.4245 64.967 8.27856 64.9378C8.13263 64.9086 7.99856 64.8364 7.89337 64.7303C7.78817 64.6241 7.71657 64.4889 7.68766 64.3416C7.65875 64.1944 7.67382 64.0418 7.73097 63.9032C7.78811 63.7647 7.88475 63.6463 8.00864 63.5632C8.13253 63.4801 8.27808 63.436 8.42686 63.4365C8.62529 63.4371 8.81543 63.5169 8.95574 63.6584C9.09606 63.8 9.17516 63.9918 9.17577 64.192Z" fill="white"/>
</g>
<g opacity="0.3">
<path opacity="0.3" d="M8.11588 62.0114C8.11634 62.0989 8.09105 62.1845 8.04321 62.2574C7.99538 62.3304 7.92717 62.3874 7.8472 62.4211C7.76724 62.4549 7.67914 62.464 7.59406 62.4472C7.50898 62.4304 7.43075 62.3886 7.36929 62.3269C7.30783 62.2652 7.2659 62.1865 7.24882 62.1008C7.23174 62.015 7.24027 61.9261 7.27334 61.8452C7.30641 61.7644 7.36253 61.6953 7.43457 61.6466C7.50662 61.598 7.59136 61.572 7.67805 61.572C7.79377 61.572 7.90479 61.6182 7.98683 61.7006C8.06887 61.7829 8.11527 61.8947 8.11588 62.0114Z" fill="white"/>
</g>
<path d="M5.31377 63.8735C5.33451 63.9549 1.38026 67.7815 2.40108 68.5975C3.4219 69.4135 7.70107 67.3212 11.3627 64.3431C15.0243 61.3651 18.3563 57.7477 17.4415 56.7899C16.5267 55.8321 11.9595 58.666 11.9595 58.666L12.5056 59.0194C12.5056 59.0194 15.2708 57.2316 16.1419 57.9244C17.0129 58.6172 14.5288 61.3279 11.0101 63.9177C7.49137 66.5075 4.09708 68.3208 3.57399 67.6118C3.05091 66.9027 5.53268 64.5384 5.53268 64.5384L5.31377 63.8735Z" fill="#009344"/>
<g opacity="0.3">
<path opacity="0.3" d="M5.31377 63.8735C5.33451 63.9549 1.38026 67.7815 2.40108 68.5975C3.4219 69.4135 7.70107 67.3212 11.3627 64.3431C15.0243 61.3651 18.3563 57.7477 17.4415 56.7899C16.5267 55.8321 11.9595 58.666 11.9595 58.666L12.5056 59.0194C12.5056 59.0194 15.2708 57.2316 16.1419 57.9244C17.0129 58.6172 14.5288 61.3279 11.0101 63.9177C7.49137 66.5075 4.09708 68.3208 3.57399 67.6118C3.05091 66.9027 5.53268 64.5384 5.53268 64.5384L5.31377 63.8735Z" fill="black"/>
</g>
<g opacity="0.3">
<path opacity="0.3" d="M7.24026 59.4797C7.27713 59.5239 6.96604 59.7912 6.61348 60.3259C6.14574 61.013 5.88775 61.8232 5.87137 62.6565C5.85498 63.4899 6.08094 64.3098 6.52131 65.015C6.85313 65.566 7.1527 65.845 7.11352 65.8868C7.07435 65.9287 6.72178 65.7055 6.31161 65.1568C6.07471 64.8358 5.88674 64.4808 5.75396 64.1037C5.41772 63.1649 5.43824 62.1337 5.81157 61.2093C5.95856 60.8368 6.16056 60.4888 6.4107 60.1771C6.84161 59.6471 7.21952 59.4472 7.24026 59.4797Z" fill="white"/>
</g>
<path d="M63.0397 22.0756C64.5512 20.6143 64.6023 18.1934 63.1538 16.6685C61.7053 15.1436 59.3057 15.092 57.7942 16.5534C56.2827 18.0147 56.2316 20.4355 57.6801 21.9605C59.1286 23.4854 61.5281 23.537 63.0397 22.0756Z" fill="#009344"/>
<g opacity="0.4">
<path opacity="0.4" d="M61.6528 17.852C61.6556 17.7289 61.6945 17.6093 61.7646 17.5084C61.8347 17.4075 61.9329 17.3299 62.0468 17.2853C62.1606 17.2407 62.285 17.2312 62.4043 17.258C62.5235 17.2847 62.6322 17.3465 62.7166 17.4356C62.801 17.5246 62.8573 17.6369 62.8785 17.7583C62.8996 17.8796 62.8846 18.0046 62.8354 18.1173C62.7861 18.2301 62.7049 18.3256 62.6018 18.3917C62.4988 18.4579 62.3786 18.4918 62.2565 18.489C62.1754 18.4875 62.0952 18.4698 62.0209 18.4369C61.9465 18.404 61.8793 18.3566 61.8232 18.2974C61.767 18.2382 61.7231 18.1683 61.6938 18.0919C61.6646 18.0155 61.6507 17.9339 61.6528 17.852Z" fill="black"/>
</g>
<g opacity="0.4">
<path opacity="0.4" d="M62.8878 19.3074C62.8892 19.2351 62.9118 19.1649 62.9528 19.1056C62.9938 19.0463 63.0513 19.0007 63.1181 18.9744C63.1848 18.9481 63.2578 18.9425 63.3278 18.9581C63.3977 18.9737 63.4615 19.01 63.511 19.0622C63.5605 19.1144 63.5936 19.1803 63.6059 19.2515C63.6183 19.3227 63.6094 19.396 63.5804 19.4621C63.5514 19.5282 63.5036 19.5842 63.4431 19.6228C63.3826 19.6615 63.312 19.6812 63.2404 19.6793C63.193 19.6784 63.1462 19.6681 63.1028 19.6489C63.0594 19.6296 63.0201 19.6019 62.9874 19.5674C62.9546 19.5328 62.9289 19.492 62.9118 19.4474C62.8948 19.4028 62.8866 19.3552 62.8878 19.3074Z" fill="black"/>
</g>
<g opacity="0.4">
<path opacity="0.4" d="M62.4062 20.4233C62.4236 20.4233 62.4408 20.4268 62.4567 20.4336C62.4727 20.4405 62.4871 20.4505 62.4992 20.4631C62.5112 20.4756 62.5206 20.4906 62.5268 20.5069C62.533 20.5232 62.5359 20.5407 62.5353 20.5581C62.5341 20.5937 62.5192 20.6274 62.4939 20.6521C62.4685 20.6769 62.4346 20.6907 62.3993 20.6906C62.3643 20.6894 62.3311 20.6744 62.307 20.6487C62.2828 20.6231 62.2697 20.5889 62.2703 20.5535C62.2706 20.5359 62.2743 20.5185 62.2814 20.5024C62.2884 20.4863 62.2985 20.4717 62.3112 20.4596C62.3239 20.4475 62.3388 20.438 62.3551 20.4318C62.3714 20.4256 62.3888 20.4227 62.4062 20.4233Z" fill="black"/>
</g>
</g>
<defs>
<clipPath id="clip0_29_287">
<rect width="82" height="102" fill="white"/>
</clipPath>
</defs>
</svg>
