<svg width="119" height="70" viewBox="0 0 119 70" fill="none" xmlns="http://www.w3.org/2000/svg">
<path d="M28.0374 33.7091H10.3562V47.215H28.0374V33.7091Z" fill="#F5F5F5"/>
<path d="M14.7879 47.1186C14.8122 47.1186 14.8311 44.109 14.8311 40.3951C14.8311 36.6813 14.8122 33.6716 14.7879 33.6716C14.7635 33.6716 14.7446 36.6813 14.7446 40.3951C14.7419 44.109 14.7635 47.1186 14.7879 47.1186Z" fill="#EBEBEB"/>
<path d="M13.2114 44.1412H11.8567V45.6594H13.2114V44.1412Z" fill="#FBFBFB"/>
<path d="M22.6455 33.744H20.6365V36.6251H22.6455V33.744Z" fill="#EBEBEB"/>
<path d="M22.6455 44.2938H20.6365V47.1748H22.6455V44.2938Z" fill="#EBEBEB"/>
<path d="M34.7783 47.4051H5.58911V69.6989H34.7783V47.4051Z" fill="#EBEBEB"/>
<path d="M27.464 69.5408C27.4316 69.5408 27.4072 64.5711 27.4072 58.4421C27.4072 52.3104 27.4343 47.3434 27.464 47.3434C27.4964 47.3434 27.5208 52.3104 27.5208 58.4421C27.5208 64.5711 27.4964 69.5408 27.464 69.5408Z" fill="#E0DFDF"/>
<path d="M32.304 64.6248H30.0652V67.1284H32.304V64.6248Z" fill="#FBFBFB"/>
<path d="M17.8082 47.4613H14.4932V52.2195H17.8082V47.4613Z" fill="#E0DFDF"/>
<path d="M17.8082 64.8738H14.4932V69.6318H17.8082V64.8738Z" fill="#E0DFDF"/>
<path d="M57.5807 8.13257C57.5807 8.15667 57.3915 8.17542 57.1562 8.17542C56.921 8.17542 56.7317 8.15667 56.7317 8.13257C56.7317 8.10847 56.921 8.08972 57.1562 8.08972C57.3915 8.08972 57.5807 8.10847 57.5807 8.13257Z" fill="#EBEBEB"/>
<path d="M59.2787 8.13257C59.2787 8.15667 59.0894 8.17542 58.8542 8.17542C58.619 8.17542 58.4297 8.15667 58.4297 8.13257C58.4297 8.10847 58.619 8.08972 58.8542 8.08972C59.0894 8.08972 59.2787 8.10847 59.2787 8.13257Z" fill="#EBEBEB"/>
<path d="M60.9767 8.13257C60.9767 8.15667 60.7875 8.17542 60.5522 8.17542C60.317 8.17542 60.1277 8.15667 60.1277 8.13257C60.1277 8.10847 60.317 8.08972 60.5522 8.08972C60.7875 8.08972 60.9767 8.10847 60.9767 8.13257Z" fill="#EBEBEB"/>
<path d="M62.675 8.13257C62.675 8.15667 62.4857 8.17542 62.2504 8.17542C62.0152 8.17542 61.8259 8.15667 61.8259 8.13257C61.8259 8.10847 62.0152 8.08972 62.2504 8.08972C62.483 8.08972 62.675 8.10847 62.675 8.13257Z" fill="#EBEBEB"/>
<path d="M64.3732 8.13257C64.3732 8.15667 64.1839 8.17542 63.9487 8.17542C63.7134 8.17542 63.5242 8.15667 63.5242 8.13257C63.5242 8.10847 63.7134 8.08972 63.9487 8.08972C64.1812 8.08972 64.3732 8.10847 64.3732 8.13257Z" fill="#EBEBEB"/>
<path d="M66.0683 8.13257C66.0683 8.15667 65.879 8.17542 65.6438 8.17542C65.4085 8.17542 65.2192 8.15667 65.2192 8.13257C65.2192 8.10847 65.4085 8.08972 65.6438 8.08972C65.879 8.08972 66.0683 8.10847 66.0683 8.13257Z" fill="#EBEBEB"/>
<path d="M67.7665 8.13257C67.7665 8.15667 67.5773 8.17542 67.342 8.17542C67.1068 8.17542 66.9175 8.15667 66.9175 8.13257C66.9175 8.10847 67.1068 8.08972 67.342 8.08972C67.5773 8.08972 67.7665 8.10847 67.7665 8.13257Z" fill="#EBEBEB"/>
<path d="M69.4645 8.13257C69.4645 8.15667 69.2752 8.17542 69.04 8.17542C68.8048 8.17542 68.6155 8.15667 68.6155 8.13257C68.6155 8.10847 68.8048 8.08972 69.04 8.08972C69.2752 8.08972 69.4645 8.10847 69.4645 8.13257Z" fill="#EBEBEB"/>
<path d="M71.1625 8.13257C71.1625 8.15667 70.9732 8.17542 70.738 8.17542C70.5028 8.17542 70.3135 8.15667 70.3135 8.13257C70.3135 8.10847 70.5028 8.08972 70.738 8.08972C70.9732 8.08972 71.1625 8.10847 71.1625 8.13257Z" fill="#EBEBEB"/>
<path d="M72.8607 8.13257C72.8607 8.15667 72.6715 8.17542 72.4362 8.17542C72.201 8.17542 72.0117 8.15667 72.0117 8.13257C72.0117 8.10847 72.201 8.08972 72.4362 8.08972C72.6688 8.08972 72.8607 8.10847 72.8607 8.13257Z" fill="#EBEBEB"/>
<path d="M74.5587 8.13257C74.5587 8.15667 74.3695 8.17542 74.1342 8.17542C73.899 8.17542 73.7097 8.15667 73.7097 8.13257C73.7097 8.10847 73.899 8.08972 74.1342 8.08972C74.3668 8.08972 74.5587 8.10847 74.5587 8.13257Z" fill="#EBEBEB"/>
<path d="M76.2543 8.13257C76.2543 8.15667 76.065 8.17542 75.8298 8.17542C75.5946 8.17542 75.4053 8.15667 75.4053 8.13257C75.4053 8.10847 75.5946 8.08972 75.8298 8.08972C76.065 8.08972 76.2543 8.10847 76.2543 8.13257Z" fill="#EBEBEB"/>
<path d="M77.9521 8.13257C77.9521 8.15667 77.7628 8.17542 77.5275 8.17542C77.2923 8.17542 77.103 8.15667 77.103 8.13257C77.103 8.10847 77.2923 8.08972 77.5275 8.08972C77.7628 8.08972 77.9521 8.10847 77.9521 8.13257Z" fill="#EBEBEB"/>
<path d="M79.6506 8.13257C79.6506 8.15667 79.4613 8.17542 79.226 8.17542C78.9908 8.17542 78.8015 8.15667 78.8015 8.13257C78.8015 8.10847 78.9908 8.08972 79.226 8.08972C79.4613 8.08972 79.6506 8.10847 79.6506 8.13257Z" fill="#EBEBEB"/>
<path d="M81.3483 8.13257C81.3483 8.15667 81.159 8.17542 80.9238 8.17542C80.6885 8.17542 80.4993 8.15667 80.4993 8.13257C80.4993 8.10847 80.6885 8.08972 80.9238 8.08972C81.159 8.08972 81.3483 8.10847 81.3483 8.13257Z" fill="#EBEBEB"/>
<path d="M83.0468 8.13257C83.0468 8.15667 82.8575 8.17542 82.6223 8.17542C82.387 8.17542 82.1978 8.15667 82.1978 8.13257C82.1978 8.10847 82.387 8.08972 82.6223 8.08972C82.8548 8.08972 83.0468 8.10847 83.0468 8.13257Z" fill="#EBEBEB"/>
<path d="M84.7445 8.13257C84.7445 8.15667 84.5553 8.17542 84.32 8.17542C84.0848 8.17542 83.8955 8.15667 83.8955 8.13257C83.8955 8.10847 84.0848 8.08972 84.32 8.08972C84.5526 8.08972 84.7445 8.10847 84.7445 8.13257Z" fill="#EBEBEB"/>
<path d="M86.4401 8.13257C86.4401 8.15667 86.2508 8.17542 86.0156 8.17542C85.7803 8.17542 85.5911 8.15667 85.5911 8.13257C85.5911 8.10847 85.7803 8.08972 86.0156 8.08972C86.2508 8.08972 86.4401 8.10847 86.4401 8.13257Z" fill="#EBEBEB"/>
<path d="M88.1381 8.13257C88.1381 8.15667 87.9488 8.17542 87.7136 8.17542C87.4783 8.17542 87.2891 8.15667 87.2891 8.13257C87.2891 8.10847 87.4783 8.08972 87.7136 8.08972C87.9488 8.08972 88.1381 8.10847 88.1381 8.13257Z" fill="#EBEBEB"/>
<path d="M89.8364 8.13257C89.8364 8.15667 89.6471 8.17542 89.4118 8.17542C89.1766 8.17542 88.9873 8.15667 88.9873 8.13257C88.9873 8.10847 89.1766 8.08972 89.4118 8.08972C89.6471 8.08972 89.8364 8.10847 89.8364 8.13257Z" fill="#EBEBEB"/>
<path d="M91.5344 8.13257C91.5344 8.15667 91.3451 8.17542 91.1098 8.17542C90.8746 8.17542 90.6853 8.15667 90.6853 8.13257C90.6853 8.10847 90.8746 8.08972 91.1098 8.08972C91.3451 8.08972 91.5344 8.10847 91.5344 8.13257Z" fill="#EBEBEB"/>
<path d="M93.2326 8.13257C93.2326 8.15667 93.0433 8.17542 92.8081 8.17542C92.5728 8.17542 92.3835 8.15667 92.3835 8.13257C92.3835 8.10847 92.5728 8.08972 92.8081 8.08972C93.0433 8.08972 93.2326 8.10847 93.2326 8.13257Z" fill="#EBEBEB"/>
<path d="M94.9306 8.13257C94.9306 8.15667 94.7413 8.17542 94.5061 8.17542C94.2708 8.17542 94.0815 8.15667 94.0815 8.13257C94.0815 8.10847 94.2708 8.08972 94.5061 8.08972C94.7386 8.08972 94.9306 8.10847 94.9306 8.13257Z" fill="#EBEBEB"/>
<path d="M95.366 9.383C95.3417 9.383 95.3228 9.19556 95.3228 8.96262C95.3228 8.72967 95.3417 8.54224 95.366 8.54224C95.3903 8.54224 95.4092 8.72967 95.4092 8.96262C95.4092 9.19556 95.3903 9.383 95.366 9.383Z" fill="#EBEBEB"/>
<path d="M95.366 11.0646C95.3417 11.0646 95.3228 10.8771 95.3228 10.6442C95.3228 10.4112 95.3417 10.2238 95.366 10.2238C95.3903 10.2238 95.4092 10.4112 95.4092 10.6442C95.4092 10.8771 95.3903 11.0646 95.366 11.0646Z" fill="#EBEBEB"/>
<path d="M95.366 12.7461C95.3417 12.7461 95.3228 12.5587 95.3228 12.3257C95.3228 12.0928 95.3417 11.9053 95.366 11.9053C95.3903 11.9053 95.4092 12.0928 95.4092 12.3257C95.4092 12.5587 95.3903 12.7461 95.366 12.7461Z" fill="#EBEBEB"/>
<path d="M95.366 14.4277C95.3417 14.4277 95.3228 14.2402 95.3228 14.0073C95.3228 13.7743 95.3417 13.5869 95.366 13.5869C95.3903 13.5869 95.4092 13.7743 95.4092 14.0073C95.4092 14.2402 95.3903 14.4277 95.366 14.4277Z" fill="#EBEBEB"/>
<path d="M95.366 16.1093C95.3417 16.1093 95.3228 15.9218 95.3228 15.6888C95.3228 15.4559 95.3417 15.2684 95.366 15.2684C95.3903 15.2684 95.4092 15.4559 95.4092 15.6888C95.4092 15.9218 95.3903 16.1093 95.366 16.1093Z" fill="#EBEBEB"/>
<path d="M95.6959 17.4614C95.6959 17.4829 95.5553 17.4989 95.366 17.5043H95.3228V17.4614C95.3228 17.4293 95.3228 17.3998 95.3228 17.3677C95.3228 17.1348 95.3417 16.9473 95.366 16.9473C95.3903 16.9473 95.4093 17.1348 95.4093 17.3677C95.4093 17.3972 95.4093 17.4293 95.4093 17.4614L95.366 17.4186C95.5553 17.4239 95.6959 17.44 95.6959 17.4614Z" fill="#EBEBEB"/>
<path d="M97.3937 17.4614C97.3937 17.4855 97.2045 17.5043 96.9692 17.5043C96.734 17.5043 96.5447 17.4855 96.5447 17.4614C96.5447 17.4373 96.734 17.4186 96.9692 17.4186C97.2045 17.4186 97.3937 17.4373 97.3937 17.4614Z" fill="#EBEBEB"/>
<path d="M99.0917 17.4614C99.0917 17.4855 98.9024 17.5043 98.6672 17.5043C98.4319 17.5043 98.2427 17.4855 98.2427 17.4614C98.2427 17.4373 98.4319 17.4186 98.6672 17.4186C98.8997 17.4186 99.0917 17.4373 99.0917 17.4614Z" fill="#EBEBEB"/>
<path d="M100.787 17.4614C100.787 17.4855 100.598 17.5043 100.362 17.5043C100.127 17.5043 99.938 17.4855 99.938 17.4614C99.938 17.4373 100.127 17.4186 100.362 17.4186C100.598 17.4186 100.787 17.4373 100.787 17.4614Z" fill="#EBEBEB"/>
<path d="M102.485 17.4614C102.485 17.4855 102.296 17.5043 102.061 17.5043C101.826 17.5043 101.636 17.4855 101.636 17.4614C101.636 17.4373 101.826 17.4186 102.061 17.4186C102.296 17.4186 102.485 17.4373 102.485 17.4614Z" fill="#EBEBEB"/>
<path d="M104.183 17.4614C104.183 17.4855 103.994 17.5043 103.759 17.5043C103.523 17.5043 103.334 17.4855 103.334 17.4614C103.334 17.4373 103.523 17.4186 103.759 17.4186C103.994 17.4186 104.183 17.4373 104.183 17.4614Z" fill="#EBEBEB"/>
<path d="M105.881 17.4614C105.881 17.4855 105.692 17.5043 105.457 17.5043C105.222 17.5043 105.032 17.4855 105.032 17.4614C105.032 17.4373 105.222 17.4186 105.457 17.4186C105.692 17.4186 105.881 17.4373 105.881 17.4614Z" fill="#EBEBEB"/>
<path d="M107.579 17.4614C107.579 17.4855 107.39 17.5043 107.155 17.5043C106.92 17.5043 106.73 17.4855 106.73 17.4614C106.73 17.4373 106.92 17.4186 107.155 17.4186C107.39 17.4186 107.579 17.4373 107.579 17.4614Z" fill="#EBEBEB"/>
<path d="M109.278 17.4614C109.278 17.4855 109.088 17.5043 108.853 17.5043C108.618 17.5043 108.428 17.4855 108.428 17.4614C108.428 17.4373 108.618 17.4186 108.853 17.4186C109.086 17.4186 109.278 17.4373 109.278 17.4614Z" fill="#EBEBEB"/>
<path d="M109.938 18.4896C109.913 18.4896 109.894 18.3021 109.894 18.0692C109.894 17.8362 109.913 17.6488 109.938 17.6488C109.962 17.6488 109.981 17.8362 109.981 18.0692C109.981 18.2995 109.962 18.4896 109.938 18.4896Z" fill="#EBEBEB"/>
<path d="M109.938 20.1711C109.913 20.1711 109.894 19.9837 109.894 19.7507C109.894 19.5178 109.913 19.3303 109.938 19.3303C109.962 19.3303 109.981 19.5178 109.981 19.7507C109.981 19.981 109.962 20.1711 109.938 20.1711Z" fill="#EBEBEB"/>
<path d="M109.938 21.8501C109.913 21.8501 109.894 21.6627 109.894 21.4297C109.894 21.1967 109.913 21.0093 109.938 21.0093C109.962 21.0093 109.981 21.1967 109.981 21.4297C109.981 21.6627 109.962 21.8501 109.938 21.8501Z" fill="#EBEBEB"/>
<path d="M109.938 23.5316C109.913 23.5316 109.894 23.3441 109.894 23.1111C109.894 22.8782 109.913 22.6907 109.938 22.6907C109.962 22.6907 109.981 22.8782 109.981 23.1111C109.981 23.3441 109.962 23.5316 109.938 23.5316Z" fill="#EBEBEB"/>
<path d="M109.938 25.213C109.913 25.213 109.894 25.0256 109.894 24.7926C109.894 24.5597 109.913 24.3723 109.938 24.3723C109.962 24.3723 109.981 24.5597 109.981 24.7926C109.981 25.0256 109.962 25.213 109.938 25.213Z" fill="#EBEBEB"/>
<path d="M109.938 26.8946C109.913 26.8946 109.894 26.7072 109.894 26.4742C109.894 26.2413 109.913 26.0538 109.938 26.0538C109.962 26.0538 109.981 26.2413 109.981 26.4742C109.981 26.7072 109.962 26.8946 109.938 26.8946Z" fill="#EBEBEB"/>
<path d="M109.938 28.5761C109.913 28.5761 109.894 28.3887 109.894 28.1557C109.894 27.9228 109.913 27.7354 109.938 27.7354C109.962 27.7354 109.981 27.9228 109.981 28.1557C109.981 28.386 109.962 28.5761 109.938 28.5761Z" fill="#EBEBEB"/>
<path d="M109.938 30.2577C109.913 30.2577 109.894 30.0703 109.894 29.8373C109.894 29.6044 109.913 29.4169 109.938 29.4169C109.962 29.4169 109.981 29.6044 109.981 29.8373C109.981 30.0676 109.962 30.2577 109.938 30.2577Z" fill="#EBEBEB"/>
<path d="M109.938 31.9365C109.913 31.9365 109.894 31.7491 109.894 31.5162C109.894 31.2832 109.913 31.0958 109.938 31.0958C109.962 31.0958 109.981 31.2832 109.981 31.5162C109.981 31.7491 109.962 31.9365 109.938 31.9365Z" fill="#EBEBEB"/>
<path d="M109.938 33.618C109.913 33.618 109.894 33.4306 109.894 33.1977C109.894 32.9647 109.913 32.7773 109.938 32.7773C109.962 32.7773 109.981 32.9647 109.981 33.1977C109.981 33.4306 109.962 33.618 109.938 33.618Z" fill="#EBEBEB"/>
<path d="M109.938 35.2996C109.913 35.2996 109.894 35.1122 109.894 34.8792C109.894 34.6463 109.913 34.4589 109.938 34.4589C109.962 34.4589 109.981 34.6463 109.981 34.8792C109.981 35.1122 109.962 35.2996 109.938 35.2996Z" fill="#EBEBEB"/>
<path d="M66.4901 11.003C66.4901 11.003 65.1733 10.28 63.8808 13.3673C62.5883 16.4546 62.1476 18.2084 62.1476 18.2084C62.1476 18.2084 61.7934 18.8618 61.331 18.4896C60.8686 18.1174 60.1845 17.0115 59.468 17.2739C58.7244 17.5497 58.5405 18.4092 58.7839 19.6302C59.0272 20.8539 59.4599 23.5529 59.4977 23.7966C59.5356 24.0376 59.4247 24.4017 59.0678 24.1982C58.7109 23.9947 56.5937 21.9972 55.696 23.0495C54.801 24.1018 56.0421 27.398 56.1719 27.7621C56.3017 28.1263 56.2395 28.2896 56.0691 28.394C55.8988 28.4985 55.2498 27.7621 54.6252 27.2186C54.0006 26.675 53.1786 26.1529 52.7108 26.8035C52.2457 27.4542 52.2809 29.9979 55.0416 33.9206L56.4396 35.6557L58.6703 35.3585C63.4049 34.4347 65.2166 32.6273 65.3356 31.8401C65.4572 31.0529 64.5 30.8628 63.6672 30.8226C62.8371 30.7825 61.8529 30.8681 61.8042 30.6754C61.7555 30.4826 61.8258 30.3219 62.1746 30.1505C62.5207 29.9792 65.7276 28.4583 65.8223 27.0847C65.9142 25.7111 62.9912 25.6923 62.591 25.5933C62.1909 25.4942 62.3693 25.1541 62.564 25.0069C62.7614 24.8569 64.9678 23.2129 66.0007 22.5006C67.0336 21.7884 67.5041 21.0413 67.1607 20.3344C66.8308 19.6517 65.5627 19.9783 64.9678 19.9275C64.3729 19.8766 64.5758 19.1643 64.5758 19.1643C64.5758 19.1643 65.4897 17.5953 66.7227 14.4866C67.9584 11.3779 66.4631 10.9896 66.4631 10.9896" fill="#EBEBEB"/>
<path d="M56.5127 35.1952C57.4266 32.9166 58.7191 29.7758 60.1576 26.3136C61.5961 22.8515 62.894 19.7187 63.8215 17.4427C64.2838 16.3074 64.657 15.389 64.9193 14.749C65.0491 14.4331 65.1491 14.1867 65.2194 14.018C65.2519 13.9377 65.2789 13.8735 65.2978 13.8279C65.3168 13.7851 65.3276 13.7637 65.3276 13.7637C65.3276 13.7637 65.3222 13.7878 65.3059 13.8306C65.287 13.8761 65.2654 13.9404 65.2329 14.0234C65.1653 14.1948 65.0707 14.4438 64.9463 14.7597C64.6976 15.3997 64.3298 16.3235 63.8728 17.4641C62.9589 19.7428 61.6664 22.8836 60.2279 26.3431C58.7894 29.8052 57.4888 32.9407 56.5614 35.214" fill="#E0DFDF"/>
<path d="M60.3575 18.859C60.3629 18.8564 60.3872 18.9099 60.4278 19.0036C60.4683 19.1 60.5224 19.2393 60.5873 19.4106C60.7171 19.756 60.8847 20.238 61.0578 20.7735C61.2254 21.301 61.3796 21.7776 61.4958 22.1472C61.5499 22.3105 61.5932 22.4497 61.631 22.5622C61.6635 22.6613 61.6797 22.7148 61.6743 22.7175C61.6689 22.7202 61.6446 22.6666 61.604 22.5729C61.5634 22.4765 61.5094 22.3373 61.4445 22.1659C61.3174 21.8178 61.1578 21.3358 60.9848 20.8003C60.8117 20.2755 60.6576 19.7989 60.5359 19.4321C60.4819 19.2687 60.4359 19.1322 60.398 19.017C60.3683 18.9153 60.3521 18.8617 60.3575 18.859Z" fill="#E0DFDF"/>
<path d="M61.8829 22.7417C61.8748 22.7229 62.8644 22.3373 64.0893 21.8821C65.3169 21.4269 66.3174 21.0735 66.3228 21.0949C66.3309 21.1137 65.3412 21.4992 64.1163 21.9544C62.8887 22.407 61.8883 22.7604 61.8829 22.7417Z" fill="#E0DFDF"/>
<path d="M59.4302 27.9577C59.4302 27.9523 59.4897 27.9443 59.5951 27.9362C59.7168 27.9255 59.8682 27.9148 60.044 27.9014C60.4225 27.872 60.9444 27.8291 61.5203 27.7622C62.0963 27.6953 62.6154 27.6203 62.9886 27.5614C63.1643 27.5346 63.3103 27.5105 63.432 27.4918C63.5375 27.4757 63.597 27.4703 63.597 27.4757C63.597 27.4811 63.5402 27.4971 63.4374 27.5212C63.3347 27.5453 63.1833 27.5774 62.9967 27.6123C62.6235 27.6845 62.1044 27.7702 61.5284 27.8372C60.9525 27.9041 60.4279 27.9389 60.0467 27.955C59.8574 27.963 59.7033 27.9657 59.5951 27.9657C59.4897 27.9657 59.4302 27.963 59.4302 27.9577Z" fill="#E0DFDF"/>
<path d="M57.2724 24.7471C57.2778 24.7445 57.313 24.7846 57.3697 24.8623C57.4265 24.9399 57.5131 25.0551 57.6158 25.1943C57.8186 25.4781 58.0971 25.8717 58.3999 26.3082C58.7028 26.7447 58.9732 27.1436 59.1652 27.4355C59.2625 27.5801 59.3382 27.7006 59.3896 27.7809C59.441 27.8639 59.468 27.9121 59.4626 27.9148C59.4572 27.9175 59.422 27.8773 59.3653 27.7997C59.3058 27.722 59.222 27.6095 59.1192 27.4676C58.9164 27.1838 58.6379 26.7902 58.3351 26.3537C58.0322 25.9173 57.7618 25.5183 57.5698 25.2264C57.4725 25.0818 57.3968 24.9613 57.3454 24.881C57.294 24.798 57.267 24.7525 57.2724 24.7471Z" fill="#E0DFDF"/>
<path d="M54.5171 29.0822C54.5225 29.0796 54.5658 29.1331 54.6415 29.2322C54.7253 29.3447 54.8308 29.4866 54.9579 29.6579C55.2201 30.0194 55.5798 30.5201 55.9745 31.0797C56.3666 31.6367 56.7208 32.1454 56.9723 32.5123C57.0913 32.689 57.1886 32.8362 57.267 32.9514C57.3346 33.0558 57.3698 33.1147 57.3671 33.1174C57.3617 33.1201 57.3184 33.0665 57.2427 32.9675C57.1589 32.855 57.0534 32.7131 56.9263 32.5417C56.664 32.1802 56.3044 31.6795 55.9096 31.1199C55.5176 30.563 55.1634 30.0569 54.9119 29.6874C54.7929 29.5107 54.6956 29.3634 54.6172 29.2483C54.5496 29.1438 54.5117 29.0849 54.5171 29.0822Z" fill="#E0DFDF"/>
<path d="M57.3237 33.005C57.3237 32.9996 57.3967 32.9889 57.5319 32.9728C57.6807 32.9568 57.8699 32.9353 58.0998 32.9086C58.5784 32.855 59.2381 32.7774 59.9655 32.6729C60.6929 32.5685 61.3499 32.4587 61.8231 32.3757C62.0503 32.3355 62.2368 32.3034 62.3855 32.2793C62.518 32.2579 62.5938 32.2472 62.5938 32.2525C62.5938 32.2579 62.5234 32.2766 62.391 32.3088C62.2585 32.3409 62.0692 32.3811 61.8339 32.4293C61.3607 32.5257 60.7064 32.6435 59.9763 32.7479C59.249 32.8523 58.5838 32.9219 58.1052 32.9621C57.8645 32.9809 57.6698 32.9942 57.5346 33.0023C57.3994 33.0076 57.3264 33.0076 57.3237 33.005Z" fill="#E0DFDF"/>
<path d="M115.902 39.415C115.902 35.7789 112.585 32.9084 108.78 33.6153C106.39 34.0598 104.484 35.9931 104.065 38.3681C103.802 39.8515 104.113 41.2465 104.795 42.3979H104.792L104.808 42.4193C105.038 42.8022 105.325 43.0727 105.614 43.4743L109.078 48.0182C109.508 48.5832 110.365 48.5832 110.797 48.0182L114.204 43.5493C114.204 43.5493 114.84 42.7995 115.07 42.414L115.083 42.3979H115.08C115.6 41.5223 115.902 40.5048 115.902 39.415ZM109.937 41.9856C108.488 41.9856 107.312 40.8208 107.312 39.3856C107.312 37.9504 108.488 36.7856 109.937 36.7856C111.387 36.7856 112.563 37.9504 112.563 39.3856C112.563 40.8208 111.387 41.9856 109.937 41.9856Z" fill="#F5F5F5"/>
<path d="M87.738 13.1504V20.0961C87.738 20.2461 87.8597 20.3666 88.0111 20.3666H102.721C102.872 20.3666 102.996 20.2434 102.994 20.0935L102.961 17.5497C102.961 17.4935 102.942 17.4373 102.907 17.3917L100.798 14.599C100.747 14.532 100.666 14.4919 100.582 14.4892L98.151 14.4705C97.9995 14.4705 97.8806 14.3473 97.8806 14.2V13.1504C97.8806 13.0004 97.7589 12.8799 97.6075 12.8799H88.0138C87.8597 12.8799 87.738 13.0004 87.738 13.1504Z" fill="#F5F5F5"/>
<path d="M98.5618 15.0783V17.3088C98.5618 17.3945 98.6348 17.4668 98.7213 17.4641L101.969 17.4079C102.093 17.4052 102.166 17.2686 102.096 17.1669L100.579 14.9498C100.549 14.907 100.498 14.8802 100.444 14.8829L98.7159 14.9284C98.6294 14.9257 98.5618 14.9927 98.5618 15.0783Z" fill="#EBEBEB"/>
<path d="M103.288 20.5808H87.4431V21.0654H103.288V20.5808Z" fill="#F5F5F5"/>
<path d="M92.6835 20.7655C92.6835 21.6223 91.9804 22.3185 91.1152 22.3185C90.2499 22.3185 89.5469 21.625 89.5469 20.7655C89.5469 19.9087 90.2499 19.2125 91.1152 19.2125C91.9804 19.2125 92.6835 19.906 92.6835 20.7655Z" fill="#EBEBEB"/>
<path d="M92.0372 20.7656C92.0372 21.269 91.6235 21.6787 91.1152 21.6787C90.6068 21.6787 90.1931 21.269 90.1931 20.7656C90.1931 20.2622 90.6068 19.8525 91.1152 19.8525C91.6235 19.8498 92.0372 20.2595 92.0372 20.7656Z" fill="#FBFBFB"/>
<path d="M97.8643 20.3666C97.8237 20.3666 97.7939 18.6904 97.7939 16.6233C97.7939 14.5561 97.8264 12.8799 97.8643 12.8799C97.9048 12.8799 97.9346 14.5561 97.9346 16.6233C97.9373 18.6904 97.9048 20.3666 97.8643 20.3666Z" fill="#EBEBEB"/>
<path d="M101.223 20.7655C101.223 21.6223 100.519 22.3185 99.6542 22.3185C98.789 22.3185 98.0859 21.625 98.0859 20.7655C98.0859 19.9087 98.789 19.2125 99.6542 19.2125C100.519 19.2125 101.223 19.906 101.223 20.7655Z" fill="#EBEBEB"/>
<path d="M100.579 20.7656C100.579 21.269 100.165 21.6787 99.6569 21.6787C99.1486 21.6787 98.7349 21.269 98.7349 20.7656C98.7349 20.2622 99.1486 19.8525 99.6569 19.8525C100.165 19.8498 100.579 20.2595 100.579 20.7656Z" fill="#FBFBFB"/>
<path d="M99.6597 17.9005C99.6597 17.9407 99.4352 17.9702 99.1594 17.9702C98.8836 17.9702 98.6592 17.938 98.6592 17.9005C98.6592 17.8603 98.8836 17.8309 99.1594 17.8309C99.4352 17.8309 99.6597 17.863 99.6597 17.9005Z" fill="#EBEBEB"/>
<path d="M118.844 69.6989C118.844 69.723 92.2373 69.7417 59.4248 69.7417C26.5988 69.7417 0 69.723 0 69.6989C0 69.6748 26.6015 69.6561 59.4248 69.6561C92.2373 69.6534 118.844 69.6748 118.844 69.6989Z" fill="#263238"/>
<path d="M23.7324 68.9573C26.02 67.3855 26.5472 64.4589 26.4661 61.8241C26.4526 61.385 26.504 60.9217 26.2931 60.5335C26.0821 60.1479 25.59 59.8828 25.1925 60.0649C24.8627 60.2175 24.7167 60.5977 24.5328 60.911C24.2867 61.3287 23.919 61.6715 23.4891 61.891C23.2051 62.0356 22.8563 62.124 22.5778 61.9687C22.1966 61.7571 22.1533 61.235 22.156 60.7959C22.1641 59.9819 22.1722 59.1652 22.1803 58.3512C22.1857 57.9148 22.1884 57.4676 22.0505 57.0526C21.9153 56.6375 21.6125 56.2493 21.1934 56.1315C20.7743 56.0136 20.2524 56.252 20.1632 56.6804C20.1253 56.8571 20.1605 57.0445 20.1497 57.2239C20.1361 57.406 20.0496 57.6068 19.8766 57.655C19.7008 57.7059 19.525 57.5801 19.3926 57.4515C18.9383 57.0097 18.63 56.4394 18.3434 55.8717C18.0568 55.3041 17.7783 54.7257 17.3646 54.2411C16.9536 53.7591 16.3831 53.3735 15.7503 53.336C15.1176 53.2985 14.4416 53.6814 14.2821 54.2973C14.1198 54.9131 14.4795 55.5397 14.8742 56.0404C15.4583 56.7821 16.1505 57.4408 16.9184 57.9844C17.0563 58.0835 17.2078 58.1879 17.2618 58.3512C17.3565 58.6431 17.078 58.9323 16.7859 59.026C16.4561 59.1331 16.0991 59.0983 15.7557 59.1384C15.4123 59.1786 15.0365 59.3259 14.9067 59.6472C14.7255 60.0943 15.1014 60.5629 15.4718 60.8709C16.2127 61.4867 17.0617 61.9767 17.9649 62.3087C18.2893 62.4266 18.63 62.531 18.8923 62.7586C19.1546 62.9862 19.3114 63.3798 19.1519 63.6877C18.9924 63.9956 18.5868 64.092 18.2461 64.0305C17.9054 63.9662 17.6025 63.7814 17.2781 63.6609C16.6724 63.4307 15.8882 63.4708 15.4989 63.9876C15.242 64.3277 15.2176 64.8043 15.3447 65.2113C15.4718 65.6183 15.7341 65.9691 16.0099 66.2957C16.9779 67.4284 18.2217 68.3441 19.6278 68.8314C21.0257 69.3241 22.3291 69.4607 23.7324 68.9573Z" fill="#009344"/>
<path d="M23.5809 69.699C23.489 68.6547 23.4403 68.6333 23.0509 67.3052C22.6643 65.9744 22.1181 64.5499 21.4962 63.0799C21.3393 62.7131 21.1825 62.3516 21.0311 61.9928C20.877 61.6367 20.7255 61.2832 20.5552 60.9458C20.2172 60.2711 19.8413 59.6472 19.4628 59.0688C19.0869 58.4878 18.7084 57.9496 18.3515 57.4515C17.9918 56.9508 17.6484 56.4929 17.3186 56.0886C16.6588 55.2746 16.0504 54.6829 15.6151 54.2919C15.3988 54.0965 15.2257 53.9492 15.1067 53.8528C15.0499 53.8073 15.004 53.7698 14.9715 53.743C14.9418 53.7189 14.9256 53.7055 14.9229 53.7082C14.9229 53.7082 14.9364 53.7243 14.9661 53.7511C14.9986 53.7805 15.0418 53.818 15.0959 53.8662C15.2122 53.968 15.3825 54.1179 15.5961 54.316C16.0234 54.7123 16.6236 55.3094 17.2753 56.1234C17.6025 56.5304 17.9432 56.991 18.2974 57.489C18.6516 57.9897 19.0275 58.5279 19.4033 59.109C19.7764 59.69 20.1496 60.3112 20.4849 60.9806C20.6552 61.3153 20.8039 61.6661 20.9581 62.0222C21.1122 62.3784 21.2663 62.7425 21.4232 63.1094C22.0451 64.5794 22.5913 65.9985 22.9833 67.3239C23.3754 68.6494 23.4268 68.6627 23.5268 69.7017" fill="#263238"/>
<path d="M20.5309 60.9431C20.5363 60.9431 20.5525 60.8789 20.5741 60.7557C20.5985 60.6352 20.6255 60.4585 20.658 60.2416C20.7229 59.8051 20.7904 59.2026 20.8608 58.5359C20.9338 57.8692 21.0095 57.2667 21.0798 56.8356C21.1149 56.6187 21.1447 56.4446 21.1663 56.3241C21.1879 56.2037 21.196 56.1367 21.1906 56.134C21.1852 56.134 21.1663 56.1983 21.1339 56.3161C21.1014 56.4339 21.0636 56.608 21.0203 56.8249C20.9338 57.256 20.8499 57.8585 20.7769 58.5279C20.7066 59.1866 20.6444 59.781 20.5958 60.2362C20.5714 60.4424 20.5525 60.6138 20.5363 60.753C20.5282 60.8762 20.5228 60.9431 20.5309 60.9431Z" fill="#263238"/>
<path d="M14.8552 59.8747C14.8552 59.8801 14.9363 59.8908 15.0824 59.9015C15.2284 59.9149 15.4393 59.9336 15.6989 59.9631C16.218 60.0193 16.9346 60.1237 17.7187 60.2737C18.5029 60.4236 19.2059 60.5896 19.7115 60.7262C19.9657 60.7931 20.1685 60.8494 20.3091 60.8895C20.4497 60.9297 20.5281 60.9484 20.5308 60.9431C20.5335 60.9377 20.4578 60.9083 20.3199 60.8574C20.182 60.8092 19.9792 60.7423 19.7278 60.6673C19.2248 60.5173 18.5218 60.3433 17.7349 60.1907C16.9481 60.0407 16.2288 59.9443 15.707 59.9015C15.4447 59.8774 15.2338 59.8694 15.0878 59.864C14.9363 59.8667 14.8552 59.8667 14.8552 59.8747Z" fill="#263238"/>
<path d="M22.9807 67.2007C22.9834 67.2007 22.997 67.1793 23.0213 67.1311C23.0483 67.0775 23.0808 67.0079 23.1186 66.9276C23.2025 66.7508 23.3187 66.4911 23.4566 66.1698C23.7324 65.5272 24.0867 64.6275 24.4625 63.6287C24.8384 62.63 25.1845 61.7276 25.4467 61.0796C25.5765 60.7637 25.682 60.5066 25.7604 60.3139C25.7929 60.2308 25.8226 60.1612 25.8442 60.105C25.8632 60.0568 25.8713 60.03 25.8686 60.03C25.8659 60.03 25.8523 60.0515 25.828 60.0996C25.801 60.1532 25.7685 60.2228 25.7307 60.3032C25.6468 60.4799 25.5306 60.7396 25.3927 61.0609C25.1169 61.7035 24.7626 62.6032 24.3868 63.6046C24.0109 64.6034 23.6648 65.5057 23.4026 66.1537C23.2728 66.4697 23.1673 66.7267 23.0889 66.9195C23.0564 67.0025 23.0267 67.0722 23.0051 67.1284C22.9861 67.1739 22.978 67.198 22.9807 67.2007Z" fill="#263238"/>
<path d="M15.4448 64.7667C15.4448 64.7693 15.4692 64.78 15.5205 64.7988C15.58 64.8175 15.653 64.8416 15.7396 64.8711C15.9424 64.938 16.2154 65.0264 16.5453 65.1335C17.2267 65.3558 18.165 65.6718 19.2006 66.0225C20.2362 66.3733 21.1772 66.6813 21.864 66.8901C22.2074 66.9946 22.4859 67.0749 22.6779 67.1285C22.7671 67.1526 22.8401 67.1713 22.9023 67.1874C22.9537 67.2008 22.9807 67.2061 22.9807 67.2034C22.9807 67.2008 22.9564 67.19 22.905 67.1713C22.8455 67.1526 22.7752 67.1285 22.686 67.099C22.4832 67.0347 22.2101 66.9437 21.8802 66.8366C21.1988 66.6143 20.2606 66.2983 19.225 65.9476C18.1893 65.5968 17.2484 65.2888 16.5616 65.08C16.2182 64.9755 15.9396 64.8952 15.7477 64.8416C15.6584 64.8175 15.5854 64.7988 15.5232 64.7827C15.4719 64.7693 15.4448 64.764 15.4448 64.7667Z" fill="#263238"/>
<path d="M51.2968 69.6989H27.6696C24.8142 69.6855 22.4023 67.2757 22.4131 64.4481L22.6646 5.52187C22.6754 2.69431 25.0035 0.410316 27.8589 0.423704L51.5942 0.533479C54.4496 0.546867 56.7533 2.84694 56.7398 5.6745L56.4883 64.6007C56.4802 67.4283 54.1548 69.7123 51.2968 69.6989Z" fill="#263238"/>
<path d="M51.5617 2.77198L46.9596 2.75057C46.3431 2.74789 45.8402 3.26466 45.8375 3.90193L45.8348 4.72931C45.8321 5.36926 45.3291 5.88336 44.7126 5.88068L35.7436 5.84052C35.1271 5.83784 34.6296 5.31839 34.6323 4.67844L34.635 3.85106C34.6377 3.21111 34.1402 2.69166 33.5237 2.68898L31.904 2.68095L27.8751 2.6622C25.8742 2.65417 24.2464 4.2527 24.2383 6.23413L23.9922 63.7491C23.9841 65.7279 25.5957 67.3398 27.5966 67.3505L51.2832 67.4576C53.2842 67.4656 54.9119 65.8671 54.92 63.8857L55.1661 6.37069C55.1742 4.39461 53.5627 2.78269 51.5617 2.77198Z" fill="#F5F5F5"/>
<path d="M41.5086 56.5893C41.4815 57.2828 41.4545 57.9361 41.4355 58.4769H44.8371L44.4207 56.4072L41.5086 56.5893Z" fill="#F5F5F5"/>
<path d="M27.6804 57.4569L27.7102 58.4771H41.0947C41.1163 57.904 41.1434 57.2667 41.1677 56.6107L27.6804 57.4569Z" fill="#F5F5F5"/>
<path d="M44.5933 56.3965L45.0097 58.4769H51.2828L51.2071 55.9814L44.5933 56.3965Z" fill="#F5F5F5"/>
<path d="M41.849 27.315L43.036 20.5059L39.9292 20.2783V27.315H41.849Z" fill="#F5F5F5"/>
<path d="M27.4019 53.6763L24.0301 54.9829L24.0193 57.3497L27.502 57.1302L27.4019 53.6763Z" fill="#F5F5F5"/>
<path d="M27.3856 53.1431L27.2017 46.7999H27.199V44.5641L24.0733 44.8908L24.0327 54.4418L27.3856 53.1405V53.1431Z" fill="#F5F5F5"/>
<path d="M27.199 39.5704L24.0976 39.1634L24.0732 44.3848L27.199 44.0581V39.5704Z" fill="#F5F5F5"/>
<path d="M50.3178 44.6579L50.188 46.476L46.5242 46.8669L46.8081 48.3047L50.9668 47.9941L50.9046 45.9324L51.2345 44.5668L50.3178 44.6579Z" fill="#F5F5F5"/>
<path d="M43.7147 48.535L46.6377 48.3182L45.9995 45.089L43.4497 45.3434L43.7147 48.535Z" fill="#F5F5F5"/>
<path d="M43.7444 48.8724L43.9661 51.5635L44.3636 55.2559L44.5258 56.0646L51.1992 55.6469L50.9775 48.3315L43.7444 48.8724Z" fill="#F5F5F5"/>
<path d="M32.2582 36.1617L32.5151 36.5982L27.3694 39.5703V46.6205L32.8017 46.2403L43.2687 45.1933L42.8847 40.5718L32.8855 39.2785L32.9504 38.7778L42.8415 40.0577L42.1925 32.2364L32.4015 33.1682L32.369 32.8335L42.1655 31.9017L41.8275 27.821H32.4096L24.1382 29.3124L24.0977 38.6599L27.2288 39.0696L32.2582 36.1617ZM27.8967 45.9484C27.8967 45.9484 27.9346 40.1353 27.8967 39.9184L32.0959 37.7067L32.6394 45.6539L27.8967 45.9484Z" fill="#F5F5F5"/>
<path d="M49.9744 44.6927L46.1699 45.073L46.4592 46.5349L49.8689 46.1708L49.9744 44.6927Z" fill="#F5F5F5"/>
<path d="M41.5569 55.3444C41.5461 55.6496 41.5325 55.9548 41.5217 56.252L44.3528 56.0753L44.2068 55.3524L41.5569 55.3444Z" fill="#F5F5F5"/>
<path d="M35.4569 27.3151L35.9572 25.0766H39.7589V20.2649L27.8723 19.392V23.9091L24.1571 24.7419L24.1409 28.7958L32.3636 27.3151H35.4569Z" fill="#F5F5F5"/>
<path d="M43.3904 13.9297L43.2903 13.5173L47.8303 11.7394L44.8775 5.87003C44.8235 5.87806 44.7694 5.88341 44.7153 5.88341L39.6995 5.85931L39.8347 14.0743L43.3904 13.9297Z" fill="#F5F5F5"/>
<path d="M50.2691 10.7808L50.2637 2.76669L46.9595 2.75062C46.343 2.74794 45.84 3.26472 45.8373 3.90199L45.8346 4.72937C45.8319 5.12298 45.6399 5.47107 45.3479 5.67725L48.3033 11.5493L50.2691 10.7808Z" fill="#F5F5F5"/>
<path d="M33.2046 11.1235L32.8207 2.68633L31.9013 2.68098L28.3105 2.66492L26.78 10.2104L33.2046 11.1235ZM32.3853 3.54049L32.507 10.4112L27.7345 9.72041L28.781 3.54049H32.3853Z" fill="#F5F5F5"/>
<path d="M33.3774 11.1503V11.2226C33.3855 11.8813 33.399 13.0675 33.4098 14.334L39.6614 14.0823L39.5235 5.85932L35.7406 5.84058C35.1241 5.8379 34.6266 5.31844 34.6293 4.67849L34.632 3.85111C34.6347 3.21116 34.1372 2.6917 33.5207 2.68902L32.9907 2.68634L33.3774 11.1503Z" fill="#F5F5F5"/>
<path d="M26.2769 10.1409L27.7911 2.6676C25.8281 2.70241 24.2436 4.28222 24.2355 6.23421L24.2192 9.95879L24.2355 9.84901L26.2769 10.1409Z" fill="#F5F5F5"/>
<path d="M27.3614 19.3544L24.1815 19.1214L24.1599 24.225L27.3614 23.5074V19.3544Z" fill="#F5F5F5"/>
<path d="M26.2447 10.3041L24.2222 10.0176L24.187 18.2781L24.6223 18.3102L26.2447 10.3041Z" fill="#F5F5F5"/>
<path d="M32.6664 53.0469L32.7205 46.4144L27.3721 46.7892L27.5586 53.2878L32.6664 53.0469Z" fill="#F5F5F5"/>
<path d="M33.6507 51.5153L41.2272 55.1086C41.3164 52.7603 41.3976 50.5647 41.3895 50.4228L41.5544 50.4147L41.6355 50.2568C41.7437 50.3103 41.7437 50.3103 41.6869 51.9115C41.6544 52.8059 41.6112 53.9947 41.5652 55.1836H44.1853L43.7987 51.5795L43.2822 45.3621L33.3831 46.3501L33.6507 51.5153Z" fill="#F5F5F5"/>
<path d="M52.2213 40.5076L52.1348 39.6347L43.0549 40.5692L43.4362 45.1774L51.2777 44.3928L52.2213 40.5076Z" fill="#F5F5F5"/>
<path d="M39.7591 25.5799H36.3657L35.979 27.3151H39.7591V25.5799Z" fill="#F5F5F5"/>
<path d="M50.8182 26.1663L42.3224 25.5853L41.9763 27.5721L42.3332 31.8857L51.2941 31.0316L50.8182 26.1663ZM42.6361 27.5667L43.0931 26.3136L50.4721 26.7768L50.8994 30.3648L42.8875 31.3047L42.6361 27.5667Z" fill="#F5F5F5"/>
<path d="M51.6993 35.1817L51.3262 31.3662L42.3625 32.2204L42.6978 36.2795L51.6993 35.1817Z" fill="#F5F5F5"/>
<path d="M27.5099 57.4675L24.0326 57.6844L24.0191 57.4595L24.0137 58.4771H27.5396L27.5099 57.4675Z" fill="#F5F5F5"/>
<path d="M55.1038 8.88499L55.1552 9.01352L55.166 6.3734C55.1741 4.39465 53.5598 2.78273 51.5616 2.77201L50.4341 2.76666L50.4395 10.7138L55.1038 8.88499Z" fill="#F5F5F5"/>
<path d="M41.2189 55.2934L33.4856 51.625L33.2125 46.3688L32.8881 46.4009L32.834 53.2075L27.564 53.4538L27.5694 53.6064V53.6091L27.6721 57.1195L41.1838 56.2734C41.1946 55.9494 41.2081 55.62 41.2189 55.2934ZM27.8966 53.8876L35.2729 53.3762L40.0725 55.5825L27.8966 56.2359V53.8876Z" fill="#F5F5F5"/>
<path d="M52.9055 17.713L53.2219 15.8548C50.4476 14.8748 50.2557 12.0124 50.2638 11.1449L48.4548 11.8545L51.1804 17.2712L52.9055 17.713Z" fill="#F5F5F5"/>
<path d="M43.0116 40.0657L46.7836 39.6775L46.04 36.3813L42.7412 36.783L43.0116 40.0657Z" fill="#F5F5F5"/>
<path d="M50.8315 20.562L43.7904 20.5593L43.2063 20.5165L42.4114 25.0846L50.7693 25.6576L50.5746 23.6708L51.3966 20.7387L50.8315 20.562Z" fill="#F5F5F5"/>
<path d="M50.6612 19.7213L50.7505 17.5417L47.9816 12.0392L43.6904 13.7208L45.1668 19.7213H50.6612ZM47.814 12.7086L50.3503 17.4855L49.9852 18.9742L45.6454 18.8136L44.5611 14.2938L47.814 12.7086Z" fill="#F5F5F5"/>
<path d="M51.7566 46.0207L51.8864 50.3022L54.9364 50.1309L54.9473 50.2995L51.8918 50.4682L52.0459 55.5932L54.931 55.4111L54.9527 55.7485L52.0567 55.9279L52.1324 58.4769H54.9446L55.0067 44.1893L52.1297 44.4758L51.7566 46.0207Z" fill="#F5F5F5"/>
<path d="M33.21 11.2949L26.7503 10.3765L25.1333 18.3477L33.2398 18.9421C33.2722 17.7157 33.2425 13.951 33.21 11.2949Z" fill="#F5F5F5"/>
<path d="M43.8363 19.7213H44.8152L43.4307 14.0956L39.8345 14.2402L39.921 19.4348L43.8363 19.7213Z" fill="#F5F5F5"/>
<path d="M23.9976 62.5684L23.9922 63.7492C23.9922 63.7867 23.9976 63.8215 23.9976 63.8563V62.5684Z" fill="#F5F5F5"/>
<path d="M33.4043 18.9554L39.7532 19.4213L39.6666 14.2482L33.4124 14.4999C33.4259 16.251 33.4313 18.1173 33.4043 18.9554Z" fill="#F5F5F5"/>
<path d="M51.7508 35.6824L46.2104 36.3599L46.954 39.6614L52.0861 39.1312L51.7508 35.6824Z" fill="#F5F5F5"/>
<path d="M53.2517 15.6861L53.6059 13.6002L55.1363 13.7181L55.1552 9.22772L50.4368 11.0753C50.3422 14.2375 52.3458 15.3487 53.2517 15.6861Z" fill="#F5F5F5"/>
<path d="M51.4346 23.7457L51.6265 25.7164L55.0822 25.952L55.1011 21.8955L52.2079 20.9904L51.4346 23.7457Z" fill="#F5F5F5"/>
<path d="M53.0814 40.5665L52.1729 44.3044L55.0066 44.0206L55.0228 40.1033C54.1522 39.8757 53.395 39.6909 52.9867 39.6133L53.0814 40.5665Z" fill="#F5F5F5"/>
<path d="M51.1667 19.7855L55.1037 21.0145L55.1145 18.7975L51.2479 17.8094L51.1667 19.7855Z" fill="#F5F5F5"/>
<path d="M52.9351 39.0992C53.2515 39.1474 53.8545 39.2732 55.0226 39.5785L55.0605 31.0101L52.1699 31.2859L52.9351 39.0992Z" fill="#F5F5F5"/>
<path d="M52.1401 30.9512L55.0631 30.6727L55.082 26.4582L51.6777 26.2252L52.1401 30.9512Z" fill="#F5F5F5"/>
<path d="M53.5789 15.7933C54.1332 15.9593 54.6496 16.0905 55.1255 16.1842L55.1336 14.0581L53.8898 13.9617L53.5789 15.7933Z" fill="#F5F5F5"/>
<path d="M53.2354 17.7961L55.1146 18.2781L55.1227 16.3556C54.636 16.2592 54.1114 16.128 53.5463 15.9593L53.2354 17.7961Z" fill="#F5F5F5"/>
<path d="M27.5101 57.4676L27.5399 58.4771H27.7102L27.6805 57.4569L41.1678 56.6134C41.1434 57.2694 41.1164 57.9067 41.0948 58.4797H41.4355C41.4571 57.9389 41.4814 57.2855 41.5085 56.592L44.4206 56.4099L44.837 58.4797H45.0101L44.591 56.3992L51.2075 55.9842L51.2833 58.4797H52.1323L52.0539 55.9306L54.9498 55.7486L54.9282 55.4139L52.0431 55.5933L51.8889 50.4683L54.9444 50.2969L54.9336 50.1283L51.8835 50.2969L51.7537 46.0154L52.1296 44.4731L55.0066 44.1893V44.0206L52.1728 44.3045L53.0814 40.5665L52.9867 39.6133C53.395 39.6909 54.1548 39.8757 55.0228 40.1033L55.0255 39.5785C53.8547 39.2732 53.2544 39.1474 52.9381 39.0992L52.1728 31.2859L55.0634 31.0101L55.0661 30.6727L52.1431 30.9512L51.6807 26.2252L55.085 26.4582L55.0877 25.9521L51.6321 25.7165L51.4401 23.7457L52.2134 20.9905L55.1066 21.8955L55.1093 21.0146L51.1724 19.7829L51.2535 17.8068L55.1202 18.7975L55.1229 18.2781L53.2436 17.7961L53.5573 15.9593C54.1224 16.1279 54.647 16.2591 55.1337 16.3555V16.1815C54.6551 16.0878 54.1413 15.9566 53.587 15.7906L53.898 13.9591L55.1418 14.0555L55.1445 13.7181L53.6141 13.6003L53.2598 15.6861C52.354 15.3488 50.3504 14.2376 50.445 11.0753L55.1634 9.22773V9.01353L55.1121 8.885L50.4477 10.7138L50.4423 2.76666H50.272L50.2774 10.7808L48.3116 11.5519L45.3562 5.6799C45.2183 5.77897 45.0561 5.84324 44.883 5.87001L47.8357 11.7393L43.2958 13.5173L43.3958 13.9296L39.8374 14.0742L39.7022 5.8593H39.5319L39.6671 14.0822L33.4155 14.3339C33.4047 13.0674 33.3912 11.8813 33.3831 11.2226V11.1503H33.3804L32.9964 2.68901H32.8261L33.21 11.1262L26.7827 10.2104L28.3132 2.66491L27.8751 2.66223C27.8481 2.66223 27.8211 2.66491 27.7913 2.66491L26.2771 10.1381L24.2356 9.84894L24.2194 9.95872V10.0176L26.242 10.3041L24.6196 18.3102L24.1842 18.2781L24.1815 19.1215L27.3614 19.3545V23.5074L24.1599 24.225L24.1572 24.7418L27.8697 23.9091V19.392L39.7563 20.2649V25.0765H35.9545L35.4543 27.315H32.361L24.1383 28.7957L24.1356 29.3098L32.407 27.8184H41.8248L42.1628 31.8991L32.3664 32.8309L32.3989 33.1656L42.1899 32.2338L42.8388 40.0551L32.9478 38.7752L32.8829 39.2759L42.8821 40.5692L43.266 45.1907L32.799 46.2377L27.3668 46.6179V39.5678L32.5124 36.5956L32.2555 36.1592L27.2289 39.0617L24.0977 38.652L24.095 39.1608L27.1964 39.5651V44.0528L24.0734 44.3794L24.0707 44.8855L27.1964 44.5561V46.792H27.1992L27.383 53.1352V53.1325L24.0301 54.4339L24.0274 54.9774L27.3992 53.6707L27.4993 57.1249L24.0166 57.3417V57.4542L24.0301 57.6791L27.5101 57.4676ZM41.522 56.252C41.5328 55.9521 41.5463 55.6495 41.5571 55.3442L44.207 55.3523L44.353 56.0752L41.522 56.252ZM44.5261 56.0645L44.3638 55.2559L43.9664 51.5635L43.7419 48.8725L50.975 48.3316L51.1967 55.6468L44.5261 56.0645ZM46.1701 45.0729L49.9745 44.6927L49.8691 46.1707L46.4594 46.5349L46.1701 45.0729ZM45.9997 45.089L46.6352 48.3182L43.7122 48.5351L43.4472 45.3434L45.9997 45.089ZM50.9669 47.9942L46.8082 48.3048L46.5243 46.8669L50.1882 46.476L50.3179 44.6579L51.2346 44.5669L50.902 45.9324L50.9669 47.9942ZM46.0403 36.3814L46.7839 39.6775L43.0146 40.0658L42.7415 36.783L46.0403 36.3814ZM46.9542 39.6615L46.2106 36.36L51.751 35.6825L52.089 39.1313L46.9542 39.6615ZM50.7695 25.6576L42.4116 25.0846L43.2065 20.5192L43.7906 20.5621H50.8317L51.3968 20.7388L50.5748 23.6708L50.7695 25.6576ZM50.2666 11.1449C50.2585 12.0125 50.4504 14.8748 53.2247 15.8548L52.9083 17.7131L51.1832 17.2713L48.4576 11.8545L50.2666 11.1449ZM47.9817 12.0392L50.7506 17.5417L50.6613 19.7213H45.1642L43.6879 13.7208L47.9817 12.0392ZM43.431 14.0956L44.8154 19.7213H43.8366L39.9212 19.4348L39.8347 14.2429L43.431 14.0956ZM39.6671 14.2483L39.7536 19.4214L33.4074 18.9555C33.4345 18.1174 33.4291 16.2511 33.4155 14.5L39.6671 14.2483ZM26.7503 10.3764L33.21 11.2949C33.2425 13.951 33.2722 17.7158 33.2371 18.9421L25.1306 18.3477L26.7503 10.3764ZM43.0362 20.5058L41.8492 27.315H39.9294V20.2782L43.0362 20.5058ZM36.3655 25.5799H39.759V27.315H35.9789L36.3655 25.5799ZM41.9762 27.5721L42.3224 25.5853L50.8182 26.1663L51.2941 31.0315L42.3332 31.8857L41.9762 27.5721ZM51.3265 31.3662L51.6997 35.1818L42.6982 36.2796L42.3629 32.2204L51.3265 31.3662ZM43.0551 40.5692L52.135 39.6347L52.2215 40.5103L51.2778 44.3955L43.4364 45.18L43.0551 40.5692ZM43.7987 51.5795L44.1854 55.1836H41.5652C41.6112 53.9947 41.6545 52.8059 41.6869 51.9115C41.7437 50.3103 41.7437 50.3103 41.6356 50.2568L41.5544 50.4148L41.3895 50.4228C41.3976 50.562 41.3165 52.7577 41.2273 55.1086L33.6508 51.5153L33.3831 46.3502L43.2823 45.3621L43.7987 51.5795ZM32.7206 46.4144L32.6665 53.0469L27.5588 53.2878L27.3695 46.7893L32.7206 46.4144ZM27.5696 53.6092V53.6065L27.5642 53.4539L32.8342 53.2075L32.8883 46.401L33.2127 46.3689L33.4858 51.625L41.2191 55.2934C41.2056 55.62 41.1948 55.9467 41.1813 56.2734L27.6696 57.1195L27.5696 53.6092Z" fill="white"/>
<path d="M35.2729 53.3762L27.8965 53.8876V56.2332L40.0724 55.5798L35.2729 53.3762Z" fill="#EBEBEB"/>
<path d="M50.4718 26.7741L43.0927 26.3135L42.6357 27.5667L42.8845 31.3046L50.899 30.3648L50.4718 26.7741Z" fill="#EBEBEB"/>
<path d="M27.5968 67.3506L51.2834 67.4577C53.2843 67.4658 54.9121 65.8672 54.9202 63.8858L54.9445 58.4744H52.1324H51.2834H45.0102H44.8372H41.4356H41.0949H27.7103H27.54H24.014L23.9978 62.5658V63.8537C24.0465 65.7869 25.6337 67.3426 27.5968 67.3506Z" fill="#EBEBEB"/>
<path d="M32.5098 10.414L32.3881 3.54053H28.781L27.7373 9.72317L32.5098 10.414Z" fill="#EBEBEB"/>
<path d="M49.9827 18.9769L50.3505 17.4855L47.8142 12.7086L44.5586 14.2938L45.6429 18.8135L49.9827 18.9769Z" fill="#EBEBEB"/>
<path d="M27.8965 39.9159C27.9343 40.1328 27.8965 45.9458 27.8965 45.9458L32.6392 45.6486L32.0957 37.7015L27.8965 39.9159Z" fill="#EBEBEB"/>
<path d="M43.7175 44.6391L43.4661 41.0351L51.6022 39.9988V40.62L50.618 43.9349L43.7175 44.6391Z" fill="#EBEBEB"/>
<path d="M37.6983 14.7597C37.6983 15.3006 37.2548 15.7397 36.7086 15.7397C36.1624 15.7397 35.719 15.3006 35.719 14.7597C35.719 14.2188 36.1624 13.7797 36.7086 13.7797C37.2548 13.777 37.6983 14.2161 37.6983 14.7597Z" fill="#009344"/>
<g opacity="0.6">
<g opacity="0.6">
<path opacity="0.6" d="M37.6986 14.7168C37.7229 15.2577 37.2984 15.7156 36.7522 15.7397C36.206 15.7638 35.7436 15.3434 35.7193 14.8025C35.6949 14.2616 36.1194 13.8037 36.6656 13.7796C37.2118 13.7555 37.6742 14.1759 37.6986 14.7168Z" fill="white"/>
</g>
</g>
<path d="M37.3659 14.7249C37.3659 15.0864 37.0712 15.3782 36.7061 15.3782C36.3411 15.3782 36.0464 15.0864 36.0464 14.7249C36.0464 14.3634 36.3411 14.0715 36.7061 14.0715C37.0712 14.0742 37.3659 14.3661 37.3659 14.7249Z" fill="#009344"/>
<path d="M52.0241 53.9547C52.0241 54.1876 51.8348 54.375 51.5996 54.375C51.3643 54.375 51.175 54.1876 51.175 53.9547C51.175 53.7244 51.3643 53.5343 51.5996 53.5343C51.8348 53.5343 52.0241 53.7217 52.0241 53.9547Z" fill="#009344"/>
<path d="M51.3481 53.8179L51.2453 51.4669L44.0934 51.8124C43.9068 51.8231 43.7202 51.7829 43.5526 51.6999L33.41 46.6258C33.1748 46.508 33.0206 46.2751 33.0071 46.0127L31.6254 19.4964C31.62 19.3705 31.6687 19.2447 31.7606 19.1563C31.8525 19.068 31.9796 19.0225 32.1067 19.0305L36.4547 19.3491V14.6419H36.963V19.4134C36.963 19.5366 36.9116 19.6544 36.8197 19.7374C36.7278 19.8204 36.6061 19.8632 36.4817 19.8552L32.1392 19.5366L33.5155 45.9859C33.5209 46.0662 33.5668 46.1385 33.6399 46.1733L43.7824 51.2474C43.8716 51.2929 43.969 51.3116 44.069 51.3063L51.2805 50.9582C51.4021 50.9528 51.5157 50.993 51.6049 51.0733C51.6942 51.1537 51.7455 51.2634 51.751 51.3839L51.8564 53.7938L51.3481 53.8179Z" fill="#009344"/>
<path d="M33.7399 31.0101C33.7399 31.7117 33.164 32.282 32.4555 32.282C31.7471 32.282 31.1711 31.7117 31.1711 31.0101C31.1711 30.3086 31.7471 29.7383 32.4555 29.7383C33.164 29.7383 33.7399 30.3059 33.7399 31.0101Z" fill="#009344"/>
<path d="M33.3476 31.0101C33.3476 31.4974 32.9474 31.8937 32.4553 31.8937C31.9632 31.8937 31.563 31.4974 31.563 31.0101C31.563 30.5228 31.9632 30.1265 32.4553 30.1265C32.9474 30.1265 33.3476 30.5228 33.3476 31.0101Z" fill="#FBFBFB"/>
<path d="M32.4555 31.9553C31.9282 31.9553 31.501 31.5322 31.501 31.0101C31.501 30.4879 31.9282 30.0649 32.4555 30.0649C32.9827 30.0649 33.41 30.4879 33.41 31.0101C33.41 31.5295 32.9827 31.9553 32.4555 31.9553ZM32.4555 30.188C31.9985 30.188 31.6281 30.5549 31.6281 31.0074C31.6281 31.4599 31.9985 31.8267 32.4555 31.8267C32.9124 31.8267 33.2829 31.4599 33.2829 31.0074C33.2829 30.5576 32.9124 30.188 32.4555 30.188Z" fill="#009344"/>
<path d="M40.0157 25.6763H33.9048C33.6074 25.6763 33.3667 25.9146 33.3667 26.2092V28.4021C33.3667 28.6966 33.6074 28.9349 33.9048 28.9349H33.9751V29.457L34.5862 28.9349H40.0157C40.3131 28.9349 40.5538 28.6966 40.5538 28.4021V26.2092C40.5538 25.9173 40.3131 25.6763 40.0157 25.6763Z" fill="#009344"/>
<g opacity="0.4">
<g opacity="0.4">
<path opacity="0.4" d="M40.0157 25.6763H33.9048C33.6074 25.6763 33.3667 25.9146 33.3667 26.2092V28.4021C33.3667 28.6966 33.6074 28.9349 33.9048 28.9349H33.9751V29.457L34.5862 28.9349H40.0157C40.3131 28.9349 40.5538 28.6966 40.5538 28.4021V26.2092C40.5538 25.9173 40.3131 25.6763 40.0157 25.6763Z" fill="white"/>
</g>
</g>
<path d="M34.7402 27.2722C34.7402 27.0713 34.8971 26.9214 35.108 26.9214C35.3189 26.9214 35.473 27.0687 35.473 27.2722C35.473 27.473 35.3162 27.6229 35.108 27.6229C34.8971 27.6229 34.7402 27.473 34.7402 27.2722ZM35.3757 27.2722C35.3757 27.1195 35.2621 27.0097 35.108 27.0097C34.9538 27.0097 34.8376 27.1222 34.8376 27.2722C34.8376 27.4248 34.9511 27.5346 35.108 27.5346C35.2621 27.5346 35.3757 27.4248 35.3757 27.2722Z" fill="white"/>
<path d="M36.1546 27.3551C36.1546 27.5131 36.0437 27.6202 35.8896 27.6202C35.8112 27.6202 35.7463 27.5908 35.703 27.5319V27.6149H35.6111V26.8892H35.7057V27.1757C35.749 27.1195 35.8139 27.0927 35.8896 27.0927C36.0437 27.09 36.1546 27.1972 36.1546 27.3551ZM36.06 27.3551C36.06 27.2454 35.9842 27.1731 35.8842 27.1731C35.7841 27.1731 35.7084 27.2454 35.7084 27.3551C35.7084 27.4649 35.7841 27.5372 35.8842 27.5372C35.9815 27.5372 36.06 27.4649 36.06 27.3551Z" fill="white"/>
<path d="M36.106 27.7782L36.1357 27.7059C36.1546 27.722 36.1817 27.73 36.2114 27.73C36.2628 27.73 36.2898 27.6979 36.2898 27.639V27.0954H36.3845V27.6363C36.3845 27.7407 36.325 27.8076 36.2168 27.8076C36.1763 27.8103 36.133 27.7996 36.106 27.7782ZM36.2736 26.9347C36.2736 26.8999 36.3007 26.8732 36.3385 26.8732C36.3764 26.8732 36.4034 26.8999 36.4034 26.9321C36.4034 26.9669 36.3764 26.9937 36.3385 26.9937C36.3007 26.9963 36.2736 26.9696 36.2736 26.9347Z" fill="white"/>
<path d="M37.036 27.3872H36.6115C36.6223 27.4783 36.698 27.5399 36.8008 27.5399C36.863 27.5399 36.9143 27.5184 36.9522 27.4783L37.0036 27.5399C36.9549 27.5934 36.8846 27.6229 36.7981 27.6229C36.6304 27.6229 36.5168 27.5131 36.5168 27.3578C36.5168 27.2052 36.6277 27.0927 36.7791 27.0927C36.9306 27.0927 37.0387 27.1998 37.0387 27.3605C37.0387 27.3658 37.0387 27.3765 37.036 27.3872ZM36.6115 27.3176H36.9468C36.936 27.232 36.8711 27.1704 36.7791 27.1704C36.6899 27.1704 36.6223 27.232 36.6115 27.3176Z" fill="white"/>
<path d="M37.1228 27.3552C37.1228 27.1999 37.2391 27.0901 37.3986 27.0901C37.4932 27.0901 37.5717 27.1276 37.6122 27.1999L37.5392 27.2454C37.5068 27.1945 37.4554 27.1704 37.3959 27.1704C37.2931 27.1704 37.2174 27.2427 37.2174 27.3525C37.2174 27.465 37.2959 27.5346 37.3959 27.5346C37.4527 27.5346 37.5041 27.5105 37.5392 27.4596L37.6122 27.5052C37.5717 27.5775 37.4932 27.6176 37.3986 27.6176C37.2364 27.6203 37.1228 27.5105 37.1228 27.3552Z" fill="white"/>
<path d="M38.0335 27.5828C38.0038 27.6069 37.9605 27.6176 37.9199 27.6176C37.8145 27.6176 37.755 27.5587 37.755 27.4543V27.1704H37.6658V27.0928H37.755V26.9803H37.8496V27.0928H37.9984V27.1704H37.8496V27.4516C37.8496 27.5078 37.8794 27.5373 37.9308 27.5373C37.9578 27.5373 37.9848 27.5292 38.0038 27.5132L38.0335 27.5828Z" fill="white"/>
<path d="M38.1311 26.9347C38.1311 26.8999 38.1581 26.8732 38.196 26.8732C38.2312 26.8732 38.2609 26.8999 38.2609 26.9321C38.2609 26.9669 38.2339 26.9936 38.196 26.9936C38.1608 26.9963 38.1311 26.9696 38.1311 26.9347ZM38.15 27.0954H38.2447V27.6148H38.15V27.0954Z" fill="white"/>
<path d="M38.888 27.0954L38.6582 27.6148H38.5609L38.3337 27.0954H38.4311L38.6095 27.5104L38.7934 27.0954H38.888Z" fill="white"/>
<path d="M39.4317 27.3872H39.0072C39.0181 27.4783 39.0938 27.5399 39.1965 27.5399C39.2587 27.5399 39.3101 27.5184 39.3479 27.4783L39.3993 27.5399C39.3506 27.5934 39.2803 27.6229 39.1938 27.6229C39.0262 27.6229 38.9126 27.5131 38.9126 27.3578C38.9126 27.2052 39.0235 27.0927 39.1749 27.0927C39.3263 27.0927 39.4344 27.1998 39.4344 27.3605C39.4344 27.3658 39.4344 27.3765 39.4317 27.3872ZM39.0072 27.3176H39.3425C39.3317 27.232 39.2668 27.1704 39.1749 27.1704C39.0856 27.1704 39.0181 27.232 39.0072 27.3176Z" fill="white"/>
<path d="M37.9984 11.4635C37.9984 10.6897 37.2926 10.0765 36.4815 10.2291C35.9731 10.3229 35.5648 10.7352 35.4783 11.2413C35.4215 11.5572 35.4891 11.8544 35.6351 12.1008L35.6378 12.1061C35.6865 12.1864 35.7487 12.2454 35.8082 12.331L36.5463 13.2976C36.6383 13.4181 36.8222 13.4181 36.9114 13.2976L37.636 12.3471C37.636 12.3471 37.7712 12.1864 37.8199 12.1061L37.8226 12.1034C37.9335 11.9107 37.9984 11.6938 37.9984 11.4635ZM36.7275 12.0097C36.4193 12.0097 36.1678 11.7607 36.1678 11.4555C36.1678 11.1502 36.4193 10.9012 36.7275 10.9012C37.0358 10.9012 37.2872 11.1502 37.2872 11.4555C37.2872 11.7634 37.0358 12.0097 36.7275 12.0097Z" fill="#009344"/>
<path d="M29.7704 61.0342H29.5352V60.9485H30.1057V61.0342H29.8677V61.6312H29.7704V61.0342Z" fill="#263238"/>
<path d="M30.0977 61.3743C30.0977 61.2189 30.2139 61.1091 30.3708 61.1091C30.5276 61.1091 30.6411 61.2189 30.6411 61.3743C30.6411 61.5296 30.5276 61.6394 30.3708 61.6394C30.2112 61.6394 30.0977 61.5269 30.0977 61.3743ZM30.5438 61.3743C30.5438 61.2645 30.4681 61.1922 30.368 61.1922C30.268 61.1922 30.1923 61.2645 30.1923 61.3743C30.1923 61.4841 30.268 61.5564 30.368 61.5564C30.4708 61.5564 30.5438 61.4841 30.5438 61.3743Z" fill="#263238"/>
<path d="M31.066 61.6018C31.0362 61.6259 30.993 61.6393 30.9524 61.6393C30.847 61.6393 30.7875 61.5804 30.7875 61.4759V61.1921H30.6982V61.1144H30.7875V61.002H30.8821V61.1144H31.0335V61.1921H30.8821V61.4733C30.8821 61.5295 30.9119 61.559 30.9632 61.559C30.9903 61.559 31.0173 61.5509 31.0362 61.5348L31.066 61.6018Z" fill="#263238"/>
<path d="M31.5956 61.3207V61.634H31.5064V61.5644C31.4739 61.6126 31.4172 61.6394 31.336 61.6394C31.2171 61.6394 31.1414 61.5778 31.1414 61.4867C31.1414 61.4037 31.1954 61.3341 31.3523 61.3341H31.5037V61.3153C31.5037 61.235 31.4577 61.1895 31.3631 61.1895C31.3009 61.1895 31.2387 61.2109 31.1981 61.2457L31.1576 61.1761C31.2117 61.1332 31.2901 61.1091 31.3739 61.1091C31.5145 61.1091 31.5956 61.1788 31.5956 61.3207ZM31.501 61.4734V61.401H31.355C31.2603 61.401 31.2333 61.4385 31.2333 61.4814C31.2333 61.5323 31.2765 61.5644 31.3496 61.5644C31.4199 61.5644 31.4766 61.5323 31.501 61.4734Z" fill="#263238"/>
<path d="M31.8659 60.9083H31.7712V61.634H31.8659V60.9083Z" fill="#263238"/>
<path d="M32.8043 60.9082V61.634H32.7123V61.551C32.6691 61.6099 32.6042 61.6394 32.5257 61.6394C32.3716 61.6394 32.2607 61.5323 32.2607 61.3742C32.2607 61.2162 32.3716 61.1091 32.5257 61.1091C32.5988 61.1091 32.6636 61.1359 32.7096 61.1921V60.9055H32.8043V60.9082ZM32.7123 61.3742C32.7123 61.2644 32.6366 61.1921 32.5366 61.1921C32.4365 61.1921 32.3608 61.2644 32.3608 61.3742C32.3608 61.4841 32.4365 61.5564 32.5366 61.5564C32.6366 61.5564 32.7123 61.4841 32.7123 61.3742Z" fill="#263238"/>
<path d="M32.9666 60.9538C32.9666 60.919 32.9936 60.8922 33.0314 60.8922C33.0693 60.8922 33.0963 60.919 33.0963 60.9511C33.0963 60.9859 33.0693 61.0127 33.0314 61.0127C32.9963 61.0154 32.9666 60.9886 32.9666 60.9538ZM32.9855 61.1144H33.0801V61.6312H32.9855V61.1144Z" fill="#263238"/>
<path d="M33.1938 61.5778L33.2344 61.5028C33.2777 61.535 33.3507 61.5564 33.4183 61.5564C33.5048 61.5564 33.5427 61.5296 33.5427 61.4867C33.5427 61.3716 33.2128 61.4707 33.2128 61.2645C33.2128 61.1707 33.2966 61.1091 33.4318 61.1091C33.4994 61.1091 33.5778 61.1279 33.6211 61.1573L33.5805 61.2323C33.5318 61.2029 33.4805 61.1922 33.4291 61.1922C33.3453 61.1922 33.3047 61.2216 33.3047 61.2645C33.3047 61.3877 33.6373 61.2859 33.6373 61.4894C33.6373 61.5832 33.5508 61.6421 33.4102 61.6421C33.3236 61.6367 33.2371 61.6126 33.1938 61.5778Z" fill="#263238"/>
<path d="M34.0482 61.6018C34.0184 61.6259 33.9752 61.6393 33.9346 61.6393C33.8291 61.6393 33.7697 61.5804 33.7697 61.4759V61.1921H33.6804V61.1144H33.7697V61.002H33.8643V61.1144H34.013V61.1921H33.8643V61.4733C33.8643 61.5295 33.894 61.559 33.9454 61.559C33.9724 61.559 33.9995 61.5509 34.0184 61.5348L34.0482 61.6018Z" fill="#263238"/>
<path d="M34.5783 61.3207V61.634H34.489V61.5644C34.4566 61.6126 34.3998 61.6394 34.3187 61.6394C34.1997 61.6394 34.124 61.5778 34.124 61.4867C34.124 61.4037 34.1781 61.3341 34.3349 61.3341H34.4863V61.3153C34.4863 61.235 34.4404 61.1895 34.3457 61.1895C34.2836 61.1895 34.2214 61.2109 34.1808 61.2457L34.1402 61.1761C34.1943 61.1332 34.2727 61.1091 34.3566 61.1091C34.4972 61.1091 34.5783 61.1788 34.5783 61.3207ZM34.4836 61.4734V61.401H34.3376C34.243 61.401 34.216 61.4385 34.216 61.4814C34.216 61.5323 34.2592 61.5644 34.3322 61.5644C34.4025 61.5644 34.4593 61.5323 34.4836 61.4734Z" fill="#263238"/>
<path d="M35.2487 61.334V61.6312H35.1541V61.3447C35.1541 61.243 35.1027 61.1921 35.0135 61.1921C34.9134 61.1921 34.8485 61.251 34.8485 61.3635V61.6312H34.7539V61.1145H34.8458V61.1921C34.8837 61.1386 34.9513 61.1091 35.0351 61.1091C35.1595 61.1091 35.2487 61.1814 35.2487 61.334Z" fill="#263238"/>
<path d="M35.3813 61.3742C35.3813 61.2189 35.4976 61.1091 35.6571 61.1091C35.7518 61.1091 35.8275 61.1466 35.8708 61.2189L35.7978 61.2644C35.7653 61.2136 35.7139 61.1895 35.6544 61.1895C35.5517 61.1895 35.476 61.2618 35.476 61.3716C35.476 61.484 35.5544 61.5537 35.6544 61.5537C35.7112 61.5537 35.7626 61.5295 35.7978 61.4787L35.8708 61.5242C35.8302 61.5965 35.7518 61.6367 35.6571 61.6367C35.4949 61.6393 35.3813 61.5269 35.3813 61.3742Z" fill="#263238"/>
<path d="M36.4547 61.4037H36.0302C36.041 61.4948 36.1167 61.5564 36.2195 61.5564C36.2816 61.5564 36.333 61.535 36.3709 61.4948L36.4222 61.5564C36.3736 61.6099 36.3033 61.6394 36.2168 61.6394C36.0491 61.6394 35.9355 61.5296 35.9355 61.3743C35.9355 61.2216 36.0464 61.1091 36.1978 61.1091C36.3492 61.1091 36.4574 61.2163 36.4574 61.3769C36.4574 61.385 36.4547 61.3957 36.4547 61.4037ZM36.0302 61.3368H36.3655C36.3547 61.2484 36.2898 61.1895 36.1978 61.1895C36.1086 61.1895 36.041 61.2484 36.0302 61.3368Z" fill="#263238"/>
<path d="M30.3925 62.3998V64.0303H30.0113V62.7023H29.6814V62.3998H30.3925Z" fill="#263238"/>
<path d="M31.1223 63.8215C31.1223 63.8831 31.1114 63.926 31.0574 64.0545L30.9222 64.3893H30.6896L30.7924 64.0197C30.714 63.9902 30.6653 63.9179 30.6653 63.8215C30.6653 63.6849 30.7653 63.5966 30.8924 63.5966C31.0303 63.5966 31.1223 63.6876 31.1223 63.8215Z" fill="#263238"/>
<path d="M31.8933 62.3998V64.0303H31.512V62.7023H31.1821V62.3998H31.8933Z" fill="#263238"/>
<path d="M32.1797 63.2164C32.1797 62.6782 32.4798 62.3729 32.8854 62.3729C33.2937 62.3729 33.5912 62.6782 33.5912 63.2164C33.5912 63.7547 33.291 64.0599 32.8854 64.0599C32.4825 64.0599 32.1797 63.7547 32.1797 63.2164ZM33.2099 63.2164C33.2099 62.8469 33.0774 62.6916 32.8881 62.6916C32.6988 62.6916 32.5691 62.8469 32.5691 63.2164C32.5691 63.586 32.7016 63.7413 32.8881 63.7413C33.0774 63.7413 33.2099 63.586 33.2099 63.2164Z" fill="#263238"/>
<path d="M33.7803 63.2164C33.7803 62.6782 34.0804 62.3729 34.486 62.3729C34.8943 62.3729 35.1917 62.6782 35.1917 63.2164C35.1917 63.7547 34.8916 64.0599 34.486 64.0599C34.0804 64.0599 33.7803 63.7547 33.7803 63.2164ZM34.8078 63.2164C34.8078 62.8469 34.6753 62.6916 34.486 62.6916C34.2967 62.6916 34.1669 62.8469 34.1669 63.2164C34.1669 63.586 34.2994 63.7413 34.486 63.7413C34.678 63.7413 34.8078 63.586 34.8078 63.2164Z" fill="#263238"/>
<path d="M38.2636 63.3127V64.0304H37.8959V63.369C37.8959 63.1655 37.8039 63.0717 37.6552 63.0717C37.4903 63.0717 37.374 63.1762 37.374 63.4011V64.0304H37.0063V63.369C37.0063 63.1655 36.9198 63.0717 36.7656 63.0717C36.6034 63.0717 36.4871 63.1762 36.4871 63.4011V64.0304H36.1194V62.7772H36.4709V62.9218C36.5655 62.8147 36.7061 62.7584 36.8684 62.7584C37.0441 62.7584 37.1956 62.8254 37.2848 62.9646C37.3848 62.8361 37.5498 62.7584 37.7417 62.7584C38.0473 62.7584 38.2636 62.9298 38.2636 63.3127Z" fill="#263238"/>
<path d="M28.7076 62.2712C28.7076 63.0478 28.0722 63.6797 27.2853 63.6797C26.5012 63.6797 25.863 63.0504 25.863 62.2712C25.863 61.4947 26.4985 60.8628 27.2853 60.8628C28.0722 60.8655 28.7076 61.4947 28.7076 62.2712Z" fill="#009344"/>
<path d="M26.7122 62.5283C26.7122 62.5203 26.8447 62.5123 27.0772 62.5069C27.3098 62.5015 27.6424 62.4962 28.0398 62.4908L28.0101 62.5524C27.8965 62.4239 27.7749 62.2847 27.6478 62.1374L27.6261 62.1106L27.6478 62.0838C27.7613 61.9419 27.883 61.7947 28.0047 61.642L28.0398 61.7117C27.9885 61.7117 27.9344 61.7117 27.8776 61.7117C27.4585 61.709 27.0637 61.709 26.7122 61.7063L26.7527 61.6661C26.75 62.0945 26.7446 62.4533 26.7365 62.705C26.7284 62.9567 26.7203 63.104 26.7122 63.104C26.7041 63.104 26.696 62.9594 26.6879 62.705C26.6797 62.4533 26.6743 62.0945 26.6716 61.6661V61.626H26.7122C27.0637 61.6233 27.4585 61.6233 27.8776 61.6206H28.0398H28.1318L28.0723 61.6929C27.9479 61.8455 27.8262 61.9928 27.7127 62.1347V62.0811C27.8397 62.2284 27.9587 62.3703 28.0696 62.5015L28.1237 62.5658H28.0398C27.6424 62.5631 27.3098 62.5578 27.0772 62.5497C26.8447 62.5444 26.7122 62.5364 26.7122 62.5283Z" fill="#FBFBFB"/>
<path d="M50.2748 59.8694H45.9782C45.524 59.8694 45.1562 60.2335 45.1562 60.6834V64.033C45.1562 64.4828 45.524 64.847 45.9782 64.847H46.0864V65.6449L47.022 64.847H50.2748C50.7291 64.847 51.0968 64.4828 51.0968 64.033V60.6834C51.0968 60.2335 50.7291 59.8694 50.2748 59.8694Z" fill="#009344"/>
<path d="M46.3892 61.4063V63.1226C46.3892 63.1601 46.4189 63.1896 46.4568 63.1896H50.0936C50.1314 63.1896 50.1612 63.1601 50.1612 63.1226L50.1531 62.4934C50.1531 62.48 50.1476 62.4666 50.1395 62.4532L49.6177 61.7624C49.6042 61.7464 49.5852 61.7356 49.5636 61.7356L48.9633 61.7303C48.9255 61.7303 48.8957 61.7008 48.8957 61.6633V61.4036C48.8957 61.3661 48.866 61.3367 48.8281 61.3367H46.4568C46.4189 61.3393 46.3892 61.3688 46.3892 61.4063Z" fill="#FBFBFB"/>
<path d="M49.063 61.883V62.4347C49.063 62.4561 49.0819 62.4748 49.1036 62.4722L49.9066 62.4588C49.9364 62.4588 49.9553 62.424 49.9391 62.3999L49.5632 61.8509C49.5551 61.8402 49.5443 61.8348 49.5308 61.8348L49.1036 61.8456C49.0819 61.8456 49.063 61.8616 49.063 61.883Z" fill="#009344"/>
<path d="M50.2339 63.2432H46.3159V63.3636H50.2339V63.2432Z" fill="#FBFBFB"/>
<path d="M47.6112 63.2887C47.6112 63.5002 47.4382 63.6715 47.2246 63.6715C47.0109 63.6715 46.8379 63.5002 46.8379 63.2887C46.8379 63.0772 47.0109 62.9059 47.2246 62.9059C47.4382 62.9059 47.6112 63.0772 47.6112 63.2887Z" fill="#009344"/>
<path d="M47.4518 63.2887C47.4518 63.4146 47.3491 63.5137 47.2247 63.5137C47.1003 63.5137 46.9976 63.4119 46.9976 63.2887C46.9976 63.1629 47.1003 63.0638 47.2247 63.0638C47.3491 63.0638 47.4518 63.1656 47.4518 63.2887Z" fill="#FBFBFB"/>
<path d="M48.8927 63.1896C48.8819 63.1896 48.8738 62.7746 48.8738 62.2631C48.8738 61.7517 48.8819 61.3367 48.8927 61.3367C48.9035 61.3367 48.9117 61.7517 48.9117 62.2631C48.9089 62.7772 48.9008 63.1896 48.8927 63.1896Z" fill="#009344"/>
<path d="M49.7228 63.2887C49.7228 63.5002 49.5497 63.6715 49.3361 63.6715C49.1225 63.6715 48.9495 63.5002 48.9495 63.2887C48.9495 63.0772 49.1225 62.9059 49.3361 62.9059C49.5497 62.9059 49.7228 63.0772 49.7228 63.2887Z" fill="#009344"/>
<path d="M49.5634 63.2887C49.5634 63.4146 49.4607 63.5137 49.3363 63.5137C49.2092 63.5137 49.1091 63.4119 49.1091 63.2887C49.1091 63.1629 49.2119 63.0638 49.3363 63.0638C49.4607 63.0638 49.5634 63.1656 49.5634 63.2887Z" fill="#FBFBFB"/>
<path d="M49.3362 62.5819C49.3362 62.5926 49.2794 62.6006 49.2118 62.6006C49.1442 62.6006 49.0874 62.5926 49.0874 62.5819C49.0874 62.5711 49.1442 62.5631 49.2118 62.5631C49.2794 62.5631 49.3362 62.5711 49.3362 62.5819Z" fill="#009344"/>
<path d="M89.8493 34.384C89.8493 34.384 92.5884 34.8418 92.8102 34.9007C93.0292 34.9597 93.8971 35.3666 93.9431 35.6291C93.9864 35.8915 93.9431 36.6626 93.9431 36.6626C93.9431 36.6626 93.7863 36.7885 93.6889 36.5368C93.5916 36.2851 93.6051 35.7844 93.6051 35.7844L93.1211 35.5996L93.3861 36.0655L93.4294 37.158C93.4294 37.158 93.0914 37.1285 93.0238 36.8661C92.9589 36.6037 92.9589 36.3145 92.9589 36.3145L92.6047 36.0173L92.8696 36.3734L92.9589 37.1606C92.9589 37.1606 92.6993 37.2436 92.6182 37.0696C92.5371 36.8956 92.529 36.3761 92.529 36.3761L91.5312 36.0307L90.8714 36.3948L89.6357 35.704L89.8493 34.384Z" fill="#E7B79F"/>
<path d="M80.2612 27.6818C80.2747 27.7354 83.56 32.2177 83.56 32.2177L90.1631 34.2527L89.863 36.7081L81.77 35.0935L78.8984 31.8295L80.2612 27.6818Z" fill="#009344"/>
<g opacity="0.2">
<g opacity="0.2">
<path opacity="0.2" d="M80.261 27.6818C80.2745 27.7354 83.5598 32.2177 83.5598 32.2177L90.1629 34.2527L89.8628 36.7081L81.7698 35.0935L78.8982 31.8295L80.261 27.6818Z" fill="#070809"/>
</g>
</g>
<path d="M68.7587 36.4537H55.266C54.9793 36.4537 54.7495 36.2235 54.7495 35.9423V34.3625C54.7495 34.0787 54.9821 33.8511 55.266 33.8511H68.7587C69.0453 33.8511 69.2752 34.0814 69.2752 34.3625V35.9423C69.2779 36.2235 69.0453 36.4537 68.7587 36.4537Z" fill="#F5F5F5"/>
<path d="M68.7585 36.4537C68.7585 36.451 68.7882 36.4537 68.845 36.443C68.8991 36.4323 68.9829 36.4082 69.0694 36.3412C69.1533 36.2743 69.2425 36.1591 69.2587 36.0012C69.2641 35.8432 69.2587 35.6558 69.2587 35.4469C69.2587 35.2381 69.256 35.0051 69.256 34.7507C69.256 34.6249 69.2533 34.491 69.2533 34.3518C69.2506 34.2206 69.1884 34.084 69.0802 33.993C69.0262 33.9475 68.9586 33.9127 68.8883 33.8939C68.818 33.8725 68.7423 33.8778 68.6584 33.8778C68.4989 33.8778 68.334 33.8778 68.1636 33.8805C67.8229 33.8805 67.4633 33.8832 67.0847 33.8832C64.0563 33.8859 59.8814 33.8912 55.2684 33.8966C55.136 33.8966 55.0062 33.9528 54.9169 34.0492C54.8277 34.1456 54.7844 34.2741 54.7925 34.4107C54.7925 34.6918 54.7925 34.973 54.7925 35.2514C54.7925 35.3907 54.7925 35.5299 54.7925 35.6665V35.8726C54.7925 35.9449 54.7925 36.0038 54.8088 36.0654C54.8412 36.1859 54.925 36.293 55.0359 36.3519C55.09 36.3814 55.1522 36.4001 55.2144 36.4082C55.2739 36.4135 55.3469 36.4108 55.4145 36.4108C56.5015 36.4108 57.5533 36.4135 58.551 36.4135C60.5493 36.4162 62.3501 36.4215 63.8643 36.4242C65.3731 36.4296 66.598 36.4349 67.4471 36.4376C67.8662 36.4403 68.1934 36.443 68.4205 36.4456C68.5286 36.4483 68.6125 36.4483 68.6747 36.451C68.7314 36.451 68.7585 36.4537 68.7585 36.4537C68.7585 36.4537 68.7287 36.4564 68.672 36.459C68.6125 36.459 68.5259 36.4617 68.4178 36.4644C68.1907 36.4671 67.8635 36.4697 67.4444 36.4724C66.5953 36.4751 65.3731 36.4805 63.8616 36.4858C62.3474 36.4885 60.5466 36.4912 58.5483 36.4938C57.5479 36.4938 56.4987 36.4965 55.4118 36.4965C55.3415 36.4965 55.2793 36.4992 55.2036 36.4938C55.1305 36.4858 55.0575 36.4644 54.9926 36.4269C54.8629 36.3546 54.7628 36.2314 54.7223 36.0869C54.7006 36.0146 54.7006 35.9369 54.7033 35.8726V35.6665C54.7033 35.5272 54.7033 35.3907 54.7033 35.2514C54.7033 34.973 54.7033 34.6918 54.7033 34.4107C54.6925 34.2661 54.7439 34.1028 54.8493 33.9903C54.9521 33.8752 55.1089 33.8082 55.2657 33.8082C59.8787 33.8136 64.0563 33.8189 67.082 33.8216C67.4606 33.8216 67.8202 33.8243 68.1609 33.8243C68.3313 33.8243 68.4962 33.8243 68.6557 33.827C68.7341 33.827 68.818 33.8243 68.8964 33.8457C68.9748 33.8671 69.0478 33.9046 69.1073 33.9555C69.2263 34.0572 69.2939 34.2072 69.2966 34.3518C69.2966 34.491 69.2966 34.6222 69.2966 34.7507C69.2939 35.0051 69.2939 35.2381 69.2912 35.4469C69.2885 35.6558 69.2939 35.8405 69.283 36.0038C69.2614 36.1699 69.1668 36.2877 69.0775 36.3546C68.9856 36.4216 68.8991 36.443 68.8423 36.451C68.7882 36.459 68.7585 36.4537 68.7585 36.4537Z" fill="#263238"/>
<path d="M98.1235 62.764C98.0694 66.5608 101.13 69.6803 104.965 69.7365C108.799 69.79 111.949 66.759 112.006 62.9621C112.06 59.1652 108.999 56.0458 105.165 55.9896C101.33 55.936 98.1776 58.9698 98.1235 62.764Z" fill="#263238"/>
<path d="M98.1235 62.7479C98.1235 62.7533 98.1235 62.7586 98.1235 62.7667C98.0694 66.5635 101.13 69.6829 104.965 69.7392C108.799 69.7927 111.949 66.7617 112.006 62.9648C112.006 62.9595 112.006 62.9541 112.006 62.9461L98.1235 62.7479Z" fill="#263238"/>
<path d="M100.189 62.7934C100.152 65.4577 102.301 67.6506 104.992 67.6881C107.682 67.7256 109.897 65.5969 109.935 62.9327C109.972 60.2684 107.823 58.0754 105.132 58.038C102.442 58.0005 100.23 60.1292 100.189 62.7934Z" fill="#FBFBFB"/>
<path d="M105.132 58.038C102.442 58.0005 100.227 60.1292 100.189 62.7934L109.934 62.9326C109.975 60.2684 107.825 58.0754 105.132 58.038Z" fill="#E0DFDF"/>
<path d="M102.096 62.8202C102.071 64.4428 103.383 65.7789 105.021 65.803C106.66 65.8271 108.009 64.5285 108.033 62.9058C108.058 61.2832 106.746 59.9471 105.108 59.923C103.466 59.9016 102.117 61.1975 102.096 62.8202Z" fill="#263238"/>
<path d="M101.768 52.7845C101.768 52.7845 108.874 50.6558 111.814 58.3004L96.9419 62.863L101.768 52.7845Z" fill="#009344"/>
<path d="M55.2929 62.764C55.2389 66.5608 58.2997 69.6803 62.1339 69.7365C65.9682 69.79 69.1183 66.759 69.175 62.9621C69.2291 59.1652 66.1683 56.0458 62.334 55.9896C58.4998 55.936 55.3497 58.9698 55.2929 62.764Z" fill="#263238"/>
<path d="M55.2956 62.7479C55.2956 62.7533 55.2956 62.7586 55.2956 62.7667C55.2415 66.5635 58.3024 69.6829 62.1366 69.7392C65.9708 69.7927 69.1209 66.7617 69.1777 62.9648C69.1777 62.9595 69.1777 62.9541 69.1777 62.9461L55.2956 62.7479Z" fill="#263238"/>
<path d="M57.3613 62.7934C57.3235 65.4577 59.4731 67.6506 62.1636 67.6881C64.854 67.7256 67.0685 65.5969 67.1064 62.9327C67.1442 60.2684 64.9946 58.0754 62.3042 58.038C59.6137 58.0005 57.3992 60.1292 57.3613 62.7934Z" fill="#FBFBFB"/>
<path d="M62.3044 58.038C59.614 58.0005 57.3994 60.1292 57.3616 62.7934L67.1066 62.9326C67.1445 60.2684 64.9948 58.0754 62.3044 58.038Z" fill="#E0DFDF"/>
<path d="M59.265 62.8202C59.2406 64.4428 60.5521 65.7789 62.1907 65.803C63.8293 65.8271 65.1785 64.5285 65.2029 62.9058C65.2272 61.2832 63.9158 59.9471 62.2772 59.923C60.6386 59.9016 59.2893 61.1975 59.265 62.8202Z" fill="#263238"/>
<path d="M72.1061 60.1051C72.0682 60.1238 68.453 59.5508 68.453 59.5508C68.0583 60.0622 67.4553 60.3755 66.8036 60.405C65.2434 60.4799 63.7157 60.5469 62.3935 60.6058C61.1605 60.6593 60.206 61.6929 60.2574 62.9139V62.9166C60.306 64.0707 61.2416 64.9945 62.407 65.04L70.0943 65.3399C71.3571 65.3881 73.0389 64.6276 73.8285 63.6503L72.1061 60.1051Z" fill="#455B65"/>
<path d="M53.2217 57.0633C53.2217 57.0633 52.8918 50.3639 59.2488 48.9689V48.1094H81.5212V50.1578C81.5212 50.1578 78.2522 54.0564 79.3202 57.2936C80.3883 60.5308 80.7209 60.8602 80.7209 60.8602H93.397C93.397 60.8602 94.9301 58.9457 94.9977 56.1047C95.0653 53.2638 93.8729 48.4066 92.9833 45.3006C92.1748 42.4784 91.6638 40.1167 91.6638 40.1167L95.4655 38.8609C95.4655 38.8609 102.501 47.9701 102.788 48.4843C103.074 48.9957 104.053 50.1926 103.823 52.8113C103.594 55.43 97.2718 63.5137 95.6034 64.4241C93.9378 65.3345 92.4425 65.3907 90.9472 65.6183C89.6493 65.8165 80.053 65.6852 77.5437 65.6478C76.673 65.6344 75.8105 65.4148 75.0669 64.965C74.3152 64.5151 73.7528 63.7681 73.1282 62.5444L71.8059 59.9819L53.2217 57.0633Z" fill="#009344"/>
<path d="M54.9279 56.5974L52.1212 60.9485C51.7616 61.5054 52.343 62.207 52.9568 61.9446C53.2542 61.8161 53.5733 61.6179 53.8977 61.3127C55.1821 60.1051 57.4669 56.9214 57.4669 56.9214L54.9279 56.5974Z" fill="#455B65"/>
<path d="M75.0425 57.3793C75.0397 57.3793 75.0479 57.3579 75.0587 57.315C75.0722 57.2695 75.0911 57.2106 75.1155 57.1329C75.1641 56.9723 75.2209 56.7313 75.2615 56.4153C75.3318 55.7888 75.2993 54.8329 74.8261 53.7886C74.5963 53.2692 74.2529 52.7363 73.7932 52.249C73.3309 51.7644 72.7576 51.3172 72.0897 50.9611C71.4246 50.6023 70.6729 50.3211 69.8644 50.1417C69.0586 49.9623 68.2014 49.882 67.3227 49.882C66.4439 49.882 65.5894 49.9597 64.7674 50.0668C63.9454 50.1765 63.1559 50.3104 62.415 50.4791C60.9305 50.8085 59.638 51.2985 58.6376 51.8634C57.6344 52.423 56.9233 53.0362 56.4798 53.4941C56.2554 53.7244 56.0959 53.9145 55.9877 54.043C55.9363 54.1073 55.8958 54.1555 55.866 54.1929C55.839 54.2251 55.8228 54.2438 55.8228 54.2411C55.8228 54.2411 56.012 53.9386 56.4528 53.47C56.8908 53.0014 57.5993 52.3802 58.6051 51.8099C59.6056 51.2342 60.9062 50.7362 62.3961 50.4015C63.1396 50.2301 63.9319 50.0935 64.7539 49.9838C65.5786 49.874 66.4385 49.7963 67.32 49.7963C68.2015 49.7963 69.0667 49.8793 69.8806 50.0614C70.6945 50.2435 71.4543 50.53 72.1249 50.8941C72.7982 51.2556 73.3768 51.7108 73.8446 52.2035C74.3097 52.6988 74.6531 53.2397 74.8829 53.7672C75.3534 54.8249 75.3777 55.7915 75.2939 56.4234C75.248 56.742 75.1831 56.983 75.129 57.141C75.1019 57.2186 75.0803 57.2775 75.0641 57.3204C75.0533 57.3605 75.0425 57.3793 75.0425 57.3793Z" fill="#263238"/>
<path d="M73.7584 55.8746C73.7476 55.8719 73.7963 55.7674 73.8422 55.5773C73.8936 55.3872 73.9179 55.0954 73.8666 54.7446C73.8179 54.3938 73.6827 53.9868 73.4529 53.5771C73.3393 53.371 73.2014 53.1648 73.0419 52.9666C72.885 52.7658 72.6985 52.573 72.4902 52.4017C72.0711 52.0536 71.6061 51.8099 71.1653 51.6359C70.7219 51.4672 70.3055 51.3654 69.9512 51.3065C69.597 51.2476 69.305 51.2235 69.1049 51.2101C68.9021 51.1967 68.7913 51.1941 68.7913 51.186C68.7913 51.1833 68.8183 51.1807 68.8724 51.178C68.9265 51.178 69.0049 51.1726 69.1049 51.1753C69.3077 51.178 69.6024 51.1914 69.9594 51.2449C70.319 51.2958 70.7435 51.3922 71.1951 51.5609C71.6439 51.7323 72.1198 51.9813 72.547 52.3347C72.7606 52.5115 72.9499 52.7096 73.1095 52.9158C73.2717 53.1193 73.4123 53.3308 73.5232 53.5423C73.753 53.9627 73.8855 54.3804 73.926 54.7392C73.9693 55.098 73.9369 55.3953 73.872 55.588C73.853 55.6871 73.8098 55.7567 73.7908 55.8049C73.7746 55.8531 73.7611 55.8772 73.7584 55.8746Z" fill="#F5F5F5"/>
<g opacity="0.4">
<g opacity="0.4">
<path opacity="0.4" d="M69.3967 50.0078C70.6405 50.2434 71.7302 50.6852 72.7496 51.36C73.7717 52.0348 74.5532 52.9907 74.9966 54.1233C75.4401 55.2559 75.3752 56.758 74.9074 57.6952L76.4811 57.8237C77.0111 56.0753 76.4351 53.9278 75.1616 52.5569C73.669 50.9503 71.614 50.0078 69.3967 50.0078Z" fill="#070809"/>
</g>
</g>
<path d="M68.8966 48.1093H55.1308C54.3277 48.1093 53.6733 47.464 53.6733 46.6661V37.7631C53.6733 36.9679 54.325 36.3199 55.1308 36.3199H68.8966C69.6997 36.3199 70.354 36.9652 70.354 37.7631V46.6661C70.354 47.464 69.6997 48.1093 68.8966 48.1093Z" fill="#455B65"/>
<path d="M70.354 38.952C70.354 38.9761 66.6036 38.9948 61.9799 38.9948C57.3534 38.9948 53.603 38.9761 53.603 38.952C53.603 38.9279 57.3534 38.9091 61.9799 38.9091C66.6036 38.9091 70.354 38.9279 70.354 38.952Z" fill="#263238"/>
<path d="M81.5106 48.8885C81.5106 48.9126 76.5056 48.9314 70.3325 48.9314C64.1566 48.9314 59.1516 48.9126 59.1516 48.8885C59.1516 48.8644 64.1566 48.8456 70.3325 48.8456C76.5029 48.8456 81.5106 48.8644 81.5106 48.8885Z" fill="#263238"/>
<path d="M81.5213 48.1093C81.5213 48.1093 81.889 47.6756 81.9241 47.1213C81.9593 46.5671 81.7051 45.8763 81.1021 45.8763H73.4121C72.1656 45.8763 71.157 46.8777 71.157 48.1093H81.5213Z" fill="#455B65"/>
<path d="M91.6612 40.1141L90.3227 37.3508C89.9577 36.5662 90.2497 35.6344 90.9987 35.1899L94.9978 32.8282C95.206 32.7051 95.4467 32.6381 95.6901 32.6381H96.5553L96.9014 38.221L95.5684 38.7271L96.412 40.0873L91.6612 40.1141Z" fill="#009344"/>
<path d="M96.5659 32.8443C96.5659 32.8443 97.9341 33.1549 98.1072 35.2435C98.2802 37.332 96.9012 37.9827 96.9012 37.9827L96.5659 32.8443Z" fill="#EBEBEB"/>
<path d="M92.1262 36.2717C92.1262 36.2717 89.36 37.5703 89.022 37.7819C88.7868 37.9291 88.5867 38.1889 88.7706 38.6441C89.0842 39.4206 90.3767 38.6896 90.3767 38.6896L92.9509 37.415C92.9509 37.415 93.9405 36.9518 93.5755 36.3734C93.1672 35.7254 92.1262 36.2717 92.1262 36.2717Z" fill="#263238"/>
<path d="M88.2108 35.7977C88.2108 35.7977 90.8093 36.2395 91.0283 36.2984C91.2474 36.3573 92.1153 36.7643 92.1613 37.0268C92.2046 37.2892 92.1613 38.0603 92.1613 38.0603C92.1613 38.0603 92.0045 38.1862 91.9071 37.9345C91.8098 37.6828 91.8233 37.1821 91.8233 37.1821L91.3393 36.9973L91.6043 37.4632L91.6476 38.5557C91.6476 38.5557 91.3096 38.5262 91.242 38.2638C91.1771 38.0014 91.1771 37.7122 91.1771 37.7122L90.8228 37.415L91.0878 37.7711L91.1771 38.5583C91.1771 38.5583 90.9175 38.6413 90.8364 38.4673C90.7552 38.2933 90.7471 37.7738 90.7471 37.7738L89.7494 37.4284L89.0896 37.7926L88.0513 37.2276L88.2108 35.7977Z" fill="#E7B79F"/>
<path d="M92.2589 32.2151C92.2589 33.2567 91.7748 34.1002 91.18 34.1002C90.5824 34.1002 90.1011 33.2567 90.1011 32.2151C90.1011 31.1735 90.5851 30.3301 91.18 30.3301C91.7748 30.3274 92.2589 31.1735 92.2589 32.2151Z" fill="#263238"/>
<path d="M91.3555 33.5111L91.9476 35.546C92.2126 35.4121 92.2667 35.1524 92.2234 34.9463C92.0747 34.2501 91.9909 33.7521 91.826 33.1416C91.8097 33.08 91.3555 33.5111 91.3555 33.5111Z" fill="#263238"/>
<g opacity="0.4">
<g opacity="0.4">
<path opacity="0.4" d="M79.6119 58.1611C79.5524 57.9924 79.4929 57.8211 79.4362 57.6443C79.3821 57.481 79.3199 57.3096 79.2766 57.1463C79.1955 56.8544 79.1495 56.5519 79.1279 56.3778C78.1274 60.4157 79.6552 63.2593 82.2807 63.4574C86.1149 63.7493 90.7928 63.9608 92.6855 63.4708C96.1331 62.5738 97.3985 59.7275 97.7014 59.2589C98.0042 58.7904 100.746 53.8261 99.0642 49.0465C97.3823 44.267 94.4539 39.1929 94.4539 39.1929L91.6607 40.114C91.6607 40.114 92.1718 42.4756 92.9803 45.2978C93.8699 48.4039 95.0623 53.2611 94.9947 56.102C94.9271 58.943 93.394 60.8575 93.394 60.8575H80.7205C80.7205 60.8575 80.4474 60.5897 79.6119 58.1611Z" fill="#070809"/>
</g>
</g>
<path d="M52.716 56.0109L52.8052 55.0524L75.9402 57.6925C77.2462 57.8451 78.1548 59.0527 77.9249 60.3352L77.8222 60.9163L53.8787 57.4702C53.1594 57.3658 52.6484 56.7259 52.716 56.0109Z" fill="#009344"/>
<g opacity="0.6">
<g opacity="0.6">
<path opacity="0.6" d="M52.716 56.0109L52.8052 55.0524L75.9402 57.6925C77.2462 57.8451 78.1548 59.0527 77.9249 60.3352L77.8222 60.9163L53.8787 57.4702C53.1594 57.3658 52.6484 56.7259 52.716 56.0109Z" fill="#070809"/>
</g>
</g>
<g opacity="0.3">
<g opacity="0.3">
<path opacity="0.3" d="M97.699 62.4213C97.699 62.4213 102.793 56.8732 103.842 52.5141C104.194 52.5114 105.019 52.5462 105.419 52.6292C105.421 52.6292 102.409 60.7344 97.699 62.4213Z" fill="#070809"/>
</g>
</g>
<path d="M103.769 50.5568C103.772 50.5568 103.783 50.605 103.796 50.696C103.81 50.7897 103.837 50.9236 103.853 51.103C103.886 51.4564 103.907 51.9759 103.813 52.6078C103.721 53.2397 103.502 53.9761 103.142 54.7392C102.788 55.5076 102.301 56.2975 101.793 57.1249C100.773 58.7877 99.6377 60.1453 98.813 61.1172C98.3966 61.6019 98.0559 61.9874 97.8179 62.2552C97.7016 62.3837 97.6097 62.4855 97.5421 62.5605C97.4772 62.6301 97.4448 62.6649 97.4421 62.6622C97.4394 62.6595 97.4691 62.622 97.5286 62.5471C97.5935 62.4694 97.6827 62.365 97.7909 62.2311C98.0261 61.9526 98.356 61.559 98.7643 61.0771C99.5782 60.0971 100.703 58.7342 101.717 57.0794C102.225 56.252 102.712 55.4648 103.066 54.7044C103.429 53.9493 103.65 53.221 103.75 52.5971C103.85 51.9732 103.84 51.4564 103.818 51.103C103.807 50.9263 103.786 50.7897 103.777 50.696C103.769 50.6076 103.767 50.5594 103.769 50.5568Z" fill="#263238"/>
<path d="M94.9654 62.3811C94.9492 62.3998 94.5841 62.0704 94.1488 61.6527C93.7161 61.2323 93.3781 60.8788 93.3944 60.8601C93.4106 60.844 93.7756 61.1707 94.211 61.5911C94.6436 62.0089 94.9816 62.3623 94.9654 62.3811Z" fill="#263238"/>
<path d="M79.8501 62.2097C79.8284 62.199 79.9691 61.8616 80.2232 61.4921C80.4774 61.1199 80.7424 60.8682 80.7586 60.8843C80.7776 60.9003 80.545 61.1761 80.2962 61.543C80.0448 61.9045 79.8717 62.2204 79.8501 62.2097Z" fill="#263238"/>
<path d="M70.0646 65.4121C70.0429 65.396 70.4296 65.1524 70.7595 64.5392C70.9244 64.2366 71.0596 63.8403 71.1002 63.3878C71.1434 62.938 71.0758 62.4266 70.8541 61.9527C70.6216 61.4814 70.2647 61.1092 69.8834 60.8602C69.5021 60.6058 69.1074 60.4613 68.7667 60.397C68.0772 60.2658 67.6445 60.4077 67.6445 60.3809C67.6445 60.3783 67.6689 60.3702 67.7202 60.3595C67.7716 60.3488 67.8446 60.3247 67.942 60.3167C68.1367 60.2872 68.4287 60.2765 68.7775 60.3354C69.1263 60.3943 69.5346 60.5336 69.9294 60.7906C70.3215 61.045 70.6946 61.4279 70.9352 61.9125C71.1678 62.4025 71.2327 62.93 71.184 63.3932C71.138 63.8564 70.992 64.2607 70.8163 64.566C70.6432 64.8712 70.4512 65.0908 70.3052 65.222C70.2376 65.2916 70.17 65.3344 70.1322 65.3666C70.0889 65.3987 70.0673 65.4147 70.0646 65.4121Z" fill="#263238"/>
<path d="M61.6175 63.6556C61.5932 63.6556 61.5553 63.2942 61.5337 62.8471C61.5121 62.3999 61.5148 62.0358 61.5391 62.0358C61.5635 62.0358 61.6013 62.3972 61.6229 62.8444C61.6419 63.2915 61.6419 63.6556 61.6175 63.6556Z" fill="#263238"/>
<path d="M62.2286 63.6582C62.2043 63.6609 62.1367 63.2994 62.0799 62.8523C62.0231 62.4051 61.9961 62.0383 62.0204 62.0357C62.0448 62.033 62.1124 62.3944 62.1691 62.8416C62.2259 63.2887 62.253 63.6528 62.2286 63.6582Z" fill="#263238"/>
<path d="M71.7708 48.1094C71.7708 48.1334 68.9587 48.1522 65.4895 48.1522C62.0204 48.1522 59.2056 48.1334 59.2056 48.1094C59.2056 48.0853 62.0177 48.0666 65.4895 48.0666C68.9587 48.0639 71.7708 48.0853 71.7708 48.1094Z" fill="#263238"/>
<path d="M62.6612 48.1014C62.6368 48.1014 62.6179 44.9096 62.6179 40.9762C62.6179 37.0401 62.6368 33.8511 62.6612 33.8511C62.6855 33.8511 62.7045 37.0401 62.7045 40.9762C62.7072 44.9096 62.6855 48.1014 62.6612 48.1014Z" fill="#263238"/>
<path d="M60.9387 48.088C60.9144 48.088 61.0333 44.899 61.2064 40.9682C61.3795 37.0348 61.539 33.8484 61.5633 33.8511C61.5877 33.8511 61.4687 37.0401 61.2956 40.9736C61.1253 44.9043 60.963 48.0907 60.9387 48.088Z" fill="#263238"/>
<path d="M57.0423 67.5301C57.0396 67.5328 57.0153 67.506 56.9666 67.4551C56.9206 67.4042 56.8503 67.3319 56.7692 67.2275C56.6016 67.0267 56.3771 66.7214 56.1419 66.3171C55.6714 65.5138 55.2063 64.2607 55.2117 62.8282C55.2171 61.393 55.693 60.1426 56.1689 59.3447C56.4069 58.9403 56.634 58.6378 56.8017 58.4396C56.8828 58.3379 56.9558 58.2656 57.0018 58.2147C57.0477 58.1638 57.0748 58.1397 57.0775 58.1424C57.0802 58.1451 57.0585 58.1745 57.0153 58.2281C56.9747 58.2816 56.9044 58.3566 56.8287 58.4637C56.6692 58.6672 56.4501 58.9751 56.223 59.3795C55.766 60.1801 55.3064 61.4144 55.2982 62.8309C55.2928 64.2474 55.7417 65.4871 56.1933 66.2904C56.4177 66.6947 56.634 67.0053 56.7908 67.2115C56.8666 67.3159 56.9342 67.3935 56.9747 67.4471C57.0234 67.498 57.045 67.5274 57.0423 67.5301Z" fill="#455B65"/>
<path d="M81.3647 54.7231L81.3106 54.8222L80.2886 56.726L78.8555 58.0916L81.7189 61.8669L84.1038 61.476C84.1038 61.476 83.8361 60.9378 82.6383 60.8334L82.1813 58.5762L83.8632 55.995" fill="#455B65"/>
<path d="M78.8555 58.0916L81.719 61.8669L84.1065 61.476L83.7767 61.1627L81.819 61.377L79.161 57.8024L78.8555 58.0916Z" fill="#E0DFDF"/>
<path d="M82.4513 59.7945C82.4378 59.8213 82.2863 59.7677 82.1025 59.8025C81.9186 59.832 81.7969 59.9364 81.7726 59.915C81.7483 59.9016 81.8591 59.7383 82.0836 59.6981C82.308 59.658 82.4702 59.7731 82.4513 59.7945Z" fill="#263238"/>
<path d="M82.319 59.2374C82.2974 59.2588 82.1676 59.1358 81.9729 59.1304C81.7755 59.1224 81.6403 59.2347 81.6186 59.2133C81.6078 59.2053 81.6294 59.1598 81.6916 59.1117C81.7511 59.0636 81.8566 59.0208 81.9783 59.0234C82.1 59.0288 82.2 59.0796 82.2568 59.1304C82.3109 59.1839 82.3271 59.2293 82.319 59.2374Z" fill="#263238"/>
<path d="M82.2109 58.512C82.1866 58.5307 82.0838 58.4075 81.9081 58.3754C81.7323 58.3433 81.5917 58.4236 81.5755 58.3995C81.5674 58.3888 81.5917 58.3513 81.6539 58.3165C81.7134 58.2817 81.8161 58.2522 81.927 58.2736C82.0379 58.2924 82.1244 58.354 82.1677 58.4075C82.2136 58.4611 82.2244 58.504 82.2109 58.512Z" fill="#263238"/>
<path d="M82.7568 57.8479C82.7297 57.8613 82.6405 57.7381 82.4756 57.6684C82.3133 57.5934 82.1619 57.6068 82.1538 57.5774C82.1403 57.5506 82.3187 57.4809 82.5188 57.572C82.7189 57.6604 82.7838 57.8398 82.7568 57.8479Z" fill="#263238"/>
<path d="M82.987 57.3096C82.9762 57.3203 82.8816 57.2373 82.7382 57.0954C82.6571 57.0124 82.5733 56.9294 82.4895 56.8437C82.4462 56.7929 82.3894 56.7527 82.3462 56.6724C82.3272 56.6295 82.3191 56.5787 82.3354 56.5278C82.3516 56.4742 82.4138 56.4314 82.4679 56.4287C82.5733 56.426 82.6409 56.4689 82.7085 56.5064C82.7761 56.5465 82.8329 56.5947 82.8816 56.6456C82.9789 56.75 83.0357 56.8652 83.0627 56.9669C83.1222 57.1731 83.0708 57.3016 83.0627 57.2989C83.0438 57.2989 83.0627 57.1704 82.9924 56.991C82.9573 56.9026 82.9005 56.8009 82.8113 56.7125C82.7653 56.6697 82.7139 56.6269 82.6571 56.5947C82.6004 56.5626 82.5273 56.5305 82.4787 56.5331C82.4543 56.5358 82.4435 56.5438 82.4381 56.5626C82.43 56.5813 82.4327 56.6081 82.4435 56.6295C82.4651 56.6777 82.5219 56.7286 82.5625 56.7795C82.6409 56.8705 82.7193 56.9589 82.795 57.0445C82.9221 57.1998 82.9978 57.3016 82.987 57.3096Z" fill="#263238"/>
<path d="M83.0842 57.3659C83.0734 57.3659 83.0598 57.24 83.1653 57.0767C83.268 56.9214 83.5195 56.734 83.8521 56.8331C83.8764 56.8491 83.9008 56.8786 83.9035 56.9107C83.9089 56.9428 83.8981 56.9696 83.8872 56.991C83.8656 57.0312 83.8359 57.0553 83.8142 57.0794C83.7656 57.1276 83.7142 57.1678 83.6628 57.2026C83.5601 57.2722 83.4546 57.315 83.3627 57.3418C83.1815 57.3927 83.0625 57.3739 83.0625 57.3632C83.0598 57.3472 83.1734 57.3364 83.3383 57.2722C83.4195 57.2401 83.5141 57.1918 83.606 57.1249C83.652 57.0901 83.698 57.0526 83.7412 57.0071C83.7629 56.983 83.7845 56.9616 83.7953 56.9428C83.8034 56.9214 83.8007 56.9268 83.7953 56.9214C83.7872 56.9134 83.7521 56.9107 83.7223 56.908C83.6926 56.9054 83.6601 56.9054 83.6304 56.908C83.5709 56.9134 83.5141 56.9268 83.4627 56.9482C83.36 56.9884 83.2816 57.0553 83.2275 57.1196C83.1166 57.2561 83.1004 57.3712 83.0842 57.3659Z" fill="#263238"/>
<path d="M80.7481 57.706C80.7751 57.8613 80.6697 58.0086 80.5128 58.0327C80.356 58.0595 80.2073 57.955 80.1829 57.7997C80.1559 57.6444 80.2614 57.4998 80.4182 57.4731C80.5723 57.4463 80.721 57.5507 80.7481 57.706Z" fill="#E0DFDF"/>
<path d="M90.0549 56.5385L90.8202 61.4626L97.0095 60.5496C96.8851 59.9685 93.5052 59.267 93.5052 59.267L93.1455 56.094L90.0549 56.5385Z" fill="#455B65"/>
<path d="M91.5527 59.2804C91.4365 59.3313 91.3743 59.4759 91.4202 59.591C91.4662 59.7062 91.6149 59.7704 91.7312 59.7222C91.8475 59.674 91.9286 59.5027 91.8691 59.3929C91.8096 59.2831 91.6311 59.2161 91.5311 59.2911" fill="#E0DFDF"/>
<path d="M90.8202 61.4598L90.7634 60.9618L96.7202 60.2737C96.7202 60.2737 97.015 60.3513 97.0122 60.5495L90.8202 61.4598Z" fill="#E0DFDF"/>
<path d="M93.6024 59.2186C93.6051 59.2481 93.4564 59.2856 93.324 59.4034C93.1861 59.5185 93.1293 59.6578 93.0996 59.6524C93.0698 59.6498 93.0887 59.465 93.2537 59.3257C93.4186 59.1811 93.6051 59.1892 93.6024 59.2186Z" fill="#263238"/>
<path d="M94.2922 59.3903C94.3031 59.417 94.1814 59.4893 94.0975 59.6312C94.0083 59.7704 94.0056 59.9123 93.9731 59.915C93.9461 59.923 93.8974 59.7517 94.0056 59.5777C94.1111 59.3983 94.2895 59.3608 94.2922 59.3903Z" fill="#263238"/>
<path d="M94.776 60.1052C94.749 60.1159 94.6841 59.9713 94.7382 59.7972C94.7895 59.6205 94.922 59.5348 94.9383 59.5589C94.9599 59.5803 94.8815 59.6821 94.8382 59.8267C94.7977 59.9686 94.8058 60.0971 94.776 60.1052Z" fill="#263238"/>
<path d="M93.4403 58.5039C93.4322 58.5333 93.2862 58.5119 93.1185 58.5494C92.9482 58.5815 92.8238 58.6592 92.8049 58.6351C92.7832 58.6163 92.8968 58.4851 93.0969 58.445C93.297 58.4048 93.4511 58.4798 93.4403 58.5039Z" fill="#263238"/>
<path d="M93.1833 57.7997C93.186 57.8131 93.0697 57.8479 92.8724 57.8426C92.775 57.8399 92.6588 57.8265 92.5344 57.7917C92.4722 57.7756 92.4073 57.7515 92.3424 57.7248C92.31 57.7114 92.2748 57.698 92.237 57.6659C92.1991 57.6391 92.1667 57.5641 92.1991 57.5079C92.2234 57.457 92.2775 57.4275 92.3208 57.4195C92.3667 57.4115 92.4046 57.4141 92.4397 57.4195C92.51 57.4249 92.5803 57.4382 92.6425 57.457C92.7696 57.4918 92.8751 57.5453 92.9562 57.6016C93.1184 57.7114 93.186 57.8158 93.1752 57.8238C93.1644 57.8345 93.0779 57.7515 92.9156 57.6659C92.8345 57.623 92.7318 57.5802 92.6155 57.5534C92.556 57.54 92.4938 57.5293 92.4289 57.5239C92.3613 57.5159 92.3045 57.5239 92.2937 57.5561C92.2883 57.5668 92.2883 57.5721 92.3046 57.5882C92.3208 57.6043 92.3505 57.6177 92.3803 57.631C92.4397 57.6578 92.4992 57.6819 92.5587 57.7007C92.675 57.7381 92.7831 57.7596 92.8751 57.7703C93.0643 57.7917 93.1833 57.7837 93.1833 57.7997Z" fill="#263238"/>
<path d="M93.1511 57.8478C93.1403 57.8532 93.0646 57.7568 93.024 57.564C93.0051 57.4676 92.997 57.3498 93.0159 57.2213C93.0267 57.157 93.0429 57.0901 93.0673 57.0232C93.0943 56.9562 93.1268 56.8706 93.2403 56.8384C93.3025 56.8277 93.3593 56.8679 93.3837 56.9054C93.4107 56.9428 93.4188 56.9777 93.4323 57.0125C93.454 57.0821 93.4648 57.1517 93.4648 57.2186C93.4648 57.3525 93.4269 57.4676 93.381 57.556C93.2836 57.7327 93.1619 57.7862 93.1592 57.7782C93.1457 57.7648 93.243 57.6925 93.3134 57.5238C93.3485 57.4408 93.3728 57.3364 93.3674 57.2213C93.3647 57.1651 93.3539 57.1035 93.335 57.0446C93.3161 56.9803 93.2836 56.9321 93.2593 56.9428C93.2295 56.9482 93.1836 57.0044 93.1646 57.0607C93.1403 57.1196 93.1241 57.1811 93.1132 57.2374C93.0916 57.3552 93.0916 57.4623 93.0997 57.5533C93.1187 57.7327 93.1673 57.8398 93.1511 57.8478Z" fill="#263238"/>
<path d="M85.185 44.9739L79.8772 56.4287L83.3815 58.5145L90.7227 44.7303" fill="#263238"/>
<path d="M93.9406 58.7769L90.1307 59.3821L87.8513 45.911L76.5893 46.7197C76.2919 46.7384 75.989 46.7116 75.7024 46.634C72.5388 45.7745 72.966 41.7822 73.2716 41.1422L88.8572 40.6977C90.5471 40.6495 92.0046 41.8678 92.2398 43.528L93.9406 58.7769Z" fill="#263238"/>
<path d="M73.1148 41.774L73.1716 36.0788C73.1716 36.0788 72.428 32.3757 72.209 30.919C71.8683 28.6591 71.4005 27.5854 75.1401 25.9789L75.9567 25.6656L77.2221 25.6817C78.7309 25.7941 80.3208 27.1436 80.356 28.0406L81.8107 40.8744L73.1148 41.774Z" fill="#009344"/>
<path d="M73.3471 27.3017C73.3471 27.3017 72.2926 29.5509 72.5035 31.5992L76.435 35.3372C77.3165 36.3091 78.4197 36.7215 79.8312 36.8072L87.9701 37.6881L88.1972 35.5808L80.4558 33.4093C80.1476 33.3531 79.9934 33.0344 79.7582 32.8309L73.3471 27.3017Z" fill="#009344"/>
<path d="M72.7117 27.9497C72.7117 27.9497 72.7549 27.9015 72.8685 27.8453C72.9794 27.7917 73.1578 27.7355 73.3958 27.7007C73.631 27.6686 73.9312 27.6418 74.2746 27.7034C74.3584 27.7221 74.4503 27.7435 74.5341 27.7917C74.6153 27.8372 74.6937 27.8935 74.7721 27.9551C74.9289 28.0755 75.0884 28.2148 75.248 28.3674C75.5752 28.6673 75.8834 29.0502 76.243 29.4358C76.6027 29.824 77.0001 30.2391 77.4301 30.6728C77.86 31.1066 78.3224 31.5645 78.8199 32.0357C79.0687 32.2687 79.3256 32.5097 79.5987 32.7426C79.7366 32.8551 79.8718 32.9863 80.0042 33.1094C80.1367 33.2299 80.2882 33.3424 80.4612 33.3745H80.4639H80.4666C82.7704 34.0198 85.4095 34.7588 88.2108 35.5434L88.2459 35.5541L88.2432 35.5916C88.227 35.7415 88.2108 35.9022 88.1918 36.0628C88.1323 36.6225 88.0729 37.1794 88.0161 37.6989L88.0107 37.7417L87.9674 37.7363C86.7831 37.6078 85.6312 37.482 84.5226 37.3615C83.9683 37.2999 83.4248 37.241 82.8921 37.1848C82.3594 37.1312 81.8402 37.0803 81.3319 37.0295C80.8262 36.9732 80.3314 36.917 79.8555 36.8474C79.3796 36.7778 78.9145 36.6921 78.4873 36.5341C78.0601 36.3788 77.6788 36.1592 77.3354 35.9209C76.992 35.6853 76.6784 35.4363 76.3836 35.1926C75.2209 34.2099 74.3665 33.3317 73.7743 32.7319C73.4796 32.4293 73.2552 32.1937 73.1037 32.033C73.0307 31.9527 72.9739 31.8911 72.9334 31.8483C72.8955 31.8055 72.8793 31.784 72.8793 31.784C72.8793 31.784 72.9009 31.8028 72.9415 31.8429C72.9848 31.8858 73.0416 31.9447 73.1173 32.0223C73.2741 32.183 73.5039 32.4133 73.7987 32.7105C74.3989 33.3022 75.2588 34.1725 76.4242 35.1471C76.7189 35.3854 77.0326 35.6317 77.3733 35.8674C77.714 36.1003 78.0925 36.3172 78.5117 36.4672C78.9308 36.6225 79.3904 36.7055 79.8663 36.7751C80.3422 36.842 80.8344 36.8983 81.34 36.9518C81.8483 37.0027 82.3675 37.0536 82.9002 37.1044C83.4329 37.1607 83.9764 37.2196 84.5307 37.2785C85.6393 37.399 86.7912 37.5221 87.9755 37.6507L87.9268 37.6881C87.9836 37.166 88.0431 36.6118 88.1026 36.0521C88.1188 35.8915 88.1378 35.7281 88.154 35.5809L88.1864 35.6291C85.3878 34.8419 82.7461 34.1002 80.445 33.4522H80.4477C80.2476 33.4147 80.0881 33.2888 79.9529 33.1657C79.815 33.0372 79.6906 32.9167 79.55 32.7988C79.2769 32.5632 79.02 32.3222 78.7712 32.0866C78.2737 31.6127 77.814 31.1548 77.3841 30.7183C76.9569 30.2819 76.5594 29.8642 76.2025 29.4733C75.8402 29.0823 75.5373 28.7021 75.2155 28.3995C75.056 28.2469 74.9019 28.1077 74.7478 27.9872C74.6693 27.9283 74.5936 27.8721 74.5152 27.8265C74.4395 27.781 74.3503 27.7596 74.2691 27.7409C73.9339 27.6766 73.6364 27.698 73.4012 27.7275C73.1659 27.7596 72.9875 27.8105 72.8766 27.8613C72.7603 27.9095 72.7144 27.9551 72.7117 27.9497Z" fill="#263238"/>
<path d="M74.7424 20.7254L75.1372 26.2708C75.2021 27.1758 75.9619 27.8774 76.8785 27.8774C77.8871 27.8774 78.6874 27.0339 78.6199 26.0352C78.5847 25.5077 78.5523 25.0766 78.5523 25.0766C78.5523 25.0766 79.9069 24.8677 79.9232 23.5262C79.934 22.7524 79.7988 20.9932 79.6825 19.6437C79.6041 18.7333 78.8335 18.0344 77.9114 18.0344H77.0921C75.6861 18.1148 74.6207 19.3331 74.7424 20.7254Z" fill="#E7B79F"/>
<path d="M78.5577 25.0578C78.5577 25.0578 77.7005 25.1274 76.792 24.5598C76.792 24.5598 77.2084 25.5263 78.5631 25.4059L78.5577 25.0578Z" fill="#DD9571"/>
<path d="M79.3826 21.368C79.3853 21.4697 79.3014 21.5554 79.196 21.5608C79.0905 21.5661 79.0013 21.4885 78.9959 21.3867C78.9932 21.285 79.077 21.1993 79.1825 21.194C79.2879 21.1886 79.3772 21.2663 79.3826 21.368Z" fill="#263238"/>
<path d="M79.4525 20.9905C79.4282 21.0146 79.2822 20.9075 79.0739 20.9075C78.8657 20.9048 78.7143 21.0119 78.69 20.9851C78.6792 20.9744 78.7035 20.9289 78.7684 20.8807C78.8333 20.8326 78.9469 20.787 79.0766 20.787C79.2064 20.787 79.3146 20.8352 79.3795 20.8834C79.4417 20.9343 79.4633 20.9771 79.4525 20.9905Z" fill="#263238"/>
<path d="M77.4248 21.368C77.4275 21.4697 77.3437 21.5554 77.2382 21.5608C77.1328 21.5661 77.0436 21.4885 77.0381 21.3867C77.0354 21.285 77.1193 21.1993 77.2247 21.194C77.3329 21.1886 77.4221 21.2663 77.4248 21.368Z" fill="#263238"/>
<path d="M77.4059 21.0281C77.3815 21.0522 77.2355 20.945 77.0273 20.945C76.8191 20.9423 76.6677 21.0495 76.6433 21.0227C76.6325 21.012 76.6569 20.9665 76.7245 20.9182C76.7894 20.87 76.9029 20.8245 77.0327 20.8245C77.1625 20.8245 77.2707 20.8727 77.3356 20.9209C77.395 20.9718 77.4167 21.0174 77.4059 21.0281Z" fill="#263238"/>
<path d="M78.1604 22.5569C78.1604 22.5461 78.2901 22.5221 78.4984 22.4953C78.5524 22.4899 78.6011 22.4792 78.6119 22.4444C78.6254 22.4069 78.6011 22.3507 78.5768 22.2891C78.5254 22.1606 78.474 22.0267 78.4199 21.8875C78.2009 21.3171 78.0441 20.8459 78.0657 20.8379C78.09 20.8298 78.2847 21.285 78.5038 21.8553C78.5551 21.9972 78.6065 22.1311 78.6552 22.2596C78.6741 22.3186 78.7093 22.3882 78.6822 22.4658C78.6687 22.506 78.6281 22.5328 78.5957 22.5435C78.5605 22.5542 78.5308 22.5542 78.5065 22.5569C78.2928 22.5676 78.1631 22.5702 78.1604 22.5569Z" fill="#263238"/>
<path d="M77.5492 22.6989C77.5816 22.6962 77.5843 22.9211 77.7763 23.0791C77.9683 23.2397 78.2117 23.213 78.2117 23.2451C78.2144 23.2585 78.1576 23.2879 78.0575 23.2906C77.9575 23.2933 77.8115 23.2612 77.6925 23.1648C77.5735 23.0684 77.5249 22.9372 77.5167 22.8461C77.5086 22.7551 77.533 22.6989 77.5492 22.6989Z" fill="#263238"/>
<path d="M77.4598 20.2194C77.4382 20.2756 77.23 20.2489 76.9867 20.2783C76.7406 20.3024 76.5459 20.3747 76.5135 20.3238C76.5 20.2997 76.5324 20.2462 76.6135 20.1926C76.6919 20.1391 76.819 20.0882 76.965 20.0695C77.111 20.0534 77.2462 20.0775 77.3355 20.1123C77.422 20.1498 77.4679 20.1926 77.4598 20.2194Z" fill="#263238"/>
<path d="M79.377 20.3934C79.3392 20.4389 79.1959 20.3907 79.0255 20.388C78.8525 20.38 78.7065 20.4201 78.674 20.3693C78.6605 20.3452 78.6821 20.2997 78.747 20.2542C78.8092 20.2087 78.9147 20.1739 79.0336 20.1765C79.1526 20.1792 79.2553 20.222 79.3148 20.2702C79.3716 20.3211 79.3932 20.3693 79.377 20.3934Z" fill="#263238"/>
<path d="M75.1992 21.7349C75.1749 21.7242 74.2691 21.4618 74.2988 22.3802C74.3286 23.2987 75.2533 23.0791 75.2533 23.0523C75.2533 23.0255 75.1992 21.7349 75.1992 21.7349Z" fill="#E7B79F"/>
<path d="M74.9586 22.7122C74.9532 22.7096 74.9424 22.7229 74.9154 22.7363C74.8883 22.7497 74.8451 22.7578 74.7937 22.7417C74.6937 22.7096 74.6071 22.5569 74.5963 22.3936C74.5909 22.3106 74.6071 22.2303 74.6342 22.1633C74.6612 22.0964 74.7018 22.0482 74.7504 22.0375C74.7991 22.0241 74.8343 22.0535 74.8478 22.0776C74.8613 22.1017 74.8559 22.1205 74.8613 22.1232C74.864 22.1258 74.8802 22.1071 74.8721 22.0696C74.8667 22.0509 74.8559 22.0294 74.8343 22.0134C74.8126 21.9973 74.7775 21.9893 74.745 21.992C74.6747 22 74.6126 22.0669 74.5801 22.1392C74.545 22.2142 74.526 22.3026 74.5314 22.3963C74.5422 22.581 74.645 22.7497 74.7802 22.7845C74.8451 22.8006 74.8992 22.7792 74.9262 22.7551C74.9587 22.7337 74.9614 22.7149 74.9586 22.7122Z" fill="#DD9571"/>
<path d="M74.6857 21.7028C74.8263 21.668 75.0724 21.7992 75.1319 21.9304C75.1914 22.0616 75.2049 22.2089 75.2644 22.3401C75.3239 22.4713 75.4591 22.5891 75.6024 22.557C75.6997 22.5329 75.77 22.4445 75.7943 22.3481C75.8214 22.2517 75.8106 22.15 75.797 22.0509C75.743 21.6225 75.651 21.1967 75.6348 20.7656C75.6186 20.3345 75.6781 19.8847 75.9079 19.5179C76.1377 19.151 76.5569 18.8806 76.9922 18.9154C77.2788 18.9395 77.5438 19.0868 77.8304 19.1269C78.1684 19.1751 78.528 19.0546 78.7714 18.8163C78.8038 18.7869 78.9471 18.6905 78.9471 18.6905C78.9471 18.6691 78.9255 18.4763 78.8498 18.4066C78.282 17.8872 77.2599 17.7426 76.5109 17.9273C75.7619 18.1148 75.0589 18.6396 74.7371 19.3331C74.4126 20.032 74.5073 20.9986 74.6857 21.7028Z" fill="#263238"/>
<path d="M79.7013 19.4375C79.7013 19.4375 76.1456 18.3049 74.607 21.352C74.607 21.352 74.3772 20.5889 74.3772 20.1819C74.3772 19.9088 74.5421 18.2834 76.2321 17.772C76.2321 17.7693 78.7765 16.8081 79.7013 19.4375Z" fill="#009344"/>
<path d="M76.646 19.5125C76.7704 19.7134 76.9948 19.8499 77.2328 19.8714C77.4707 19.8928 77.7168 19.7991 77.8763 19.6223C77.9466 19.7964 78.1359 19.9142 78.3224 19.9062C78.5117 19.8955 78.6848 19.7589 78.7362 19.5795C78.8389 19.6786 78.9471 19.7803 79.0823 19.8285C79.2175 19.8767 79.3878 19.858 79.477 19.7455C79.5663 19.6304 79.5419 19.4563 79.4527 19.3412C79.3635 19.226 79.2283 19.1564 79.0931 19.1002C78.6713 18.9261 78.2062 18.8377 77.7519 18.8993C77.2976 18.9609 76.8596 19.1778 76.5757 19.534" fill="#263238"/>
<g opacity="0.4">
<g opacity="0.4">
<path opacity="0.4" d="M79.7013 19.4375C79.7013 19.4375 79.2957 18.9609 78.571 18.9288C77.5219 18.8833 75.5588 19.467 74.607 21.3494C74.607 21.3494 74.3772 20.5862 74.3772 20.1792C74.3772 19.9061 74.5421 18.2808 76.2321 17.7694C76.2321 17.7694 78.7765 16.8081 79.7013 19.4375Z" fill="#070809"/>
</g>
</g>
<path d="M74.7559 20.9932C75.2831 20.1953 76.0105 19.5339 76.8271 19.0278C77.6437 18.5218 78.9957 18.021 79.9258 17.7774C80.2043 17.7051 80.4963 17.6408 80.783 17.689C81.0669 17.7372 81.3481 17.9247 81.4184 18.2031C81.5076 18.5512 80.883 19.0867 80.591 19.2983C80.299 19.5098 79.7014 19.8177 79.7014 19.8177C79.7014 19.8177 79.7095 19.1724 78.6658 19.0412C77.2489 18.8618 74.7559 20.9932 74.7559 20.9932Z" fill="#009344"/>
<g opacity="0.3">
<g opacity="0.3">
<path opacity="0.3" d="M73.5039 32.4319C73.8689 33.3075 74.2394 34.3893 74.7721 35.1765C75.3047 35.9664 76.0132 36.6652 76.8974 37.0321C78.006 37.4926 79.3201 37.5676 80.4233 37.0937C80.5125 37.0562 80.6883 37.0053 80.6721 36.9116C80.6721 36.9116 80.307 36.8714 80.1935 36.8527C77.9627 36.4805 77.7221 36.2074 76.654 35.372C75.9888 34.8525 74.5125 33.2754 73.5039 32.4319Z" fill="#070809"/>
</g>
</g>
<path d="M80.5936 38.81C80.599 38.8126 80.5693 38.8876 80.5017 39.0162C80.4341 39.1447 80.3151 39.3214 80.142 39.5142C79.7959 39.9052 79.1794 40.3256 78.4142 40.5612C77.649 40.7942 76.9216 40.837 76.4052 40.8584C76.1456 40.8691 75.9347 40.8691 75.7887 40.8691C75.6426 40.8691 75.5642 40.8638 75.5615 40.8584C75.5615 40.8531 75.6426 40.845 75.786 40.8343C75.9482 40.8236 76.1537 40.8102 76.3998 40.7968C76.9162 40.7594 77.6355 40.7058 78.3872 40.4755C79.1389 40.2452 79.7445 39.8409 80.0961 39.4714C80.4503 39.1018 80.5774 38.7993 80.5936 38.81Z" fill="#263238"/>
<path d="M90.1983 59.7838C90.1956 59.7838 90.1929 59.7651 90.1848 59.7303C90.1767 59.6901 90.1659 59.6392 90.155 59.575C90.128 59.433 90.0928 59.2322 90.0469 58.9778C89.9549 58.453 89.8225 57.706 89.6602 56.7822C89.3412 54.9213 88.9031 52.3615 88.4218 49.5339C88.2055 48.254 88 47.0303 87.8107 45.9111L87.854 45.9459C85.8747 46.0878 84.1847 46.211 82.9815 46.2994C82.3866 46.3395 81.9134 46.3717 81.5808 46.3931C81.4213 46.4011 81.2996 46.4091 81.2077 46.4145C81.1698 46.4172 81.1374 46.4172 81.1103 46.4172C81.0887 46.4172 81.0779 46.4172 81.0779 46.4172C81.0779 46.4145 81.0887 46.4145 81.1103 46.4118C81.1347 46.4091 81.1671 46.4065 81.205 46.4011C81.2942 46.3931 81.4186 46.3824 81.5754 46.3663C81.9053 46.3395 82.3785 46.2994 82.9733 46.2485C84.1766 46.1548 85.8666 46.0209 87.8432 45.8629L87.881 45.8602L87.8864 45.8977C88.0757 47.0143 88.2839 48.2379 88.5029 49.5178C88.9761 52.3481 89.406 54.9079 89.717 56.7688C89.8684 57.6926 89.9901 58.4423 90.0739 58.9698C90.1145 59.2242 90.1442 59.425 90.1659 59.5696C90.174 59.6339 90.1821 59.6847 90.1875 59.7249C90.1983 59.7651 90.1983 59.7838 90.1983 59.7838Z" fill="#455B65"/>
<path d="M88.9951 44.7088C89.0113 44.7275 88.7139 44.9819 88.3786 45.322C88.0406 45.6594 87.7918 45.9594 87.7702 45.9433C87.7512 45.9299 87.973 45.6032 88.3164 45.2604C88.6544 44.915 88.9789 44.69 88.9951 44.7088Z" fill="#455B65"/>
<path d="M78.5875 26.1557C78.5902 26.1557 78.5983 26.1744 78.6091 26.2119C78.6227 26.2494 78.6308 26.3029 78.6416 26.3779C78.6578 26.5225 78.6497 26.7394 78.5578 26.9884C78.4658 27.2347 78.2874 27.5105 77.998 27.7167C77.7114 27.9229 77.3139 28.03 76.9084 28.0059C76.5028 27.9791 76.1296 27.8265 75.8511 27.6123C75.5699 27.4007 75.3779 27.1437 75.2508 26.9188C75.1238 26.6885 75.0562 26.4877 75.021 26.3458C75.0048 26.2762 74.9913 26.2199 74.9886 26.1824C74.9832 26.145 74.9805 26.1235 74.9859 26.1235C75.0048 26.1182 75.048 26.4448 75.3076 26.8866C75.4401 27.1035 75.6321 27.3472 75.9025 27.548C76.1702 27.7488 76.5271 27.8907 76.9165 27.9175C77.3031 27.9416 77.679 27.8425 77.9521 27.6498C78.2279 27.4597 78.4036 27.1999 78.501 26.967C78.5956 26.7313 78.6145 26.5225 78.6064 26.3806C78.601 26.2333 78.5794 26.1557 78.5875 26.1557Z" fill="#263238"/>
<path d="M80.9832 33.4949C80.9778 33.4949 80.9642 33.4334 80.948 33.3209C80.9291 33.187 80.9075 33.029 80.8804 32.8389C80.8236 32.4105 80.7506 31.8589 80.6722 31.2511C80.5965 30.6299 80.5343 30.0649 80.4992 29.6579C80.4802 29.4544 80.4667 29.2884 80.4613 29.1733C80.4532 29.0582 80.4532 28.9939 80.4586 28.9939C80.464 28.9939 80.4775 29.0555 80.4938 29.1679C80.5127 29.3018 80.5343 29.4625 80.5614 29.6499C80.6154 30.0783 80.6857 30.6299 80.7614 31.2404C80.8371 31.8616 80.9047 32.4239 80.9453 32.8336C80.9642 33.0371 80.9778 33.2031 80.9859 33.3182C80.9886 33.4307 80.9886 33.4949 80.9832 33.4949Z" fill="#263238"/>
</svg>
