<svg width="111" height="59" viewBox="0 0 111 59" fill="none" xmlns="http://www.w3.org/2000/svg">
<path d="M110.185 10.0201C110.185 10.0201 108.85 9.21162 107.374 12.3599C105.897 15.5082 105.36 17.3134 105.36 17.3134C105.36 17.3134 104.963 17.9764 104.499 17.5679C104.035 17.1615 103.377 15.9809 102.622 16.2247C101.839 16.4771 101.611 17.3626 101.809 18.6437C102.008 19.9248 102.336 22.748 102.364 23.0026C102.392 23.2528 102.26 23.6292 101.9 23.4004C101.54 23.1737 99.4301 21.0071 98.453 22.0615C97.4758 23.1159 98.619 26.5936 98.7355 26.9764C98.8542 27.3593 98.783 27.5261 98.6018 27.6288C98.4206 27.7314 97.78 26.9358 97.1566 26.3455C96.531 25.753 95.7027 25.1756 95.1894 25.8322C94.6781 26.4867 94.6026 29.1302 97.2903 33.3244L98.6643 35.1873L100.992 34.9755C105.944 34.2205 107.903 32.4261 108.063 31.6112C108.222 30.7985 107.239 30.5589 106.378 30.4819C105.517 30.4049 104.493 30.4498 104.452 30.2467C104.411 30.0435 104.49 29.8809 104.859 29.7162C105.226 29.5515 108.621 28.1143 108.779 26.692C108.936 25.2697 105.903 25.1221 105.494 25.0002C105.084 24.8804 105.282 24.5339 105.491 24.3906C105.705 24.2431 108.065 22.6325 109.167 21.9374C110.269 21.2423 110.791 20.4895 110.468 19.7388C110.155 19.0158 108.826 19.3003 108.211 19.2212C107.597 19.142 107.838 18.4106 107.838 18.4106C107.838 18.4106 108.854 16.8214 110.273 13.6475C111.693 10.4735 110.161 10.003 110.161 10.003" fill="#F5F5F5"/>
<path d="M108.857 12.839C108.857 12.839 108.848 12.8625 108.831 12.9074C108.811 12.9545 108.783 13.0208 108.747 13.1042C108.669 13.2796 108.559 13.5341 108.417 13.8571C108.13 14.5115 107.707 15.4547 107.183 16.6182C106.132 18.9452 104.653 22.1491 103.007 25.6824C101.361 29.2157 99.8726 32.4153 98.8091 34.738C98.2807 35.8972 97.8514 36.8362 97.5516 37.4885C97.4049 37.8114 97.2884 38.0617 97.2086 38.2349C97.1698 38.3183 97.1396 38.3825 97.118 38.4274C97.0964 38.4702 97.0835 38.4916 97.0835 38.4916C97.0835 38.4916 97.0921 38.468 97.1094 38.4231C97.1288 38.3761 97.1568 38.3098 97.1935 38.2264C97.269 38.051 97.3812 37.7986 97.5214 37.4735C97.8083 36.819 98.231 35.8758 98.7552 34.7123C99.8057 32.3853 101.285 29.1814 102.931 25.646C104.577 22.1128 106.063 18.9153 107.127 16.5926C107.657 15.4333 108.084 14.4944 108.384 13.8421C108.531 13.5191 108.647 13.2689 108.727 13.0935C108.766 13.0101 108.796 12.9459 108.818 12.901C108.844 12.8604 108.857 12.839 108.857 12.839Z" fill="#E0E0DF"/>
<path d="M103.474 17.9144C103.479 17.9122 103.502 17.9678 103.539 18.0684C103.576 18.1689 103.628 18.3165 103.688 18.4983C103.807 18.8619 103.958 19.3709 104.115 19.9355C104.266 20.4916 104.404 20.9921 104.51 21.3792C104.557 21.5503 104.598 21.6958 104.631 21.8155C104.659 21.9182 104.674 21.976 104.667 21.9781C104.663 21.9802 104.639 21.9246 104.6 21.8241C104.564 21.7236 104.512 21.576 104.454 21.3942C104.337 21.0285 104.193 20.5173 104.037 19.9548C103.882 19.4008 103.742 18.9004 103.632 18.5132C103.582 18.3421 103.541 18.1967 103.509 18.0769C103.483 17.9742 103.47 17.9144 103.474 17.9144Z" fill="#E0E0DF"/>
<path d="M104.883 22.0122C104.877 21.9909 105.918 21.6358 107.211 21.2166C108.503 20.7974 109.557 20.4745 109.564 20.4959C109.57 20.5173 108.529 20.8723 107.236 21.2915C105.944 21.7085 104.89 22.0315 104.883 22.0122Z" fill="#E0E0DF"/>
<path d="M102.109 27.325C102.109 27.3186 102.17 27.3143 102.28 27.3101C102.407 27.3058 102.562 27.2994 102.746 27.2929C103.14 27.2801 103.684 27.2587 104.284 27.2138C104.883 27.171 105.425 27.1132 105.815 27.0683C105.999 27.0469 106.154 27.0298 106.279 27.017C106.389 27.0063 106.449 27.002 106.451 27.0063C106.454 27.0106 106.393 27.0255 106.285 27.0469C106.178 27.0683 106.02 27.094 105.824 27.1239C105.433 27.1817 104.892 27.248 104.29 27.2929C103.688 27.3379 103.143 27.3507 102.748 27.3507C102.549 27.3507 102.39 27.3464 102.28 27.3421C102.17 27.3357 102.109 27.3293 102.109 27.325Z" fill="#E0E0DF"/>
<path d="M100.013 23.8945C100.017 23.8923 100.052 23.9373 100.11 24.0207C100.168 24.1041 100.25 24.226 100.349 24.3779C100.548 24.6816 100.819 25.1029 101.113 25.5692C101.406 26.0376 101.669 26.4632 101.857 26.7733C101.95 26.9294 102.025 27.0556 102.075 27.1433C102.124 27.231 102.15 27.2823 102.146 27.2845C102.142 27.2866 102.107 27.2417 102.049 27.1583C101.991 27.0749 101.909 26.953 101.81 26.8011C101.611 26.4974 101.339 26.0761 101.046 25.6098C100.75 25.1414 100.489 24.7158 100.302 24.4057C100.209 24.2495 100.134 24.1233 100.084 24.0356C100.032 23.948 100.008 23.8988 100.013 23.8945Z" fill="#E0E0DF"/>
<path d="M96.9625 28.2768C96.9668 28.2747 97.01 28.3324 97.0855 28.4372C97.1674 28.557 97.271 28.711 97.3939 28.8928C97.6506 29.2799 98.0022 29.8167 98.384 30.4134C98.768 31.0102 99.1109 31.5513 99.3547 31.9469C99.469 32.1351 99.5661 32.2913 99.6416 32.4153C99.7085 32.5265 99.743 32.5907 99.7387 32.5928C99.7343 32.595 99.6912 32.5372 99.6157 32.4303C99.5337 32.3105 99.4302 32.1565 99.3072 31.9747C99.0506 31.5876 98.699 31.0508 98.3172 30.4541C97.9332 29.8573 97.5902 29.3162 97.3465 28.9227C97.2322 28.7345 97.1351 28.5784 97.0596 28.4543C96.9927 28.3431 96.9582 28.2789 96.9625 28.2768Z" fill="#E0E0DF"/>
<path d="M99.6997 32.4731C99.6997 32.4667 99.7774 32.4603 99.9154 32.4496C100.071 32.4389 100.269 32.4239 100.506 32.409C101.005 32.3747 101.695 32.3234 102.454 32.2464C103.214 32.1715 103.899 32.0838 104.396 32.0196C104.633 31.9897 104.829 31.964 104.982 31.9426C105.12 31.9255 105.198 31.917 105.2 31.9234C105.2 31.9298 105.125 31.9469 104.989 31.9726C104.851 32.0004 104.652 32.0346 104.404 32.0731C103.91 32.1523 103.224 32.2485 102.463 32.3234C101.701 32.4004 101.011 32.4432 100.511 32.4646C100.261 32.4753 100.058 32.4796 99.9176 32.4817C99.7774 32.4796 99.7019 32.4774 99.6997 32.4731Z" fill="#E0E0DF"/>
<path d="M15.0618 25.6204C18.7892 23.1544 19.6973 18.4875 19.6175 14.2805C19.6045 13.5769 19.6951 12.839 19.3629 12.2187C19.0308 11.5985 18.2413 11.1643 17.5942 11.4509C17.0571 11.6883 16.8155 12.2914 16.5092 12.7876C16.1015 13.4485 15.5018 13.9918 14.803 14.3361C14.3414 14.5607 13.7762 14.6955 13.3275 14.4452C12.7149 14.103 12.6545 13.2646 12.6696 12.5652C12.6977 11.2648 12.7279 9.9623 12.7559 8.66191C12.771 7.96466 12.784 7.25031 12.5726 6.58514C12.3612 5.91998 11.8802 5.29545 11.205 5.10082C10.5299 4.90405 9.68431 5.2762 9.529 5.95634C9.46429 6.2408 9.52037 6.53595 9.49449 6.82469C9.47076 7.11342 9.32624 7.4321 9.04366 7.5091C8.75678 7.58609 8.47636 7.38505 8.26497 7.17759C7.54021 6.46109 7.05487 5.54568 6.6019 4.6367C6.14892 3.72771 5.71104 2.79519 5.05314 2.01667C4.3974 1.23815 3.48282 0.615762 2.46254 0.543043C1.44226 0.470324 0.344327 1.07133 0.0703828 2.05089C-0.203561 3.03046 0.368054 4.03783 0.993595 4.84416C1.92328 6.03975 3.02553 7.10273 4.26151 7.98605C4.48369 8.14646 4.72527 8.31756 4.80724 8.5785C4.95392 9.04689 4.49663 9.50245 4.02424 9.64789C3.48929 9.81258 2.91336 9.75056 2.35684 9.80617C1.80033 9.86178 1.19204 10.0928 0.974182 10.6039C0.670039 11.314 1.2697 12.0711 1.86073 12.5695C3.0471 13.5683 4.40819 14.3639 5.86203 14.9093C6.38404 15.1061 6.93408 15.2772 7.35039 15.6451C7.76886 16.0129 8.0126 16.6439 7.74944 17.1315C7.48628 17.6213 6.82623 17.7668 6.27834 17.6598C5.73045 17.5529 5.24296 17.2535 4.72096 17.0503C3.74598 16.6738 2.4798 16.7209 1.837 17.5401C1.41637 18.079 1.36676 18.8383 1.56521 19.4906C1.76366 20.143 2.17781 20.7097 2.62 21.2316C4.16229 23.0603 6.15108 24.5425 8.41381 25.3467C10.6852 26.1573 12.7883 26.3968 15.0618 25.6204Z" fill="#ECEBEB"/>
<path d="M14.7706 25.7017C14.171 23.5715 12.5295 18.5581 11.5523 16.1991C11.3064 15.6109 11.0627 15.0291 10.8211 14.456C10.5795 13.8849 10.3422 13.3181 10.0726 12.777C9.53981 11.6948 8.94447 10.6938 8.34697 9.75918C7.74947 8.82453 7.14981 7.96046 6.58251 7.15414C6.01305 6.34996 5.46732 5.60993 4.941 4.9576C3.89268 3.64653 2.91986 2.68835 2.22745 2.05741C1.88017 1.74087 1.60407 1.50347 1.41425 1.3452C1.32149 1.2682 1.25031 1.21045 1.19854 1.16554C1.14893 1.1249 1.12305 1.10779 1.12305 1.10779C1.12305 1.10779 1.14462 1.13131 1.19207 1.17409C1.24168 1.219 1.31287 1.28103 1.40131 1.36016C1.58681 1.52485 1.8586 1.76654 2.19941 2.08736C2.88319 2.72685 3.84523 3.69144 4.88277 5.00466C5.40477 5.65912 5.94403 6.40129 6.51133 7.20547C7.07432 8.01179 7.67182 8.878 8.265 9.81051C8.85819 10.743 9.45137 11.7418 9.97985 12.8219C10.2473 13.3609 10.4824 13.9234 10.724 14.4966C10.9635 15.0698 11.2072 15.6515 11.4531 16.2397C12.4302 18.5966 14.0717 23.6035 14.6757 25.7295" fill="#E0E0DF"/>
<path d="M10.0448 12.7685C10.0513 12.7707 10.0772 12.6637 10.1138 12.4712C10.1527 12.2787 10.2001 11.9986 10.2562 11.6521C10.3662 10.9591 10.4848 9.9945 10.6143 8.93365C10.7437 7.87067 10.8796 6.91249 11.0047 6.22165C11.0651 5.87731 11.119 5.59712 11.1578 5.40463C11.1966 5.21214 11.2139 5.1052 11.2074 5.10306C11.2009 5.10092 11.1686 5.20573 11.119 5.39608C11.0672 5.58643 11.0025 5.86233 10.9313 6.20668C10.7868 6.89537 10.638 7.8557 10.5086 8.91868C10.3813 9.97097 10.267 10.9249 10.1807 11.6414C10.1376 11.975 10.1009 12.2509 10.0729 12.4648C10.0491 12.6573 10.0383 12.7664 10.0448 12.7685Z" fill="#E0E0DF"/>
<path d="M0.898682 10.9548C0.898682 10.9591 0.931037 10.9633 0.993591 10.9719C1.06909 10.9783 1.15753 10.989 1.26538 10.9997C1.50049 11.0211 1.84131 11.0532 2.25977 11.1066C3.09886 11.205 4.25287 11.3847 5.51689 11.6371C6.78092 11.8916 7.91552 12.1718 8.72872 12.3985C9.1364 12.5097 9.46427 12.6081 9.69076 12.6744C9.79429 12.7044 9.88057 12.7301 9.95176 12.7514C10.0122 12.7686 10.0445 12.775 10.0445 12.7707C10.0467 12.7664 10.0165 12.7536 9.95823 12.7301C9.88704 12.7044 9.80292 12.6723 9.7037 12.6359C9.48152 12.5568 9.15581 12.4477 8.75029 12.3279C7.93924 12.082 6.8068 11.7911 5.53846 11.5344C4.27228 11.282 3.1118 11.1131 2.2684 11.0339C1.84778 10.9911 1.50481 10.9698 1.26753 10.9612C1.15968 10.9591 1.06909 10.9548 0.995748 10.9526C0.931037 10.9484 0.898682 10.9505 0.898682 10.9548Z" fill="#E0E0DF"/>
<path d="M13.884 22.8016C13.8883 22.8037 13.9078 22.7652 13.9466 22.6925C13.9876 22.6091 14.0415 22.5021 14.1062 22.3695C14.2442 22.0893 14.4341 21.6766 14.6606 21.1654C15.1178 20.143 15.7046 18.7122 16.3323 17.1231C16.96 15.534 17.5359 14.101 17.9738 13.0722C18.1916 12.5675 18.3685 12.1547 18.4979 11.8552C18.5562 11.7205 18.6036 11.6093 18.6403 11.5237C18.6726 11.4467 18.6856 11.4061 18.6834 11.4061C18.6791 11.404 18.6597 11.4425 18.6209 11.5152C18.5799 11.5986 18.526 11.7055 18.4613 11.8381C18.3232 12.1183 18.1334 12.5311 17.9069 13.0423C17.4496 14.0646 16.8629 15.4955 16.2352 17.0846C15.6075 18.6716 15.0337 20.1067 14.5937 21.1354C14.3758 21.6402 14.1989 22.053 14.0695 22.3524C14.0113 22.4872 13.9638 22.5984 13.9272 22.6839C13.8948 22.7588 13.8797 22.7994 13.884 22.8016Z" fill="#E0E0DF"/>
<path d="M1.75513 18.7763C1.75513 18.7806 1.79611 18.7956 1.87592 18.8255C1.96652 18.8555 2.08515 18.8961 2.22968 18.9453C2.54892 19.0501 2.99111 19.1977 3.53037 19.3752C4.62831 19.7388 6.13608 20.2606 7.80348 20.8402C9.47087 21.4198 10.9851 21.931 12.0895 22.2775C12.6417 22.4507 13.0904 22.5876 13.401 22.6753C13.5477 22.7159 13.6663 22.7502 13.7591 22.7758C13.841 22.7972 13.8863 22.8079 13.8863 22.8036C13.8885 22.7994 13.8454 22.7844 13.7655 22.7544C13.6749 22.7245 13.5585 22.6839 13.4118 22.6347C13.0925 22.5299 12.6504 22.3844 12.1111 22.2048C11.0132 21.8412 9.50538 21.3193 7.83799 20.7397C6.17275 20.1601 4.65635 19.6489 3.5541 19.3025C3.0019 19.1292 2.55323 18.9923 2.24262 18.9046C2.09594 18.864 1.9773 18.8298 1.88455 18.8041C1.80043 18.7827 1.75728 18.7742 1.75513 18.7763Z" fill="#E0E0DF"/>
<path d="M76.3973 1.21899H91.4276H96.5355L92.5946 3.99728V6.31573C92.5946 8.68337 90.6295 10.604 88.205 10.604H75.569C73.1445 10.604 71.1794 8.68551 71.1794 6.31573C71.1816 3.50108 73.5155 1.21899 76.3973 1.21899Z" fill="#F5F5F5"/>
<path d="M89.1973 4.31854C89.1973 4.34232 85.8344 4.35962 81.6886 4.35962C77.5406 4.35962 74.1799 4.34016 74.1799 4.31854C74.1799 4.29476 77.5406 4.27747 81.6886 4.27747C85.8366 4.27747 89.1973 4.29692 89.1973 4.31854Z" fill="#E0E0DF"/>
<path d="M89.1973 5.86279C89.1973 5.88661 85.8344 5.90393 81.6886 5.90393C77.5406 5.90393 74.1799 5.88444 74.1799 5.86279C74.1799 5.84114 77.5406 5.82166 81.6886 5.82166C85.8366 5.82166 89.1973 5.83898 89.1973 5.86279Z" fill="#E0E0DF"/>
<path d="M45.8451 48.745H27.0465H22.0142L25.8968 51.5233V56.9879C25.8968 57.6189 26.4124 58.1279 27.0465 58.1279H45.8451C46.4814 58.1279 46.9969 57.6168 46.9969 56.9879V49.8871C46.9948 49.254 46.4793 48.745 45.8451 48.745Z" fill="#F5F5F5"/>
<path d="M44.8505 52.606C44.8505 52.6298 41.2569 52.6471 36.8242 52.6471C32.3893 52.6471 28.7979 52.6276 28.7979 52.606C28.7979 52.5821 32.3915 52.5648 36.8242 52.5648C41.2547 52.5648 44.8505 52.5843 44.8505 52.606Z" fill="#E0E0DF"/>
<path d="M44.8505 54.7042C44.8505 54.728 41.2569 54.7454 36.8242 54.7454C32.3893 54.7454 28.7979 54.7259 28.7979 54.7042C28.7979 54.6804 32.3915 54.6631 36.8242 54.6631C41.2547 54.6631 44.8505 54.6826 44.8505 54.7042Z" fill="#E0E0DF"/>
<path d="M94.4992 56.6094H66.6086C63.1875 56.6094 60.4136 53.8589 60.4136 50.4667V27.9581C60.4136 24.5659 63.1875 21.8154 66.6086 21.8154H94.4992C97.9203 21.8154 100.694 24.5659 100.694 27.9581V50.4667C100.694 53.8589 97.9203 56.6094 94.4992 56.6094Z" fill="#009344"/>
<g opacity="0.4">
<g opacity="0.4">
<path opacity="0.4" d="M94.4992 56.6094H66.6086C63.1875 56.6094 60.4136 53.8589 60.4136 50.4667V27.9581C60.4136 24.5659 63.1875 21.8154 66.6086 21.8154H94.4992C97.9203 21.8154 100.694 24.5659 100.694 27.9581V50.4667C100.694 53.8589 97.9203 56.6094 94.4992 56.6094Z" fill="#010202"/>
</g>
</g>
<path d="M100.683 33.9446H106.717L100.547 40.0616L100.683 33.9446Z" fill="#009344"/>
<g opacity="0.4">
<g opacity="0.4">
<path opacity="0.4" d="M100.683 33.9446H106.717L100.547 40.0616L100.683 33.9446Z" fill="#010202"/>
</g>
</g>
<path d="M59.4495 37.7047L56.9193 34.8601C56.2355 34.182 56.0004 33.8548 56.1384 33.7372C56.3196 33.5789 56.2441 33.6324 57.6634 34.689C57.6634 34.689 55.6509 33.1618 56.3477 33.1533C56.4706 33.1511 56.8114 33.35 57.1781 33.5875C56.6798 33.1682 56.5418 32.8838 56.6367 32.749C56.7985 32.5159 58.0301 33.3629 58.5974 33.7714C58.1337 33.4292 57.2514 32.764 57.094 32.5565C56.8804 32.2721 57.3118 32.2956 57.6634 32.4132C58.0582 32.548 60.2389 33.6495 60.8839 33.9361C61.3282 34.1329 61.4835 33.735 61.4835 33.735C61.7208 32.7448 62.4391 32.0988 62.7173 32.0154C62.9956 31.932 63.2048 32.2806 63.0085 32.533C62.8511 32.7362 62.6893 33.1554 62.5836 33.4741C62.4952 33.7372 62.4499 34.0109 62.4542 34.2868C62.4607 34.6077 62.4779 34.8772 62.4973 35.106L64.8075 38.2501L60.9443 40.4702L59.4495 37.7047Z" fill="#B78776"/>
<path d="M58.5413 35.1252C58.5154 35.1616 58.0667 34.8558 57.5383 34.4409C57.0098 34.0259 56.6064 33.6645 56.6344 33.6303C56.6646 33.5961 57.1133 33.904 57.6375 34.3147C58.1617 34.7274 58.5672 35.0889 58.5413 35.1252Z" fill="#AB6551"/>
<path d="M59.0329 34.6247C59.007 34.6611 58.5109 34.3616 57.922 33.9553C57.3331 33.549 56.878 33.1918 56.9039 33.1555C56.9298 33.1191 57.4259 33.4185 58.0148 33.8248C58.6015 34.2312 59.0588 34.5883 59.0329 34.6247Z" fill="#AB6551"/>
<path d="M59.3914 34.0922C59.3655 34.1286 58.891 33.8527 58.3302 33.4763C57.7693 33.0999 57.3336 32.7641 57.3595 32.7277C57.3854 32.6913 57.8599 32.9672 58.4207 33.3437C58.9816 33.7222 59.4151 34.0559 59.3914 34.0922Z" fill="#AB6551"/>
<path d="M62.715 35.5359L71.9277 47.1218L69.8181 51.9918C69.8181 51.9918 67.2901 51.4379 66.5243 50.3813C65.7586 49.3247 59.4492 37.7046 59.4492 37.7046L62.715 35.5359Z" fill="#B78776"/>
<path d="M86.104 19.3259C86.7662 19.8948 86.7641 20.9001 86.6886 21.7663C86.6109 22.6325 86.5527 23.6206 87.1588 24.2495C87.6571 24.7692 88.563 24.9959 88.6795 25.7038C88.7334 26.0332 88.5587 26.3883 88.2632 26.5508C87.9677 26.7112 87.5708 26.6663 87.3206 26.4439C87.5147 27.0021 87.381 27.7015 86.8913 28.0394C86.4017 28.3773 85.5842 28.1699 85.4332 27.5988C85.5259 27.9774 85.2455 28.403 84.8594 28.4736C84.4733 28.5442 84.0592 28.2426 84.0117 27.8555" fill="#263239"/>
<path d="M76.611 25.1713C76.4449 25.6033 75.8905 25.8407 75.4613 25.6611C75.032 25.4836 74.812 24.9253 75.0061 24.504C75.1593 24.1746 75.5174 23.9372 75.5519 23.5758C75.5928 23.1395 75.1442 22.8272 74.7451 22.6368C74.3461 22.4465 73.8802 22.1984 73.837 21.7621C73.7961 21.3407 74.1757 21.0135 74.4949 20.7312C74.8142 20.4489 75.1269 20.0126 74.9306 19.6383C74.8293 19.4458 74.62 19.3346 74.4863 19.1656C74.1865 18.7892 74.3439 18.1882 74.7257 17.893C75.1054 17.5979 75.6338 17.5551 76.1105 17.6407C76.5872 17.7262 77.0337 17.9208 77.4975 18.0577C79.0268 18.509 80.7438 18.2844 82.1049 17.4589" fill="#263239"/>
<path d="M79.4387 35.3862C81.1557 35.7305 82.8339 34.644 83.207 32.9479L85.4719 22.6433C86.0673 20.1366 84.4603 17.6363 81.915 17.1166L81.6777 17.0824C79.2834 16.7338 77.0207 18.2673 76.4793 20.6071C75.9745 22.7823 75.446 25.1927 75.2864 26.3754C74.9564 28.8244 77.3658 29.5622 77.3658 29.5622L76.9344 31.6262C76.5742 33.35 77.698 35.0375 79.4387 35.3862Z" fill="#B78776"/>
<path d="M76.926 22.2197C76.8915 22.4037 77.0209 22.5834 77.2129 22.6219C77.4049 22.6604 77.5882 22.5427 77.6227 22.3588C77.6572 22.1748 77.5278 21.9951 77.3358 21.9566C77.1438 21.9181 76.9605 22.0358 76.926 22.2197Z" fill="#263239"/>
<path d="M76.8352 21.8775C76.8719 21.9289 77.1674 21.7727 77.547 21.8283C77.9267 21.8797 78.1747 22.1128 78.2243 22.0722C78.2481 22.0551 78.2157 21.9652 78.1079 21.8604C78.0022 21.7556 77.8102 21.6423 77.5751 21.608C77.34 21.576 77.1264 21.6316 77.0013 21.7043C76.8676 21.777 76.8158 21.854 76.8352 21.8775Z" fill="#263239"/>
<path d="M80.6296 22.8293C80.5951 23.0133 80.7245 23.193 80.9164 23.2315C81.1084 23.27 81.2917 23.1523 81.3262 22.9684C81.3607 22.7844 81.2313 22.6048 81.0394 22.5663C80.8474 22.5278 80.6641 22.6454 80.6296 22.8293Z" fill="#263239"/>
<path d="M80.5494 22.4892C80.586 22.5406 80.8816 22.3844 81.2612 22.44C81.6409 22.4914 81.889 22.7245 81.9386 22.6839C81.9623 22.6668 81.9299 22.5769 81.8221 22.4721C81.7164 22.3673 81.5244 22.254 81.2893 22.2197C81.052 22.1877 80.8406 22.2433 80.7155 22.316C80.5817 22.3887 80.5299 22.4657 80.5494 22.4892Z" fill="#263239"/>
<path d="M78.7636 25.075C78.7679 25.0536 78.5393 24.9788 78.164 24.8761C78.0691 24.8526 77.9807 24.8205 77.9742 24.7521C77.9612 24.6794 78.0173 24.581 78.0799 24.4762C78.205 24.258 78.3366 24.0271 78.4746 23.7875C79.0246 22.8059 79.4388 21.9911 79.3999 21.9697C79.359 21.9483 78.8801 22.7268 78.3301 23.7084C78.1964 23.9501 78.0691 24.1832 77.9483 24.4035C77.8965 24.5083 77.8146 24.6216 77.8426 24.7734C77.8577 24.8483 77.9224 24.9103 77.9807 24.936C78.0389 24.9638 78.095 24.9723 78.1424 24.983C78.5199 25.06 78.7572 25.0964 78.7636 25.075Z" fill="#263239"/>
<path d="M80.668 21.0028C80.6896 21.1098 81.0757 21.1162 81.5114 21.2338C81.9515 21.3429 82.2901 21.5247 82.3635 21.4413C82.3958 21.4006 82.3484 21.2958 82.2168 21.1761C82.0874 21.0563 81.8717 20.9301 81.6107 20.8617C81.3475 20.7932 81.0973 20.7996 80.9269 20.8424C80.7543 20.883 80.6594 20.9515 80.668 21.0028Z" fill="#263239"/>
<path d="M77.1349 20.8103C77.1888 20.9045 77.4628 20.8553 77.7777 20.8959C78.0927 20.9258 78.3494 21.0371 78.4227 20.9579C78.4551 20.9194 78.427 20.8275 78.3235 20.7291C78.2199 20.6328 78.0387 20.5387 77.823 20.513C77.6052 20.4895 77.4089 20.5387 77.2859 20.6093C77.1608 20.682 77.1112 20.7654 77.1349 20.8103Z" fill="#263239"/>
<path d="M83.1943 19.5719C83.1987 19.5762 83.203 19.5805 83.2051 19.5848C83.5524 19.9484 83.7465 20.4317 83.7422 20.9322C83.7422 20.9493 83.7422 20.9664 83.7422 20.9835C83.7358 21.6958 83.6128 22.4016 83.6128 23.1138C83.6128 23.826 83.753 24.5682 84.1995 25.1243C84.3829 25.3531 84.7409 25.5435 84.9523 25.3382C85.0343 25.259 85.0623 25.1414 85.0861 25.0323C85.4657 23.3683 86.1516 21.9417 86.4083 20.1793C86.4773 19.7002 86.3177 19.2169 85.9661 18.8811C85.6339 18.5624 85.2198 18.2223 84.7776 18.3571C84.3354 18.4918 83.6883 19.1805 83.3194 19.4586" fill="#263239"/>
<path d="M84.4797 23.6271C84.525 23.6142 86.2464 23.3768 85.9465 25.0408C85.6467 26.7049 84.0224 26.0632 84.0288 26.014C84.0353 25.9648 84.4797 23.6271 84.4797 23.6271Z" fill="#B78776"/>
<path d="M84.6565 25.4751C84.6651 25.4708 84.6824 25.5008 84.7277 25.5328C84.773 25.5628 84.8528 25.5927 84.9455 25.5756C85.1353 25.5435 85.3338 25.2912 85.3963 24.9918C85.4287 24.842 85.4222 24.6923 85.3899 24.5619C85.3597 24.4314 85.2971 24.3309 85.2108 24.301C85.1267 24.2646 85.0534 24.3074 85.0232 24.3501C84.993 24.3929 84.9973 24.4271 84.9865 24.4293C84.98 24.4336 84.9563 24.3951 84.9822 24.3288C84.9952 24.2967 85.021 24.2603 85.0663 24.2368C85.1116 24.2111 85.1742 24.2047 85.2367 24.224C85.364 24.256 85.4589 24.3951 85.4956 24.5362C85.5387 24.6795 85.5495 24.8485 85.5128 25.0174C85.4416 25.3511 85.2108 25.6334 84.9563 25.6612C84.8334 25.6697 84.7406 25.6184 84.6975 25.5692C84.6522 25.5157 84.65 25.4772 84.6565 25.4751Z" fill="#AB6551"/>
<path d="M84.7968 18.6224C85.3102 18.0149 84.3158 16.8877 83.522 16.507C82.7282 16.1263 81.572 16.368 80.7049 16.522C80.157 16.6183 79.6005 16.7829 79.0548 16.6803C78.6881 16.6118 78.3559 16.4279 78.0259 16.2547C77.6958 16.0814 77.3507 15.9146 76.9797 15.8868C76.6087 15.859 76.1989 15.998 76.009 16.3167C75.8192 16.6354 75.9508 17.1273 76.3089 17.2321C75.8796 16.9113 75.1549 17.1466 75.0017 17.6577C74.8486 18.1689 75.3253 18.7592 75.8624 18.7207C75.6488 18.5069 75.2368 18.7507 75.2239 19.0501C75.2088 19.3517 75.4482 19.6062 75.7071 19.7666C76.3649 20.1752 77.1997 20.1966 77.9633 20.0597C78.7269 19.9228 79.4581 19.6426 80.2174 19.4864C80.9767 19.3303 82.2537 19.0373 82.9418 19.3966C83.4465 19.6597 83.7248 20.3505 84.0462 20.2543C84.3568 20.1602 84.5854 19.8864 84.6911 19.5806C84.7947 19.2747 84.7968 18.9453 84.7968 18.6224Z" fill="#263239"/>
<path d="M88.0841 26.3475C88.0841 26.3475 88.1186 26.3433 88.1725 26.309C88.2265 26.277 88.2998 26.2128 88.3537 26.1037C88.4055 25.9946 88.4379 25.8449 88.4098 25.6738C88.3818 25.5027 88.2696 25.3273 88.1078 25.1841C87.9461 25.0408 87.7325 24.9317 87.5039 24.8354C87.2752 24.7371 87.0229 24.6494 86.7964 24.4975C86.5699 24.3457 86.3908 24.1125 86.283 23.8366C86.173 23.5629 86.1277 23.2528 86.1342 22.9362C86.1514 22.301 86.3283 21.7086 86.3714 21.1504C86.4232 20.5943 86.3412 20.066 86.1018 19.7046C85.8667 19.341 85.5367 19.1635 85.3059 19.11C85.1894 19.08 85.0945 19.0822 85.0319 19.0822C84.9694 19.0886 84.937 19.0929 84.937 19.0972C84.937 19.1079 85.0707 19.0779 85.2972 19.1421C85.5194 19.202 85.83 19.3838 86.0522 19.7366C86.2744 20.0874 86.3499 20.5986 86.2938 21.1439C86.2485 21.6936 86.0673 22.2839 86.05 22.9362C86.0436 23.2613 86.0889 23.5821 86.2075 23.8687C86.3218 24.1553 86.5138 24.4055 86.7532 24.5638C86.9927 24.7221 87.2493 24.8098 87.478 24.9039C87.7066 24.9958 87.9137 25.1006 88.0712 25.2332C88.2286 25.3658 88.3365 25.5263 88.3667 25.6867C88.399 25.8449 88.3732 25.9904 88.3279 26.093C88.2243 26.3048 88.0733 26.3368 88.0841 26.3475Z" fill="#455A64"/>
<path d="M76.255 17.1958C76.2572 17.1936 76.2313 17.1808 76.1817 17.1573C76.158 17.1445 76.1256 17.1316 76.0868 17.1209C76.048 17.1081 76.0048 17.0953 75.9509 17.0867C75.7481 17.0461 75.4052 17.0781 75.1053 17.3434V17.3455C74.9004 17.5765 74.7688 17.9379 74.8033 18.3379C74.8292 18.7378 75.0492 19.1634 75.4203 19.4671C75.7869 19.7773 76.2852 19.9697 76.8159 20.0232C77.3487 20.081 77.9116 20.0275 78.4746 19.9227C79.3935 19.7495 80.2283 19.4008 80.9186 18.9859C81.268 18.7849 81.5959 18.5945 81.9281 18.4662C82.2559 18.3357 82.586 18.278 82.8879 18.2716C83.4941 18.2609 83.9686 18.4384 84.2641 18.5945C84.564 18.7528 84.7042 18.8811 84.7085 18.8726C84.7085 18.8726 84.5769 18.7335 84.2792 18.5646C83.9837 18.3999 83.5049 18.2074 82.8858 18.2117C82.5795 18.2138 82.2387 18.2694 81.9022 18.3999C81.5635 18.5282 81.2292 18.7186 80.8797 18.9175C80.1916 19.3238 79.3676 19.666 78.4574 19.8371C77.9009 19.9419 77.3465 19.9954 76.8245 19.9398C76.3046 19.8863 75.8236 19.7024 75.4677 19.4072C75.1096 19.1164 74.8961 18.7143 74.8659 18.3293C74.8271 17.9465 74.95 17.5979 75.142 17.3754L75.1398 17.3776C75.4203 17.1231 75.7503 17.0803 75.9487 17.1124C76.1536 17.1445 76.2507 17.2043 76.255 17.1958Z" fill="#455A64"/>
<path d="M77.189 15.8098C77.189 15.8098 77.1717 15.9488 77.2472 16.1841C77.3248 16.4151 77.5298 16.7338 77.9094 16.9733C78.0949 17.0931 78.3214 17.1936 78.5781 17.2492C78.8348 17.3048 79.1152 17.3155 79.4085 17.292C79.9952 17.2492 80.61 17.0482 81.2528 16.8835C81.8934 16.7188 82.5405 16.6333 83.0949 16.7787C83.6492 16.9199 84.0742 17.2556 84.346 17.585C84.6221 17.9187 84.7601 18.2481 84.8248 18.479C84.8895 18.7122 84.896 18.8469 84.9068 18.8469C84.9089 18.8469 84.909 18.8127 84.9025 18.7485C84.9003 18.6844 84.8831 18.5903 84.8572 18.4705C84.8011 18.2331 84.6674 17.893 84.3913 17.5487C84.1195 17.2065 83.6859 16.8557 83.1121 16.706C82.5362 16.5498 81.874 16.6375 81.2291 16.8044C80.5798 16.9712 79.9737 17.1701 79.3999 17.2172C79.1152 17.2428 78.8391 17.2343 78.591 17.1829C78.343 17.1337 78.1229 17.0396 77.9396 16.9263C77.5686 16.7017 77.3637 16.398 77.2774 16.1755C77.1954 15.9467 77.1997 15.8098 77.189 15.8098Z" fill="#455A64"/>
<path d="M78.0066 26.3219C78.0346 26.4844 78.0626 26.6491 78.136 26.7967C78.2093 26.9443 78.3344 27.0748 78.494 27.1154C78.6644 27.1603 78.852 27.0919 78.9793 26.97C79.1066 26.848 79.1756 26.6769 79.2036 26.5037C79.2295 26.3475 79.1971 26.1486 79.0462 26.0973C78.9836 26.0759 78.9146 26.0887 78.8499 26.0994C78.5544 26.1529 78.2611 26.2042 77.9656 26.2577" fill="#AB6551"/>
<path d="M78.1617 26.9871C78.1746 26.9636 78.3256 27.0898 78.6017 27.0705C78.7354 27.0599 78.8951 27.0085 79.0158 26.8845C79.1345 26.7625 79.2121 26.57 79.1927 26.3733C79.1884 26.3241 79.1755 26.277 79.1625 26.2342C79.1409 26.1915 79.1474 26.1957 79.1108 26.1893C79.0762 26.1872 79.0158 26.1957 78.9684 26.1979C78.9188 26.2022 78.8692 26.2064 78.8217 26.2086C78.6297 26.2236 78.4572 26.2342 78.3105 26.2407C78.0193 26.2535 77.8381 26.2535 77.836 26.2321C77.8338 26.2107 78.0107 26.1765 78.2997 26.1359C78.4442 26.1166 78.6168 26.0952 78.8066 26.0717C78.8541 26.0674 78.9037 26.061 78.9533 26.0546C79.0051 26.0503 79.0482 26.0417 79.1172 26.0417C79.1517 26.0439 79.197 26.0524 79.2337 26.0824C79.2704 26.1123 79.2876 26.1487 79.2984 26.1786C79.3178 26.2364 79.3351 26.2941 79.3394 26.3562C79.3631 26.6 79.2639 26.831 79.1108 26.9786C78.9554 27.1283 78.757 27.1775 78.6039 27.1732C78.4464 27.1711 78.3278 27.1219 78.2566 27.077C78.1832 27.032 78.1552 26.9935 78.1617 26.9871Z" fill="#263239"/>
<path d="M77.3678 29.5602C77.3678 29.5602 78.977 30.1654 80.5452 29.7249C80.5452 29.7249 79.3631 30.7064 77.2061 30.3301L77.3678 29.5602Z" fill="#AB6551"/>
<path d="M79.825 52.2676C79.8207 52.2719 79.743 52.212 79.605 52.1008C79.536 52.0452 79.4518 51.9767 79.3483 51.904C79.2448 51.8313 79.1326 51.7415 78.9967 51.6581C78.8651 51.5704 78.7184 51.4763 78.5567 51.3843C78.397 51.2859 78.218 51.2004 78.0325 51.1041C77.6529 50.9245 77.2258 50.7512 76.762 50.6101C76.2961 50.4753 75.8431 50.3877 75.4247 50.3299C75.2154 50.3085 75.017 50.2829 74.8315 50.2786C74.646 50.2657 74.4712 50.2657 74.3116 50.2657C74.152 50.2615 74.0096 50.2743 73.8824 50.2807C73.7551 50.285 73.6473 50.2957 73.5588 50.3043C73.3819 50.3214 73.2827 50.3278 73.2827 50.3235C73.2827 50.3171 73.3798 50.3 73.5567 50.2722C73.6451 50.2572 73.7529 50.2422 73.8802 50.2337C74.0075 50.223 74.152 50.2059 74.3116 50.2059C74.4712 50.2016 74.6481 50.1973 74.8358 50.208C75.0256 50.2101 75.224 50.2337 75.4354 50.2529C75.8561 50.3042 76.3155 50.3919 76.7857 50.5288C77.2538 50.67 77.6874 50.8475 78.067 51.0336C78.2547 51.1319 78.4337 51.2218 78.5933 51.3244C78.7573 51.4185 78.9018 51.5169 79.0334 51.6089C79.1671 51.6966 79.2793 51.7885 79.3785 51.8655C79.4799 51.9425 79.5619 52.0131 79.6287 52.0751C79.7581 52.1949 79.8293 52.2633 79.825 52.2676Z" fill="#FBFBFB"/>
<path d="M70.4373 44.1339L71.7488 38.5068C72.2492 36.3894 72.8446 34.3575 73.8433 34.1158V34.7703L73.4162 50.8497C73.4162 50.8497 70.7458 53.8654 67.3398 52.1886C66.2764 51.6646 64.3351 47.9816 64.3351 47.9816C64.3351 47.9816 59.8269 39.9911 60.0124 39.6296C60.2001 39.266 62.9589 35.7413 63.2415 35.5659L70.4373 44.1339Z" fill="#009344"/>
<path d="M83.9169 32.5287C86.5205 33.0228 89.4519 34.5306 90.8022 38.3869C91.294 39.7963 94.879 50.1866 94.879 50.1866L88.766 50.0604L87.7694 47.9174L88.2547 51.3929L88.6689 56.3506L73.231 56.6073L73.3388 49.1386L73.4876 34.2825C73.4876 34.2825 73.6602 34.0579 76.322 32.6014C77.9765 31.6967 83.9169 32.5287 83.9169 32.5287Z" fill="#009344"/>
<g opacity="0.2">
<g opacity="0.2">
<path opacity="0.2" d="M85.4568 42.4592C85.7092 45.5947 86.0025 46.5635 86.2549 49.7011C86.2786 49.9962 86.3045 50.2999 86.421 50.5737C86.5375 50.8475 86.7661 51.0913 87.0595 51.1512C87.5081 51.241 88.0927 51.5639 88.22 51.1276L87.7929 48.1077C87.7929 48.1077 87.6915 47.5388 87.3722 46.833C86.4253 44.7456 86.0759 44.6237 85.4568 42.4592Z" fill="#010202"/>
</g>
</g>
<path d="M76.3218 34.2098L76.3735 33.8847L76.8675 30.7557C76.8977 30.5674 77.0681 30.4327 77.2601 30.4477L83.3386 30.9503C83.7204 30.9824 84.0051 31.3117 83.9771 31.6925L83.8412 33.5104L81.943 35.9658L79.21 36.3893" fill="#009344"/>
<path d="M73.2719 40.0936C73.2956 40.0936 73.3129 42.5447 73.3129 45.5689C73.3129 48.5931 73.2935 51.0442 73.2719 51.0442C73.2482 51.0442 73.231 48.5931 73.231 45.5689C73.231 42.5468 73.2482 40.0936 73.2719 40.0936Z" fill="#263239"/>
<path d="M88.8929 50.5609C88.8907 50.5609 88.8843 50.5502 88.8735 50.5246C88.8605 50.4968 88.8433 50.4604 88.8239 50.4176C88.7786 50.3171 88.716 50.1781 88.6384 50.0005C88.4787 49.6305 88.2501 49.1065 87.9718 48.4627C87.4131 47.1559 86.6474 45.3593 85.7997 43.3767C85.3791 42.3821 84.9778 41.4346 84.6133 40.5727C84.4192 40.1471 84.2897 39.7108 84.2207 39.3001C84.1474 38.8895 84.1172 38.5002 84.115 38.1452C84.1086 37.4351 84.2142 36.8619 84.3588 36.4897C84.376 36.4427 84.3911 36.3999 84.4084 36.3593C84.4278 36.3208 84.4472 36.2823 84.4645 36.248C84.4968 36.1796 84.527 36.1219 84.5594 36.0791C84.5874 36.0384 84.609 36.0064 84.6262 35.9807C84.6413 35.9593 84.65 35.9486 84.6521 35.9486C84.6629 35.955 84.5184 36.1261 84.389 36.4983C84.2574 36.8683 84.1582 37.4372 84.1733 38.143C84.1927 38.8424 84.2897 39.6958 84.6845 40.5428C85.0512 41.4047 85.4545 42.35 85.8773 43.3446C86.7164 45.3315 87.4735 47.1303 88.0257 48.4392C88.2954 49.0873 88.5132 49.6156 88.6685 49.9877C88.7397 50.1674 88.798 50.3085 88.839 50.4112C88.8562 50.4561 88.8692 50.4925 88.8821 50.5224C88.8907 50.5481 88.895 50.5609 88.8929 50.5609Z" fill="#263239"/>
<path d="M85.8104 33.0741C85.8104 33.0741 85.7543 33.1318 85.6335 33.226C85.5128 33.3201 85.3208 33.4441 85.0511 33.5617C84.7815 33.6772 84.4342 33.7799 84.0244 33.8483C83.6124 33.9146 83.1422 33.9596 82.618 33.9852C82.0938 34.0087 81.5222 33.998 80.9096 34.0109C80.297 34.0259 79.6391 34.0643 78.9769 34.244C78.319 34.4194 77.6417 34.7445 77.1585 35.307C76.9213 35.5872 76.7444 35.9294 76.6538 36.2951C76.561 36.6608 76.5567 37.0586 76.6732 37.4286C76.7336 37.6126 76.8263 37.7837 76.9407 37.9355C77.0571 38.0852 77.206 38.2093 77.3721 38.297C77.5382 38.3847 77.7258 38.4274 77.9049 38.4082C78.0861 38.3911 78.2543 38.3013 78.3729 38.1708C78.6124 37.9013 78.6577 37.5099 78.6102 37.1698C78.5843 36.9966 78.5347 36.8276 78.4592 36.6758C78.3816 36.5239 78.2802 36.3828 78.1745 36.2502C77.7366 35.7262 77.124 35.4246 76.5373 35.2877C75.9441 35.1487 75.3617 35.1765 74.8613 35.307C74.3565 35.431 73.9294 35.6385 73.5778 35.8502C73.2241 36.062 72.9458 36.2865 72.728 36.4769C72.5079 36.6672 72.3526 36.8319 72.2448 36.9389C72.1952 36.9923 72.1563 37.0351 72.1261 37.065C72.0981 37.0928 72.0852 37.1078 72.083 37.1057C72.083 37.1057 72.275 36.8448 72.7064 36.4512C72.9221 36.2566 73.2004 36.0277 73.5541 35.8096C73.9057 35.5914 74.3371 35.3776 74.8483 35.2492C75.3552 35.1123 75.9506 35.0803 76.5546 35.2193C77.1542 35.3562 77.7841 35.662 78.2349 36.1988C78.3449 36.3336 78.4484 36.4769 78.5304 36.6373C78.6102 36.7977 78.6641 36.9731 78.69 37.1549C78.7159 37.3367 78.7159 37.5227 78.6792 37.7088C78.6426 37.8928 78.5671 38.0767 78.4355 38.2221C78.3039 38.3676 78.1163 38.4681 77.9156 38.4873C77.715 38.5087 77.5101 38.4617 77.3354 38.3676C77.1585 38.2756 77.0011 38.143 76.876 37.9847C76.7552 37.8243 76.6581 37.6447 76.5955 37.4522C76.4747 37.065 76.4791 36.6523 76.5761 36.2737C76.671 35.893 76.8522 35.5422 77.0981 35.2535C77.5986 34.6739 78.291 34.3445 78.9575 34.1692C79.6305 33.9874 80.2949 33.9531 80.9096 33.9403C81.5244 33.9317 82.096 33.9446 82.618 33.9253C83.1379 33.9039 83.6102 33.8633 84.0179 33.8013C84.4278 33.7393 84.7707 33.6409 85.0404 33.5318C85.3078 33.4206 85.502 33.3008 85.6249 33.211C85.6896 33.1682 85.7306 33.1297 85.763 33.1062C85.7932 33.0848 85.8104 33.0741 85.8104 33.0741Z" fill="#FBFBFB"/>
<path d="M91.0933 39.6659C91.0933 39.6681 91.0695 39.6724 91.0264 39.6766C90.9811 39.6809 90.9164 39.6895 90.8301 39.6916C90.6597 39.7001 90.4116 39.698 90.1053 39.6745C89.799 39.6531 89.4388 39.6061 89.0398 39.5526C88.6407 39.4991 88.2028 39.4371 87.7391 39.4136C87.2775 39.3922 86.8353 39.4264 86.4449 39.5098C86.0544 39.5954 85.7158 39.7258 85.4591 39.8819C84.9371 40.192 84.7473 40.5406 84.73 40.5213C84.7278 40.5192 84.7386 40.4999 84.7645 40.4615C84.7904 40.4251 84.8228 40.3652 84.881 40.3032C84.9867 40.1685 85.1679 39.9953 85.4289 39.8306C85.6877 39.6638 86.0329 39.5269 86.4298 39.435C86.8266 39.3452 87.2753 39.3088 87.7434 39.3302C88.2115 39.3537 88.6515 39.4179 89.0505 39.4756C89.4496 39.5333 89.8077 39.5868 90.1097 39.6146C90.4116 39.6445 90.6575 39.6552 90.828 39.6574C90.9984 39.6617 91.0933 39.6595 91.0933 39.6659Z" fill="#FBFBFB"/>
<path d="M87.2537 46.7666C87.2515 46.7859 86.9323 46.6533 86.3369 46.6896C86.0392 46.7046 85.679 46.7666 85.2735 46.8778C84.8658 46.9869 84.4107 47.1473 83.8995 47.3035C83.3904 47.4575 82.8123 47.6072 82.1781 47.6008C81.5461 47.6008 80.8688 47.4767 80.2174 47.1965C79.5638 46.9228 78.9339 46.4886 78.4292 45.9068C78.1746 45.6181 77.9525 45.2887 77.795 44.9209C77.6397 44.5551 77.5534 44.1423 77.6116 43.7317C77.672 43.3253 77.8662 42.9361 78.179 42.673C78.3343 42.5425 78.5176 42.442 78.7161 42.3992C78.9145 42.3565 79.1194 42.3629 79.3093 42.4185C79.4991 42.472 79.6803 42.5618 79.8226 42.6965C79.965 42.8291 80.0707 43.0024 80.1117 43.1906C80.1548 43.3767 80.1354 43.5734 80.0685 43.7467C80.0017 43.9199 79.8938 44.0718 79.7687 44.2001C79.5185 44.4589 79.2057 44.6321 78.8908 44.7519C78.7312 44.8096 78.5694 44.8567 78.4098 44.8824C78.3299 44.8973 78.2501 44.9144 78.1703 44.9273C78.0905 44.9358 78.0107 44.9465 77.9331 44.9551C77.3032 45.0235 76.71 44.9551 76.1902 44.8332C75.6681 44.7091 75.2173 44.523 74.8442 44.3199C74.471 44.1188 74.1733 43.9028 73.949 43.706C73.8929 43.6568 73.839 43.6119 73.7894 43.567C73.7419 43.52 73.6988 43.4772 73.6578 43.4365C73.5758 43.3574 73.5089 43.2868 73.4593 43.2248C73.4119 43.1671 73.373 43.1221 73.345 43.0879C73.3191 43.058 73.3062 43.0409 73.3083 43.0409C73.3105 43.0409 73.3234 43.0537 73.3515 43.0836C73.3817 43.1157 73.4205 43.1585 73.4723 43.2141C73.5219 43.274 73.5909 43.3424 73.675 43.4194C73.716 43.4601 73.7613 43.5007 73.8088 43.5478C73.8584 43.5905 73.9123 43.6355 73.9684 43.6825C74.1949 43.8729 74.4926 44.0846 74.8657 44.2814C75.2367 44.4781 75.6854 44.6599 76.2031 44.7797C76.7186 44.8952 77.3054 44.9594 77.9266 44.8888C78.0042 44.8802 78.0819 44.8695 78.1595 44.861C78.2372 44.8481 78.3148 44.831 78.3947 44.8161C78.5543 44.7904 78.7096 44.7433 78.8649 44.6856C79.1712 44.5658 79.4732 44.3969 79.7126 44.1488C79.8313 44.0247 79.9326 43.8814 79.993 43.721C80.0534 43.5606 80.0707 43.3809 80.0319 43.2077C79.9585 42.8612 79.6457 42.5896 79.2877 42.4976C79.1086 42.4484 78.9167 42.442 78.7333 42.4805C78.55 42.519 78.3774 42.6131 78.2307 42.7372C77.9374 42.9853 77.7497 43.3574 77.6915 43.7467C77.6354 44.1381 77.7173 44.5359 77.8683 44.8931C78.0215 45.2502 78.2372 45.5732 78.4874 45.8576C78.9835 46.4287 79.6005 46.8586 80.2454 47.1302C80.8882 47.4083 81.5547 47.5323 82.1781 47.5366C82.8037 47.5451 83.3731 47.4018 83.8822 47.2521C84.3913 47.1003 84.8486 46.9441 85.2606 46.8372C85.6704 46.7281 86.0349 46.6704 86.3348 46.6618C86.4836 46.6511 86.6173 46.664 86.7317 46.6682C86.846 46.6854 86.943 46.6918 87.0207 46.711C87.094 46.7281 87.1523 46.7431 87.1954 46.7538C87.2343 46.7602 87.2537 46.7645 87.2537 46.7666Z" fill="#FBFBFB"/>
<path d="M73.2181 45.0792C73.2051 45.0856 73.1318 44.9123 72.9765 44.6536C72.8212 44.3948 72.5753 44.0568 72.2366 43.7446C71.8979 43.4323 71.542 43.212 71.2702 43.0773C70.9984 42.9425 70.8194 42.8826 70.8259 42.8677C70.828 42.8612 70.8733 42.8719 70.9574 42.8976C71.0394 42.9211 71.158 42.9639 71.2983 43.0259C71.5787 43.15 71.9497 43.3681 72.2948 43.6868C72.64 44.0055 72.8859 44.3584 73.0282 44.6279C73.0994 44.7626 73.1512 44.876 73.1814 44.9551C73.2094 45.0321 73.2224 45.0749 73.2181 45.0792Z" fill="#FBFBFB"/>
<path d="M67.0184 51.8569C67.0162 51.8569 67.0076 51.8441 66.9925 51.8184C66.9753 51.7885 66.9537 51.7479 66.9257 51.6987C66.8674 51.5939 66.7854 51.4377 66.6841 51.2345C66.4835 50.8282 66.1858 50.2336 65.9528 49.4508C65.8407 49.0594 65.7458 48.6188 65.7242 48.1376C65.7091 47.8981 65.7242 47.6478 65.7544 47.3933C65.7911 47.1388 65.8558 46.8822 65.9442 46.6255C66.1319 46.1186 66.4274 45.6074 66.8825 45.2182C67.329 44.8311 67.9438 44.5616 68.5866 44.6257C68.9036 44.66 69.2186 44.7883 69.4278 45.03C69.6327 45.2674 69.7319 45.5946 69.6651 45.8962C69.6327 46.0459 69.5508 46.1849 69.4386 46.2876C69.3286 46.3924 69.1905 46.4608 69.0482 46.4993C68.7634 46.5784 68.4593 46.5271 68.2134 46.3988C67.9653 46.2726 67.7647 46.0844 67.603 45.8833C67.4412 45.6823 67.3139 45.462 67.219 45.2396C67.0313 44.7926 66.971 44.3349 67.0055 43.9264C67.0378 43.5157 67.1672 43.1585 67.3225 42.8741C67.4779 42.5875 67.659 42.3693 67.823 42.2089C67.9869 42.0485 68.1336 41.9437 68.235 41.8796C68.2846 41.8453 68.3256 41.8261 68.3536 41.809C68.3816 41.794 68.3946 41.7876 68.3946 41.7876C68.3967 41.7919 68.3428 41.824 68.2436 41.8924C68.1444 41.9608 68.0063 42.0699 67.8467 42.2303C67.6892 42.3929 67.5124 42.611 67.3635 42.8955C67.2147 43.1778 67.0939 43.5307 67.0637 43.9306C67.0335 44.3306 67.0961 44.7776 67.2816 45.2139C67.3765 45.4299 67.4994 45.6438 67.659 45.8384C67.8165 46.0331 68.0106 46.2127 68.2458 46.3303C68.4787 46.4501 68.7591 46.4972 69.0244 46.4223C69.2876 46.356 69.5249 46.1528 69.5831 45.8769C69.6435 45.6053 69.5529 45.3016 69.3631 45.0813C69.1733 44.8589 68.8778 44.737 68.5779 44.7049C67.9653 44.6429 67.3678 44.9016 66.9343 45.2759C66.4921 45.6524 66.2009 46.1507 66.0154 46.6469C65.9269 46.8993 65.8644 47.1495 65.8277 47.3997C65.7954 47.65 65.7803 47.8938 65.7932 48.1312C65.8126 48.606 65.9032 49.0423 66.0089 49.4316C66.2332 50.2101 66.5201 50.8068 66.7121 51.2174C66.8092 51.4185 66.8847 51.5746 66.9407 51.688C66.9645 51.7393 66.9839 51.7799 66.999 51.812C67.0141 51.842 67.0206 51.8569 67.0184 51.8569Z" fill="#FBFBFB"/>
<path d="M65.0471 37.8735C65.0493 37.8735 65.0558 37.8971 65.0622 37.9398C65.0687 37.9826 65.0795 38.0489 65.086 38.1323C65.1011 38.2992 65.1097 38.543 65.0838 38.8446C65.0385 39.4413 64.8249 40.2776 64.2965 41.0411C63.7658 41.8047 63.0561 42.3009 62.5104 42.5576C62.2364 42.688 62.0035 42.7672 61.8417 42.8121C61.7619 42.8377 61.695 42.8484 61.6519 42.8591C61.6087 42.8677 61.585 42.872 61.585 42.8698C61.5828 42.8634 61.6734 42.8356 61.8309 42.7821C61.9905 42.7287 62.217 42.641 62.4845 42.5041C63.0173 42.2389 63.7076 41.7427 64.2274 40.9941C64.7473 40.2455 64.9652 39.4285 65.0256 38.8403C65.0579 38.5451 65.0601 38.3034 65.0536 38.1366C65.0471 37.9676 65.0407 37.8735 65.0471 37.8735Z" fill="#FBFBFB"/>
<path d="M92.4909 44.7412C92.5017 44.7562 92.189 44.8845 91.874 45.2995C91.7144 45.5027 91.5548 45.7679 91.3736 46.0609C91.1903 46.3539 90.9638 46.6619 90.6898 46.9549C90.1419 47.5431 89.5229 47.9452 89.0527 48.1762C88.8175 48.2938 88.6191 48.3687 88.481 48.4179C88.3408 48.4628 88.2632 48.4863 88.261 48.4799C88.2589 48.4735 88.3344 48.4414 88.4681 48.3879C88.6018 48.3302 88.796 48.2468 89.0246 48.1227C89.4841 47.881 90.088 47.4768 90.6273 46.8972C90.8969 46.6084 91.1212 46.3069 91.3067 46.0181C91.4922 45.7294 91.6583 45.4642 91.8266 45.2631C91.9948 45.0599 92.1588 44.9209 92.2839 44.8418C92.3464 44.8033 92.396 44.7755 92.4327 44.7605C92.4715 44.7455 92.4909 44.7391 92.4909 44.7412Z" fill="#FBFBFB"/>
<path d="M83.8583 32.7127C83.8583 32.7149 83.8324 32.7213 83.7849 32.732C83.7267 32.7427 83.6577 32.7555 83.5735 32.7683C83.388 32.7983 83.1206 32.8389 82.7884 32.8838C82.124 32.9736 81.2051 33.0763 80.1849 33.1511C79.6758 33.1875 79.1883 33.2217 78.7418 33.2025C78.2975 33.1854 77.8963 33.1148 77.577 33.0057C77.2556 32.8988 77.0184 32.7598 76.8652 32.6486C76.7897 32.593 76.7336 32.5459 76.697 32.5138C76.6603 32.4796 76.643 32.4604 76.6452 32.4604C76.6495 32.454 76.7272 32.5224 76.8825 32.6251C77.0378 32.7256 77.2772 32.8539 77.5943 32.9523C77.9114 33.0528 78.3039 33.1169 78.744 33.1298C79.184 33.1447 79.6693 33.1084 80.1784 33.072C81.1965 32.9972 82.1154 32.9052 82.7819 32.8304C83.1055 32.794 83.3708 32.7641 83.5692 32.7405C83.7547 32.717 83.8561 32.7063 83.8583 32.7127Z" fill="#263239"/>
<path d="M94.799 51.3052C95.3038 53.9123 93.3042 56.3377 90.6273 56.3655L78.5286 56.2329L78.8456 52.3489L89.2188 50.8154" fill="#B78776"/>
<path d="M79.5939 52.5243C79.5378 52.5436 78.8389 52.2313 78.2134 51.9447C77.549 51.6388 76.8199 51.4998 76.0887 51.5362L73.2048 51.6816C73.2048 51.6816 73.3816 52.1543 73.6879 52.3211C73.9942 52.488 75.7867 52.5243 75.7867 52.5243L75.694 52.6184C75.3165 53.0034 74.801 53.228 74.2574 53.2408L73.9813 53.2472C73.7764 53.2323 73.5758 53.1916 73.3795 53.1296L72.6677 52.8451C72.452 52.7489 72.2255 52.7639 72.1306 52.9799C72.0464 53.1745 72.109 53.4419 72.6957 53.7349C73.0236 53.8996 74.2423 54.3166 74.2423 54.3166C74.2423 54.3166 74.2595 54.6503 74.3135 54.8257C74.3674 55.0011 74.8441 55.1764 74.8441 55.1764C74.8441 55.1764 75.1461 55.7903 75.269 55.9314C75.3251 55.9935 75.7587 56.1282 76.2181 56.2565C76.9623 56.464 77.7496 56.4576 78.4916 56.2394L79.5917 55.9143V52.5949" fill="#B78776"/>
<path d="M75.6485 54.6931C75.6464 54.7124 75.3056 54.6931 74.8979 54.5862C74.4902 54.4813 74.1839 54.3295 74.1926 54.3124C74.2012 54.2931 74.5161 54.4129 74.9173 54.5177C75.3185 54.6225 75.6507 54.6717 75.6485 54.6931Z" fill="#AB6551"/>
<path d="M75.5475 55.3625C75.5475 55.3818 75.362 55.3925 75.1419 55.3326C74.9219 55.2748 74.7666 55.17 74.7774 55.155C74.7882 55.1358 74.95 55.2085 75.1613 55.2641C75.3706 55.3219 75.5496 55.3411 75.5475 55.3625Z" fill="#AB6551"/>
<path d="M76.0737 52.2676C76.0802 52.274 75.9982 52.366 75.8516 52.5029C75.7049 52.6377 75.4914 52.8195 75.2239 52.9756C74.9564 53.1296 74.6846 53.2173 74.4884 53.258C74.2899 53.2986 74.1648 53.3008 74.1627 53.2922C74.1562 53.2665 74.6631 53.2195 75.1872 52.9136C75.4482 52.7617 75.6639 52.5906 75.8192 52.4665C75.9724 52.3382 76.0673 52.259 76.0737 52.2676Z" fill="#AB6551"/>
<path d="M79.8874 52.0004L79.594 56.3934L90.9918 56.3977C91.7662 56.3977 92.5233 56.1903 93.1877 55.7946C94.7278 54.877 95.5216 53.104 95.1743 51.3566C95.0578 50.6422 94.7839 49.8081 94.4387 48.9205L88.7075 49.8552L88.8908 50.5631L79.8874 52.0004Z" fill="#009344"/>
<path d="M91.5331 50.1951C91.5331 50.1973 91.4943 50.2058 91.4188 50.2208C91.3346 50.2358 91.2246 50.255 91.0866 50.2807C90.7889 50.3299 90.3704 50.3983 89.8614 50.4839C88.8174 50.6486 87.3873 50.8731 85.8105 51.1234C84.2315 51.3629 82.8014 51.5811 81.7552 51.7393C81.2419 51.8142 80.8256 51.8741 80.5257 51.9169C80.3877 51.9361 80.2755 51.949 80.1914 51.9618C80.1137 51.9703 80.0749 51.9746 80.0728 51.9725C80.0728 51.9703 80.1116 51.9618 80.1871 51.9468C80.2712 51.9318 80.3812 51.9126 80.5193 51.8869C80.8169 51.8377 81.2354 51.7693 81.7466 51.6837C82.7906 51.519 84.2186 51.2945 85.7975 51.0442C87.3765 50.8047 88.8066 50.5865 89.8527 50.4283C90.3661 50.3534 90.7846 50.2935 91.0823 50.2507C91.2225 50.2315 91.3325 50.2186 91.4188 50.2058C91.4921 50.1951 91.5331 50.1908 91.5331 50.1951Z" fill="#263239"/>
<path d="M85.7008 56.4019C85.6814 56.3976 85.7698 56.0853 85.7806 55.5677C85.7806 55.4394 85.7828 55.2983 85.7634 55.1464C85.7547 54.9945 85.7245 54.8363 85.6943 54.6673C85.621 54.3337 85.5024 53.9765 85.3233 53.6257C85.1443 53.275 84.9221 52.967 84.7 52.7082C84.6417 52.644 84.5878 52.582 84.5317 52.5221C84.4756 52.4623 84.4174 52.4109 84.3635 52.3574C84.2556 52.2484 84.1435 52.1607 84.0442 52.0773C83.6366 51.7522 83.3475 51.6025 83.3561 51.5875C83.3583 51.5832 83.4316 51.6196 83.5611 51.6902C83.6258 51.7265 83.7056 51.7693 83.7897 51.8292C83.8738 51.8891 83.9795 51.9489 84.0809 52.0324C84.1844 52.1136 84.3009 52.1992 84.4109 52.3083C84.467 52.3617 84.5274 52.4131 84.5856 52.4729C84.6417 52.5328 84.7 52.5949 84.7582 52.659C84.9868 52.9221 85.2155 53.2322 85.3967 53.5894C85.5779 53.9487 85.6965 54.3144 85.7677 54.6545C85.7957 54.8256 85.8259 54.9881 85.8302 55.1421C85.8475 55.2961 85.841 55.4394 85.8367 55.5699C85.8389 55.7003 85.8151 55.818 85.8043 55.9206C85.7957 56.0233 85.7741 56.111 85.7569 56.1837C85.7289 56.3249 85.7073 56.4019 85.7008 56.4019Z" fill="#FBFBFB"/>
<path d="M92.6398 56.0705C92.6398 56.0705 92.4478 56.079 92.1113 56.0085C91.9452 55.9678 91.7403 55.9122 91.5203 55.801C91.3024 55.6919 91.0651 55.5358 90.8537 55.3091C90.6445 55.0845 90.459 54.7893 90.3641 54.4386C90.3188 54.2632 90.2821 54.0792 90.28 53.8846C90.267 53.6921 90.2843 53.4932 90.3274 53.2921C90.3706 53.0932 90.4461 52.8922 90.5625 52.7104C90.679 52.5286 90.8408 52.366 91.0414 52.2591C91.2398 52.15 91.4728 52.088 91.7101 52.1072C91.9474 52.1222 92.1825 52.2398 92.3356 52.4281C92.4909 52.612 92.5794 52.858 92.5449 53.0954C92.5125 53.3371 92.3464 53.536 92.1523 53.6515C91.7532 53.8867 91.2916 53.8846 90.8926 53.8226C90.0772 53.6878 89.4409 53.2044 89.1087 52.6911C88.7657 52.1735 88.6816 51.6645 88.6708 51.3266C88.66 50.9844 88.7161 50.8004 88.7161 50.8004C88.7269 50.8004 88.6838 50.9865 88.7032 51.3244C88.7226 51.6581 88.8175 52.1564 89.1583 52.6569C89.4883 53.1553 90.1117 53.6194 90.9055 53.7456C91.2938 53.8033 91.7424 53.8012 92.1091 53.5809C92.2882 53.4739 92.4348 53.2943 92.4629 53.0825C92.4931 52.8708 92.4133 52.6484 92.2709 52.4794C92.1286 52.3061 91.9193 52.2035 91.7015 52.1864C91.4836 52.1671 91.2657 52.2249 91.0802 52.3275C90.6984 52.5307 90.4849 52.9264 90.4008 53.3071C90.3576 53.4996 90.3404 53.6921 90.3511 53.8803C90.3533 54.0685 90.3857 54.2482 90.4288 54.4172C90.5172 54.7572 90.6941 55.046 90.8969 55.2663C91.0996 55.4887 91.3283 55.6448 91.5397 55.7561C91.7532 55.8673 91.9538 55.9272 92.1178 55.9721C92.4478 56.0555 92.6398 56.0598 92.6398 56.0705Z" fill="#FBFBFB"/>
<path d="M47.4282 8.20435H18.8841C15.4112 8.20435 12.5941 10.9976 12.5941 14.4411V24.5276H6.43579L12.5941 30.6338V37.4886C12.5941 40.9321 15.4112 43.7253 18.8841 43.7253H47.4282C50.901 43.7253 53.7181 40.9321 53.7181 37.4886V14.4411C53.7181 10.9976 50.901 8.20435 47.4282 8.20435Z" fill="#009344"/>
<path d="M35.7672 9.27158C35.586 9.73356 35.8966 10.2404 36.2439 10.5976C36.5912 10.9548 37.0118 11.2949 37.1218 11.7804C37.2146 12.1867 37.0614 12.6102 37.0981 13.0251C37.1369 13.4508 37.3656 13.8315 37.4972 14.2378C37.7344 14.9736 37.6395 15.7756 37.4281 16.5178C37.2534 17.1273 36.9967 17.7262 36.5718 18.1989C36.1469 18.6715 35.5364 19.0052 34.8979 18.9945C34.7168 18.9902 34.5226 18.9517 34.404 18.817C34.3026 18.6994 34.2789 18.5347 34.2616 18.3807C33.8949 15.196 33.8949 11.9686 34.2595 8.78394" fill="#263239"/>
<path d="M35.4307 19.5485C36.8198 19.4886 38.1033 20.8083 37.9933 22.1814C39.3997 22.5214 40.3941 24.0571 40.1201 25.4666C40.0295 25.9328 39.8203 26.3755 39.7923 26.8482C39.7599 27.3637 39.9454 27.8663 40.0468 28.3732C40.228 29.2907 40.1309 30.2596 39.7685 31.1215C39.5485 31.6455 39.1408 32.1867 38.5692 32.2038C38.1809 32.2145 37.8207 31.9664 37.605 31.6455C37.3893 31.3247 37.2922 30.9419 37.2167 30.5633C36.9687 29.3249 36.8953 28.0545 36.5524 26.8397C36.2094 25.6248 35.545 24.4271 34.4363 23.809C33.8237 23.4668 33.0881 23.3064 32.6028 22.8016C32.0937 22.2755 31.9772 21.4392 32.2426 20.7591C32.5079 20.0789 33.1162 19.5592 33.8086 19.309" fill="#263239"/>
<path d="M25.8103 10.405C25.7931 9.81689 26.3431 9.36134 26.8953 9.14533C27.4475 8.92931 28.0623 8.84804 28.5563 8.51867C28.992 8.2278 29.2854 7.77225 29.6542 7.40225C30.5602 6.49115 31.9752 6.11473 33.2198 6.45051C34.4644 6.7863 35.489 7.82572 35.804 9.06619C36.0153 9.90457 35.8708 10.8969 35.2043 11.453C34.4299 12.0989 33.2845 11.9556 32.2923 11.7546C31.3 11.5535 30.1784 11.3546 29.3522 11.9321C28.8539 12.2807 28.5671 12.8475 28.2629 13.3693C27.9588 13.8933 27.5748 14.428 26.9989 14.6248C26.4229 14.8215 25.6378 14.4815 25.6162 13.8762" fill="#263239"/>
<path d="M28.1529 10.527C27.6395 10.5826 27.2555 11.0168 27.2663 11.5279L27.8595 24.8334C27.8832 26.4054 30.1999 27.2866 31.8975 27.2481C33.6102 27.2096 33.6663 26.3754 33.6879 24.8804C33.7245 22.3823 33.7202 21.4455 33.7224 21.4584C33.7224 21.4584 35.8859 21.0969 36.3281 18.2951C36.5481 16.9006 36.4726 14.6185 36.3497 12.7513C36.2396 11.0702 35.1115 9.01273 33.4225 9.19239L28.1529 10.527Z" fill="#F8BC9E"/>
<path d="M35.8621 14.5116C35.8686 14.7019 35.7133 14.8645 35.5127 14.8752C35.3143 14.8859 35.1461 14.7426 35.1396 14.5522C35.1331 14.3619 35.2884 14.1993 35.4868 14.1887C35.6874 14.1758 35.8535 14.3213 35.8621 14.5116Z" fill="#263239"/>
<path d="M35.8514 13.9405C35.8061 13.9875 35.5322 13.7865 35.1418 13.7887C34.7514 13.7844 34.4666 13.9854 34.4235 13.9362C34.4019 13.9148 34.4494 13.8314 34.5723 13.7395C34.6953 13.6497 34.9045 13.562 35.1461 13.562C35.3898 13.562 35.5926 13.6518 35.7112 13.7416C35.832 13.8357 35.873 13.9212 35.8514 13.9405Z" fill="#263239"/>
<path d="M32.1154 14.5116C32.1219 14.7019 31.9666 14.8645 31.766 14.8752C31.5675 14.8859 31.3992 14.7426 31.3928 14.5522C31.3863 14.3619 31.5416 14.1993 31.7401 14.1887C31.9407 14.1758 32.1089 14.3213 32.1154 14.5116Z" fill="#263239"/>
<path d="M32.0205 14.0218C31.9752 14.0688 31.7013 13.8678 31.3109 13.8699C30.9204 13.8656 30.6357 14.0667 30.5926 14.0175C30.571 13.9961 30.6163 13.9127 30.7414 13.8207C30.8644 13.7309 31.0736 13.6432 31.3152 13.6432C31.5589 13.6432 31.7617 13.733 31.8803 13.8229C32.0011 13.917 32.0421 14.0004 32.0205 14.0218Z" fill="#263239"/>
<path d="M33.4419 16.8856C33.4397 16.8642 33.6813 16.8214 34.0739 16.7701C34.1731 16.7594 34.268 16.7402 34.2853 16.6717C34.309 16.6012 34.2659 16.4942 34.2184 16.3787C34.1235 16.1392 34.0264 15.8911 33.9229 15.628C33.5109 14.5587 33.2132 13.6797 33.2564 13.6625C33.2995 13.6476 33.6684 14.5009 34.0804 15.5703C34.1796 15.8333 34.2745 16.0857 34.3651 16.3253C34.4039 16.4365 34.4687 16.5648 34.4169 16.7124C34.391 16.7872 34.3177 16.8407 34.2529 16.8578C34.1882 16.877 34.1321 16.8792 34.0847 16.8813C33.6878 16.9048 33.4419 16.907 33.4419 16.8856Z" fill="#263239"/>
<path d="M33.7201 21.4605C33.7201 21.4605 31.8198 21.5867 29.9346 20.4681C29.9346 20.4681 30.8578 22.3909 33.6834 22.1214L33.7201 21.4605Z" fill="#EC9A6E"/>
<path d="M33.278 17.8181C33.1378 17.6342 32.8918 17.5337 32.6481 17.5615C32.4798 17.5807 32.3073 17.662 32.2059 17.7989C32.1045 17.9357 32.0829 18.1304 32.1757 18.2587C32.2814 18.4041 32.5014 18.4383 32.6869 18.3849C32.8724 18.3314 33.0321 18.2095 33.1852 18.0897C33.2262 18.0555 33.2693 18.0213 33.2952 17.9742C33.3211 17.9293 33.3276 17.8673 33.2952 17.8309" fill="#EC9A6E"/>
<path d="M32.2944 17.1551C32.3569 17.1508 32.3591 17.5699 32.7215 17.8672C33.0839 18.1645 33.5347 18.1174 33.539 18.1752C33.5455 18.2008 33.4376 18.2564 33.2478 18.2628C33.0601 18.2692 32.7883 18.2115 32.5662 18.0297C32.344 17.848 32.2491 17.6042 32.234 17.4331C32.2189 17.2577 32.2642 17.1529 32.2944 17.1551Z" fill="#263239"/>
<path d="M32.1931 13.3459C32.1543 13.4507 31.766 13.4015 31.3087 13.4572C30.8492 13.5042 30.4825 13.6368 30.42 13.5427C30.3919 13.4978 30.4566 13.3994 30.6055 13.2967C30.7522 13.194 30.9894 13.0978 31.2634 13.0678C31.5373 13.0379 31.7897 13.0807 31.9558 13.147C32.1262 13.2133 32.2104 13.2946 32.1931 13.3459Z" fill="#263239"/>
<path d="M35.7067 12.824C35.6377 12.9117 35.3702 12.8219 35.0467 12.8176C34.7232 12.8026 34.4514 12.8775 34.3867 12.7855C34.3586 12.7406 34.4018 12.6529 34.5204 12.5695C34.639 12.486 34.8353 12.4176 35.0575 12.424C35.2796 12.4304 35.4716 12.5096 35.5838 12.5994C35.6981 12.6893 35.7348 12.7812 35.7067 12.824Z" fill="#263239"/>
<path d="M26.1792 19.743C26.9557 19.8992 27.8013 19.6618 28.3837 19.1271C28.964 18.5924 29.2638 17.7732 29.1646 16.9926C29.0761 16.3039 28.703 15.6045 28.9424 14.9543C29.2595 14.0945 30.4782 13.8293 30.7996 12.9695C30.9873 12.4712 30.819 11.8852 31.0326 11.3975C31.2332 10.9377 31.7207 10.6725 32.1953 10.5014C32.6698 10.3303 33.181 10.2126 33.5801 9.90679C33.9791 9.5988 34.2272 9.01919 33.9705 8.58716C31.8631 8.8374 29.7858 9.33787 27.797 10.0736C27.3354 10.2447 26.8522 10.45 26.5782 10.8564C26.2892 11.2863 26.3043 11.8424 26.328 12.3578C26.4467 14.8709 26.0605 17.2278 26.1792 19.743Z" fill="#263239"/>
<path d="M25.5063 18.9538C25.5063 18.956 25.4912 18.9495 25.461 18.9388C25.4308 18.9303 25.3877 18.9089 25.3316 18.8768C25.2238 18.8127 25.0814 18.6822 24.98 18.464C24.8786 18.2502 24.8204 17.9486 24.8873 17.6128C24.9541 17.2792 25.1504 16.9348 25.4006 16.5947C25.6487 16.2525 25.9615 15.906 26.175 15.4633C26.2807 15.243 26.3584 14.9992 26.3627 14.7426C26.3691 14.4838 26.285 14.2271 26.1966 13.964C26.106 13.7031 26.0197 13.4186 26.0305 13.1171C26.0434 12.8198 26.1297 12.5182 26.2893 12.253C26.4468 11.9878 26.6711 11.7504 26.9494 11.5879C27.2276 11.4167 27.5598 11.359 27.8791 11.3248C28.2005 11.2884 28.5219 11.2713 28.8109 11.1644C29.1021 11.0617 29.3264 10.8414 29.4666 10.5805C29.609 10.3196 29.691 10.033 29.7773 9.75491C29.8614 9.47473 29.9628 9.20311 30.0965 8.95501C30.3575 8.45667 30.7242 8.03961 31.1556 7.77441C31.587 7.5092 32.068 7.40225 32.4973 7.43006C32.9287 7.45786 33.3018 7.62683 33.5521 7.85996C33.8044 8.08881 33.9533 8.35187 34.0244 8.57858C34.0978 8.80529 34.1021 8.99351 34.0892 9.11756C34.0784 9.24161 34.0568 9.30363 34.0568 9.30363C34.0503 9.30363 34.0676 9.23947 34.0741 9.11542C34.0805 8.99351 34.0719 8.80743 33.9942 8.58714C33.9188 8.36685 33.7699 8.11233 33.5219 7.89204C33.276 7.6696 32.9136 7.5092 32.4951 7.48567C32.0788 7.46214 31.6107 7.57122 31.1944 7.83001C30.776 8.0888 30.42 8.49731 30.1677 8.98709C30.0383 9.23091 29.9412 9.49613 29.8571 9.77417C29.7708 10.0522 29.691 10.3431 29.5421 10.6168C29.4688 10.7516 29.3739 10.8821 29.2574 10.9911C29.1409 11.1002 28.9964 11.1836 28.8454 11.2392C28.5391 11.3526 28.2134 11.3697 27.8942 11.4061C27.5749 11.4403 27.26 11.4959 26.9968 11.6584C26.7315 11.8124 26.5158 12.0391 26.3648 12.2937C26.2117 12.5482 26.1297 12.8369 26.1168 13.1192C26.106 13.4037 26.188 13.6774 26.2764 13.9405C26.3627 14.2036 26.449 14.4709 26.4425 14.7447C26.4382 15.0163 26.354 15.2708 26.244 15.4954C26.0219 15.9488 25.7026 16.2932 25.4546 16.6311C25.2022 16.9648 25.0102 17.3005 24.939 17.6235C24.8679 17.9464 24.9218 18.2395 25.0145 18.4512C25.1094 18.6651 25.2432 18.7955 25.3467 18.864C25.4438 18.9303 25.5085 18.9474 25.5063 18.9538Z" fill="#455A64"/>
<path d="M33.7158 6.7392C33.7179 6.73492 33.7568 6.74348 33.8258 6.77128C33.8948 6.79908 33.9876 6.85042 34.0933 6.93169C34.3003 7.08996 34.5441 7.39794 34.6066 7.8043C34.667 8.21067 34.5247 8.57639 34.3715 8.78599C34.296 8.89293 34.2205 8.96993 34.1623 9.01698C34.1062 9.06404 34.0695 9.08329 34.0674 9.07901C34.0566 9.06832 34.1882 8.96993 34.3219 8.75391C34.4556 8.54218 34.5808 8.1957 34.5247 7.815C34.4664 7.4343 34.2443 7.13915 34.0544 6.9766C33.8646 6.80978 33.7093 6.75417 33.7158 6.7392Z" fill="#455A64"/>
<path d="M39.9758 25.9626C39.9671 25.9584 40.0254 25.8621 40.0556 25.6654C40.0879 25.4729 40.0728 25.1756 39.9175 24.859C39.7665 24.5403 39.4494 24.2366 39.0267 24.0356C38.8153 23.9329 38.5823 23.8516 38.3321 23.7896C38.0819 23.7254 37.8187 23.672 37.5555 23.5885C37.2924 23.5051 37.0357 23.3896 36.8415 23.2014C36.6409 23.0196 36.546 22.7608 36.505 22.5298C36.4619 22.2945 36.4468 22.07 36.395 21.871C36.3433 21.6721 36.2483 21.501 36.1383 21.3663C35.914 21.0946 35.6422 20.9642 35.4545 20.9043C35.2647 20.8487 35.1504 20.8465 35.1504 20.838C35.1504 20.8358 35.1784 20.8337 35.2324 20.8358C35.2863 20.838 35.3639 20.8487 35.4632 20.8722C35.6573 20.9235 35.942 21.0476 36.1836 21.3256C36.3023 21.4647 36.4058 21.6422 36.4619 21.8497C36.5201 22.0571 36.5374 22.2838 36.5805 22.5106C36.6237 22.7373 36.7121 22.9704 36.8976 23.1394C37.0767 23.3126 37.3226 23.4238 37.5793 23.5051C37.8381 23.5885 38.0991 23.642 38.3515 23.7062C38.6039 23.7703 38.8433 23.8538 39.059 23.9628C39.4926 24.1746 39.8205 24.4954 39.9693 24.8291C40.1246 25.1606 40.1311 25.4707 40.0858 25.6675C40.0642 25.7659 40.0362 25.8407 40.0146 25.8878C39.9909 25.9391 39.9779 25.9626 39.9758 25.9626Z" fill="#455A64"/>
<path d="M27.6871 21.0028C26.257 20.6221 25.021 19.234 24.5184 17.8524C24.0158 16.4707 24.0158 14.9607 24.1452 13.4978C24.238 12.437 24.4256 11.3162 25.1353 10.5185C26.2052 9.31433 27.3635 8.7005 28.9813 8.74969" fill="#263239"/>
<path d="M36.0412 24.0912L34.7082 23.7597C35.0209 23.5137 35.1094 23.1972 34.9735 22.8379C34.8139 22.4165 34.404 22.1385 33.9532 22.0893L27.8703 21.4092C27.6525 21.3857 27.4411 21.5054 27.3591 21.7065C27.0895 22.3866 27.0787 22.9448 27.3311 23.3854H27.303L26.1317 23.6164L24.1494 40.9983L37.165 40.3952L36.0412 24.0912Z" fill="#F5F5F5"/>
<path d="M34.1278 23.826C34.1278 23.8324 34.0415 23.8474 33.8841 23.8731C33.7266 23.8987 33.4958 23.9265 33.2111 23.9543C32.6416 24.0099 31.8499 24.0442 30.9763 24.0014C30.1027 23.9586 29.3176 23.8453 28.7567 23.734C28.4763 23.6784 28.2498 23.6292 28.0945 23.5864C27.9392 23.5458 27.8551 23.5223 27.8572 23.5159C27.8594 23.5095 27.9457 23.5244 28.1031 23.5544C28.2606 23.5865 28.4871 23.6271 28.7675 23.6741C29.3305 23.7704 30.1114 23.8731 30.9806 23.9158C31.8499 23.9586 32.6373 23.9329 33.2067 23.8923C33.4915 23.8731 33.7223 23.8538 33.8797 23.8367C34.0394 23.826 34.1278 23.8196 34.1278 23.826Z" fill="#263239"/>
<path d="M28.2457 26.5871C28.2262 26.5743 28.4312 26.2386 28.7008 25.8365C28.9726 25.4344 29.2055 25.1179 29.2249 25.1307C29.2443 25.1436 29.0394 25.4793 28.7698 25.8814C28.498 26.2835 28.2651 26.6 28.2457 26.5871Z" fill="#E0E0DF"/>
<path d="M32.4412 26.8824C32.424 26.8974 32.1651 26.6065 31.8632 26.2343C31.5612 25.8621 31.3325 25.5498 31.3498 25.5349C31.367 25.5199 31.6259 25.8108 31.9279 26.183C32.2277 26.5551 32.4585 26.8674 32.4412 26.8824Z" fill="#E0E0DF"/>
<path d="M30.4912 29.0897C30.4675 29.094 30.3812 28.7068 30.2949 28.2256C30.2086 27.7443 30.1568 27.3507 30.1806 27.3465C30.2021 27.3422 30.2906 27.7293 30.3769 28.2106C30.4631 28.694 30.5149 29.0875 30.4912 29.0897Z" fill="#E0E0DF"/>
<path d="M33.6942 29.2286C33.7093 29.2457 33.3793 29.5943 32.9544 30.0071C32.5294 30.422 32.1735 30.745 32.1563 30.7279C32.1412 30.7108 32.4712 30.3621 32.8961 29.9493C33.321 29.5344 33.6769 29.2114 33.6942 29.2286Z" fill="#E0E0DF"/>
<path d="M29.3997 32.1887C29.3889 32.2058 28.992 31.9684 28.6037 31.5578C28.2133 31.1492 27.9955 30.7429 28.0149 30.7343C28.0364 30.7215 28.2823 31.1001 28.6663 31.5022C29.0459 31.9043 29.4148 32.1695 29.3997 32.1887Z" fill="#E0E0DF"/>
<path d="M30.7779 34.4751C30.7843 34.4986 30.4133 34.6163 29.9927 34.8366C29.57 35.0569 29.2637 35.2943 29.2464 35.275C29.2313 35.2601 29.5204 34.9884 29.9539 34.7638C30.3853 34.5393 30.7736 34.4558 30.7779 34.4751Z" fill="#E0E0DF"/>
<path d="M33.0234 34.6247C33.0148 34.6311 32.9156 34.5285 32.7689 34.3531C32.6222 34.1777 32.426 33.9297 32.2211 33.6452C32.0162 33.3608 31.8436 33.0977 31.725 32.901C31.6063 32.7063 31.5395 32.5802 31.5481 32.5737C31.5589 32.5673 31.6409 32.6828 31.7724 32.8689C31.9234 33.0806 32.096 33.3265 32.2879 33.596C32.4842 33.8634 32.6611 34.105 32.8142 34.3146C32.9501 34.5007 33.0321 34.6162 33.0234 34.6247Z" fill="#E0E0DF"/>
<path d="M33.2479 36.5752C33.2522 36.5966 32.8251 36.71 32.2859 36.7977C31.7488 36.8854 31.3066 36.9154 31.3045 36.894C31.3023 36.8705 31.738 36.8041 32.2729 36.7164C32.8079 36.6287 33.2436 36.5517 33.2479 36.5752Z" fill="#E0E0DF"/>
<path d="M29.6132 23.5801C29.6024 23.5715 29.6801 23.4838 29.7448 23.317C29.8116 23.1523 29.8526 22.8999 29.8138 22.6283C29.775 22.3566 29.6779 22.1214 29.6067 21.9524C29.5355 21.7834 29.4881 21.6786 29.4988 21.6743C29.5075 21.6701 29.5743 21.7642 29.6606 21.9289C29.7448 22.0936 29.8548 22.331 29.8958 22.6176C29.9368 22.9042 29.8828 23.1715 29.7987 23.3405C29.7146 23.5116 29.6196 23.5865 29.6132 23.5801Z" fill="#E0E0DF"/>
<path d="M32.0462 22.2775C32.0635 22.2668 32.2123 22.4828 32.2857 22.7973C32.3612 23.1096 32.3245 23.3705 32.3029 23.3684C32.2792 23.3684 32.277 23.116 32.2037 22.8165C32.1347 22.5171 32.0225 22.2903 32.0462 22.2775Z" fill="#E0E0DF"/>
<path d="M43.0106 34.6611L49.0654 24.1169L49.7945 22.2882C49.7945 22.2882 51.6819 18.2652 51.8134 17.8545C51.9666 17.3819 52.2319 17.3412 52.4045 17.4075C52.6719 17.5123 52.7582 17.908 52.6417 18.3186C52.6008 18.4598 51.8674 20.6713 51.8674 20.6713C51.8674 20.6713 52.0291 20.5195 52.4929 20.2115C52.9567 19.9013 53.8109 19.912 54.5982 20.1901C55.3855 20.4681 55.5818 20.6157 55.4869 20.9237C55.448 21.0477 55.3467 21.1247 55.2345 21.1718C55.0511 21.2488 54.8398 21.2488 54.6521 21.1846C53.3838 20.7569 52.8208 21.3236 52.8208 21.3236L52.7259 21.5632C52.7259 21.5632 53.6793 21.2595 54.2207 21.6894C54.3091 21.76 54.3717 21.8369 54.4191 21.9182C54.7578 22.0294 55.0296 22.3182 55.1137 22.6625C55.2 23.0197 55.0792 23.4197 54.8074 23.6699C54.678 23.7897 54.4817 23.8773 54.3264 23.7918C54.2444 23.7469 54.1948 23.6635 54.1452 23.5843C54.1193 23.5437 54.0913 23.5009 54.0589 23.4646L53.6965 24.0976C53.6965 24.0976 52.8057 25.4772 52.4886 26.1209L48.3212 37.1314C47.7431 38.6585 46.0153 39.4178 44.486 38.8189C42.8208 38.1645 42.1262 36.2032 43.0106 34.6611Z" fill="#F8BC9E"/>
<path d="M49.4817 24.0826C49.6952 24.2217 49.9907 24.1276 50.1827 23.9607C50.3747 23.796 50.5063 23.5693 50.6875 23.3918C51.2267 22.857 52.1284 22.8078 52.6417 22.2474C52.7129 22.1704 52.7776 22.0507 52.7151 21.9651C52.6568 21.886 52.5382 21.8966 52.4411 21.9159C51.615 22.0785 50.7889 22.241 49.9627 22.4014" fill="#F8BC9E"/>
<path d="M49.9648 22.4015C49.9626 22.3908 50.0575 22.363 50.2279 22.3224C50.3983 22.2796 50.6464 22.224 50.9548 22.1577C51.2741 22.0893 51.6386 22.0144 52.0355 21.931C52.1369 21.9096 52.2426 21.8882 52.3483 21.8668C52.4496 21.854 52.5747 21.7941 52.7257 21.8796C52.7991 21.9267 52.8271 22.0294 52.8055 22.1021C52.7883 22.1769 52.7516 22.2326 52.7085 22.2839C52.6244 22.3759 52.5338 22.4571 52.4302 22.5277C52.0182 22.81 51.5653 22.9277 51.2051 23.1138C51.0239 23.2057 50.8621 23.3084 50.7348 23.4325C50.6076 23.5544 50.5062 23.6934 50.4005 23.8132C50.1977 24.0634 49.9303 24.1875 49.7448 24.1789C49.5549 24.1746 49.4773 24.0869 49.4838 24.0848C49.4902 24.072 49.5744 24.1361 49.7426 24.1233C49.9109 24.1105 50.1395 23.995 50.3228 23.749C50.4199 23.6314 50.5148 23.4859 50.6507 23.349C50.7844 23.2122 50.957 23.0967 51.1447 22.9983C51.5178 22.7972 51.9665 22.6753 52.3483 22.4122C52.4432 22.3481 52.5273 22.2711 52.6006 22.1919C52.6697 22.1128 52.6934 22.0208 52.6438 21.9951C52.5942 21.9588 52.4798 21.9802 52.3741 22.0016C52.2685 22.0208 52.1628 22.0422 52.0614 22.0614C51.6623 22.1342 51.2956 22.2005 50.9743 22.2582C50.6636 22.3117 50.4134 22.3545 50.2387 22.3801C50.064 22.4015 49.9669 22.4122 49.9648 22.4015Z" fill="#EC9A6E"/>
<path d="M52.6914 21.5653C52.7086 21.5738 52.741 21.3686 52.9761 21.1846C53.0904 21.0948 53.2609 21.0328 53.455 21.0285C53.6513 21.0221 53.8648 21.0692 54.087 21.1333C54.3092 21.1975 54.5271 21.2638 54.7363 21.2787C54.9434 21.2937 55.1354 21.268 55.2799 21.1953C55.4287 21.1248 55.4978 20.9943 55.5107 20.9088C55.5258 20.8211 55.5107 20.774 55.5085 20.774C55.4999 20.774 55.4999 20.8211 55.4762 20.9002C55.4525 20.9772 55.3856 21.082 55.2518 21.1376C55.1203 21.1953 54.9391 21.2146 54.7428 21.1953C54.5465 21.1761 54.3372 21.1119 54.1129 21.0456C53.8886 20.9793 53.6621 20.9323 53.4528 20.943C53.2436 20.9515 53.0559 21.0285 52.9351 21.1333C52.8122 21.236 52.7496 21.3514 52.7194 21.4327C52.6892 21.5161 52.6871 21.5632 52.6914 21.5653Z" fill="#EC9A6E"/>
<path d="M52.6849 18.1625C52.672 18.1604 52.6202 18.3272 52.5361 18.6009C52.4411 18.9046 52.329 19.2661 52.206 19.6639C52.0766 20.0617 51.958 20.421 51.8587 20.7226C51.7681 20.9942 51.7142 21.161 51.725 21.1653C51.7358 21.1696 51.8134 21.0092 51.9191 20.744C52.0248 20.4788 52.1607 20.1066 52.2923 19.6896C52.4239 19.2747 52.5317 18.894 52.5986 18.6159C52.6676 18.34 52.6957 18.1646 52.6849 18.1625Z" fill="#EC9A6E"/>
<path d="M53.0342 22.2241C53.0363 22.2306 53.0881 22.2241 53.1809 22.2156C53.2693 22.2092 53.4181 22.2006 53.5303 22.3075C53.5842 22.3589 53.6058 22.4401 53.5864 22.5278C53.5691 22.6176 53.5217 22.7074 53.4721 22.808C53.4246 22.9063 53.375 23.0347 53.4138 23.1715C53.4526 23.3041 53.5626 23.4089 53.6985 23.4538C53.8366 23.5009 53.9833 23.4752 54.0976 23.4153C54.2119 23.3533 54.3047 23.2678 54.3629 23.1587C54.4643 22.9512 54.5096 22.7566 54.5376 22.5898C54.5635 22.423 54.5613 22.284 54.5419 22.1899C54.5225 22.0958 54.4902 22.0509 54.4858 22.0531C54.4772 22.0573 54.4966 22.1044 54.5053 22.1942C54.5139 22.284 54.5053 22.4166 54.4729 22.5791C54.4384 22.7374 54.3866 22.932 54.2874 23.1202C54.1925 23.2913 53.9509 23.441 53.7309 23.3683C53.623 23.3319 53.5346 23.2464 53.5044 23.1459C53.4742 23.0453 53.5087 22.9406 53.554 22.8422C53.5972 22.7438 53.6489 22.6454 53.6662 22.5406C53.6878 22.438 53.6532 22.3204 53.5799 22.2605C53.4332 22.1365 53.2693 22.1643 53.1809 22.1792C53.0816 22.2006 53.0342 22.2177 53.0342 22.2241Z" fill="#EC9A6E"/>
<path d="M54.0805 23.3384C54.0762 23.3362 54.0481 23.379 54.0525 23.4667C54.0568 23.5523 54.0999 23.687 54.238 23.7768C54.3717 23.8645 54.5874 23.8816 54.7751 23.7832C54.9628 23.6849 55.1095 23.4924 55.1828 23.2699C55.2561 23.0453 55.2475 22.8101 55.1828 22.6176C55.1181 22.4229 55.0016 22.2732 54.8873 22.1748C54.7708 22.0743 54.6586 22.0187 54.5788 21.9909C54.499 21.9631 54.4515 21.9588 54.4494 21.9631C54.4407 21.9802 54.6327 22.0208 54.842 22.2219C54.9434 22.3224 55.0469 22.4636 55.1008 22.6432C55.1569 22.8208 55.1612 23.0368 55.0944 23.2421C55.0275 23.4453 54.8959 23.6207 54.7363 23.7084C54.5766 23.7982 54.3911 23.7897 54.2725 23.7212C54.1538 23.6528 54.1021 23.5373 54.0891 23.4624C54.074 23.3854 54.0891 23.3405 54.0805 23.3384Z" fill="#EC9A6E"/>
<path d="M52.0638 24.3307C52.066 24.3222 51.9926 24.2815 51.8502 24.2666C51.71 24.2516 51.4965 24.2708 51.2958 24.397L51.3649 24.4419C51.3843 24.3457 51.4015 24.2409 51.4102 24.1318C51.4641 23.5202 51.2678 23.0497 51.2484 23.0604C51.2203 23.0668 51.3713 23.5351 51.3174 24.1233C51.3088 24.2302 51.2937 24.3307 51.2764 24.4248L51.257 24.5275L51.3433 24.4697C51.5223 24.3521 51.7143 24.32 51.8459 24.32C51.9797 24.32 52.0595 24.3414 52.0638 24.3307Z" fill="#EC9A6E"/>
<path d="M53.3234 20.5729C53.2996 20.5771 53.3341 20.7633 53.5024 20.9088C53.6706 21.0564 53.8604 21.065 53.8626 21.0414C53.8691 21.0157 53.7095 20.9687 53.5649 20.8403C53.4161 20.7141 53.3492 20.5643 53.3234 20.5729Z" fill="#EC9A6E"/>
<path d="M34.4189 43.4109L40.752 43.4729L39.6864 38.9151L40.0424 39.7749C40.7154 41.3983 42.3094 42.4591 44.0803 42.4591C46.0821 42.4591 47.4669 40.9812 48.3146 39.1825C50.2948 34.9755 52.2059 28.202 52.2059 28.202L48.3427 24.8377C45.5493 30.0798 42.922 34.6312 42.922 34.6312C42.922 34.6312 42.1627 32.3448 41.5782 30.3065C40.9936 28.2683 40.9958 27.1946 40.0963 26.1787C38.7115 24.6152 36.7399 24.226 34.9086 23.7576L34.8396 32.2207L34.4189 43.4109Z" fill="#009344"/>
<path d="M27.1757 37.1058L38.7072 39.3323L39.2702 43.7254H21.5868C19.5354 43.7532 17.9047 42.0272 18.0665 39.9996C18.321 36.7978 18.5971 32.8517 18.8064 31.1856C18.9703 29.8852 19.4923 28.542 20.1135 27.3828C21.0065 25.7167 23.9811 23.5757 26.589 23.4709L27.0829 34.3639" fill="#009344"/>
<g opacity="0.4">
<g opacity="0.4">
<path opacity="0.4" d="M34.4189 43.4109L40.752 43.4729L39.6864 38.9151L40.0424 39.7749C40.7154 41.3983 42.3094 42.4591 44.0803 42.4591C46.0821 42.4591 47.4669 40.9812 48.3146 39.1825C50.2948 34.9755 52.2059 28.202 52.2059 28.202L48.3427 24.8377C45.5493 30.0798 42.922 34.6312 42.922 34.6312C42.922 34.6312 42.1627 32.3448 41.5782 30.3065C40.9936 28.2683 40.9958 27.1946 40.0963 26.1787C38.7115 24.6152 36.7399 24.226 34.9086 23.7576L34.8396 32.2207L34.4189 43.4109Z" fill="#010202"/>
<path opacity="0.4" d="M27.1757 37.1057L37.5791 38.9985C38.0126 39.0776 38.3556 39.4091 38.4462 39.8369L39.2723 43.7273H21.589C19.5376 43.7551 17.9069 42.0291 18.0687 40.0016C18.3232 36.7998 18.5993 32.8538 18.8086 31.1877C18.9725 29.8873 19.4945 28.5442 20.1157 27.385C21.0087 25.7189 23.9833 23.5779 26.5911 23.4731L27.0851 34.3659" fill="#010202"/>
</g>
</g>
<path d="M24.9797 36.7892C24.9775 36.7892 24.9754 36.7528 24.9754 36.6844C24.9754 36.6074 24.9754 36.509 24.9775 36.385C24.9797 36.1155 24.9818 35.7412 24.984 35.2835C24.9861 34.3531 24.9667 33.0677 24.8955 31.6519C24.8589 30.9439 24.8136 30.2681 24.764 29.6564C24.7165 29.0426 24.6626 28.4929 24.5332 28.048C24.4081 27.6032 24.2053 27.2781 24.0241 27.092C23.8451 26.9038 23.7135 26.8353 23.72 26.8268C23.72 26.8268 23.858 26.8845 24.0478 27.0685C24.2376 27.2503 24.4555 27.5796 24.5892 28.0309C24.7295 28.4801 24.7899 29.0383 24.8416 29.65C24.8955 30.2638 24.9452 30.9396 24.9797 31.6476C25.053 33.0656 25.0616 34.3531 25.0444 35.2835C25.0358 35.7497 25.0228 36.1262 25.012 36.385C25.0056 36.5069 24.9991 36.6074 24.9948 36.6844C24.9861 36.7528 24.984 36.7892 24.9797 36.7892Z" fill="#263239"/>
<path d="M38.4852 39.6446C38.4766 39.6552 38.3709 39.4799 38.0646 39.3066C37.9136 39.2211 37.7151 39.1398 37.4757 39.0735C37.2363 39.0072 36.958 38.9537 36.6495 38.8917C35.4179 38.6436 33.716 38.295 31.8307 37.9463C29.9455 37.5956 28.2306 37.3154 26.9882 37.1165C26.3734 37.0181 25.873 36.9389 25.5171 36.8833C25.3488 36.8555 25.2151 36.8341 25.118 36.817C25.0274 36.8021 24.98 36.7914 24.98 36.7892C24.98 36.7871 25.0296 36.7914 25.1202 36.8021C25.2194 36.8149 25.3531 36.832 25.5214 36.8534C25.8708 36.8983 26.3734 36.9689 26.9968 37.0609C28.2414 37.2448 29.9584 37.5164 31.8458 37.8672C33.7332 38.2158 35.433 38.573 36.6625 38.8361C36.9688 38.9024 37.2492 38.958 37.4908 39.0307C37.7324 39.1013 37.9308 39.189 38.084 39.281C38.2371 39.3729 38.3385 39.4649 38.4011 39.5355C38.4334 39.5676 38.4528 39.5975 38.4679 39.6168C38.4809 39.6339 38.4873 39.6446 38.4852 39.6446Z" fill="#263239"/>
<path d="M25.0143 36.7892C25.0187 36.8042 24.8008 36.8534 24.4729 36.986C24.309 37.0501 24.1192 37.1442 23.9143 37.2597C23.7137 37.3795 23.5001 37.5228 23.293 37.6939C23.0881 37.8671 22.9069 38.0511 22.7538 38.2265C22.605 38.4061 22.4799 38.5751 22.3871 38.7248C22.1994 39.0242 22.1132 39.2253 22.0981 39.2188C22.0937 39.2167 22.111 39.1654 22.1477 39.0713C22.1843 38.9772 22.2469 38.8488 22.3353 38.6927C22.4238 38.5366 22.5446 38.3612 22.6934 38.1773C22.8465 37.9955 23.0277 37.8073 23.237 37.6297C23.4484 37.4544 23.6684 37.3111 23.8754 37.1934C24.0847 37.0801 24.281 36.9902 24.4514 36.9325C24.6196 36.8726 24.762 36.832 24.859 36.8127C24.9583 36.7913 25.0143 36.7828 25.0143 36.7892Z" fill="#263239"/>
<path d="M39.9087 39.5269C39.9065 39.5269 39.8979 39.4905 39.885 39.4178C39.872 39.3386 39.8548 39.2338 39.8332 39.1034C39.7879 38.8296 39.7297 38.4339 39.6628 37.942C39.5291 36.9603 39.3652 35.6022 39.2271 34.0986C39.0913 32.5929 39.0071 31.2283 38.964 30.2381C38.9424 29.744 38.9273 29.3441 38.923 29.066C38.9209 28.9334 38.9187 28.8286 38.9187 28.7473C38.9187 28.6746 38.9187 28.6361 38.923 28.6361C38.9252 28.6361 38.9295 28.6746 38.936 28.7473C38.9403 28.8286 38.9489 28.9334 38.9575 29.066C38.9748 29.3526 38.9963 29.7483 39.0265 30.2359C39.0848 31.2241 39.1775 32.5865 39.3134 34.0922C39.4493 35.5957 39.6046 36.9539 39.7232 37.9356C39.7836 38.419 39.8311 38.8146 39.8677 39.0991C39.8828 39.2296 39.8958 39.3344 39.9044 39.4156C39.9087 39.4862 39.9109 39.5247 39.9087 39.5269Z" fill="#263239"/>
<path d="M43.7333 37.8223C43.729 37.8266 43.6966 37.7881 43.6406 37.7175C43.5845 37.6469 43.5111 37.54 43.4292 37.4031C43.2631 37.1293 43.0754 36.723 42.9633 36.2439C42.8511 35.7669 42.8382 35.3178 42.8641 35.0012C42.877 34.843 42.8943 34.7125 42.9137 34.6269C42.9309 34.5392 42.9439 34.4922 42.9503 34.4922C42.9654 34.4943 42.9331 34.689 42.9223 35.0034C42.9115 35.3178 42.9353 35.7562 43.0453 36.2246C43.1574 36.693 43.3321 37.0951 43.4831 37.3732C43.6298 37.6533 43.7441 37.8138 43.7333 37.8223Z" fill="#263239"/>
<path d="M24.9347 30.9032C24.9347 30.9053 24.9153 30.9096 24.8743 30.916C24.8355 30.9203 24.7772 30.931 24.6996 30.9331C24.5486 30.9438 24.3264 30.9331 24.0589 30.8839C23.7915 30.8347 23.4809 30.7385 23.1508 30.6016C22.8187 30.4648 22.4692 30.2915 22.1004 30.1098C21.7337 29.9301 21.3734 29.7761 21.037 29.6692C20.7005 29.5644 20.3855 29.5024 20.1181 29.4917C19.581 29.4639 19.266 29.6093 19.2617 29.5879C19.2617 29.5858 19.279 29.5772 19.3178 29.5623C19.3545 29.5494 19.4084 29.5238 19.4839 29.5067C19.6284 29.4639 19.8506 29.4297 20.1224 29.434C20.3963 29.4382 20.7177 29.4938 21.0607 29.5965C21.4036 29.7013 21.7682 29.8553 22.137 30.037C22.5059 30.2188 22.8532 30.3942 23.181 30.5332C23.5067 30.6722 23.8087 30.7727 24.0719 30.8283C24.596 30.9417 24.9347 30.8839 24.9347 30.9032Z" fill="#FBFBFB"/>
<path d="M26.9083 30.5184C26.9126 30.5419 26.492 30.6317 25.9678 30.7193C25.4458 30.807 25.0188 30.8604 25.0144 30.839C25.0101 30.8155 25.4307 30.7279 25.9549 30.6381C26.4769 30.5483 26.904 30.4948 26.9083 30.5184Z" fill="#FBFBFB"/>
<path d="M24.8612 33.9189C24.8634 33.9232 24.7814 33.9596 24.6283 34.0195C24.4773 34.0772 24.2551 34.1563 23.979 34.2462C23.4246 34.4237 22.6481 34.6354 21.7723 34.7873C21.3344 34.8642 20.9138 34.9177 20.532 34.9562C20.1502 34.9968 19.7986 35.0161 19.5074 34.984C19.214 34.9562 18.9854 34.8749 18.8409 34.7958C18.7697 34.7573 18.7158 34.721 18.6834 34.6931C18.6489 34.6653 18.6338 34.6504 18.6338 34.6482C18.6381 34.6418 18.7093 34.6974 18.856 34.7659C19.0005 34.8343 19.2248 34.9049 19.5117 34.9241C19.7986 34.9477 20.1416 34.922 20.5234 34.8792C20.9052 34.8364 21.3215 34.7808 21.7572 34.7038C22.6287 34.552 23.4052 34.351 23.9617 34.1884C24.24 34.1071 24.4643 34.0366 24.6196 33.9874C24.7728 33.9382 24.8612 33.9125 24.8612 33.9189Z" fill="#FBFBFB"/>
<path d="M26.8628 34.7513C26.8628 34.7751 26.4745 34.7989 25.9935 34.8075C25.5125 34.8161 25.1221 34.8032 25.1221 34.7794C25.1221 34.7556 25.5103 34.7319 25.9914 34.7232C26.4724 34.7167 26.8628 34.7297 26.8628 34.7513Z" fill="#FBFBFB"/>
<path d="M18.6426 41.9673C18.6405 41.9673 18.6448 41.9373 18.6599 41.8839C18.6771 41.8197 18.6987 41.7427 18.7246 41.6465C18.7397 41.593 18.7548 41.5374 18.772 41.4754C18.7914 41.4133 18.8195 41.347 18.8454 41.2765C18.9015 41.1353 18.9554 40.9685 19.0438 40.7995C19.0848 40.7118 19.1279 40.622 19.1732 40.5279C19.2185 40.4338 19.2789 40.3418 19.3329 40.2434C19.4407 40.0445 19.5809 39.8477 19.7255 39.6381C20.0296 39.2318 20.4028 38.8104 20.845 38.4233C21.2936 38.0426 21.7639 37.7346 22.2125 37.4908C22.4412 37.3796 22.6569 37.2662 22.8704 37.1892C22.9761 37.1486 23.0754 37.1037 23.1767 37.0716C23.2781 37.0395 23.373 37.0096 23.4658 36.9818C23.6491 36.9197 23.8217 36.8898 23.9705 36.8534C24.046 36.8385 24.1151 36.8192 24.1798 36.8085C24.2445 36.8 24.3027 36.7914 24.3567 36.785C24.4559 36.7721 24.5378 36.7636 24.6026 36.755C24.6586 36.7486 24.6888 36.7465 24.6888 36.7508C24.6888 36.7529 24.6608 36.7615 24.6047 36.7721C24.54 36.785 24.4602 36.8 24.361 36.8171C24.307 36.8256 24.2488 36.8363 24.1862 36.847C24.1215 36.8598 24.0547 36.8791 23.9813 36.8983C23.8346 36.9368 23.6642 36.9711 23.4852 37.0374C23.3946 37.0673 23.2997 37.0994 23.2005 37.1315C23.1012 37.1657 23.0042 37.2106 22.8985 37.2534C22.6871 37.3325 22.4757 37.4459 22.2492 37.5592C21.807 37.803 21.3432 38.1089 20.8989 38.4853C20.461 38.8682 20.09 39.281 19.7859 39.6809C19.6413 39.8862 19.499 40.0787 19.3911 40.2755C19.335 40.3717 19.2746 40.4616 19.2272 40.5557C19.1819 40.6476 19.1366 40.7375 19.0934 40.823C19.0028 40.9899 18.9446 41.1524 18.8864 41.2914C18.8583 41.362 18.8281 41.4262 18.8065 41.4861C18.7871 41.5459 18.7677 41.6037 18.7526 41.655C18.7203 41.7491 18.6944 41.8261 18.6728 41.8882C18.6577 41.9416 18.6469 41.9673 18.6426 41.9673Z" fill="#FBFBFB"/>
<path d="M26.6536 37.1037C26.6708 37.1166 26.3042 37.3411 25.9979 37.9207C25.8447 38.2073 25.7132 38.5752 25.6312 38.9965C25.5471 39.4179 25.5126 39.8905 25.4802 40.3889C25.4479 40.8872 25.409 41.3641 25.3163 41.7919C25.2235 42.2175 25.0812 42.5896 24.9151 42.8762C24.749 43.1628 24.5678 43.366 24.4276 43.4879C24.3564 43.5478 24.3004 43.5927 24.2594 43.6184C24.2184 43.6462 24.1968 43.659 24.1947 43.6569C24.1774 43.6419 24.5484 43.4259 24.8612 42.8484C25.0165 42.564 25.1524 42.1982 25.2386 41.7769C25.3271 41.3556 25.3616 40.8829 25.3939 40.3846C25.4263 39.8863 25.463 39.4093 25.5535 38.9816C25.642 38.5538 25.7822 38.1817 25.944 37.8929C26.1057 37.6042 26.2848 37.3989 26.4228 37.277C26.4918 37.215 26.5479 37.17 26.5889 37.1444C26.632 37.1144 26.6536 37.0995 26.6536 37.1037Z" fill="#FBFBFB"/>
<path d="M29.3801 43.7532C29.3563 43.7532 29.3844 42.3865 29.4383 40.7054C29.4944 39.0222 29.557 37.6598 29.5807 37.6598C29.6045 37.6598 29.5764 39.0243 29.5225 40.7075C29.4664 42.3908 29.4038 43.7553 29.3801 43.7532Z" fill="#FBFBFB"/>
<path d="M33.7158 43.5201C33.7093 43.5222 33.6856 43.4516 33.6446 43.3233C33.623 43.2592 33.5993 43.18 33.5799 43.0859C33.5583 42.9918 33.5302 42.887 33.513 42.7672C33.4677 42.5298 33.4375 42.2411 33.4289 41.9224C33.4245 41.6016 33.4418 41.2487 33.4957 40.8829C33.554 40.5172 33.6446 40.175 33.746 39.8713C33.8516 39.5697 33.9681 39.3023 34.0825 39.0906C34.1342 38.9815 34.1946 38.8896 34.2421 38.8061C34.2895 38.7227 34.337 38.6543 34.3758 38.5987C34.4535 38.4875 34.4988 38.4276 34.5031 38.4319C34.516 38.4404 34.3456 38.6864 34.1342 39.1184C34.0264 39.3323 33.9185 39.5975 33.8171 39.8991C33.7201 40.2007 33.6338 40.5386 33.5755 40.9C33.5216 41.2615 33.5022 41.6101 33.5022 41.9245C33.5087 42.2411 33.5324 42.5255 33.5691 42.763C33.6424 43.2292 33.733 43.5158 33.7158 43.5201Z" fill="#FBFBFB"/>
<path d="M26.3539 26.014C26.3475 26.0268 26.1016 25.9177 25.6874 25.7851C25.2733 25.6525 24.6866 25.5092 24.0265 25.4514C23.3643 25.3937 22.7625 25.4322 22.3311 25.4921C21.8996 25.5498 21.6365 25.6161 21.6343 25.6011C21.6322 25.5947 21.6969 25.5755 21.8155 25.5434C21.9342 25.5092 22.1067 25.4707 22.3224 25.4343C22.7538 25.3594 23.3643 25.3124 24.033 25.368C24.7017 25.4279 25.2927 25.5819 25.7047 25.7295C25.9118 25.8044 26.0757 25.8707 26.1857 25.9241C26.2957 25.9776 26.3561 26.0076 26.3539 26.014Z" fill="#FBFBFB"/>
<path d="M38.9725 32.6723C38.9725 32.683 38.746 32.6766 38.3793 32.6638C38.0148 32.6509 37.51 32.6295 36.9514 32.6166C36.3948 32.6038 35.8879 32.5973 35.5234 32.5931C35.1567 32.5888 34.9323 32.5845 34.9302 32.5738C34.9302 32.5674 34.9863 32.5609 35.0876 32.5545C35.189 32.5481 35.3379 32.5416 35.5212 32.5352C35.8879 32.5245 36.3927 32.5202 36.9514 32.5352C37.51 32.5502 38.0148 32.5781 38.3793 32.6059C38.5627 32.6209 38.7094 32.6338 38.8108 32.6466C38.9165 32.6573 38.9725 32.668 38.9725 32.6723Z" fill="#FBFBFB"/>
<path d="M42.1262 32.0817C42.1305 32.0967 41.9255 32.1651 41.6149 32.317C41.3043 32.4688 40.8923 32.7169 40.4954 33.0655C40.1007 33.4162 39.8052 33.7927 39.6175 34.0814C39.4298 34.3701 39.3371 34.5647 39.3241 34.5583C39.3198 34.5562 39.3371 34.5049 39.3759 34.4172C39.4126 34.3273 39.4773 34.2012 39.5657 34.0514C39.7426 33.7499 40.036 33.3606 40.4372 33.0035C40.8405 32.6485 41.2655 32.4046 41.5869 32.2635C41.7465 32.1929 41.8802 32.1437 41.9752 32.1181C42.0722 32.0881 42.124 32.0753 42.1262 32.0817Z" fill="#FBFBFB"/>
<path d="M40.5709 27.0021C40.5731 27.0235 40.2452 26.9529 39.7599 27.1155C39.5183 27.1925 39.2422 27.3229 38.9402 27.4769C38.6382 27.6288 38.306 27.8085 37.9264 27.9282C37.1693 28.1742 36.4294 28.1528 35.9247 28.0587C35.6701 28.0117 35.4695 27.9496 35.3336 27.9004C35.1977 27.8491 35.1266 27.8149 35.1287 27.8106C35.133 27.7956 35.4285 27.9218 35.9333 28.001C36.4337 28.0801 37.1585 28.0908 37.9005 27.8512C38.2694 27.7336 38.5994 27.5604 38.9035 27.4106C39.2077 27.2609 39.4902 27.1326 39.7405 27.062C39.9885 26.9871 40.2021 26.97 40.3466 26.9765C40.4199 26.9765 40.476 26.9872 40.5127 26.9914C40.5515 26.9957 40.5709 27 40.5709 27.0021Z" fill="#FBFBFB"/>
<path d="M39.775 37.6191C39.7771 37.6234 39.7103 37.6555 39.5895 37.7047C39.5291 37.7303 39.4536 37.7603 39.3651 37.7881C39.2767 37.818 39.1753 37.8544 39.061 37.8822C38.8345 37.9485 38.5584 38.0062 38.2478 38.049C37.9372 38.0875 37.592 38.111 37.2318 38.1025C36.8694 38.0897 36.5286 38.0469 36.2201 37.9891C35.9138 37.9271 35.642 37.8523 35.4177 37.7731C35.3055 37.7389 35.2063 37.694 35.12 37.6598C35.0316 37.6255 34.9604 37.5913 34.9 37.5635C34.7814 37.5058 34.7166 37.4716 34.7188 37.4673C34.7253 37.4523 34.9884 37.5785 35.435 37.7196C35.6571 37.7902 35.9289 37.8587 36.2331 37.9164C36.5372 37.9699 36.8759 38.0105 37.2318 38.0212C37.5899 38.0298 37.9285 38.0105 38.237 37.9742C38.5433 37.9357 38.8172 37.8843 39.0437 37.8245C39.4989 37.7154 39.7685 37.6042 39.775 37.6191Z" fill="#FBFBFB"/>
<path d="M43.444 42.3073C43.4419 42.3095 43.4203 42.2923 43.3815 42.256C43.3448 42.2196 43.2844 42.1704 43.2176 42.0956C43.0795 41.9523 42.8962 41.7277 42.7128 41.424C42.3396 40.8187 42.0226 39.8563 42.001 38.7719C41.9816 37.6854 42.1951 36.7208 42.3634 36.0364C42.4497 35.6941 42.5273 35.4182 42.5834 35.23C42.6093 35.1423 42.633 35.0718 42.6503 35.0119C42.6675 34.9627 42.6761 34.937 42.6783 34.937C42.6805 34.937 42.6761 34.9648 42.6654 35.0161C42.6524 35.076 42.6352 35.1488 42.6136 35.2364C42.564 35.4396 42.4993 35.7155 42.4195 36.0492C42.2663 36.7357 42.0635 37.6961 42.083 38.7676C42.1024 39.8391 42.4065 40.7888 42.7624 41.3919C42.9371 41.6956 43.1119 41.9245 43.2413 42.072C43.3707 42.2239 43.4484 42.3009 43.444 42.3073Z" fill="#FBFBFB"/>
<path d="M49.2575 36.9282C49.2445 36.9474 48.9814 36.6608 48.4119 36.4576C48.1294 36.355 47.7821 36.2694 47.3895 36.1946C46.9991 36.1154 46.5612 36.0449 46.1168 35.9037C45.226 35.6214 44.525 35.1167 44.0935 34.6975C43.8757 34.4879 43.7182 34.2997 43.6147 34.1649C43.5629 34.0986 43.5262 34.043 43.5025 34.0067C43.4788 33.9703 43.4658 33.9489 43.468 33.9489C43.4723 33.9446 43.5327 34.0173 43.6406 34.1457C43.7506 34.274 43.9124 34.4536 44.1345 34.6568C44.5724 35.061 45.267 35.5508 46.1449 35.8267C46.5806 35.9657 47.0163 36.0384 47.4068 36.1219C47.7993 36.201 48.1509 36.293 48.4357 36.4063C48.7204 36.5175 48.9318 36.648 49.0655 36.7549C49.1345 36.8041 49.1798 36.8533 49.2143 36.8832C49.2445 36.9089 49.2596 36.926 49.2575 36.9282Z" fill="#FBFBFB"/>
<path d="M51.0842 31.6433C51.0799 31.6476 51.0195 31.5941 50.9138 31.4957C50.8621 31.4465 50.7973 31.3867 50.7175 31.3204C50.6399 31.2541 50.5536 31.1749 50.4501 31.0979C50.2495 30.9354 49.9971 30.7579 49.708 30.5782C49.4168 30.4028 49.0847 30.2253 48.7223 30.0692C48.3577 29.9173 47.9997 29.7997 47.6696 29.712C47.3375 29.6286 47.0355 29.5708 46.7766 29.5388C46.6494 29.5174 46.5307 29.511 46.4293 29.5003C46.328 29.4896 46.2395 29.4832 46.1662 29.481C46.0217 29.4725 45.9419 29.466 45.9397 29.4596C45.9397 29.4532 46.0195 29.4511 46.1662 29.4489C46.2395 29.4468 46.328 29.4468 46.4315 29.4554C46.535 29.4618 46.6537 29.4639 46.7831 29.481C47.0441 29.5067 47.3504 29.558 47.6869 29.6372C48.0212 29.7227 48.3858 29.8361 48.7525 29.9922C49.1192 30.1505 49.4535 30.3301 49.7469 30.5119C50.0381 30.698 50.2883 30.8819 50.4846 31.0509C50.586 31.1321 50.6701 31.2156 50.7456 31.284C50.8232 31.3524 50.8836 31.4166 50.9332 31.4701C51.0346 31.5791 51.0885 31.639 51.0842 31.6433Z" fill="#FBFBFB"/>
<path d="M37.1088 24.3713C37.1131 24.382 36.9988 24.4398 36.8046 24.5168C36.6105 24.5938 36.3387 24.6837 36.0281 24.7542C35.7196 24.8248 35.4327 24.8655 35.2257 24.8805C35.0186 24.8976 34.8892 24.8933 34.8892 24.8826C34.887 24.8569 35.3961 24.8163 36.0087 24.673C36.6213 24.5339 37.098 24.3499 37.1088 24.3713Z" fill="#FBFBFB"/>
<path d="M42.7732 46.681C42.8616 46.9869 42.6028 47.2842 42.2857 47.2393C42.1131 47.2157 41.9707 47.0938 41.9211 46.9291L41.7852 46.4308L41.8046 46.4372C41.8888 46.7366 41.5976 47.0104 41.287 46.9805C41.0756 46.9762 40.8965 46.6768 40.8361 46.5185C40.4888 46.5591 40.1588 46.3559 40.0251 46.1314L39.0868 44.6813L37.3503 43.4215L38.4008 39.7001L42.139 42.0976C42.2857 42.211 42.3072 42.258 42.5402 42.4719L44.9518 44.6706C44.6778 44.8331 44.447 44.8203 44.0674 44.6706C43.6878 44.5209 42.0225 43.4066 42.0225 43.4066L42.7732 46.681Z" fill="#F8BC9E"/>
<path d="M39.5765 43.6206C39.5808 43.6163 39.6197 43.6399 39.6887 43.6848C39.7275 43.7126 39.7685 43.7404 39.8116 43.7703C39.8591 43.8024 39.9173 43.8452 39.9669 43.9029C40.0166 43.9607 40.0619 44.0334 40.0942 44.1168C40.1244 44.2002 40.1546 44.2858 40.1848 44.3756C40.2495 44.5617 40.3164 44.7606 40.3897 44.9723C40.5321 45.3958 40.6572 45.7807 40.7435 46.0609C40.8297 46.3411 40.8772 46.5143 40.8664 46.5186C40.8556 46.5229 40.7866 46.3539 40.6874 46.078C40.586 45.8021 40.4544 45.4214 40.3099 44.998C40.2409 44.7884 40.174 44.5873 40.1115 44.4013C40.0813 44.3114 40.0532 44.2237 40.0273 44.1403C40.0015 44.0633 39.9626 43.9949 39.9195 43.9393C39.8764 43.8837 39.8289 43.843 39.7814 43.8045C39.7405 43.7703 39.7016 43.7382 39.6671 43.7083C39.6067 43.657 39.5722 43.6249 39.5765 43.6206Z" fill="#EC9A6E"/>
<path d="M41.8242 46.5101C41.8177 46.5122 41.8005 46.4566 41.7703 46.3561C41.7379 46.2385 41.6969 46.0973 41.6495 45.9326C41.5481 45.5754 41.4122 45.0792 41.2375 44.5403C41.0628 44.0013 40.8816 43.518 40.6638 43.2207C40.5559 43.071 40.4459 42.9704 40.3575 42.917C40.2712 42.8635 40.213 42.8464 40.2173 42.8378C40.2173 42.8357 40.2324 42.8378 40.2604 42.8443C40.2884 42.8507 40.3273 42.8656 40.3747 42.8892C40.4718 42.9362 40.5947 43.0346 40.7112 43.1843C40.9485 43.4837 41.1426 43.9735 41.3173 44.5146C41.492 45.0579 41.6193 45.5562 41.7056 45.9176C41.7487 46.0994 41.7811 46.247 41.8005 46.3497C41.822 46.4523 41.8307 46.5101 41.8242 46.5101Z" fill="#EC9A6E"/>
<path d="M42.7884 46.7347C42.7819 46.7368 42.7603 46.6769 42.7237 46.5679C42.6827 46.4417 42.6331 46.2877 42.577 46.1059C42.4562 45.7145 42.2923 45.1733 42.1197 44.5745C41.9515 43.9841 41.7983 43.4516 41.6818 43.0388C41.6193 42.8463 41.5179 42.7158 41.4273 42.6516C41.3367 42.5853 41.2699 42.5768 41.272 42.5704C41.272 42.5682 41.2893 42.5682 41.3195 42.5746C41.3497 42.5811 41.395 42.596 41.4446 42.626C41.5481 42.6837 41.6668 42.8227 41.7379 43.0195C41.8695 43.4109 42.0248 43.9521 42.2017 44.5531C42.3764 45.1519 42.5295 45.6974 42.6352 46.093C42.6827 46.277 42.7237 46.4331 42.7582 46.5614C42.7819 46.6705 42.7948 46.7347 42.7884 46.7347Z" fill="#EC9A6E"/>
<path d="M65.4893 12.3898C65.4893 12.6957 65.7395 12.9438 66.0479 12.9438C66.3564 12.9438 66.6066 12.6957 66.6066 12.3898C66.6066 12.0839 66.3564 11.8358 66.0479 11.8358C65.7395 11.8358 65.4893 12.0839 65.4893 12.3898Z" fill="#455A64"/>
<path d="M63.2502 12.3898C63.2502 12.6957 63.5005 12.9438 63.8089 12.9438C64.1173 12.9438 64.3676 12.6957 64.3676 12.3898C64.3676 12.0839 64.1173 11.8358 63.8089 11.8358C63.5005 11.8358 63.2502 12.0839 63.2502 12.3898Z" fill="#455A64"/>
<path d="M61.0175 12.1117C60.8622 12.3769 60.9549 12.7169 61.2224 12.8688C61.4899 13.0228 61.8329 12.9308 61.986 12.6656C62.1414 12.4004 62.0486 12.0604 61.7811 11.9086C61.5158 11.7568 61.1728 11.8466 61.0175 12.1117Z" fill="#455A64"/>
<path d="M63.7743 5.91364C63.7743 5.9115 63.7354 5.9115 63.6621 5.9115C63.5801 5.91364 63.4701 5.91792 63.3299 5.92006C63.2566 5.92433 63.1746 5.92434 63.084 5.93075C62.9934 5.94359 62.8963 5.95642 62.7906 5.97139C62.6849 5.98636 62.5706 6.00347 62.4477 6.02058C62.3269 6.05052 62.1996 6.08047 62.0659 6.11469C61.5288 6.25157 60.8773 6.48469 60.213 6.91459C59.5486 7.33807 58.8584 7.94122 58.2975 8.76465C57.7475 9.58808 57.3225 10.6233 57.2104 11.7868C57.1996 12.0776 57.1651 12.3749 57.1931 12.6744C57.2039 12.8241 57.1996 12.9781 57.2233 13.1278C57.247 13.2796 57.2686 13.4315 57.2923 13.5855C57.4174 14.1929 57.5986 14.8131 57.9157 15.3928C58.2242 15.9724 58.6211 16.5242 59.1064 17.0161C59.6004 17.4973 60.1785 17.9165 60.8213 18.2373C61.4619 18.5624 62.1716 18.787 62.9114 18.8726C63.0948 18.9089 63.2825 18.9089 63.468 18.9196C63.6556 18.9324 63.8433 18.9389 64.0309 18.9303C64.4084 18.9153 64.7859 18.8683 65.1591 18.7891C65.9701 18.618 66.7359 18.2908 67.4067 17.8524L67.3377 17.8588C68.1164 18.1689 68.8821 18.4726 69.6263 18.7699L69.7622 18.8234L69.7234 18.6843C69.4926 17.8502 69.2682 17.0418 69.0504 16.2568L69.0396 16.3167C69.6824 15.4697 70.0922 14.503 70.2605 13.5427C70.3446 13.0636 70.3813 12.5845 70.3489 12.1225C70.3381 11.8916 70.3274 11.6627 70.2842 11.4403C70.267 11.3291 70.2497 11.2178 70.2324 11.1088C70.2109 10.9997 70.1785 10.8927 70.1526 10.7879C69.7104 9.07905 68.6492 7.81716 67.5987 7.09639C67.0724 6.72852 66.5547 6.46545 66.078 6.30076C65.9593 6.25798 65.845 6.21735 65.735 6.17885C65.6228 6.15104 65.5128 6.12324 65.4093 6.09758C65.3058 6.07191 65.2065 6.04839 65.1116 6.02486C65.0167 6.00561 64.924 5.99706 64.8377 5.98422C64.6651 5.96284 64.512 5.93289 64.3782 5.92647C64.2467 5.92219 64.1345 5.91792 64.0417 5.91578C63.9554 5.91364 63.8886 5.9115 63.8368 5.9115C63.798 5.9115 63.7743 5.9115 63.7743 5.91364C63.7743 5.91578 63.798 5.91792 63.8433 5.9222C63.895 5.92647 63.9641 5.93075 64.0482 5.93717C64.141 5.94359 64.251 5.95 64.3825 5.95855C64.5141 5.96925 64.6651 6.00133 64.8355 6.027C65.5085 6.14891 66.5202 6.41626 67.5512 7.16483C68.5823 7.88774 69.6155 9.1368 70.0405 10.8157C70.0664 10.9205 70.0987 11.0232 70.1181 11.1323C70.1354 11.2414 70.1505 11.3483 70.1677 11.4595C70.2109 11.6777 70.2195 11.9022 70.2281 12.129C70.2583 12.5824 70.2195 13.0529 70.1354 13.5213C69.965 14.4624 69.5616 15.4056 68.9296 16.2333L68.908 16.2611L68.9166 16.2932C69.1324 17.0781 69.3545 17.8887 69.5853 18.7207L69.6824 18.6352C68.9361 18.3379 68.1725 18.032 67.3938 17.7219L67.3571 17.7069L67.3247 17.7283C66.669 18.1561 65.9205 18.4769 65.1267 18.6437C64.7622 18.7207 64.3912 18.7678 64.0223 18.7827C63.8368 18.7913 63.6535 18.7849 63.4701 18.772C63.2868 18.7613 63.1034 18.7613 62.9244 18.7271C62.2018 18.6416 61.5072 18.4234 60.8795 18.1069C60.2496 17.7925 59.6845 17.3861 59.1992 16.9156C58.7246 16.4343 58.3342 15.8954 58.03 15.3286C57.7194 14.7618 57.5404 14.1544 57.4153 13.5598C57.3916 13.4101 57.3678 13.2604 57.3463 13.1107C57.3247 12.9631 57.3268 12.8134 57.3161 12.6658C57.2859 12.3706 57.3204 12.0798 57.329 11.7932C57.4347 10.6511 57.8445 9.633 58.3795 8.81812C58.9252 8.00538 59.6004 7.40438 60.2518 6.97876C60.9032 6.54672 61.5439 6.30932 62.0745 6.16388C62.2082 6.12752 62.3333 6.09544 62.452 6.06336C62.5728 6.04411 62.6849 6.02486 62.7906 6.00775C62.8942 5.99064 62.9912 5.97567 63.0818 5.96069C63.1703 5.95 63.2523 5.94786 63.3256 5.94359C63.4658 5.93289 63.5737 5.92647 63.6556 5.92006C63.7376 5.92006 63.7743 5.91578 63.7743 5.91364Z" fill="#455A64"/>
</svg>
