<svg width="98" height="98" viewBox="0 0 98 98" fill="none" xmlns="http://www.w3.org/2000/svg">
<path d="M23.9875 22.51C21.9844 22.51 20.0634 21.7171 18.6469 20.3059C17.2305 18.8946 16.4348 16.9805 16.4348 14.9847C16.4348 12.9889 17.2305 11.0748 18.6469 9.66352C20.0634 8.25225 21.9844 7.45941 23.9875 7.45941C25.9906 7.45941 27.9117 8.25225 29.3281 9.66352C30.7445 11.0748 31.5402 12.9889 31.5402 14.9847C31.5402 16.9805 30.7445 18.8946 29.3281 20.3059C27.9117 21.7171 25.9906 22.51 23.9875 22.51Z" fill="#EBEBEB"/>
<path d="M22.1248 13.3087H20.5618V18.341H22.1248V13.3087Z" fill="white"/>
<path d="M21.3356 12.6498C21.5204 12.6515 21.7015 12.5985 21.856 12.4975C22.0105 12.3965 22.1314 12.252 22.2034 12.0823C22.2753 11.9127 22.295 11.7256 22.26 11.5448C22.2251 11.364 22.1369 11.1976 22.0069 11.0668C21.8768 10.936 21.7107 10.8466 21.5296 10.8101C21.3484 10.7735 21.1605 10.7914 20.9896 10.8614C20.8187 10.9315 20.6725 11.0506 20.5697 11.2036C20.4668 11.3565 20.4119 11.5365 20.4119 11.7207C20.4113 11.9657 20.5081 12.2011 20.6812 12.3752C20.8543 12.5493 21.0896 12.648 21.3356 12.6498Z" fill="white"/>
<path d="M24.6248 15.6986C24.6248 14.9913 24.9511 14.5696 25.5772 14.5696C26.1504 14.5696 26.4281 14.9737 26.4281 15.6986V18.3344H27.9823V15.1538C27.9823 13.8052 27.2173 13.155 26.1459 13.155C25.8421 13.1511 25.5424 13.2255 25.2759 13.3709C25.0094 13.5164 24.7851 13.728 24.6248 13.9853V13.3087H23.1235V18.3388H24.6248V15.6986Z" fill="white"/>
<path d="M34.1083 0L35.1422 1.88462L37.0337 2.91478L35.1422 3.94495L34.1083 5.82957L33.0743 3.94495L31.1829 2.91478L33.0743 1.88462L34.1083 0Z" fill="#F5F5F5"/>
<path d="M77.2399 51.0449L78.0159 52.4573L79.4334 53.2305L78.0159 54.0036L77.2399 55.416L76.4639 54.0036L75.0464 53.2305L76.4639 52.4573L77.2399 51.0449Z" fill="#EBEBEB"/>
<path d="M79.4335 44.0666L79.784 44.7058L80.4233 45.0528L79.784 45.4021L79.4335 46.0391L79.0829 45.4021L78.4436 45.0528L79.0829 44.7058L79.4335 44.0666Z" fill="#E0E0E0"/>
<path d="M26.721 0.709473L27.0716 1.34646L27.7109 1.69571L27.0716 2.04276L26.721 2.68195L26.3705 2.04276L25.7312 1.69571L26.3705 1.34646L26.721 0.709473Z" fill="#E0E0E0"/>
<path d="M9.17741 59.9365C9.58417 59.7508 9.92746 59.4505 10.1649 59.0727C10.4023 58.6948 10.5234 58.2559 10.5134 57.8103C10.5134 56.5517 9.53234 55.5413 8.34851 55.55C7.16468 55.5588 6.21453 56.589 6.22555 57.8476C6.22235 58.297 6.35303 58.7372 6.60104 59.1126C6.84905 59.4879 7.20325 59.7816 7.61881 59.9563C4.32525 60.4944 4.51924 64.066 4.51924 64.066L12.3211 64.0001C12.3211 64.0001 12.4555 60.3868 9.17741 59.9365Z" fill="#E0E0E0"/>
<path d="M84.0234 83.4788C83.9684 83.197 83.8147 82.9439 83.5897 82.7646C83.3648 82.5853 83.0832 82.4915 82.7952 82.5C82.5073 82.5084 82.2317 82.6186 82.0177 82.8107C81.8037 83.0029 81.6653 83.2646 81.627 83.5491C81.587 83.265 81.447 83.0044 81.232 82.8136C81.017 82.6228 80.741 82.5143 80.4532 82.5075C80.1654 82.5006 79.8845 82.5958 79.6606 82.7761C79.4367 82.9565 79.2843 83.2101 79.2307 83.492C79.173 83.9084 79.2789 84.3309 79.5261 84.6715C79.7709 85.0073 80.0584 85.31 80.3815 85.5721C80.8224 85.9609 81.2214 86.3233 81.6579 86.7099C82.0988 86.3189 82.4581 85.9521 82.8902 85.5611C83.2119 85.2964 83.4973 84.9906 83.739 84.6517C83.9803 84.3111 84.082 83.8916 84.0234 83.4788Z" fill="#EBEBEB"/>
<path d="M89.1045 37.1783L89.94 37.0136L91.2627 34.1186L90.932 32.4558C90.932 32.4558 92.2085 32.1219 92.4906 34.3294C92.7728 36.5369 92.8257 35.9505 92.8257 35.9505C92.8257 35.9505 95.5704 35.4189 95.8459 35.61C96.0466 35.7506 96.6616 38.4523 96.9835 39.9196C97.0726 40.2713 97.0408 40.6426 96.8934 40.9742C96.746 41.3058 96.4913 41.5787 96.17 41.7493C96.0785 41.7942 95.9814 41.8267 95.8812 41.8459C95.1978 41.9821 91.5912 42.1183 91.5912 42.1183L90.1472 42.4039L89.1045 37.1783Z" fill="#E0E0E0"/>
<path d="M86.6201 37.196L88.2669 42.7927L89.6998 42.5093L88.5888 36.9258L86.6201 37.196Z" fill="#E0E0E0"/>
<path d="M97.6539 97.8396C97.6539 97.8726 75.7916 97.8967 48.8302 97.8967C21.8689 97.8967 0 97.8726 0 97.8396C0 97.8067 21.8579 97.7825 48.8302 97.7825C75.8026 97.7825 97.6539 97.8089 97.6539 97.8396Z" fill="#263238"/>
<path d="M80.6704 34.9818C78.5339 36.0165 76.0724 36.1634 73.8272 35.3903C71.582 34.6172 69.7369 32.9872 68.6976 30.8589C67.6591 28.7302 67.5116 26.2777 68.2876 24.0406C69.0636 21.8036 70.6994 19.9652 72.8355 18.9296C73.8933 18.417 75.0421 18.117 76.2163 18.0467C77.3905 17.9765 78.5671 18.1374 79.6789 18.5203C80.7907 18.9031 81.8159 19.5004 82.696 20.278C83.5761 21.0557 84.2939 21.9984 84.8083 23.0525C85.3228 24.1065 85.6239 25.2511 85.6943 26.4211C85.7648 27.591 85.6034 28.7633 85.2191 29.8711C84.8349 30.9788 84.2354 32.0003 83.4549 32.8772C82.6744 33.7541 81.7282 34.4693 80.6704 34.9818Z" fill="#009344"/>
<path d="M74.5396 28.9501C74.5724 28.9494 74.6047 28.9413 74.634 28.9266C74.6633 28.9118 74.6889 28.8907 74.709 28.8648C74.7291 28.8389 74.7431 28.8089 74.75 28.7769C74.7569 28.7449 74.7566 28.7118 74.749 28.68C74.727 28.5723 74.6675 28.3 74.6454 28.1879C74.6146 28.032 74.5771 27.9903 74.425 27.92C74.03 27.739 73.7159 27.4191 73.5432 27.0216C72.8686 25.6378 73.3029 23.8959 74.9695 23.0898C76.4443 22.3737 77.6943 22.8702 78.2763 24.0782C79.0457 25.6575 78.995 27.3291 77.9544 27.8343C77.8247 27.9054 77.68 27.9452 77.5321 27.9505C77.3841 27.9558 77.2369 27.9263 77.1025 27.8646C76.968 27.8028 76.85 27.7105 76.7579 27.5949C76.6658 27.4794 76.6022 27.344 76.5722 27.1995C76.4002 26.4263 76.3517 25.5236 76.1092 25.0228C75.8888 24.5834 75.4655 24.3177 74.9673 24.5593C74.3787 24.8448 74.2023 25.6795 74.5991 26.49C74.7406 26.7898 74.9442 27.0563 75.1966 27.272C75.1966 27.272 75.8359 30.1011 75.9461 30.5975C76.1666 31.5838 76.8764 32.5744 76.9448 32.6864C76.9545 32.6989 76.9676 32.7083 76.9825 32.7136C76.9975 32.7189 77.0136 32.7199 77.0291 32.7165C77.0445 32.713 77.0587 32.7053 77.0699 32.6941C77.0811 32.683 77.089 32.6689 77.0925 32.6535C77.1123 32.5568 77.3923 31.3575 77.2093 30.3823C77.1586 30.1055 76.861 28.6887 76.861 28.6887C77.2291 28.9589 77.9434 29.0094 78.5364 28.7217C80.3 27.8651 80.7189 25.6795 79.6696 23.5313C78.8781 21.9081 76.7574 21.0646 74.6609 22.0816C72.0485 23.3468 71.6429 25.8486 72.4012 27.4038C72.8598 28.3461 73.6203 29.0182 74.5396 28.9501Z" fill="white"/>
<path d="M89.6139 60.1561C88.8558 59.868 88.162 59.4339 87.5724 58.8784C86.9828 58.323 86.5089 57.6571 86.1778 56.919C85.8468 56.1809 85.665 55.385 85.6429 54.5768C85.6208 53.7686 85.7589 52.964 86.0492 52.2091C86.3381 51.4537 86.7736 50.7625 87.3309 50.175C87.8881 49.5875 88.5561 49.1152 89.2967 48.7851C90.0372 48.4551 90.8359 48.2737 91.6468 48.2514C92.4578 48.2291 93.2653 48.3663 94.023 48.6551C94.7812 48.9432 95.4749 49.3774 96.0645 49.9328C96.6541 50.4883 97.128 51.1541 97.4591 51.8922C97.7901 52.6303 97.9719 53.4262 97.994 54.2344C98.0161 55.0426 97.878 55.8472 97.5877 56.6021C97.2988 57.3575 96.8633 58.0487 96.306 58.6362C95.7488 59.2237 95.0808 59.696 94.3402 60.0261C93.5997 60.3562 92.8011 60.5375 91.9901 60.5598C91.1791 60.5822 90.3716 60.445 89.6139 60.1561Z" fill="#009344"/>
<path fill-rule="evenodd" clip-rule="evenodd" d="M95.0458 55.4512C95.3213 54.6437 95.2739 53.7616 94.9133 52.9881C94.5528 52.2147 93.9069 51.6094 93.11 51.2983C92.313 50.9871 91.4264 50.994 90.6344 51.3174C89.8425 51.6409 89.2061 52.256 88.8577 53.035C88.8378 53.0789 88.8202 53.1251 88.8026 53.169C88.5868 53.7286 88.5304 54.3367 88.6394 54.9262L87.4468 56.3605L89.3779 56.4704C89.7502 56.9089 90.2303 57.2435 90.7714 57.4414C91.3125 57.6394 91.8959 57.6938 92.4645 57.5995C93.033 57.5052 93.5673 57.2652 94.0148 56.9033C94.4622 56.5413 94.8077 56.0697 95.0172 55.5346C95.0282 55.5074 95.0378 55.4795 95.0458 55.4512ZM90.9189 56.9294C90.4078 56.7361 89.9654 56.3969 89.6469 55.9542L88.5204 55.8905L89.2148 55.0558C89.0591 54.4935 89.0877 53.8963 89.2964 53.3513C89.3294 53.2678 89.3669 53.1844 89.4066 53.1053C89.7207 52.4854 90.2556 52.0047 90.9068 51.7572C91.5579 51.5097 92.2783 51.5132 92.9269 51.7671C93.5755 52.021 94.1057 52.507 94.4136 53.1299C94.7216 53.7528 94.785 54.4678 94.5917 55.1349C94.5718 55.2052 94.5498 55.2732 94.5233 55.3413C94.2563 56.0278 93.7267 56.5807 93.0509 56.8784C92.3751 57.1762 91.6083 57.1945 90.9189 56.9294Z" fill="white"/>
<path fill-rule="evenodd" clip-rule="evenodd" d="M93.0969 55.5083C93.0329 55.4424 92.7309 55.1173 92.6692 55.069C92.6075 55.0206 92.5634 54.9855 92.484 55.0426C92.4046 55.0997 92.1908 55.2117 92.1291 55.2447C92.0674 55.2776 92.0189 55.2666 91.9571 55.2008C91.7663 55.0267 91.6074 54.8208 91.4876 54.5923C91.3806 54.3775 91.3063 54.148 91.2671 53.9114C91.2539 53.8191 91.3068 53.7928 91.3597 53.7708C91.4126 53.7489 91.4699 53.7115 91.525 53.683L91.5669 53.6566C91.5958 53.6344 91.623 53.6102 91.6485 53.5841C91.6673 53.5677 91.6814 53.5468 91.6895 53.5233C91.6976 53.4998 91.6994 53.4746 91.6948 53.4501C91.6948 53.4062 91.6794 52.9757 91.6727 52.8022C91.6661 52.6286 91.5934 52.6286 91.5493 52.6111C91.5052 52.5935 91.4567 52.5671 91.406 52.5496C91.367 52.5356 91.3256 52.5297 91.2843 52.5324C91.2429 52.535 91.2026 52.5461 91.1657 52.5649C91.0491 52.6136 90.9439 52.6857 90.8567 52.7768C90.7694 52.8679 90.702 52.976 90.6587 53.0943C90.6266 53.1813 90.6066 53.2721 90.5991 53.3645C90.5866 53.5758 90.6112 53.7876 90.6719 53.9905C90.6917 54.0542 90.8791 55.025 91.5361 55.6225C92.193 56.2199 92.2349 56.1189 92.3804 56.1584C92.4959 56.1809 92.6149 56.178 92.7291 56.1499C92.8433 56.1218 92.95 56.0693 93.0418 55.9959C93.1355 55.9032 93.1992 55.7846 93.2247 55.6554C93.2005 55.6137 93.1586 55.5742 93.0969 55.5083Z" fill="white"/>
<path d="M9.28773 31.7068C8.03828 31.7068 6.84 31.2122 5.9565 30.3319C5.073 29.4517 4.57666 28.2577 4.57666 27.0128C4.57666 25.7679 5.073 24.574 5.9565 23.6937C6.84 22.8134 8.03828 22.3188 9.28773 22.3188C9.9064 22.3188 10.519 22.4403 11.0906 22.6762C11.6622 22.912 12.1815 23.2578 12.619 23.6937C13.0564 24.1296 13.4034 24.647 13.6402 25.2165C13.877 25.786 13.9988 26.3964 13.9988 27.0128C13.9988 27.6292 13.877 28.2396 13.6402 28.8091C13.4034 29.3786 13.0564 29.8961 12.619 30.3319C12.1815 30.7678 11.6622 31.1136 11.0906 31.3495C10.519 31.5854 9.9064 31.7068 9.28773 31.7068Z" fill="#009344"/>
<path d="M6.77905 28.5789C7.2315 28.8665 7.75449 29.0248 8.29103 29.0367C8.82757 29.0485 9.35708 28.9134 9.82186 28.6461C10.2866 28.3787 10.6689 27.9894 10.9269 27.5205C11.1849 27.0517 11.3088 26.5212 11.2851 25.987C11.4843 25.8429 11.6566 25.6653 11.7943 25.462C11.6056 25.5446 11.4059 25.5993 11.2013 25.6246C11.4169 25.499 11.5798 25.3001 11.6599 25.0645C11.4558 25.1854 11.2319 25.2694 10.9985 25.3127C10.8439 25.1442 10.6374 25.0318 10.4116 24.9931C10.1857 24.9545 9.95339 24.9919 9.75125 25.0994C9.5491 25.2069 9.38862 25.3784 9.29513 25.5869C9.20163 25.7953 9.18044 26.0288 9.23489 26.2506C8.82529 26.2296 8.42467 26.1231 8.05897 25.9381C7.69327 25.7531 7.37063 25.4936 7.11194 25.1765C6.98086 25.4028 6.94095 25.6702 7.0003 25.9247C7.05965 26.1791 7.21381 26.4016 7.43159 26.5471C7.26776 26.5429 7.1074 26.4992 6.96423 26.4197C6.9615 26.6589 7.04256 26.8916 7.19346 27.0776C7.34436 27.2636 7.55565 27.3914 7.79093 27.4389C7.63926 27.4801 7.48014 27.4861 7.32578 27.4565C7.39178 27.66 7.51984 27.8379 7.69213 27.9655C7.86441 28.0931 8.07234 28.1639 8.28695 28.1682C7.85751 28.4962 7.31625 28.6436 6.77905 28.5789Z" fill="white"/>
<path d="M17.7465 84.2849C15.6543 84.78 13.4504 84.4272 11.6192 83.304C9.78792 82.1808 8.47914 80.3792 7.98045 78.295C7.73322 77.2617 7.6928 76.1901 7.86151 75.1412C8.03022 74.0924 8.40475 73.087 8.96369 72.1825C9.52262 71.2779 10.255 70.4921 11.119 69.8697C11.9829 69.2474 12.9615 68.8009 13.9988 68.5556C15.0352 68.3095 16.1102 68.2692 17.1622 68.437C18.2143 68.6049 19.2228 68.9775 20.1303 69.5338C21.0378 70.09 21.8265 70.8189 22.4512 71.6788C23.076 72.5387 23.5246 73.5128 23.7715 74.5455C24.0186 75.5792 24.0588 76.6513 23.8896 77.7005C23.7205 78.7497 23.3454 79.7553 22.7858 80.6599C22.2262 81.5645 21.4931 82.3503 20.6284 82.9723C19.7637 83.5943 18.7844 84.0404 17.7465 84.2849Z" fill="#455A64"/>
<path d="M15.0283 72.8872C16.1835 72.6126 16.3224 72.5841 16.792 72.4962C17.0668 72.4347 17.3501 72.4206 17.6297 72.4545C17.8343 72.4791 18.0309 72.5489 18.2051 72.6587C18.3808 72.7651 18.5313 72.9082 18.646 73.0783C18.802 73.3119 18.9168 73.5705 18.9855 73.8427C19.1155 74.2929 19.153 74.4291 19.4264 75.5801C19.6997 76.7311 19.7284 76.8695 19.8166 77.3373C19.8795 77.611 19.8936 77.8935 19.8585 78.172C19.8359 78.3764 19.7657 78.5727 19.6534 78.7453C19.5482 78.9208 19.4051 79.0708 19.2346 79.1846C18.9992 79.3399 18.739 79.4543 18.4652 79.5229C18.0243 79.6524 17.8788 79.6898 16.7236 79.9622C15.5685 80.2345 15.4296 80.2653 14.96 80.3531C14.6846 80.4157 14.4004 80.4298 14.1201 80.3949C13.9153 80.3709 13.7186 80.3011 13.5447 80.1906C13.3707 80.081 13.2243 79.9329 13.117 79.7579C12.9596 79.5247 12.844 79.2661 12.7753 78.9935C12.6475 78.5432 12.61 78.4092 12.3344 77.2582C12.0589 76.1073 12.0302 75.9689 11.942 75.501C11.8815 75.2263 11.8673 74.9435 11.9001 74.6642C11.9272 74.461 11.997 74.2659 12.1049 74.0914C12.2127 73.9169 12.3563 73.7671 12.5262 73.6516C12.7605 73.4951 13.02 73.38 13.2934 73.3111C13.7343 73.1837 13.882 73.1464 15.0372 72.8718L15.0283 72.8872ZM14.852 72.0942C13.677 72.3732 13.5293 72.4127 13.0729 72.5445C12.7159 72.6328 12.3766 72.7814 12.0699 72.9838C11.8096 73.1631 11.5896 73.3943 11.4238 73.6628C11.258 73.9312 11.1499 74.2311 11.1065 74.5433C11.0602 74.9095 11.0766 75.2809 11.155 75.6416C11.2454 76.1051 11.274 76.2544 11.554 77.4252C11.834 78.5959 11.8737 78.7431 11.9949 79.1956C12.0831 79.5515 12.2323 79.8896 12.4358 80.195C12.6152 80.464 12.8524 80.6898 13.1302 80.8561C13.3976 81.0238 13.6986 81.131 14.0121 81.1702C14.3796 81.2166 14.7523 81.2003 15.1143 81.1219C15.5795 81.0341 15.7294 81.0033 16.9044 80.7244C18.0794 80.4454 18.2271 80.4059 18.6812 80.285C19.0378 80.1952 19.3768 80.0467 19.6843 79.8457C19.9472 79.6691 20.1684 79.4375 20.3324 79.167C20.4998 78.9 20.608 78.6005 20.6499 78.2884C20.6955 77.9221 20.6784 77.5507 20.5992 77.1902C20.511 76.7245 20.4801 76.5773 20.2002 75.4066C19.9202 74.2358 19.8805 74.0887 19.7593 73.634C19.6687 73.2789 19.5197 72.9412 19.3184 72.6346C19.1409 72.3733 18.9085 72.1536 18.6372 71.991C18.3702 71.8221 18.0691 71.7141 17.7553 71.6747C17.3878 71.6283 17.0151 71.6446 16.6531 71.723C16.1857 71.8131 16.038 71.8416 14.863 72.1206" fill="white"/>
<path d="M15.3436 74.2073C14.9042 74.3116 14.5058 74.5434 14.1986 74.8733C13.8914 75.2033 13.6893 75.6165 13.6179 76.0609C13.5464 76.5053 13.6088 76.9608 13.7972 77.3698C13.9855 77.7789 14.2913 78.1231 14.676 78.3589C15.0607 78.5948 15.5069 78.7117 15.9583 78.6949C16.4097 78.6781 16.8459 78.5283 17.2118 78.2645C17.5777 78.0007 17.857 77.6347 18.0141 77.2128C18.1713 76.7909 18.1994 76.332 18.0949 75.8942C17.9541 75.3073 17.5853 74.7999 17.0695 74.4836C16.5537 74.1674 15.9329 74.068 15.3436 74.2073ZM16.2254 77.8601C15.94 77.9273 15.6409 77.9086 15.3661 77.8065C15.0913 77.7044 14.853 77.5234 14.6814 77.2865C14.5097 77.0495 14.4124 76.7671 14.4018 76.4751C14.3912 76.183 14.4676 75.8944 14.6216 75.6456C14.7755 75.3969 15 75.1991 15.2666 75.0774C15.5333 74.9557 15.8302 74.9155 16.1198 74.9619C16.4094 75.0082 16.6787 75.139 16.8937 75.3378C17.1087 75.5366 17.2597 75.7944 17.3277 76.0787C17.3729 76.2678 17.3803 76.4639 17.3493 76.6559C17.3184 76.8478 17.2498 77.0317 17.1474 77.1972C17.045 77.3627 16.9109 77.5064 16.7527 77.6201C16.5945 77.7339 16.4153 77.8154 16.2254 77.8601Z" fill="white"/>
<path d="M18.1522 73.4495C18.1763 73.5517 18.1695 73.6588 18.1326 73.7572C18.0957 73.8555 18.0303 73.9408 17.9448 74.0022C17.8593 74.0636 17.7574 74.0984 17.6521 74.1022C17.5468 74.106 17.4426 74.0786 17.3529 74.0235C17.2632 73.9684 17.1918 73.888 17.1479 73.7926C17.104 73.6971 17.0894 73.5908 17.1061 73.4871C17.1227 73.3834 17.1698 73.2869 17.2414 73.2098C17.3131 73.1328 17.406 73.0786 17.5085 73.0541C17.5768 73.0375 17.6478 73.0345 17.7173 73.0455C17.7868 73.0564 17.8534 73.081 17.9133 73.1177C17.9732 73.1545 18.0251 73.2028 18.0662 73.2597C18.1072 73.3167 18.1364 73.3812 18.1522 73.4495Z" fill="white"/>
<path d="M79.211 77.1704C78.714 77.1707 78.2218 77.0734 77.7626 76.8841C77.3034 76.6948 76.8861 76.4172 76.5346 76.0672C76.183 75.7171 75.9042 75.3015 75.7139 74.8441C75.5237 74.3866 75.4258 73.8963 75.4258 73.4011C75.4258 72.906 75.5237 72.4157 75.7139 71.9582C75.9042 71.5008 76.183 71.0851 76.5346 70.7351C76.8861 70.3851 77.3034 70.1075 77.7626 69.9182C78.2218 69.7289 78.714 69.6316 79.211 69.6319C79.7083 69.631 80.2009 69.7279 80.6607 69.9169C81.1204 70.106 81.5382 70.3835 81.8902 70.7336C82.2422 71.0836 82.5214 71.4995 82.7119 71.9572C82.9025 72.4149 83.0005 72.9056 83.0005 73.4011C83.0005 73.8967 82.9025 74.3874 82.7119 74.8451C82.5214 75.3028 82.2422 75.7186 81.8902 76.0687C81.5382 76.4188 81.1204 76.6963 80.6607 76.8854C80.2009 77.0744 79.7083 77.1712 79.211 77.1704Z" fill="#455A64"/>
<path d="M78.6334 75.6789H79.5549V73.388H80.1964L80.267 72.6192H79.5549V72.1799C79.5549 71.9998 79.5924 71.9273 79.7754 71.9273H80.2758V71.1277H79.6365C78.9509 71.1277 78.6422 71.4287 78.6422 72.0064V72.6214H78.1506V73.388H78.629L78.6334 75.6789Z" fill="white"/>
<path d="M66.3055 98L35.9073 97.989C34.1533 97.989 32.4711 97.2948 31.2308 96.059C29.9905 94.8232 29.2937 93.1471 29.2937 91.3995L29.3069 15.4701C29.3069 14.6037 29.4784 13.7457 29.8116 12.9454C30.1448 12.145 30.6331 11.418 31.2487 10.8059C31.8642 10.1939 32.5948 9.70876 33.3988 9.37838C34.2027 9.048 35.0641 8.87883 35.9337 8.88057L66.3298 8.89814C68.0838 8.89814 69.766 9.5924 71.0063 10.8282C72.2466 12.064 72.9433 13.74 72.9433 15.4877L72.9301 91.3995C72.9316 92.2667 72.7612 93.1256 72.4288 93.9271C72.0964 94.7286 71.6085 95.4568 70.993 96.07C70.3776 96.6832 69.6467 97.1693 68.8424 97.5005C68.038 97.8317 67.1759 98.0015 66.3055 98Z" fill="#263238"/>
<path d="M66.2967 11.5604H60.4018C60.0149 11.5696 59.6473 11.7309 59.3793 12.009C59.1113 12.2872 58.9645 12.6597 58.971 13.0452V14.1105C58.9754 14.302 58.9419 14.4924 58.8723 14.6709C58.8027 14.8494 58.6985 15.0125 58.5656 15.1508C58.4327 15.2891 58.2738 15.4 58.0978 15.477C57.9219 15.5541 57.7324 15.5958 57.5403 15.5998H46.0525C45.8602 15.5955 45.6707 15.5535 45.4948 15.4762C45.3188 15.399 45.1599 15.2879 45.027 15.1494C44.8941 15.0109 44.79 14.8477 44.7204 14.669C44.6509 14.4904 44.6174 14.2999 44.6218 14.1083V13.0364C44.6294 12.6499 44.4833 12.2761 44.2152 11.9966C43.9471 11.7172 43.5789 11.5548 43.191 11.545H41.1143H35.958C35.3491 11.5436 34.7459 11.6618 34.1829 11.893C33.62 12.1241 33.1083 12.4637 32.6773 12.8921C32.2462 13.3206 31.9042 13.8296 31.6709 14.3899C31.4375 14.9503 31.3174 15.551 31.3174 16.1577L31.302 90.2705C31.302 91.4939 31.7898 92.6671 32.658 93.5322C33.5262 94.3972 34.7037 94.8832 35.9315 94.8832L66.2702 94.9008C66.8782 94.9008 67.4802 94.7815 68.0418 94.5497C68.6035 94.3178 69.1139 93.9781 69.5438 93.5498C69.9736 93.1214 70.3147 92.6129 70.5473 92.0533C70.78 91.4937 70.8997 90.8938 70.8997 90.2881L70.9151 16.1731C70.9151 14.9516 70.4289 13.78 69.5631 12.9153C68.6973 12.0505 67.5226 11.5633 66.2967 11.5604Z" fill="white"/>
<path d="M66.7398 17.581C66.7398 17.6008 65.9726 17.6228 65.0291 17.6293C64.0855 17.6359 63.3162 17.6293 63.3162 17.6096C63.3162 17.5898 64.0811 17.5656 65.0269 17.559C65.9726 17.5525 66.7398 17.5612 66.7398 17.581Z" fill="#263238"/>
<path d="M66.7464 18.4531C66.7464 18.4728 65.9814 18.4948 65.0357 18.5036C64.0899 18.5124 63.3228 18.5036 63.3228 18.4816C63.3228 18.4597 64.0899 18.4399 65.0357 18.4311C65.9814 18.4223 66.7464 18.4333 66.7464 18.4531Z" fill="#263238"/>
<path d="M66.7552 19.3251C66.7552 19.3448 65.988 19.369 65.0423 19.3756C64.0965 19.3822 63.3316 19.3756 63.3294 19.3536C63.3271 19.3317 64.0965 19.3119 65.0423 19.3031C65.988 19.2943 66.7552 19.3053 66.7552 19.3251Z" fill="#263238"/>
<path d="M34.5007 20.1772H34.5911H34.8402L35.7617 20.1553L35.7353 20.1794C35.7353 19.9774 35.7353 19.7555 35.7243 19.5205C35.7243 19.3975 35.7243 19.2811 35.7243 19.1383C35.7388 19.0645 35.7765 18.9972 35.832 18.9463C35.8875 18.8953 35.9579 18.8633 36.0329 18.8549C36.1828 18.8549 36.3129 18.8549 36.4738 18.8549C36.5581 18.8685 36.6348 18.9115 36.6902 18.9763C36.7455 19.0412 36.7759 19.1235 36.7758 19.2086C36.7758 19.5205 36.7758 19.8434 36.7868 20.1794L36.745 20.1377H37.9067L37.8627 20.1816C37.8627 19.716 37.8627 19.2327 37.8494 18.7385C37.8494 18.6155 37.8494 18.4947 37.8494 18.3717C37.8444 18.317 37.8272 18.2642 37.7989 18.217C37.7707 18.1699 37.7322 18.1297 37.6863 18.0993L37.1792 17.5985L36.6876 17.1175L36.4518 16.8846C36.3702 16.8056 36.3063 16.7243 36.2115 16.7045C36.166 16.6926 36.1185 16.691 36.0723 16.6997C36.0262 16.7085 35.9826 16.7274 35.9447 16.7551C35.8742 16.8144 35.7992 16.8978 35.7243 16.9747L35.3054 17.3942C35.0431 17.6644 34.7697 17.9126 34.5713 18.1476C34.5124 18.2861 34.4926 18.438 34.514 18.587C34.514 18.7297 34.514 18.8659 34.514 18.9933C34.514 19.2437 34.514 19.4634 34.514 19.6523C34.514 19.8412 34.514 19.9576 34.514 20.0718C34.5171 20.1223 34.5171 20.1729 34.514 20.2234C34.5114 20.1773 34.5114 20.1311 34.514 20.085C34.514 19.973 34.514 19.8346 34.514 19.6698C34.514 19.5051 34.514 19.2591 34.4985 19.0109C34.4985 18.8791 34.4985 18.7407 34.4985 18.5935C34.4985 18.5189 34.4985 18.4442 34.4985 18.3739C34.498 18.2891 34.5201 18.2058 34.5625 18.1323C34.7829 17.8709 35.0342 17.6381 35.2988 17.3591L35.7132 16.9352C35.7882 16.8627 35.8477 16.7902 35.9337 16.7155C35.9811 16.6795 36.0361 16.6547 36.0945 16.6429C36.1529 16.6311 36.2133 16.6327 36.271 16.6474C36.3807 16.6876 36.4775 16.7567 36.551 16.8473L36.7891 17.0801L37.2807 17.5612L37.7899 18.0576C37.8376 18.1003 37.8812 18.1473 37.92 18.1982C37.9581 18.2565 37.9795 18.3241 37.9817 18.3937C37.9817 18.5167 37.9817 18.6397 37.9817 18.7627C37.9817 19.2569 37.9817 19.7401 37.9927 20.2058V20.2497H37.9486H36.7868H36.7053V20.208C36.7053 19.8719 36.7053 19.549 36.7053 19.2371C36.7067 19.1701 36.6839 19.1048 36.641 19.0532C36.5981 19.0015 36.538 18.967 36.4716 18.956C36.3371 18.956 36.1784 18.956 36.0483 18.956C35.9889 18.9619 35.9329 18.9863 35.8882 19.0257C35.8435 19.0651 35.8123 19.1176 35.7992 19.1756C35.7992 19.292 35.7992 19.426 35.7992 19.5446C35.7992 19.7841 35.7992 20.0081 35.7992 20.2036V20.23H35.7728H34.8358H34.5911C34.5593 20.2155 34.529 20.1979 34.5007 20.1772Z" fill="#263238"/>
<path d="M54.5624 78.0907C54.4566 78.1072 54.3497 78.1146 54.2427 78.1127L53.3741 78.1302C52.6422 78.1412 51.6281 78.1478 50.5082 78.1478C49.3883 78.1478 48.3742 78.1478 47.6423 78.1302L46.7738 78.1127C46.6668 78.1144 46.5598 78.1071 46.4541 78.0907C46.5597 78.0729 46.6667 78.0655 46.7738 78.0687L47.6423 78.0489C48.3742 78.0489 49.3883 78.0336 50.5082 78.0336C51.6281 78.0336 52.64 78.0336 53.3741 78.0489L54.2427 78.0687C54.3497 78.0654 54.4568 78.0727 54.5624 78.0907Z" fill="#455A64"/>
<path d="M67.2977 80.0763C67.2977 80.1093 62.6307 80.1334 56.8747 80.1334C51.1186 80.1334 46.4517 80.1093 46.4517 80.0763C46.4517 80.0434 51.1186 80.0192 56.8747 80.0192C62.6307 80.0192 67.2977 80.0456 67.2977 80.0763Z" fill="#455A64"/>
<path d="M60.7833 81.9543C60.7833 81.9873 57.5757 82.0115 53.6186 82.0115C49.6615 82.0115 46.4517 81.9873 46.4517 81.9543C46.4517 81.9214 49.6592 81.8972 53.6186 81.8972C57.5779 81.8972 60.7833 81.9148 60.7833 81.9543Z" fill="#455A64"/>
<path d="M67.7097 85.5853L67.0616 84.9373L66.4443 85.5501V83.6963H67.7075L67.7097 85.5853ZM67.0616 84.856L67.0814 84.8758L67.6524 85.4469V83.7556H66.5039V85.414L67.0616 84.856Z" fill="#263238"/>
<path d="M50.4637 85.3436L50.2432 85.2426C50.1116 85.3043 49.9616 85.3148 49.8226 85.2722C49.6836 85.2295 49.5655 85.1367 49.4915 85.0119C49.4175 84.8871 49.393 84.7393 49.4226 84.5974C49.4522 84.4555 49.5339 84.3297 49.6516 84.2446C49.7694 84.1596 49.9148 84.1213 50.0594 84.1374C50.2039 84.1535 50.3373 84.2228 50.4333 84.3316C50.5294 84.4405 50.5812 84.5811 50.5786 84.726C50.5761 84.871 50.5194 85.0097 50.4196 85.1152L50.4637 85.3436ZM49.9324 84.1092C49.7817 84.1197 49.6406 84.1871 49.5381 84.2976C49.4356 84.4082 49.3792 84.5536 49.3806 84.7041C49.382 84.8547 49.4411 84.999 49.5457 85.1076C49.6503 85.2163 49.7925 85.281 49.9434 85.2887C50.0441 85.2818 50.1416 85.2509 50.2278 85.1987L50.3976 85.2733L50.3579 85.1086C50.4356 85.024 50.4869 84.9187 50.5053 84.8055C50.5238 84.6923 50.5087 84.5762 50.4619 84.4715C50.4151 84.3667 50.3385 84.2779 50.2417 84.2159C50.1449 84.1539 50.0321 84.1214 49.917 84.1224L49.9324 84.1092Z" fill="#263238"/>
<path d="M51.9319 85.2492L51.6718 84.6122L51.1802 84.1729H52.3706L51.9319 85.2492ZM51.2904 84.2102L51.7093 84.5925L51.9297 85.135L52.3045 84.2015L51.2904 84.2102Z" fill="#263238"/>
<path d="M52.3435 84.1607L51.6931 84.5824L51.7172 84.6192L52.3676 84.1976L52.3435 84.1607Z" fill="#263238"/>
<path d="M48.5878 84.2959C48.5703 84.2112 48.5232 84.1353 48.455 84.0818C48.3868 84.0283 48.3017 84.0005 48.2149 84.0034C48.1282 84.0063 48.0452 84.0397 47.9807 84.0976C47.9162 84.1556 47.8743 84.2344 47.8625 84.3201C47.8506 84.2333 47.808 84.1537 47.7423 84.0955C47.6767 84.0374 47.5923 84.0045 47.5044 84.0029C47.4166 84.0013 47.3311 84.0311 47.2633 84.0868C47.1956 84.1426 47.1501 84.2206 47.135 84.3069C47.1181 84.4334 47.1504 84.5615 47.2254 84.6649C47.2999 84.7666 47.3873 84.8581 47.4855 84.9373C47.62 85.0537 47.7413 85.157 47.8735 85.28C48.0058 85.1613 48.116 85.0493 48.2483 84.9307C48.3453 84.8499 48.4312 84.7569 48.504 84.6539C48.5778 84.5501 48.6078 84.4216 48.5878 84.2959Z" fill="#009344"/>
<path d="M69.0369 87.226C69.0369 87.226 69.0369 87.1536 69.0369 87.0196C69.0369 86.8856 69.0369 86.6813 69.0369 86.4177C69.0369 85.8884 69.0369 85.0998 69.0259 84.0982C69.0259 82.0796 69.0148 79.1428 69.006 75.4593L69.0435 75.4966L33.7909 75.5164L33.8482 75.4593C33.8482 79.5492 33.8482 83.5139 33.8482 87.226L33.7931 87.1711L59.0195 87.1953L66.3826 87.2107H68.3667H68.8782H69.0545H68.8848H68.3799H66.4157L59.0636 87.226L33.7998 87.2524H33.7424V87.226C33.7424 83.5139 33.7424 79.5492 33.7424 75.4593V75.4022H33.8042L69.0567 75.4219H69.0942V75.4593C69.0942 79.1516 69.0788 82.0972 69.0744 84.1224C69.0744 85.1284 69.0744 85.9037 69.0744 86.4331C69.0744 86.6923 69.0744 86.89 69.0744 87.0262C69.0744 87.1623 69.0369 87.226 69.0369 87.226Z" fill="#263238"/>
<path d="M35.2505 77.4289L35.2056 85.2088L44.9715 85.2648L45.0164 77.4849L35.2505 77.4289Z" fill="#EBEBEB"/>
<path d="M45.014 77.4779H44.8267H44.2932H42.2892L35.2348 77.4625L35.2877 77.412C35.2767 79.7294 35.2634 82.3828 35.2502 85.1899C35.2612 85.2053 35.1422 85.0823 35.1929 85.1328H35.8653H36.5266H37.8493L40.3845 85.1482L44.9567 85.1811L44.9104 85.2295C44.9325 82.8924 44.9523 80.955 44.9677 79.5932C44.9677 78.9166 44.9832 78.3851 44.9876 78.0139C44.9876 77.836 44.9876 77.6976 44.9876 77.5965C44.9876 77.4955 44.9876 77.4494 44.9876 77.4494C44.9876 77.4494 44.9876 77.4933 44.9876 77.5856C44.9876 77.6778 44.9876 77.8206 44.9876 77.9963C44.9876 78.3631 44.9876 78.8925 44.9876 79.5646C44.9876 80.9331 44.9876 82.8814 44.9876 85.2295V85.2756H44.9391L40.3669 85.258L37.8317 85.2448H36.509H35.8476H35.1752L35.1157 85.1855C35.1356 82.3762 35.151 79.7228 35.1664 77.4076V77.3549H35.2193L42.2959 77.4186L44.2799 77.445H44.8024H44.9347L45.014 77.4779Z" fill="#263238"/>
<path d="M35.5852 77.9206L35.5459 84.7209L44.6262 84.7731L44.6655 77.9727L35.5852 77.9206Z" fill="#E0E0E0"/>
<path d="M35.5413 84.7154L38.7378 80.5069L40.6866 83.1625L42.027 81.7545L44.6217 84.766L35.5413 84.7154Z" fill="#F5F5F5"/>
<path d="M41.5396 80.004C41.5392 80.1453 41.4967 80.2832 41.4175 80.4004C41.3383 80.5176 41.226 80.6088 41.0948 80.6623C40.9636 80.7159 40.8194 80.7295 40.6804 80.7013C40.5414 80.6732 40.414 80.6046 40.3142 80.5042C40.2144 80.4038 40.1467 80.2762 40.1198 80.1375C40.0928 79.9988 40.1077 79.8553 40.1627 79.725C40.2177 79.5948 40.3102 79.4838 40.4286 79.4059C40.5469 79.3281 40.6858 79.287 40.8276 79.2879C40.9215 79.2882 41.0146 79.307 41.1012 79.3431C41.1879 79.3793 41.2666 79.4322 41.3328 79.4987C41.3989 79.5652 41.4512 79.6441 41.4867 79.7308C41.5222 79.8175 41.5402 79.9103 41.5396 80.004Z" fill="#F5F5F5"/>
<path d="M51.716 27.0129C51.6809 27.0188 51.6452 27.0188 51.6101 27.0129L51.3125 27.0238L50.2103 27.0436C49.2822 27.0436 48.0057 27.059 46.5816 27.059C45.1575 27.059 43.8811 27.059 42.953 27.0436L41.8507 27.0238L41.5509 27.0129C41.5166 27.0189 41.4815 27.0189 41.4473 27.0129C41.4811 27.0045 41.516 27.0008 41.5509 27.0019H41.8507L42.953 26.9843C43.8811 26.9733 45.1575 26.9667 46.5816 26.9667C48.0057 26.9667 49.2822 26.9667 50.2103 26.9843L51.3125 27.0019H51.6101C51.6457 27.001 51.6813 27.0047 51.716 27.0129Z" fill="#263238"/>
<path d="M66.1422 70.0164L65.181 69.0543L64.2617 69.9659V67.2114H66.14L66.1422 70.0164ZM65.181 68.9357L65.2097 68.9642L66.0584 69.8121V67.2993H64.3477V69.7638L65.181 68.9357Z" fill="#263238"/>
<path d="M41.703 69.7265L41.2621 69.5266C41.0053 69.6456 40.7133 69.6649 40.443 69.5807C40.1728 69.4965 39.9437 69.3149 39.8007 69.0715C39.6576 68.828 39.6109 68.5401 39.6695 68.2641C39.7282 67.9881 39.8881 67.7438 40.1179 67.579C40.3477 67.4142 40.631 67.3407 40.9123 67.3729C41.1936 67.4051 41.4527 67.5407 41.639 67.7532C41.8253 67.9656 41.9254 68.2397 41.9197 68.5217C41.914 68.8038 41.8029 69.0736 41.6082 69.2784L41.703 69.7265ZM40.6514 67.2993C40.4986 67.3006 40.3475 67.3319 40.2067 67.3914C40.066 67.4509 39.9384 67.5374 39.8313 67.646C39.7241 67.7546 39.6395 67.8832 39.5822 68.0244C39.5249 68.1656 39.4961 68.3167 39.4974 68.469C39.4987 68.6213 39.5301 68.7718 39.5898 68.9121C39.6495 69.0523 39.7363 69.1794 39.8453 69.2862C39.9543 69.3929 40.0834 69.4773 40.2251 69.5344C40.3668 69.5914 40.5184 69.6202 40.6713 69.6189C40.8696 69.607 41.0619 69.5466 41.2312 69.4431L41.2511 69.4322L41.5817 69.5793L41.5068 69.2542L41.5222 69.2389C41.6754 69.0724 41.7763 68.8648 41.8125 68.6419C41.8487 68.4189 41.8187 68.1903 41.7262 67.9841C41.6336 67.778 41.4825 67.6033 41.2916 67.4816C41.1006 67.3599 40.8781 67.2966 40.6514 67.2993Z" fill="#263238"/>
<path d="M44.5952 69.5353L44.0793 68.2811L43.1138 67.4025L45.4594 67.3849L44.5952 69.5353ZM43.332 67.486L44.1565 68.2394L44.5974 69.3069L45.3337 67.4706L43.332 67.486Z" fill="#263238"/>
<path d="M45.413 67.3811L44.1343 68.2101L44.1812 68.2819L45.4599 67.4529L45.413 67.3811Z" fill="#263238"/>
<path d="M38.0126 67.6771C37.9793 67.5089 37.8871 67.358 37.7525 67.2513C37.6178 67.1447 37.4495 67.0891 37.2776 67.0947C37.1056 67.1002 36.9413 67.1665 36.8138 67.2816C36.6864 67.3967 36.6042 67.5533 36.5819 67.7232C36.5566 67.554 36.4718 67.3991 36.3427 67.2863C36.2136 67.1735 36.0485 67.11 35.8768 67.1071C35.705 67.1042 35.5379 67.1621 35.405 67.2705C35.2721 67.3789 35.1822 67.5308 35.1511 67.6991C35.118 67.9475 35.1819 68.1991 35.3297 68.4019C35.4776 68.602 35.6502 68.7828 35.8433 68.9401C36.1057 69.1597 36.346 69.3794 36.6083 69.6144C36.864 69.3816 37.0845 69.1619 37.3424 68.9269C37.533 68.7671 37.7026 68.5841 37.8472 68.3822C37.9907 68.1768 38.0499 67.9245 38.0126 67.6771Z" fill="#009344"/>
<path d="M37.7987 28.601C38.6777 28.601 39.3904 27.8909 39.3904 27.0151C39.3904 26.1392 38.6777 25.4292 37.7987 25.4292C36.9196 25.4292 36.207 26.1392 36.207 27.0151C36.207 27.8909 36.9196 28.601 37.7987 28.601Z" fill="#EBEBEB"/>
<path d="M65.5427 60.9228C65.5427 60.9557 58.8718 60.9821 50.6445 60.9821C42.4172 60.9821 35.7441 60.9557 35.7441 60.9228C35.7441 60.8898 42.415 60.8657 50.6445 60.8657C58.874 60.8657 65.5427 60.892 65.5427 60.9228Z" fill="#455A64"/>
<path d="M65.5427 58.4517C65.5427 58.4824 58.8718 58.5088 50.6445 58.5088C42.4172 58.5088 35.7441 58.4824 35.7441 58.4517C35.7441 58.4209 42.415 58.3946 50.6445 58.3946C58.874 58.3946 65.5427 58.4209 65.5427 58.4517Z" fill="#455A64"/>
<path d="M51.9628 63.429C51.9628 63.4598 48.332 63.4861 43.8546 63.4861C39.3772 63.4861 35.7441 63.4598 35.7441 63.429C35.7441 63.3983 39.375 63.3719 43.8546 63.3719C48.3342 63.3719 51.9628 63.3983 51.9628 63.429Z" fill="#455A64"/>
<path d="M49.9633 90.3649C49.9611 90.4897 49.9219 90.6111 49.8507 90.7138C49.7794 90.8164 49.6792 90.8958 49.5628 90.9419C49.4464 90.9879 49.3188 90.9986 49.1963 90.9727C49.0738 90.9467 48.9617 90.8851 48.8742 90.7958C48.7867 90.7065 48.7276 90.5933 48.7045 90.4706C48.6814 90.348 48.6952 90.2212 48.7443 90.1063C48.7933 89.9915 48.8753 89.8936 48.9801 89.8251C49.0848 89.7566 49.2075 89.7205 49.3328 89.7213C49.4167 89.7222 49.4995 89.7395 49.5766 89.7724C49.6538 89.8052 49.7236 89.8529 49.7822 89.9127C49.8408 89.9725 49.8869 90.0432 49.918 90.1208C49.9491 90.1984 49.9645 90.2814 49.9633 90.3649Z" fill="#263238"/>
<path d="M51.9166 90.3737C51.914 90.4979 51.8747 90.6185 51.8035 90.7205C51.7323 90.8225 51.6325 90.9012 51.5165 90.9468C51.4006 90.9925 51.2737 91.0029 51.1518 90.977C51.0299 90.951 50.9184 90.8897 50.8313 90.8008C50.7442 90.712 50.6854 90.5994 50.6623 90.4774C50.6392 90.3553 50.6528 90.2292 50.7014 90.1148C50.75 90.0004 50.8314 89.9029 50.9354 89.8344C51.0395 89.766 51.1615 89.7297 51.2861 89.7301C51.3701 89.7307 51.4531 89.7478 51.5303 89.7806C51.6076 89.8133 51.6775 89.861 51.7362 89.9208C51.7948 89.9807 51.8409 90.0515 51.8719 90.1292C51.9029 90.207 51.9181 90.2901 51.9166 90.3737Z" fill="#263238"/>
<path d="M53.8851 90.3825C53.8825 90.5067 53.8432 90.6273 53.772 90.7293C53.7008 90.8312 53.601 90.91 53.485 90.9556C53.3691 91.0012 53.2422 91.0117 53.1203 90.9858C52.9984 90.9598 52.8869 90.8985 52.7998 90.8096C52.7127 90.7207 52.654 90.6082 52.6308 90.4862C52.6077 90.3641 52.6213 90.238 52.6699 90.1236C52.7185 90.0092 52.7999 89.9117 52.9039 89.8432C53.008 89.7748 53.13 89.7385 53.2546 89.7389C53.3385 89.7398 53.4214 89.7571 53.4985 89.7899C53.5756 89.8228 53.6454 89.8705 53.704 89.9302C53.7626 89.99 53.8087 90.0608 53.8398 90.1384C53.8709 90.216 53.8863 90.2989 53.8851 90.3825Z" fill="#263238"/>
<path d="M69.2484 30.1517H33.9915V51.6337H69.2484V30.1517Z" fill="#E0E0E0"/>
<path d="M37.2454 51.638L47.3487 38.1646L53.6118 46.5904L57.8577 42.0831L66.182 51.6292L37.2454 51.638Z" fill="#F5F5F5"/>
<path d="M56.2682 36.5106C56.2686 36.9599 56.1353 37.3992 55.8851 37.773C55.6349 38.1468 55.279 38.4382 54.8625 38.6105C54.4461 38.7827 53.9877 38.828 53.5454 38.7406C53.103 38.6532 52.6967 38.4371 52.3777 38.1195C52.0586 37.802 51.8413 37.3973 51.7532 36.9567C51.6651 36.5161 51.7101 36.0593 51.8825 35.6441C52.055 35.229 52.3472 34.8742 52.7221 34.6245C53.097 34.3748 53.5378 34.2416 53.9887 34.2416C54.5929 34.2416 55.1723 34.4806 55.5997 34.906C56.0272 35.3315 56.2676 35.9086 56.2682 36.5106Z" fill="#F5F5F5"/>
<path d="M69.1536 71.5978C69.1536 71.1388 69.1316 51.7325 69.1007 23.002L69.1536 23.0547H33.901L33.9584 22.9976C33.9584 41.1716 33.9584 57.9904 33.9584 71.5934L33.9099 71.5473L69.1668 71.5934L33.9099 71.6418H33.8636V71.5934C33.8636 57.9904 33.8636 41.1716 33.8525 22.9976V22.9405H33.9143H69.1668H69.2197V22.991C69.2087 37.3716 69.1999 49.525 69.1933 58.087C69.1933 62.3615 69.1823 65.7375 69.1801 68.0483C69.1801 69.1992 69.1801 70.0844 69.1801 70.6841C69.1801 70.9806 69.1801 71.2069 69.1801 71.3606C69.1801 71.5144 69.1536 71.5978 69.1536 71.5978Z" fill="#263238"/>
<path d="M52.5778 77.6273L53.3582 75.0157C53.4949 74.449 53.6756 73.7812 53.9181 73.019C54.1386 72.3337 54.6985 71.6132 55.21 71.0949C56.0058 70.2887 56.385 70.2844 56.9185 69.856C56.967 69.8253 57.0221 69.7791 57.0684 69.755C57.1693 69.7003 57.2578 69.6255 57.3285 69.5353C57.7893 69.0389 57.3462 68.2679 56.4093 68.3426C55.706 68.3975 54.5552 68.5974 52.6858 70.5194C52.6616 70.5501 52.6373 70.5743 52.6153 70.6028C51.6343 71.8746 50.7128 68.246 50.5452 66.8951C50.5127 66.6858 50.4334 66.4864 50.313 66.3117C50.1927 66.1371 50.0345 65.9916 49.8501 65.8861C49.6657 65.7807 49.4598 65.7179 49.2478 65.7024C49.0357 65.687 48.8229 65.7192 48.6251 65.7969L44.0705 67.9187C43.6361 67.7932 43.1729 67.8085 42.7478 67.9626C42.4291 68.0741 42.1635 68.2999 42.0029 68.596C41.8423 68.8921 41.7982 69.2372 41.8792 69.5639L43.7288 76.9025L38.3035 94.892H49.9985L52.5778 77.6273Z" fill="#FFBE9D"/>
<path d="M61.5722 61.105L57.9568 68.1647L56.1491 67.6638L47.0664 75.0288C46.6957 75.331 46.2213 75.4771 45.7441 75.4361C45.2669 75.3951 44.8247 75.1701 44.5114 74.8091L41.0503 70.8049C41.0503 70.8049 48.0276 67.811 49.3173 65.3333C50.6069 62.8557 49.1167 62.2912 49.1167 62.2912L52.3992 58.5746L61.5722 61.105Z" fill="#009344"/>
<path d="M56.8833 46.6871C56.8833 46.6871 51.5925 45.5207 44.1434 38.3864C36.6943 31.2521 33.1979 21.7697 32.2962 21.8225C31.3946 21.8752 27.4044 20.0279 19.8341 36.4337C12.2637 52.8395 15.2464 56.6417 16.7477 56.6197C18.249 56.5978 28.4802 53.7489 34.8689 54.4715C41.2576 55.1942 49.4695 58.5131 49.4695 58.5131L56.8833 46.6871Z" fill="#009344"/>
<path d="M68.1243 55.6291L66.3188 59.0491L65.5097 60.5866C64.9757 61.5987 64.0723 62.3681 62.9857 62.7359C61.8991 63.1037 60.7122 63.042 59.6699 62.5635L48.3276 58.6251L54.9412 43.601L66.2725 49.6172C67.3149 50.173 68.0946 51.1169 68.4415 52.243C68.7884 53.3692 68.6744 54.5863 68.1243 55.6291Z" fill="#009344"/>
<g opacity="0.4">
<path opacity="0.4" d="M68.1243 55.6291L66.3188 59.0491L65.5097 60.5866C64.9757 61.5987 64.0723 62.3681 62.9857 62.7359C61.8991 63.1037 60.7122 63.042 59.6699 62.5635L48.3276 58.6251L54.9412 43.601L66.2725 49.6172C67.3149 50.173 68.0946 51.1169 68.4415 52.243C68.7884 53.3692 68.6744 54.5863 68.1243 55.6291Z" fill="black"/>
</g>
<path d="M20.4382 36.7325C16.4105 45.6196 14.7329 53.5402 16.6905 54.421C18.6481 55.3019 23.5047 48.8133 27.5324 39.924C31.56 31.0347 33.2377 23.1184 31.2801 22.2354C29.3224 21.3524 24.4659 27.8453 20.4382 36.7325Z" fill="#009344"/>
<g opacity="0.5">
<path opacity="0.5" d="M20.4382 36.7325C16.4105 45.6196 14.7329 53.5402 16.6905 54.421C18.6481 55.3019 23.5047 48.8133 27.5324 39.924C31.56 31.0347 33.2377 23.1184 31.2801 22.2354C29.3224 21.3524 24.4659 27.8453 20.4382 36.7325Z" fill="black"/>
</g>
<path d="M69.0963 60.5735L66.0232 59.6114L67.9257 56.0069L70.2294 57.4346L69.0963 60.5735Z" fill="#009344"/>
<g opacity="0.6">
<path opacity="0.6" d="M67.9257 56.0069L66.0232 59.6114L66.6537 59.8091L68.2013 56.1782L67.9257 56.0069Z" fill="black"/>
</g>
<path d="M65.8049 56.8372C65.7608 56.9361 64.2265 56.343 62.3791 55.5193C60.5317 54.6956 59.0723 53.9312 59.1142 53.8324C59.156 53.7335 60.6926 54.3288 62.5422 55.1613C64.3918 55.9938 65.8512 56.7384 65.8049 56.8372Z" fill="#009344"/>
<path d="M66.7528 54.6912C66.7043 54.7879 65.3155 54.2058 63.6511 53.3887C61.9867 52.5716 60.6772 51.8314 60.7257 51.7325C60.7742 51.6337 62.1608 52.218 63.8252 53.0351C65.4897 53.8522 66.8013 54.5924 66.7528 54.6912Z" fill="#009344"/>
<path d="M64.6146 59.0886C64.5992 59.1413 64.2332 59.0579 63.6512 58.869C63.3602 58.7789 63.0141 58.6647 62.6327 58.5351C62.2513 58.4055 61.8611 58.199 61.4401 58.0079C59.758 57.2304 58.4728 56.4704 58.5147 56.3781C58.5566 56.2858 59.9388 56.8811 61.601 57.6521C62.0199 57.841 62.4079 58.0475 62.7738 58.199C63.1398 58.3506 63.4682 58.4846 63.7438 58.6076C64.2949 58.8602 64.63 59.0359 64.6146 59.0886Z" fill="#009344"/>
<path d="M28.6499 34.7578C28.6499 34.7578 24.0512 31.9155 21.5359 38.1075C19.0205 44.2995 23.8572 45.3165 23.8572 45.3165C25.9459 42.0394 27.5594 38.4847 28.6499 34.7578Z" fill="#009344"/>
<g opacity="0.5">
<path opacity="0.5" d="M33.5417 27.3774C33.5704 27.3774 33.5042 27.8036 33.3632 28.5614C33.2221 29.3192 33.0104 30.4152 32.715 31.7639L32.0757 33.9319C31.9596 34.3199 31.8398 34.7219 31.7164 35.1378L31.529 35.7682C31.4607 35.9878 31.3703 36.1877 31.2909 36.4008L30.2526 39.0717C30.1622 39.3046 30.0696 39.5374 29.9792 39.7724C29.8888 40.0074 29.7588 40.2315 29.6551 40.4643L28.9717 41.8701L28.2861 43.2737C28.1693 43.4933 28.0657 43.7393 27.94 43.9546C27.8144 44.1699 27.6821 44.3939 27.5564 44.6026L26.0904 47.0693C25.9714 47.2626 25.87 47.4624 25.7377 47.6469L25.3563 48.1851L24.6244 49.2131L23.3017 51.0516C22.4199 52.1125 21.6836 52.9494 21.1765 53.5314C20.9275 53.8466 20.6524 54.1405 20.3542 54.41C20.5615 54.0672 20.7975 53.7424 21.0597 53.4392C21.5491 52.8176 22.2391 51.9477 23.0857 50.878L24.3533 49.0264L25.0631 47.9962C25.1866 47.8205 25.31 47.6404 25.4357 47.458C25.5613 47.2757 25.6561 47.0759 25.7774 46.8804L27.2258 44.4159L27.6027 43.7701C27.7328 43.5504 27.8232 43.3308 27.9444 43.0936L28.6234 41.6988C28.8439 41.2265 29.0798 40.763 29.3046 40.304C29.4104 40.0843 29.5383 39.8515 29.6265 39.6187L29.9021 38.9246L30.9558 36.2887C31.0374 36.0691 31.13 35.8736 31.2005 35.6627C31.2711 35.4519 31.3306 35.2454 31.3945 35.0389L31.7693 33.8462L32.4461 31.7046L33.211 28.5416C33.2878 28.1449 33.3984 27.7554 33.5417 27.3774Z" fill="black"/>
</g>
<g opacity="0.4">
<path opacity="0.4" d="M42.1482 70.3129C42.5693 71.0728 42.9969 71.8504 43.6164 72.4501C44.2359 73.0497 45.0824 73.4758 45.9642 73.388C46.846 73.3001 47.6507 72.5841 47.6595 71.7186C48.074 72.0283 48.7111 71.8614 49.055 71.4726C49.3989 71.0838 49.5113 70.5457 49.551 70.0295C50.1154 70.3612 50.9002 70.0998 51.2771 69.566C51.4502 69.288 51.5597 68.9754 51.5978 68.6504C51.6359 68.3255 51.6017 67.9961 51.4976 67.6858C51.2828 67.0682 50.9775 66.4857 50.5915 65.9572C51.0324 65.9923 51.4866 66.023 51.8746 65.8276C52.2626 65.6321 52.5359 65.1181 52.3 64.7491C52.1451 64.543 51.9202 64.4002 51.6673 64.3471C50.9861 64.1274 50.51 63.9649 49.8001 64.0462C49.637 64.0462 50.0845 65.9088 45.638 68.4524C42.9991 69.957 42.1482 70.3129 42.1482 70.3129Z" fill="black"/>
</g>
<path d="M52.1611 72.9926C52.1611 73.0124 51.8635 72.9553 51.3829 72.9684C50.7584 72.9833 50.1441 73.1302 49.5809 73.3994C49.0177 73.6687 48.5183 74.0541 48.1158 74.5302C47.805 74.8948 47.6749 75.1605 47.6462 75.1496C47.6646 75.081 47.6936 75.0158 47.7322 74.9563C47.8266 74.7889 47.9335 74.6289 48.0519 74.4774C48.4482 73.9763 48.9545 73.5724 49.532 73.2967C50.1094 73.021 50.7426 72.8809 51.3829 72.8872C51.5751 72.8884 51.7669 72.906 51.9561 72.9399C52.027 72.9452 52.0964 72.9631 52.1611 72.9926Z" fill="#EB996E"/>
<path d="M42.437 69.1245C43.1535 69.8098 43.6429 70.5676 44.3946 71.2574C44.7363 71.5715 45.2764 72.1645 45.7173 72.2436C46.1583 72.3227 46.4669 72.2634 46.6477 71.8372C46.7954 71.4924 46.5308 71.0201 46.35 70.739C45.8717 69.99 45.4131 69.4057 45.056 68.8236C44.8862 68.5512 45.1045 68.4941 45.1839 68.6215C45.5278 68.9774 46.0436 69.2805 46.3522 69.6737C46.7755 70.203 46.8505 70.9081 47.9571 70.6841C48.1051 70.6602 48.2455 70.6023 48.3672 70.5149C48.7838 70.1964 48.8081 69.6363 48.6273 69.197C48.4712 68.8579 48.263 68.5452 48.0101 68.2701C48.4818 68.7995 48.9955 69.3684 49.745 69.4167C49.9567 69.4422 50.1712 69.4017 50.3588 69.3005C50.5464 69.1994 50.6978 69.0427 50.7922 68.8522C51.0126 68.3514 50.6974 67.8659 50.3777 67.4749C49.8119 66.7797 49.1823 66.1385 48.4973 65.5596C48.2414 65.3454 47.9187 65.2266 47.5846 65.2235C47.1966 65.2235 46.7028 65.2938 46.4823 65.6277C46.3564 65.7887 46.2647 65.9736 46.2127 66.1711C46.1608 66.3686 46.1498 66.5746 46.1803 66.7765C46.1803 66.7765 45.2103 66.2866 44.4299 66.7984C43.9495 67.1346 43.6043 67.6296 43.4555 68.1954L42.437 69.1245Z" fill="#FFBE9D"/>
<path d="M47.6067 65.0127C47.4516 64.8332 47.3553 64.6107 47.3309 64.3751C47.3064 64.1395 47.355 63.9021 47.47 63.6948C47.6353 63.3719 47.8426 63.0578 48.0542 62.9875C48.9779 62.6778 53.0166 63.3741 52.9791 64.2659C52.9416 65.1577 52.6462 65.5838 50.4571 65.2697C50.0713 65.2148 49.4673 65.1401 49.4673 65.1401L48.9382 65.9308L47.6067 65.0127Z" fill="#FFBE9D"/>
<path d="M48.3298 68.7512C47.7998 67.8803 47.027 67.182 46.1055 66.7413C46.2558 66.7654 46.4006 66.816 46.5331 66.8907C47.1967 67.2104 47.7539 67.7136 48.138 68.3404C48.227 68.4643 48.292 68.6036 48.3298 68.7512Z" fill="#EB996E"/>
<path d="M49.0088 66.0077C48.989 66.0253 48.7222 65.81 48.3585 65.5882C48.2063 65.4922 48.0488 65.4049 47.8867 65.3268C47.7611 65.2697 47.6773 65.2543 47.6795 65.2367C47.6817 65.2192 47.7743 65.2104 47.9132 65.2521C48.092 65.3094 48.2625 65.3899 48.4202 65.4915C48.7928 65.7178 49.0375 65.9836 49.0088 66.0077Z" fill="#EB996E"/>
<path d="M49.6877 65.1774C49.4249 65.2079 49.1587 65.1779 48.9095 65.0896C48.7272 65.034 48.5578 64.9429 48.4112 64.8216C48.301 64.7271 48.2547 64.6503 48.2657 64.6393C48.4778 64.776 48.7049 64.888 48.9425 64.9732C49.1952 65.0247 49.4441 65.0929 49.6877 65.1774Z" fill="#EB996E"/>
<path d="M45.7637 69.856C45.6245 69.7105 45.5011 69.5507 45.3956 69.3793C45.1439 68.9736 44.8257 68.6127 44.4543 68.3118C44.0693 68.0312 43.5922 67.9057 43.1183 67.9604C42.9239 67.995 42.735 68.0548 42.5562 68.1383C42.5562 68.1383 42.5958 68.0922 42.6862 68.0373C42.815 67.9594 42.9569 67.9058 43.1051 67.8791C43.3519 67.8394 43.6041 67.849 43.8471 67.9075C44.0901 67.9659 44.319 68.072 44.5204 68.2196C44.904 68.5267 45.2244 68.9049 45.4639 69.3332C45.5784 69.4988 45.6787 69.6736 45.7637 69.856Z" fill="#EB996E"/>
<path d="M48.8522 78.752C48.3085 78.8672 47.7576 78.9457 47.2032 78.987C46.652 79.0666 46.0958 79.1077 45.5388 79.11C46.0833 78.9948 46.6349 78.9163 47.19 78.875C47.7407 78.7967 48.296 78.7556 48.8522 78.752Z" fill="#EB996E"/>
<path d="M83.5802 5.70215L83.8293 6.15463L84.2834 6.40284L83.8293 6.65105L83.5802 7.10353L83.3311 6.65105L82.877 6.40284L83.3311 6.15463L83.5802 5.70215Z" fill="#009344"/>
<path d="M88.7828 16.9418L89.0319 17.3943L89.4883 17.6425L89.0319 17.8907L88.7828 18.3432L88.5337 17.8907L88.0796 17.6425L88.5337 17.3943L88.7828 16.9418Z" fill="#009344"/>
<path d="M5.37903 46.9286L5.62814 47.3811L6.08227 47.6293L5.62814 47.8775L5.37903 48.33L5.12991 47.8775L4.67578 47.6293L5.12991 47.3811L5.37903 46.9286Z" fill="#009344"/>
<path d="M76.7527 8.49615L77.3259 9.5417L78.3774 10.115L77.3259 10.6883L76.7527 11.7338L76.1773 10.6883L75.1279 10.115L76.1773 9.5417L76.7527 8.49615Z" fill="#009344"/>
<path d="M10.0437 39.8032L10.6168 40.8487L11.664 41.4198L10.6168 41.9909L10.0437 43.0364L9.4705 41.9909L8.42114 41.4198L9.4705 40.8487L10.0437 39.8032Z" fill="#009344"/>
<path d="M90.1982 64.7271L90.7736 65.7726L91.8207 66.3437L90.7736 66.9148L90.1982 67.9581L89.625 66.9148L88.5779 66.3437L89.625 65.7726L90.1982 64.7271Z" fill="#009344"/>
</svg>
