<svg width="103" height="100" viewBox="0 0 103 100" fill="none" xmlns="http://www.w3.org/2000/svg">
<g clip-path="url(#clip0_29_640)">
<path d="M58.1343 99.5182C54.1127 97.591 52.5101 93.0093 51.9432 88.7416C51.8476 88.0331 51.647 87.2963 51.8756 86.6161C52.1042 85.9359 52.8087 85.3809 53.4852 85.5722C54.0474 85.7304 54.3763 86.302 54.7519 86.7531C55.2514 87.3616 55.9116 87.8138 56.6554 88.0567C57.1406 88.215 57.7168 88.2646 58.1157 87.9434C58.6615 87.5017 58.5822 86.6468 58.4703 85.943C58.2416 84.6377 58.0177 83.3325 57.7984 82.0273C57.6404 81.3308 57.5939 80.6131 57.6608 79.9017C57.7634 79.1932 58.139 78.4847 58.7688 78.1918C59.3987 77.899 60.2828 78.1375 60.5371 78.8035C60.6121 79.0899 60.6682 79.381 60.705 79.675C60.7727 79.9655 60.9616 80.2654 61.2486 80.3008C61.5355 80.3363 61.7851 80.0883 61.96 79.845C62.5572 79.0113 62.8931 78.0123 63.1964 77.0228C63.4997 76.0332 63.7842 75.0248 64.3068 74.1367C64.8293 73.2487 65.6271 72.4835 66.6139 72.2474C67.6006 72.0112 68.767 72.4599 69.1799 73.407C69.5928 74.354 69.1939 75.4617 68.7133 76.3733C67.9836 77.7232 67.0651 78.9593 65.9864 80.0434C65.7712 80.2169 65.616 80.4551 65.5431 80.7236C65.4708 81.2196 65.9887 81.6116 66.4762 81.6872C67.0221 81.7722 67.5773 81.621 68.1301 81.5927C68.683 81.5644 69.3105 81.7061 69.6044 82.1902C70.008 82.8609 69.5391 83.7183 69.0376 84.3158C68.0302 85.5062 66.8285 86.5127 65.4848 87.2915C65.0043 87.5679 64.4934 87.8276 64.1412 88.2622C63.7889 88.6968 63.6466 89.3722 63.9779 89.8257C64.3091 90.2791 64.9786 90.3287 65.4965 90.135C66.0143 89.9414 66.4459 89.5659 66.9241 89.2848C67.8199 88.7558 69.0656 88.6094 69.819 89.3415C70.054 89.5975 70.2271 89.9052 70.3247 90.2405C70.4223 90.5757 70.4416 90.9293 70.3812 91.2734C70.2572 91.9589 69.9977 92.6119 69.6184 93.1935C68.4103 95.2959 66.6733 97.0366 64.5844 98.2381C62.4966 99.3954 60.4764 99.9598 58.1367 99.5205" fill="#F5F5F5"/>
<path d="M58.7712 96.6699C59.0806 94.2394 59.5277 91.8288 60.1102 89.4502L60.5581 87.5773C60.7051 86.9609 60.852 86.3516 61.0247 85.7659C61.3735 84.6418 61.7831 83.538 62.2517 82.4595C62.6926 81.425 63.1475 80.4567 63.579 79.5569C64.0106 78.6571 64.4328 77.8258 64.848 77.0866C65.4962 75.9141 66.2357 74.7958 67.0595 73.7424C67.3511 73.3692 67.5867 73.0882 67.7476 72.8992C67.8246 72.8095 67.8876 72.7386 67.9319 72.6843C67.9762 72.63 67.9972 72.6135 67.9996 72.6158C67.9827 72.6431 67.964 72.6691 67.9436 72.6938L67.7663 72.9158C67.6123 73.1094 67.3837 73.3881 67.0991 73.7731C66.2934 74.8368 65.5674 75.9602 64.9273 77.1338C64.5191 77.8754 64.1039 78.7067 63.6747 79.6065C63.2454 80.5063 62.7976 81.4746 62.3613 82.5091C61.8968 83.5876 61.4918 84.6914 61.1483 85.8155C60.9687 86.3988 60.824 86.9963 60.6818 87.6198L60.2339 89.495C59.6526 91.8688 59.2032 94.2736 58.8879 96.6983" fill="#E0E0E0"/>
<path d="M61.0642 85.7565C61.0136 85.6646 60.9737 85.5671 60.9452 85.466C60.8752 85.2794 60.7843 84.9936 60.677 84.6606C60.4623 83.9757 60.1964 83.0192 59.9071 81.9659C59.6179 80.9126 59.3403 79.9608 59.114 79.283C59.002 78.9429 58.9087 78.6666 58.8434 78.48C58.8042 78.383 58.7738 78.2826 58.7524 78.1801C58.8087 78.2681 58.8549 78.3624 58.8901 78.4611C58.9717 78.643 59.0767 78.9145 59.2003 79.2499C59.4499 79.9254 59.7415 80.8724 60.0331 81.9305C60.3247 82.9885 60.5696 83.9143 60.7656 84.6323C60.8566 84.9582 60.9312 85.2322 60.9989 85.4518C61.0294 85.5512 61.0513 85.6532 61.0642 85.7565Z" fill="#E0E0E0"/>
<path d="M69.7304 82.5303C69.6177 82.5779 69.5004 82.6136 69.3805 82.6366C69.1472 82.6957 68.8276 82.7807 68.4264 82.8988C67.6216 83.1349 66.5229 83.4845 65.3262 83.9332C64.1295 84.3819 63.0634 84.8377 62.2936 85.1873C61.911 85.3597 61.6054 85.5085 61.3932 85.61C61.2865 85.6688 61.1749 85.7178 61.0596 85.7564C61.1561 85.6811 61.26 85.6162 61.3698 85.5628C61.5751 85.4471 61.876 85.2865 62.2539 85.0904C63.0074 84.7173 64.0711 84.2473 65.2702 83.7962C66.2935 83.4086 67.3361 83.0751 68.3937 82.7972C68.7996 82.6886 69.1309 82.6177 69.3618 82.5728C69.4831 82.5471 69.6065 82.5329 69.7304 82.5303Z" fill="#E0E0E0"/>
<path d="M58.8528 96.4881C58.8229 96.4571 58.7963 96.4231 58.7735 96.3865L58.5659 96.0866C58.3863 95.8221 58.1367 95.4371 57.8357 94.9553C57.2292 93.9917 56.4361 92.6337 55.58 91.1222C54.7239 89.6107 53.9471 88.248 53.3569 87.275L52.657 86.1201L52.4704 85.806C52.4458 85.7712 52.4261 85.733 52.4121 85.6926C52.4121 85.6926 52.4424 85.7233 52.4914 85.7918C52.5404 85.8603 52.6174 85.9713 52.699 86.0941C52.8787 86.3563 53.1283 86.7412 53.4315 87.2254C54.0357 88.189 54.8312 89.5446 55.6873 91.0561C56.5434 92.5676 57.3202 93.9303 57.9081 94.9057L58.6079 96.0582C58.6825 96.1834 58.7455 96.2944 58.7945 96.3723C58.8195 96.4077 58.8392 96.4468 58.8528 96.4881Z" fill="#E0E0E0"/>
<path d="M70.092 90.572C70.0592 90.601 70.0222 90.6249 69.9823 90.6428L69.6581 90.8176L68.4544 91.4529C67.4373 91.9914 66.0423 92.7495 64.5027 93.5784C62.9631 94.4074 61.5611 95.1655 60.5371 95.6804C60.0239 95.9378 59.604 96.1527 59.3147 96.2779L58.9648 96.4338C58.9264 96.4544 58.8857 96.4702 58.8435 96.481C58.8769 96.4527 58.9137 96.4288 58.9531 96.4101L59.2797 96.2354L60.4834 95.5977C61.4982 95.0616 62.8931 94.3035 64.4327 93.4722C65.9724 92.6408 67.3767 91.8874 68.3984 91.3726C68.9116 91.1152 69.3315 90.9002 69.6208 90.7751L69.9567 90.6192C69.9991 90.5965 70.0447 90.5806 70.092 90.572Z" fill="#E0E0E0"/>
<path d="M28.9655 48.8239C28.9655 48.8239 26.1942 49.2135 27.7502 55.3587C29.3061 61.5039 30.6264 64.6734 30.6264 64.6734C30.6264 64.6734 30.8341 66.0644 29.726 66.0219C28.618 65.9794 26.3575 65.0772 25.59 66.2793C24.7969 67.5358 25.4921 69.0473 27.223 70.632C28.9539 72.2167 32.6443 75.8278 32.9755 76.156C33.3068 76.4843 33.5494 77.1598 32.7889 77.2519C32.0284 77.344 26.6351 76.704 26.4905 79.3137C26.3459 81.9234 31.9048 85.5321 32.5043 85.9383C33.1038 86.3445 33.2041 86.661 33.0642 87.0152C32.9242 87.3695 31.1373 86.9798 29.5954 86.8594C28.0534 86.7389 26.2432 86.8783 26.2829 88.3898C26.3225 89.9013 29.2431 93.7272 37.7576 96.5708L41.791 97.6264L44.7699 94.6554C50.765 87.9032 51.4205 83.116 50.7137 81.784C50.0069 80.452 48.381 81.2432 47.0886 82.1217C45.7963 83.0003 44.4433 84.2473 44.154 84.0111C43.8648 83.775 43.7901 83.449 44.112 82.7948C44.434 82.1406 47.4875 76.2127 46.0785 74.0211C44.6696 71.8294 40.3027 75.0933 39.6028 75.3932C38.903 75.6931 38.7771 74.9799 38.903 74.5359C39.029 74.0919 40.452 69.104 41.1844 66.8485C41.9169 64.5931 41.777 62.9351 40.4706 62.2455C39.2109 61.5819 37.697 63.509 36.7546 64.1042C35.8121 64.6993 35.3129 63.3957 35.3129 63.3957C35.3129 63.3957 34.9024 59.983 33.2368 53.8661C31.5712 47.7493 28.9142 48.8451 28.9142 48.8451" fill="#EBEBEB"/>
<path d="M41.7887 98.642C40.5827 94.1547 38.5696 86.1249 36.8083 79.231C35.0471 72.3371 33.4468 66.1211 32.2618 61.6196C31.6693 59.3713 31.1887 57.5527 30.8622 56.2892C30.6989 55.6634 30.5706 55.1745 30.4819 54.8391L30.3839 54.4613C30.363 54.3762 30.356 54.3314 30.356 54.3314C30.356 54.3314 30.3723 54.3715 30.3979 54.4565C30.4236 54.5416 30.4586 54.6714 30.5053 54.832C30.6009 55.1674 30.7385 55.6516 30.9112 56.2751C31.2611 57.5291 31.7556 59.3453 32.3575 61.5937C33.5635 66.0809 35.1801 72.3182 36.9413 79.1979C38.7025 86.0776 40.6993 94.1146 41.8844 98.616" fill="#E0E0E0"/>
<path d="M28.7019 67.6822C28.7951 67.7211 28.8842 67.7693 28.9678 67.8263C29.1335 67.9254 29.3714 68.0766 29.6677 68.2655C30.2485 68.6458 31.0393 69.1913 31.9001 69.8077L34.0975 71.3948L34.767 71.8672C34.8515 71.9203 34.9297 71.9829 35.0003 72.0537C34.9062 72.0152 34.8163 71.967 34.7321 71.9097C34.5664 71.8105 34.3285 71.6593 34.0322 71.468C33.456 71.0831 32.6722 70.5233 31.8115 69.9093L29.6023 68.3387L28.9305 67.8664C28.848 67.8134 28.7714 67.7517 28.7019 67.6822Z" fill="#E0E0E0"/>
<path d="M35.3385 71.8577C35.3082 71.8388 36.3463 70.1408 37.655 68.0648C38.9636 65.9889 40.053 64.3215 40.0833 64.3404C40.1137 64.3593 39.0756 66.0597 37.7646 68.1357C36.4536 70.2116 35.3689 71.8719 35.3385 71.8577Z" fill="#E0E0E0"/>
<path d="M37.5732 82.5516C37.6378 82.4701 37.7123 82.3971 37.7949 82.3343L38.4224 81.777C38.9519 81.3046 39.682 80.6528 40.4612 79.9018C41.2403 79.1507 41.9261 78.4493 42.416 77.9368C42.6493 77.7006 42.8406 77.4904 42.9969 77.3298C43.0675 77.2507 43.1456 77.1787 43.2301 77.1149C43.1785 77.2052 43.1158 77.2885 43.0435 77.3629C42.9176 77.5164 42.7286 77.7337 42.4907 77.9982C42.0241 78.5296 41.343 79.2452 40.5592 79.9962C39.7754 80.7473 39.0382 81.3944 38.4923 81.8478C38.2171 82.084 37.9931 82.254 37.8345 82.3745C37.7541 82.4431 37.6665 82.5025 37.5732 82.5516Z" fill="#E0E0E0"/>
<path d="M30.75 80.1119C30.8442 80.1234 30.9366 80.1463 31.0253 80.1804L31.7647 80.4166C32.3853 80.6173 33.2414 80.9031 34.1838 81.2243C35.1262 81.5455 35.9777 81.8478 36.5912 82.0722L37.3167 82.3414C37.407 82.37 37.4939 82.4088 37.5756 82.4571C37.4814 82.4475 37.3888 82.4252 37.3003 82.391L36.5609 82.1548C35.9404 81.9541 35.0842 81.6683 34.1418 81.3448C33.1994 81.0212 32.3479 80.7213 31.7344 80.4993L31.0089 80.2277C30.9179 80.201 30.8308 80.1621 30.75 80.1119Z" fill="#E0E0E0"/>
<path d="M31.5386 89.8068C31.6586 89.8249 31.7766 89.855 31.8908 89.8965L32.8379 90.1894C33.6357 90.4421 34.7344 90.7987 35.9475 91.2025C37.1605 91.6064 38.2545 91.9748 39.0453 92.2511L39.9784 92.5818C40.0945 92.6194 40.2076 92.666 40.3167 92.7211C40.1959 92.7032 40.0771 92.6731 39.9621 92.6314L39.015 92.3385C38.2172 92.0858 37.1185 91.7292 35.9055 91.3254C34.6924 90.9215 33.5984 90.5507 32.8099 90.2767L31.8768 89.9437C31.7602 89.9085 31.647 89.8627 31.5386 89.8068Z" fill="#E0E0E0"/>
<path d="M40.1255 92.5913C40.2076 92.4892 40.299 92.3951 40.3984 92.3102L41.1706 91.5757C41.8214 90.9546 42.7172 90.0926 43.6806 89.1124C44.644 88.1323 45.4955 87.2231 46.1066 86.5618L46.8298 85.7777C46.9149 85.6776 47.0078 85.5844 47.1074 85.499C47.0394 85.6101 46.9613 85.7145 46.8741 85.8108C46.7155 86.0068 46.4776 86.2831 46.1743 86.6232C45.5794 87.3034 44.7397 88.2244 43.7716 89.2046C42.8035 90.1847 41.9054 91.0396 41.2335 91.6442C40.8976 91.9441 40.6247 92.1874 40.4311 92.3527C40.3359 92.4407 40.2337 92.5205 40.1255 92.5913Z" fill="#E0E0E0"/>
<path d="M16.9288 12.177L14.652 11.4685C14.652 11.4685 14.0548 13.4051 12.058 12.8123C11.6714 12.7045 11.3275 12.4778 11.0738 12.1634C10.8201 11.849 10.6692 11.4626 10.642 11.0576C10.6121 10.716 10.6632 10.3722 10.791 10.0546C10.9188 9.73711 11.1197 9.45506 11.3768 9.23194C11.9624 8.70764 12.9888 8.38881 14.4374 9.14692L16.04 3.95113L13.7889 3.24261L12.8558 6.28687C12.8558 6.28687 9.44066 6.11447 8.35593 9.6358C7.31786 13.006 10.0612 14.7324 11.3395 15.1362C12.3099 15.4433 15.7181 16.2557 16.9288 12.177Z" fill="#F5F5F5"/>
<path d="M14.0939 2.15883L16.3787 2.88062L17.0443 0.720794L14.7596 -0.000993921L14.0939 2.15883Z" fill="#F5F5F5"/>
<path d="M23.2107 6.31048L24.1228 6.07431C24.095 5.96944 24.0882 5.85997 24.103 5.75241C24.1178 5.64485 24.1538 5.5414 24.2088 5.44821C24.2639 5.35501 24.3369 5.27397 24.4235 5.20991C24.5101 5.14585 24.6086 5.10007 24.713 5.0753C24.865 5.02885 25.0274 5.03141 25.1779 5.08261C25.3284 5.13381 25.4594 5.23113 25.5528 5.36107C25.6321 5.46897 25.685 5.59432 25.7073 5.7269C25.7296 5.85948 25.7206 5.99552 25.6811 6.12391C25.5948 6.42385 25.3172 6.74976 24.6733 6.80408L25.2169 8.88476L26.1173 8.64859L25.8001 7.42994C26.1415 7.22143 26.4058 6.90499 26.5521 6.52941C26.6983 6.15384 26.7185 5.73997 26.6095 5.35162C26.2596 4.00072 24.9766 4.0078 24.4704 4.14242C24.0785 4.23453 22.7698 4.68562 23.2107 6.31048Z" fill="#EBEBEB"/>
<path d="M26.435 8.95205L25.5164 9.20135L25.7462 10.0696L26.6649 9.82029L26.435 8.95205Z" fill="#EBEBEB"/>
<path d="M98.5139 30.2135L99.4004 30.537C99.4376 30.4354 99.4945 30.3424 99.5677 30.2633C99.641 30.1843 99.7291 30.1209 99.8269 30.0769C99.9247 30.0329 100.03 30.0091 100.137 30.007C100.244 30.0049 100.351 30.0245 100.45 30.0647C100.599 30.1133 100.73 30.2075 100.825 30.3344C100.919 30.4612 100.972 30.6145 100.977 30.7732C100.983 30.9087 100.956 31.0435 100.901 31.1667C100.845 31.2898 100.761 31.3978 100.655 31.4817C100.422 31.6777 100.005 31.784 99.4447 31.4581L98.7192 33.4821L99.5963 33.8033L100.021 32.6224C100.419 32.6474 100.814 32.5394 101.146 32.315C101.478 32.0906 101.727 31.7622 101.857 31.3802C102.323 30.0671 101.271 29.3373 100.774 29.1554C100.394 29.0043 99.0644 28.624 98.5139 30.2135Z" fill="#EBEBEB"/>
<path d="M99.4652 34.2136L98.5747 33.8871L98.2736 34.7287L99.1641 35.0552L99.4652 34.2136Z" fill="#EBEBEB"/>
<path d="M4.43914 40.4917L6.30534 39.7596C6.30534 39.7596 5.69883 38.1654 7.32475 37.497C7.63593 37.3637 7.98029 37.3315 8.31036 37.4046C8.64043 37.4778 8.93994 37.6529 9.16762 37.9056C9.36132 38.1158 9.50327 38.3693 9.58191 38.6455C9.66055 38.9217 9.67366 39.2128 9.62017 39.4951C9.50353 40.1516 8.99033 40.9121 7.63967 41.1743L9.27259 45.4561L11.1388 44.7334L10.1824 42.2252C10.1824 42.2252 12.5151 40.5295 11.4211 37.6246C10.3597 34.8472 7.64434 35.1637 6.6016 35.5722C5.7968 35.8864 3.12814 37.1546 4.43914 40.4917Z" fill="#F5F5F5"/>
<path d="M11.4923 45.6049L9.60938 46.3394L10.287 48.12L12.1699 47.3856L11.4923 45.6049Z" fill="#F5F5F5"/>
<path d="M99.2443 47.6973L97.9146 48.2145C97.9146 48.2145 98.3438 49.3458 97.1915 49.8181C96.9708 49.9115 96.7271 49.9339 96.4935 49.8824C96.2598 49.8308 96.0474 49.7078 95.8851 49.53C95.7479 49.381 95.6474 49.2013 95.5919 49.0055C95.5363 48.8098 95.5273 48.6035 95.5655 48.4035C95.6495 47.9311 96.0134 47.4021 96.9652 47.2226L95.8221 44.1783L94.5065 44.6908L95.183 46.4692C94.7042 46.8401 94.359 47.3599 94.2005 47.9488C94.042 48.5376 94.079 49.1629 94.3059 49.7284C95.0547 51.6957 96.9722 51.4737 97.7187 51.1832C98.2832 50.9588 100.173 50.0614 99.2443 47.6973Z" fill="#F5F5F5"/>
<path d="M94.246 44.0739L95.5803 43.5534L95.1006 42.2928L93.7663 42.8133L94.246 44.0739Z" fill="#F5F5F5"/>
<path d="M103 99.9221C103 99.9575 79.9408 99.9835 51.5023 99.9835C23.0638 99.9835 0 99.9575 0 99.9221C0 99.8866 23.0545 99.8607 51.5023 99.8607C79.9501 99.8607 103 99.889 103 99.9221Z" fill="#263238"/>
<path d="M14.7919 93.7887C15.0251 92.9196 14.4489 92.0481 13.8191 91.427C13.1893 90.8059 12.4358 90.2343 12.1069 89.4006C11.575 88.0497 12.2888 86.3021 11.3837 85.1755C10.8495 84.5142 9.8931 84.2922 9.41955 83.5837C9.2006 83.1932 9.05581 82.7647 8.99266 82.3202C8.48931 80.0764 7.39917 78.011 5.83645 76.3403C5.73111 78.3389 6.15897 80.3294 7.07514 82.1029C7.44138 82.8114 7.89393 83.5011 8.00824 84.2922C8.20652 85.5747 7.49737 86.8901 7.80996 88.156C8.16687 89.5967 9.7648 90.5626 9.83944 92.0458C9.90476 93.2999 8.8247 94.4075 8.90635 95.6545C8.97176 96.1885 9.16297 96.6988 9.46387 97.1424C10.4203 98.7554 11.8293 99.8654 13.9614 99.83L16.5741 99.9221L14.7919 93.7887Z" fill="#009344"/>
<g opacity="0.3">
<path opacity="0.3" d="M14.7919 93.7887C15.0251 92.9196 14.4489 92.0481 13.8191 91.427C13.1893 90.8059 12.4358 90.2343 12.1069 89.4006C11.575 88.0497 12.2888 86.3021 11.3837 85.1755C10.8495 84.5142 9.8931 84.2922 9.41955 83.5837C9.2006 83.1932 9.05581 82.7647 8.99266 82.3202C8.48931 80.0764 7.39917 78.011 5.83645 76.3403C5.73111 78.3389 6.15897 80.3294 7.07514 82.1029C7.44138 82.8114 7.89393 83.5011 8.00824 84.2922C8.20652 85.5747 7.49737 86.8901 7.80996 88.156C8.16687 89.5967 9.7648 90.5626 9.83944 92.0458C9.90476 93.2999 8.8247 94.4075 8.90635 95.6545C8.97176 96.1885 9.16297 96.6988 9.46387 97.1424C10.4203 98.7554 11.8293 99.8654 13.9614 99.83L16.5741 99.9221L14.7919 93.7887Z" fill="black"/>
</g>
<path d="M17.1015 99.9765C17.3408 100.014 17.5846 100.009 17.8223 99.9623C18.1109 99.9179 18.3945 99.8451 18.6691 99.745C19.0484 99.6115 19.4031 99.4152 19.7188 99.164C19.9088 99.0094 20.0572 98.8087 20.1504 98.5807C20.2284 98.3251 20.2693 98.0594 20.2717 97.7919C20.2769 97.5059 20.298 97.2205 20.3347 96.9369C20.3838 96.6351 20.4917 96.3461 20.6519 96.0867C20.9599 95.5388 21.4731 95.0192 21.6363 94.2753C21.7996 93.5313 21.6877 92.7519 21.5664 91.9584C21.4451 91.1649 21.3331 90.3052 21.627 89.4739C21.9209 88.6426 22.4808 87.8986 22.7677 86.9681C23.0547 86.0376 22.9194 85.0126 22.98 84.0136C22.9979 83.5061 23.1136 83.0071 23.3206 82.5446C23.5305 82.0722 23.8245 81.6353 24.0531 81.1441C24.5196 80.1474 24.5989 79.0185 24.7249 77.9109C24.7879 77.3535 24.8485 76.7891 24.9115 76.2223C24.9512 75.6492 25.0489 75.0818 25.2031 74.5289C25.3801 73.9716 25.5888 73.4251 25.8283 72.8922C25.9516 72.6167 26.053 72.3316 26.1315 72.0397C26.1755 71.7375 26.2035 71.4332 26.2155 71.128C26.2433 70.517 26.2199 69.9047 26.1455 69.2977C26.0756 68.6884 25.9659 68.0838 25.9006 67.4721C25.9006 67.4343 25.9006 67.3989 25.9006 67.3658L25.8866 67.2454L25.7816 67.2973C25.2301 67.5839 24.7511 67.9952 24.382 68.4994C24.0199 68.9932 23.7286 69.5362 23.5165 70.1125C23.0803 71.2485 22.924 72.4388 22.7047 73.5748C22.4855 74.7108 22.2055 75.8279 21.6317 76.7725C21.3448 77.2449 20.9972 77.6747 20.6986 78.1329C20.3744 78.58 20.1528 79.0948 20.0501 79.6397C19.8938 80.7591 20.5026 81.7416 20.3767 82.7335C20.3198 83.2194 20.1607 83.6873 19.9101 84.1057C19.6768 84.5284 19.3946 84.9205 19.1286 85.3125C18.8591 85.6971 18.6249 86.1058 18.4288 86.5335C18.2443 86.9522 18.1353 87.4009 18.1069 87.8585C18.0439 88.7512 18.1676 89.5967 18.1069 90.3949C18.0341 91.1558 17.8145 91.8948 17.4607 92.5701C17.1458 93.2196 16.7936 93.8076 16.4996 94.3792C16.3527 94.6626 16.2151 94.9413 16.1031 95.2223C15.9971 95.4921 15.919 95.7723 15.8698 96.0584C15.7917 96.5579 15.7854 97.0662 15.8511 97.5675C15.9197 98.2666 16.1781 98.9328 16.5976 99.4923C16.6618 99.5769 16.7328 99.6559 16.8099 99.7285C16.8614 99.7832 16.9185 99.8323 16.9802 99.8749C17.0782 99.9481 17.1295 99.9812 17.1295 99.9812C16.943 99.832 16.7733 99.6625 16.6233 99.4758C16.2228 98.9143 15.9808 98.2529 15.9235 97.5628C15.8641 97.0678 15.8751 96.5667 15.9561 96.0749C16.0052 95.7957 16.0834 95.5226 16.1894 95.2601C16.3076 94.976 16.4407 94.6985 16.5883 94.4288C16.8845 93.862 17.2391 93.2762 17.561 92.622C17.9254 91.9362 18.1522 91.1841 18.2282 90.4091C18.2982 89.5943 18.1769 88.7441 18.2422 87.875C18.2723 87.4322 18.3788 86.9981 18.5571 86.5926C18.7544 86.1737 18.9886 85.7737 19.2569 85.3975C19.5229 85.0055 19.8051 84.6135 20.0477 84.1813C20.314 83.747 20.4843 83.2596 20.547 82.7524C20.6729 81.6967 20.0687 80.7095 20.225 79.668C20.3273 79.147 20.5415 78.6552 20.8525 78.2274C21.1488 77.7763 21.4987 77.3464 21.7856 76.8623C22.3805 75.8916 22.6674 74.7533 22.8844 73.6126C23.1013 72.4718 23.2623 71.291 23.6915 70.1763C23.8979 69.616 24.1814 69.0881 24.5336 68.6081C24.8887 68.1242 25.3493 67.7298 25.8796 67.4556L25.7606 67.3871C25.7606 67.4225 25.7606 67.4579 25.7723 67.4957C25.8376 68.1145 25.9473 68.7191 26.0056 69.3237C26.0792 69.9213 26.1019 70.5242 26.0732 71.1257C26.0614 71.4213 26.035 71.7161 25.9939 72.0089C25.9185 72.2914 25.8202 72.5671 25.7 72.8332C25.4593 73.3717 25.249 73.9237 25.0701 74.4864C24.9147 75.0479 24.8162 75.624 24.7762 76.2057C24.7156 76.7749 24.6526 77.3394 24.5919 77.8967C24.466 79.0091 24.3843 80.1191 23.9388 81.0803C23.7055 81.5527 23.4256 82.0038 23.2086 82.4855C22.9951 82.9654 22.8762 83.4829 22.8587 84.0089C22.8004 85.0291 22.931 86.0281 22.6581 86.9303C22.3852 87.8325 21.8183 88.5835 21.5314 89.4361C21.2444 90.2887 21.3494 91.1908 21.4754 91.982C21.6014 92.7732 21.7273 93.5526 21.5594 94.254C21.3914 94.9554 20.9109 95.4797 20.5983 96.0418C20.4335 96.3125 20.3233 96.6135 20.274 96.9275C20.2388 97.2143 20.2201 97.5029 20.218 97.7919C20.2184 98.0527 20.1807 98.3121 20.1061 98.5618C20.0197 98.7781 19.8809 98.969 19.7025 99.1168C19.3952 99.3676 19.0492 99.5655 18.6784 99.7025C18.4074 99.8083 18.127 99.8873 17.841 99.9387C17.6662 99.9708 17.4891 99.9882 17.3114 99.9906C17.1645 99.9765 17.1015 99.9765 17.1015 99.9765Z" fill="#263238"/>
<path d="M25.3546 68.8254C25.3421 68.8507 25.3335 68.8778 25.3289 68.9057L25.273 69.1418C25.2216 69.352 25.1587 69.6662 25.0607 70.0582C24.9627 70.4502 24.7224 70.8942 24.5195 71.4398C24.2818 72.054 24.0747 72.6798 23.899 73.315C23.6984 74.0235 23.5234 74.8029 23.3368 75.6437C23.1782 76.5392 22.8971 77.408 22.5017 78.225C22.287 78.6549 22.0351 79.0894 21.8555 79.5665C21.6671 80.0537 21.5409 80.5632 21.4799 81.0827C21.3472 82.1587 21.1588 83.2269 20.9154 84.2828C20.3929 86.4485 19.8937 88.5127 19.4388 90.3926C18.9839 92.2726 18.5547 93.9541 18.2001 95.3758C17.8455 96.7976 17.5772 97.9312 17.3813 98.7413C17.2903 99.1286 17.218 99.4333 17.1667 99.6577C17.1457 99.7545 17.127 99.8324 17.113 99.8938C17.1104 99.9213 17.1104 99.949 17.113 99.9765C17.1266 99.952 17.1368 99.9258 17.1433 99.8986C17.1597 99.8348 17.183 99.7592 17.211 99.6624C17.2693 99.4427 17.351 99.1381 17.4559 98.7531C17.6659 97.9501 17.9621 96.8094 18.3284 95.4042C18.6946 93.999 19.1215 92.2985 19.5997 90.4304C20.0779 88.5623 20.5631 86.484 21.0903 84.3159C21.3322 83.2572 21.516 82.1857 21.6409 81.1063C21.7005 80.5993 21.8227 80.1018 22.0048 79.6255C22.1891 79.1532 22.4247 78.7304 22.6393 78.2959C23.1058 77.4339 23.2901 76.5081 23.4744 75.6744C23.6587 74.8407 23.822 74.0519 24.0133 73.3481C24.2046 72.6443 24.4052 72.0161 24.6058 71.4729C24.8064 70.9297 25.028 70.4809 25.1237 70.0747C25.2193 69.6685 25.2636 69.3662 25.3056 69.1489C25.3212 69.0513 25.3352 68.9726 25.3476 68.9128C25.3546 68.8537 25.3593 68.8254 25.3546 68.8254Z" fill="#263238"/>
<path d="M17.5632 99.9882C19.2685 98.9609 19.7584 95.8434 19.0469 93.9682C18.3354 92.093 17.0897 90.3784 16.8984 88.378C16.7491 86.8405 17.2483 85.2629 16.8984 83.7608C16.4202 81.7321 14.4654 80.1616 14.4887 78.0762C14.5004 76.9071 15.1582 75.8066 15.1045 74.6375C15.0415 73.2063 13.9545 72.068 13.2827 70.8068C12.2516 68.8725 12.1839 66.5888 11.8317 64.4301C11.4794 62.2715 10.6653 59.9429 8.76647 58.8777C8.48654 60.7175 8.00832 61.9787 8.15762 64.4703C8.21361 65.3654 9.24001 67.0682 9.37998 69.0402C9.46396 70.2211 9.51994 71.3878 9.59226 72.5592C9.66457 73.7306 9.73456 74.8642 10.1381 75.9317C10.4484 76.7512 10.9452 77.4952 11.1762 78.3407C11.6077 79.9301 11.0386 81.6471 11.3885 83.2625C11.6847 84.6276 12.6178 85.8014 12.8091 87.1853C13.075 89.129 11.834 91.1507 12.4685 93.0046C12.7858 93.9257 13.5323 94.6578 13.7445 95.6143C13.9102 96.3512 13.7305 97.1329 13.8798 97.8721C14.1131 99.0672 16.3665 99.9977 17.5679 99.9197" fill="#009344"/>
<path d="M9.2331 60.6939C9.22992 60.7285 9.22992 60.7633 9.2331 60.7978C9.2331 60.8758 9.25643 60.975 9.27042 61.1001C9.31008 61.367 9.3544 61.7567 9.44305 62.2621C9.53169 62.7675 9.79762 63.339 10.0029 64.0287C10.2082 64.7183 10.4368 65.5071 10.6281 66.3904C10.8194 67.2737 10.9873 68.2585 11.1576 69.3142C11.3279 70.3699 11.5145 71.52 12.0324 72.6206C12.2657 73.1709 12.5409 73.7235 12.7322 74.3139C12.9282 74.9183 13.0489 75.5451 13.0915 76.1797C13.1868 77.5262 13.3543 78.8665 13.593 80.1946C14.1155 82.9201 14.6124 85.5156 15.065 87.8797C15.5175 90.2438 15.9724 92.3528 16.3363 94.1382C16.7002 95.9237 16.9988 97.3502 17.2064 98.3563L17.4397 99.5017C17.4677 99.6245 17.4887 99.7213 17.5073 99.7969C17.5137 99.8315 17.523 99.8655 17.5353 99.8985C17.5395 99.864 17.5395 99.8291 17.5353 99.7946C17.5213 99.7166 17.505 99.6198 17.484 99.4946C17.4327 99.2207 17.3604 98.8333 17.2694 98.3421C17.0735 97.3336 16.8029 95.893 16.4506 94.1146C16.0984 92.3362 15.6808 90.2036 15.2166 87.849C14.7524 85.4943 14.2835 82.8894 13.7586 80.1663C13.5197 78.8381 13.3515 77.4979 13.2548 76.1514C13.2104 75.5036 13.0857 74.8641 12.8838 74.2478C12.6762 73.6479 12.4033 73.0929 12.163 72.545C11.6498 71.461 11.4632 70.3297 11.2859 69.2788C11.1086 68.2278 10.9383 67.2406 10.7354 66.3526C10.5324 65.4646 10.3108 64.671 10.0822 63.9909C9.85361 63.3107 9.59934 62.7344 9.4967 62.2408C9.39406 61.7472 9.34507 61.3505 9.29609 61.0883C9.27276 60.9655 9.25409 60.8663 9.2401 60.7884C9.23961 60.7568 9.23727 60.7252 9.2331 60.6939Z" fill="#263238"/>
<path d="M91.4996 11.3575H90.5665C90.5672 11.4646 90.5466 11.5708 90.506 11.6698C90.4653 11.7687 90.4055 11.8584 90.33 11.9335C90.2545 12.0086 90.1649 12.0676 90.0665 12.107C89.9681 12.1464 89.8629 12.1654 89.7571 12.1628C89.6008 12.1685 89.4467 12.1247 89.3163 12.0375C89.1858 11.9503 89.0855 11.824 89.0293 11.6763C88.9801 11.5533 88.9604 11.4203 88.9718 11.2882C88.9831 11.156 89.0252 11.0284 89.0946 10.9159C89.2532 10.6513 89.5984 10.4128 90.2236 10.5238V8.39825H89.3069V9.64052C88.9307 9.75264 88.6012 9.98664 88.369 10.3066C88.1368 10.6266 88.0147 11.0148 88.0215 11.4118C88.0215 12.7863 89.2392 13.1052 89.7617 13.1052C90.1606 13.1146 91.5183 13.0178 91.4996 11.3575Z" fill="#009344"/>
<path d="M89.3 7.96606H90.2307V7.08514H89.3V7.96606Z" fill="#009344"/>
<path d="M96.5873 10.1011C96.5904 10.061 96.5904 10.0207 96.5873 9.98061C96.5873 9.89558 96.5873 9.77986 96.5873 9.63107C96.5873 9.5555 96.5873 9.46811 96.5756 9.37364C96.5639 9.27917 96.5499 9.17526 96.5336 9.06662C96.5173 8.95798 96.501 8.83045 96.4823 8.70528L96.3843 8.30378C96.211 7.61235 95.9274 6.95422 95.5445 6.35536C94.9886 5.46849 94.2392 4.72247 93.354 4.17467C92.4688 3.62686 91.4713 3.29185 90.4382 3.19538C90.1279 3.16764 89.8162 3.16133 89.5051 3.17649C89.3488 3.17649 89.1878 3.17649 89.0385 3.20719L88.558 3.2804C87.8986 3.40447 87.2606 3.62484 86.6638 3.9346C86.0407 4.26838 85.4681 4.69068 84.9632 5.18867C84.4463 5.71908 84.0142 6.32784 83.6825 6.99303C83.3257 7.6788 83.0919 8.42327 82.992 9.19179C82.9629 9.3865 82.9465 9.58295 82.9431 9.77986C82.9275 9.97704 82.9236 10.175 82.9314 10.3727C82.9821 11.6396 83.3733 12.8685 84.0628 13.927V13.8538C83.7385 14.6733 83.4189 15.4787 83.1063 16.2628L83.0504 16.4068L83.1973 16.3643L85.74 15.6558L85.6794 15.6417C86.5357 16.298 87.5333 16.7399 88.5906 16.9312C89.0811 17.0237 89.581 17.0546 90.0789 17.0233C90.319 17.0196 90.5585 16.9967 90.7951 16.9548L91.1426 16.9004C91.257 16.8792 91.3759 16.8438 91.4786 16.8178C93.0455 16.4158 94.4198 15.4622 95.3556 14.1278C95.7046 13.6362 95.9848 13.0982 96.1884 12.5289C96.2327 12.4037 96.2747 12.2927 96.3143 12.1699C96.354 12.0471 96.375 11.9337 96.4007 11.8275C96.4263 11.7212 96.4543 11.6126 96.4776 11.5134C96.501 11.4142 96.508 11.3173 96.522 11.2252C96.5429 11.0434 96.5756 10.8828 96.5826 10.7529C96.5896 10.623 96.5826 10.4978 96.5826 10.3986C96.5826 10.2994 96.5826 10.238 96.5826 10.1837C96.5826 10.1294 96.5826 10.1105 96.5826 10.1105C96.579 10.1348 96.579 10.1594 96.5826 10.1837C96.5826 10.238 96.5826 10.3089 96.5663 10.3986C96.5499 10.4884 96.5523 10.6135 96.5429 10.7505C96.5336 10.8875 96.4986 11.0481 96.4706 11.2229C96.2481 12.53 95.6555 13.7436 94.7648 14.7162C93.874 15.6889 92.7235 16.3788 91.4529 16.7021C91.3433 16.728 91.2336 16.7611 91.1217 16.7824L90.7787 16.8343C90.5474 16.8734 90.3134 16.8947 90.0789 16.8981C89.5901 16.9242 89.0999 16.8917 88.6186 16.8013C87.586 16.6089 86.6122 16.1745 85.775 15.533L85.747 15.5094H85.712L83.167 16.2179L83.2556 16.3195L84.2144 13.9129L84.2284 13.8751L84.2074 13.8397C83.748 13.136 83.4221 12.352 83.2463 11.5275C83.1658 11.145 83.1174 10.7563 83.1017 10.3656C83.0939 10.1726 83.0978 9.9794 83.1133 9.78694C83.1148 9.59474 83.1304 9.40291 83.16 9.21305C83.2495 8.46254 83.4699 7.73408 83.8108 7.06152C84.135 6.41144 84.5559 5.81563 85.0588 5.29495C85.5529 4.80606 86.1138 4.39166 86.7244 4.06449C87.3079 3.75724 87.9327 3.53842 88.579 3.41502L89.0455 3.34181C89.2018 3.31819 89.3581 3.32055 89.5121 3.30874C89.8161 3.2941 90.1208 3.29962 90.4242 3.32527C91.4403 3.41533 92.4228 3.73863 93.2971 4.27062C94.1714 4.80261 94.9145 5.5293 95.4699 6.39551C95.8548 6.98392 96.1432 7.63153 96.3237 8.31323L96.4286 8.71C96.4496 8.83517 96.4683 8.94617 96.487 9.06426C96.5056 9.18234 96.5196 9.27681 96.5359 9.37128C96.5523 9.46575 96.5476 9.55077 96.5546 9.62635C96.5546 9.77277 96.5733 9.8885 96.5803 9.97352C96.5758 10.0161 96.5782 10.0592 96.5873 10.1011Z" fill="#263238"/>
<path d="M27.0225 37.9529H40.4941C40.4941 37.9529 40.4941 26.5009 52.2488 26.2978C58.3536 26.1891 61.5191 30.2395 62.8068 33.3404C64.2998 36.9421 63.8472 41.0467 61.8457 44.3886C59.562 48.2027 54.6399 52.0358 45.5608 50.4157L45.4745 80.8039H58.7968V62.7887C58.7968 62.7887 77.4798 57.9 77.4798 37.046C77.4798 17.1012 61.5494 12.7935 52.9859 12.5148C48.2225 12.3613 46.4962 12.1534 40.6037 13.0013C33.0946 14.0877 26.8639 22.9158 27.0225 37.9529Z" fill="#009344"/>
<path d="M58.9578 87.1381H45.4373V99.9221H58.9578V87.1381Z" fill="#009344"/>
<path opacity="0.1" d="M58.9578 87.1381H45.4373V99.9221H58.9578V87.1381Z" fill="black"/>
<path opacity="0.1" d="M27.0225 37.9529H40.4941C40.4941 37.9529 40.4941 26.5009 52.2488 26.2978C58.3536 26.1891 61.5191 30.2395 62.8068 33.3404C64.2998 36.9421 63.8472 41.0467 61.8457 44.3886C59.562 48.2027 54.6399 52.0358 45.5608 50.4157L45.4745 80.8039H58.7968V62.7887C58.7968 62.7887 77.4798 57.9 77.4798 37.046C77.4798 17.1012 61.5494 12.7935 52.9859 12.5148C48.2225 12.3613 46.4962 12.1534 40.6037 13.0013C33.0946 14.0877 26.8639 22.9158 27.0225 37.9529Z" fill="black"/>
<path d="M21.4402 37.9529H34.9141C34.9141 37.9529 34.9141 26.5009 46.6688 26.2978C52.7736 26.1891 55.9391 30.2395 57.2245 33.3404C58.7198 36.9421 58.2672 41.0467 56.2657 44.3886C53.982 48.2027 48.9736 51.6698 39.8945 50.0567V80.8039H53.2168V62.7887C53.2168 62.7887 71.8998 57.9 71.8998 37.046C71.8998 17.1012 54.2316 12.4699 46.6711 12.4699C40.8883 12.477 21.1859 13.8917 21.4402 37.9529Z" fill="#009344"/>
<path opacity="0.3" d="M21.4402 37.9529H34.9141C34.9141 37.9529 34.9141 26.5009 46.6688 26.2978C52.7736 26.1891 55.9391 30.2395 57.2245 33.3404C58.7198 36.9421 58.2672 41.0467 56.2657 44.3886C53.982 48.2027 48.9736 51.6698 39.8945 50.0567V80.8039H53.2168V62.7887C53.2168 62.7887 71.8998 57.9 71.8998 37.046C71.8998 17.1012 54.2316 12.4699 46.6711 12.4699C40.8883 12.477 21.1859 13.8917 21.4402 37.9529Z" fill="black"/>
<path d="M53.3778 87.1381H39.8572V99.9221H53.3778V87.1381Z" fill="#009344"/>
<path opacity="0.3" d="M53.3778 87.1381H39.8572V99.9221H53.3778V87.1381Z" fill="black"/>
<path d="M48.1898 26.3592C48.123 26.365 48.0559 26.365 47.9892 26.3592C47.8562 26.3592 47.6649 26.3143 47.4153 26.3119C46.7096 26.2768 46.0022 26.3069 45.3018 26.4017C44.2633 26.5348 43.2414 26.7778 42.2529 27.1267C41.6702 27.3329 41.1027 27.5808 40.5547 27.8683C39.9623 28.168 39.4045 28.5331 38.8915 28.9571C38.3819 29.3848 37.9253 29.8733 37.5315 30.4119C37.1582 30.9098 36.8176 31.4321 36.5121 31.9753C36.0019 32.9005 35.5973 33.8814 35.306 34.8992C35.1086 35.586 34.9727 36.2895 34.9001 37.0011C34.8721 37.2514 34.8651 37.4498 34.8581 37.5821C34.8583 37.6502 34.852 37.7182 34.8395 37.7852C34.8335 37.7176 34.8335 37.6496 34.8395 37.5821C34.8395 37.4474 34.8395 37.2491 34.8605 36.9964C34.9141 36.2771 35.0384 35.5651 35.2314 34.8708C35.5119 33.8413 35.9112 32.8489 36.4211 31.9139C36.7273 31.3648 37.0694 30.8369 37.4452 30.3339C37.8423 29.7865 38.3045 29.2908 38.8215 28.8579C39.3407 28.4281 39.9056 28.0582 40.5057 27.755C41.0572 27.4621 41.6286 27.2095 42.2156 26.9992C43.2131 26.6516 44.2447 26.414 45.2925 26.2907C45.9975 26.203 46.7094 26.1864 47.4176 26.2411C47.6101 26.2535 47.8017 26.2772 47.9915 26.3119C48.0586 26.323 48.1249 26.3387 48.1898 26.3592Z" fill="#263238"/>
<path d="M68.4893 23.929C68.4893 23.929 68.473 23.9124 68.445 23.877C68.417 23.8416 68.375 23.7802 68.3284 23.7117L67.8828 23.074C67.7872 22.9371 67.6845 22.7788 67.5632 22.6159L67.1433 22.0986L66.6628 21.5011C66.4878 21.2933 66.2825 21.0926 66.0773 20.8729C65.872 20.6533 65.662 20.4195 65.4241 20.1951C65.1861 19.9707 64.9319 19.7417 64.6706 19.5055C64.54 19.3874 64.4117 19.2693 64.2717 19.1441L63.8378 18.797C63.5416 18.5608 63.2476 18.3246 62.928 18.0884C61.5351 17.0794 60.0575 16.1959 58.5122 15.448L57.2828 14.886L56.0628 14.4136C55.6639 14.2459 55.258 14.1278 54.8661 13.9956C54.4742 13.8633 54.0916 13.7287 53.6997 13.6366L52.5847 13.3414C52.2231 13.2446 51.8638 13.1855 51.5209 13.1052C51.178 13.0249 50.8468 12.9541 50.5225 12.9139L49.5894 12.7769C48.9992 12.6754 48.458 12.6541 47.9868 12.6069C47.7536 12.588 47.5203 12.562 47.3267 12.5526L46.7715 12.5384L46.0017 12.5124H45.801H45.7334C45.7558 12.5089 45.7786 12.5089 45.801 12.5124H46.0017H46.7715H47.329C47.5319 12.5124 47.7536 12.5408 47.9915 12.5573C48.458 12.5974 49.0086 12.614 49.5988 12.7108L50.5319 12.8383C50.8561 12.8761 51.1874 12.9611 51.5326 13.0249C51.8778 13.0887 52.2324 13.1548 52.6033 13.2611L53.723 13.5539C54.1103 13.6437 54.4929 13.7901 54.8894 13.9106C55.286 14.031 55.6896 14.1467 56.0884 14.3262L57.3155 14.7986L58.5518 15.363C60.1053 16.1126 61.5887 17.0026 62.984 18.0223C63.306 18.2585 63.5999 18.5112 63.8961 18.745L64.33 19.0638C64.47 19.1819 64.5983 19.3 64.7289 19.4275L65.4801 20.1361C65.7133 20.3722 65.9233 20.6084 66.1309 20.8233C66.3385 21.0382 66.5368 21.2484 66.7118 21.4586L67.1783 22.0609L67.5935 22.5852C67.7125 22.7505 67.8128 22.9111 67.9061 23.0575C68.0881 23.3338 68.2304 23.5511 68.3307 23.707L68.4403 23.8794C68.4587 23.8937 68.4752 23.9104 68.4893 23.929Z" fill="#263238"/>
<path d="M67.085 53.2143C67.0573 53.2654 67.0237 53.313 66.9847 53.356L66.6628 53.741C66.5299 53.9134 66.3619 54.1188 66.1543 54.3479C65.9467 54.577 65.7251 54.8462 65.4545 55.1249C65.1839 55.4036 64.8946 55.7154 64.5657 56.0295C64.2368 56.3436 63.8799 56.6742 63.4996 57.019C61.8319 58.4928 60.0036 59.7693 58.0503 60.8238C57.5978 61.0599 57.1709 61.2961 56.758 61.478C56.3451 61.6598 55.9602 61.8464 55.6056 61.9975C55.251 62.1487 54.9244 62.2739 54.6399 62.3849C54.3553 62.4959 54.1057 62.5856 53.9004 62.6517L53.4338 62.8052C53.3797 62.827 53.3234 62.8429 53.2659 62.8525C53.3162 62.8233 53.3693 62.7996 53.4245 62.7816L53.891 62.6069C54.094 62.5336 54.3389 62.4392 54.6212 62.3211C54.9035 62.203 55.23 62.0849 55.5799 61.9172C55.9299 61.7496 56.3171 61.5913 56.7207 61.3859C57.1242 61.1804 57.5558 60.9631 58.006 60.7246C58.8948 60.2286 59.8535 59.6476 60.8216 58.9769C61.7897 58.3062 62.6598 57.6 63.4343 56.934C63.8145 56.5939 64.1784 56.2751 64.5027 55.9539C64.8269 55.6327 65.1302 55.3422 65.3985 55.0635C65.6667 54.7848 65.9024 54.5274 66.1123 54.3007C66.3222 54.074 66.4949 53.8756 66.6348 53.7103L66.9614 53.3347C66.9993 53.2913 67.0407 53.251 67.085 53.2143Z" fill="#263238"/>
<path d="M52.9812 79.7317C52.9462 79.7317 52.9182 75.9388 52.9182 71.2602C52.9182 66.5817 52.9462 62.7864 52.9812 62.7864C53.0162 62.7864 53.0418 66.5793 53.0418 71.2602C53.0418 75.9412 53.0139 79.7317 52.9812 79.7317Z" fill="#263238"/>
<path d="M53.4945 99.0553C53.4595 99.0553 53.4338 96.3937 53.4338 93.1109C53.4338 89.8281 53.4595 87.1641 53.4945 87.1641C53.5295 87.1641 53.5551 89.8257 53.5551 93.1109C53.5551 96.396 53.5271 99.0553 53.4945 99.0553Z" fill="#263238"/>
<path d="M66.7562 36.1415C66.523 36.6138 67.3931 37.0011 67.8946 37.1547C68.4063 37.2818 68.9358 37.3186 69.4599 37.2633C70.1597 37.2255 70.8759 37.1594 71.48 36.8098C72.0092 36.478 72.4321 35.9981 72.6977 35.4282C72.9597 34.8602 73.1667 34.2678 73.3159 33.6593C73.3159 33.6593 67.8036 34.023 66.7562 36.1415Z" fill="#009344"/>
<g opacity="0.4">
<path opacity="0.4" d="M66.7562 36.1415C66.523 36.6138 67.3931 37.0011 67.8946 37.1547C68.4063 37.2818 68.9358 37.3186 69.4599 37.2633C70.1597 37.2255 70.8759 37.1594 71.48 36.8098C72.0092 36.478 72.4321 35.9981 72.6977 35.4282C72.9597 34.8602 73.1667 34.2678 73.3159 33.6593C73.3159 33.6593 67.8036 34.023 66.7562 36.1415Z" fill="black"/>
</g>
<path d="M82.3251 34.63C83.2338 35.2825 84.3229 35.628 85.437 35.6172C85.971 35.6473 86.4976 35.4794 86.9182 35.1448C87.0979 34.9771 87.2332 34.7646 87.4175 34.604C87.5434 34.4953 87.6904 34.4127 87.8094 34.297C87.8721 34.2422 87.9206 34.1726 87.9503 34.0943C87.98 34.016 87.9901 33.9314 87.9796 33.8482C87.9336 33.6431 87.8201 33.4599 87.6577 33.3287C87.0256 32.9649 86.2697 32.9791 85.5419 32.9956C84.8135 33.0276 84.094 33.1701 83.4075 33.4184C82.8429 33.6121 82.2527 33.8907 81.9658 34.4103" fill="#009344"/>
<g opacity="0.4">
<path opacity="0.4" d="M87.9796 33.8488C87.8972 33.6496 87.752 33.4836 87.5667 33.3765C86.9346 33.0128 86.2697 32.9797 85.5419 32.9962C84.8135 33.0282 84.094 33.1707 83.4075 33.419C82.8429 33.6127 82.2527 33.8913 81.9658 34.4109L82.3251 34.6306C83.2338 35.2831 84.3229 35.6286 85.437 35.6178C85.971 35.6479 86.4976 35.48 86.9182 35.1454C87.0979 34.9777 87.2332 34.7652 87.4175 34.6046C87.5434 34.4959 87.6904 34.4133 87.8094 34.2976C87.8721 34.2428 87.9206 34.1732 87.9503 34.0949C87.98 34.0166 87.9901 33.932 87.9796 33.8488Z" fill="black"/>
</g>
<path d="M71.5617 43.1062L83.1904 43.262C83.2141 43.262 83.2374 43.2563 83.2585 43.2455C83.2797 43.2347 83.298 43.219 83.312 43.1997C83.3261 43.1804 83.3355 43.1581 83.3395 43.1344C83.3435 43.1108 83.342 43.0866 83.335 43.0637L81.9704 38.7559C81.9704 38.7559 82.171 36.602 82.4486 34.0135C82.8708 30.0813 83.433 25.1382 83.44 25.1524C82.6446 22.8946 77.9511 22.512 77.9511 22.512L72.6021 22.8332L72.4155 22.5143L70.8758 23.2394C70.5401 23.3975 70.2171 23.5823 69.9101 23.792C68.893 24.4793 66.4436 26.0593 65.9958 27.8188C64.9623 31.8927 66.7119 36.439 66.7119 36.439L67.8363 35.5487C68.1195 35.3277 68.4172 35.1265 68.7274 34.9464L70.9808 41.0609C70.8467 41.1465 70.7332 41.2613 70.6484 41.397C70.5637 41.5326 70.5099 41.6857 70.4909 41.845C70.4723 42.341 70.7242 42.9361 71.5617 43.1062Z" fill="#009344"/>
<g opacity="0.3">
<path opacity="0.3" d="M76.5514 35.8982C76.92 33.8907 76.7264 31.8266 76.5281 29.7955C75.8842 31.4487 75.9076 33.3381 75.2241 34.9771C75.1403 35.1502 75.0791 35.3336 75.0421 35.5226C75.0243 35.6176 75.029 35.7155 75.0557 35.8083C75.0825 35.901 75.1306 35.9861 75.1961 36.0564C75.3827 36.2288 75.6626 36.1343 75.9099 36.106C76.1312 36.0632 76.3467 35.9935 76.5514 35.8982Z" fill="black"/>
</g>
<g opacity="0.4">
<path opacity="0.4" d="M72.2615 40.5461C73.1946 40.8743 74.1883 40.2626 75.1751 40.154C75.8282 40.0832 76.4814 40.2343 77.1299 40.3406C78.4413 40.5554 79.7753 40.5887 81.0956 40.4398C81.2981 40.4285 81.4964 40.3763 81.6788 40.2863C81.773 40.2212 81.8501 40.1339 81.9033 40.0318C81.9566 39.9297 81.9844 39.816 81.9843 39.7006C79.7869 39.4644 77.5918 39.3369 75.3943 39.1078C74.8474 39.0133 74.2872 39.0317 73.7474 39.1621C73.0849 39.3699 72.5811 39.8966 72.1145 40.4185" fill="black"/>
</g>
<path d="M87.6435 33.0736C86.6941 30.9079 83.3466 24.9186 83.3466 24.9186L80.7549 28.2085L81.3591 34.6678C81.3591 34.6678 82.7284 33.1208 86.5564 33.0901C86.8346 33.1014 87.1068 33.1755 87.353 33.3071C87.5993 33.4387 87.8133 33.6244 87.9794 33.8506L87.6435 33.0736Z" fill="#009344"/>
<path d="M72.082 31.9281C71.8971 31.4689 71.7504 30.9949 71.6434 30.5111C71.4986 30.0397 71.3924 29.5571 71.3262 29.0681C71.5084 29.528 71.6542 30.0018 71.7624 30.4851C71.9073 30.9565 72.0142 31.4391 72.082 31.9281Z" fill="#263238"/>
<path d="M80.5591 27.7715C80.6435 27.8319 80.7216 27.9008 80.7924 27.977C80.9984 28.1785 81.1917 28.3931 81.3709 28.6194C81.9741 29.3659 82.3981 30.2438 82.6096 31.1842C82.7194 31.7041 82.7438 32.2387 82.6819 32.7666C82.6236 33.2507 82.5326 33.6758 82.4719 34.0348C82.4113 34.3938 82.374 34.6867 82.3553 34.8898C82.3548 34.9953 82.3439 35.1005 82.3226 35.2039C82.3061 35.0985 82.3014 34.9915 82.3087 34.8851C82.3189 34.5956 82.3454 34.307 82.388 34.0207C82.437 33.6593 82.5186 33.2295 82.5723 32.7548C82.6262 32.2388 82.5986 31.7174 82.4906 31.2102C82.2817 30.2874 81.8765 29.4218 81.3032 28.6737C80.8763 28.0927 80.5404 27.7904 80.5591 27.7715Z" fill="#263238"/>
<path d="M78.1844 42.5866C78.1034 42.6232 78.0179 42.6486 77.9302 42.6622C77.8305 42.6888 77.7292 42.7086 77.6269 42.7212C77.5079 42.7378 77.3726 42.7637 77.221 42.7708C76.8656 42.8038 76.508 42.8038 76.1526 42.7708C75.7178 42.7256 75.2882 42.6386 74.8696 42.511C74.4531 42.3755 74.0501 42.2008 73.6659 41.9891C73.3544 41.8131 73.0586 41.61 72.7818 41.3821C72.6605 41.2877 72.5625 41.1885 72.4739 41.1058C72.3974 41.0361 72.325 40.962 72.2569 40.8838C72.1921 40.823 72.1363 40.753 72.0913 40.676C72.1076 40.6594 72.3572 40.9429 72.8355 41.3136C73.1148 41.5288 73.4104 41.7215 73.7196 41.8899C74.0995 42.092 74.496 42.2603 74.9046 42.393C75.316 42.5184 75.7375 42.6069 76.1643 42.6575C76.5129 42.6954 76.8638 42.7065 77.214 42.6905C77.8135 42.6575 78.1798 42.5677 78.1844 42.5866Z" fill="#263238"/>
<path d="M81.7744 41.2451C81.8293 41.3519 81.8603 41.4696 81.8654 41.5899C81.9026 41.8778 81.8811 42.1704 81.8024 42.4496C81.7222 42.7352 81.5598 42.9901 81.3358 43.1817C81.1655 43.3258 81.0349 43.3707 81.0279 43.3589C81.0209 43.347 81.1305 43.2691 81.2775 43.1227C81.4662 42.9235 81.6032 42.6801 81.6764 42.4142C81.863 41.7907 81.7301 41.2475 81.7744 41.2451Z" fill="#263238"/>
<path d="M81.1422 42.0765C81.1928 42.3194 81.1725 42.5719 81.0839 42.8034C80.9953 43.0349 80.8421 43.2353 80.643 43.3801C80.6173 43.3542 80.8342 43.1204 80.9695 42.759C81.1048 42.3977 81.1072 42.0788 81.1422 42.0765Z" fill="#263238"/>
<path d="M79.0615 34.3064C78.9379 34.518 78.7991 34.72 78.6463 34.911C78.5257 35.1243 78.3892 35.328 78.238 35.5203C78.2828 35.2711 78.3887 35.0372 78.546 34.8401C78.6703 34.6208 78.8477 34.4371 79.0615 34.3064Z" fill="#263238"/>
<path d="M71.0788 28.5863C70.9011 28.4806 70.729 28.3655 70.5633 28.2415C69.7337 27.6897 68.7921 27.3337 67.8083 27.2C67.6024 27.1848 67.3975 27.1572 67.1948 27.1173C67.4015 27.0884 67.611 27.0884 67.8177 27.1173C68.8283 27.2046 69.7962 27.5696 70.6169 28.173C70.7891 28.2884 70.9445 28.4275 71.0788 28.5863Z" fill="#263238"/>
<path d="M83.3466 24.8406C82.9291 25.181 82.5391 25.5546 82.1802 25.9577C81.8498 26.388 81.5542 26.8445 81.2961 27.3228C81.3238 27.162 81.3782 27.007 81.4571 26.8646C81.626 26.5105 81.8375 26.1789 82.0869 25.8774C82.3371 25.5766 82.624 25.3091 82.9407 25.0815C83.0613 24.9782 83.1986 24.8967 83.3466 24.8406Z" fill="#263238"/>
<path d="M78.546 22.8945C78.5672 22.9286 78.5845 22.9651 78.5973 23.0032C78.6428 23.1101 78.6795 23.2207 78.707 23.3338C78.8053 23.7547 78.8053 24.193 78.707 24.6139C78.5618 25.2422 78.2296 25.8102 77.7552 26.2411C77.1565 26.7546 76.3937 27.0299 75.6091 27.0157C74.8239 27.0185 74.0588 26.7641 73.428 26.2907C72.9254 25.9022 72.5176 25.402 72.236 24.8288C72.0463 24.445 71.9127 24.0352 71.8394 23.6125C71.818 23.4986 71.804 23.3834 71.7974 23.2677C71.7908 23.227 71.7908 23.1855 71.7974 23.1449C71.7974 23.1449 71.8231 23.3102 71.8884 23.603C71.9791 24.0139 72.1226 24.4109 72.3153 24.7839C72.5998 25.3399 73.004 25.8241 73.498 26.2009C74.1058 26.6567 74.8411 26.9048 75.5974 26.9095C76.3536 26.9235 77.0896 26.662 77.6712 26.1726C78.1295 25.7575 78.4545 25.2129 78.6043 24.6091C78.7081 24.2016 78.7225 23.7759 78.6463 23.3622C78.602 23.0504 78.532 22.8993 78.546 22.8945Z" fill="#263238"/>
<g opacity="0.3">
<path opacity="0.3" d="M79.3624 34.7244C79.3624 34.6063 79.3438 34.467 79.2411 34.408C79.2086 34.3913 79.1726 34.3827 79.1361 34.3827C79.0997 34.3827 79.0637 34.3913 79.0312 34.408C78.9659 34.4437 78.9081 34.4918 78.8609 34.5497C78.5866 34.8386 78.3745 35.182 78.238 35.5581L79.3811 35.4566C79.3741 35.218 79.3694 34.9677 79.3624 34.7244Z" fill="black"/>
</g>
<g opacity="0.3">
<path opacity="0.3" d="M83.1579 32.2895C83.043 31.6273 82.7564 31.0078 82.3274 30.4946C82.8219 32.1289 82.6563 33.0523 82.3787 34.1718L82.4394 34.0159C82.759 33.3617 83.2442 32.9508 83.1579 32.2895Z" fill="black"/>
</g>
<path d="M80.8739 87.19L80.1764 97.7823L75.6275 97.728L74.9114 86.7153L80.8739 87.19Z" fill="#FFBE9D"/>
<path d="M80.3047 96.389V96.696C80.3047 96.696 85.4367 98.7837 85.4857 99.7662L75.2939 99.7095L75.4526 96.278C76.9712 96.9983 78.5598 97.088 80.3047 96.389Z" fill="#009344"/>
<path d="M76.486 97.3785C76.3892 97.4081 76.3065 97.4724 76.2532 97.5594C76.2 97.6463 76.1799 97.75 76.1967 97.8509C76.2217 97.9516 76.2842 98.0387 76.3712 98.0937C76.4582 98.1488 76.5629 98.1675 76.6633 98.1461C76.7671 98.1147 76.8556 98.0453 76.9117 97.9514C76.9677 97.8576 76.9873 97.746 76.9665 97.6383C76.9296 97.5363 76.8548 97.4529 76.7582 97.4057C76.6615 97.3585 76.5505 97.3513 76.4487 97.3856" fill="white"/>
<path d="M75.2939 99.7096L75.3313 98.8853L85.0915 99.2443C85.0915 99.2443 85.544 99.4474 85.4904 99.7686L75.2939 99.7096Z" fill="#263238"/>
<path d="M80.342 96.7243C80.342 96.7739 80.0901 96.7952 79.8451 96.9605C79.6002 97.1258 79.4672 97.3313 79.4229 97.3124C79.3786 97.2935 79.4532 97.0006 79.7541 96.8117C80.0551 96.6228 80.3537 96.67 80.342 96.7243Z" fill="#263238"/>
<path d="M81.408 97.1778C81.4197 97.2274 81.2027 97.31 81.0324 97.5226C80.8622 97.7351 80.8132 97.9595 80.7618 97.9571C80.7105 97.9548 80.6825 97.669 80.8995 97.4116C81.1164 97.1541 81.4057 97.1423 81.408 97.1778Z" fill="#263238"/>
<path d="M82.0076 98.4768C81.961 98.4768 81.8933 98.2406 82.024 97.9595C82.1546 97.6785 82.3855 97.5769 82.4065 97.6171C82.4275 97.6572 82.2829 97.806 82.1733 98.0351C82.0636 98.2642 82.059 98.472 82.0076 98.4768Z" fill="#263238"/>
<path d="M80.0434 9.72322C80.307 9.06194 79.9875 8.26131 79.4206 7.83384C78.8232 7.43569 78.0947 7.29226 77.3934 7.43471C76.7016 7.58157 76.0318 7.81978 75.4013 8.14323C75.1081 7.84385 74.7384 7.63287 74.3337 7.53385C73.9289 7.43483 73.5049 7.45167 73.109 7.5825C72.7131 7.71332 72.361 7.95296 72.0918 8.27468C71.8227 8.5964 71.6472 8.98753 71.5849 9.40439C71.3327 9.34011 71.0679 9.34658 70.8191 9.4231C70.5702 9.49962 70.3466 9.64329 70.1723 9.83871C69.998 10.0341 69.8795 10.2739 69.8296 10.5323C69.7797 10.7908 69.8002 11.0581 69.889 11.3056L73.0429 12.4274L76.486 18.5679C76.9949 19.0074 77.6443 19.2445 78.3131 19.2349C78.9819 19.2253 79.6245 18.9697 80.1208 18.5157C80.6172 18.0618 80.9335 17.4405 81.0107 16.7678C81.0878 16.0952 80.9207 15.417 80.5403 14.86C80.7332 14.6863 80.8971 14.4821 81.0255 14.2554C81.3007 14.0906 81.5407 13.8722 81.7318 13.6127C81.9228 13.3532 82.0609 13.0579 82.1382 12.7439C82.4438 11.3764 81.3988 9.88382 80.0434 9.72322Z" fill="#263238"/>
<path d="M77.9556 22.512C77.7597 21.513 77.6244 20.8281 77.6267 20.8352C77.629 20.8422 79.4929 20.103 79.3576 17.4744C79.2923 16.166 78.8001 14.1043 78.3429 12.4322C77.9323 10.9254 76.5443 9.26509 75.077 9.74452L70.6285 11.9409C70.1829 12.0873 70.1059 12.5125 70.2109 12.973V13.2092L71.9395 20.4502L72.6696 23.6858C72.8253 24.3501 73.2209 24.9315 73.7788 25.3152C74.3366 25.699 75.0161 25.8575 75.6835 25.7594C76.048 25.7075 76.3982 25.5807 76.7126 25.3868C77.0269 25.1929 77.2989 24.9361 77.5116 24.632C77.7244 24.3279 77.8735 23.983 77.9499 23.6184C78.0262 23.2538 78.0282 22.8773 77.9556 22.512Z" fill="#FFBE9D"/>
<path d="M78.3265 14.1799C78.3452 14.2637 78.3315 14.3515 78.2881 14.4254C78.2447 14.4992 78.1749 14.5533 78.0933 14.5766C78.052 14.5883 78.0089 14.5914 77.9665 14.5857C77.9241 14.58 77.8832 14.5658 77.8464 14.5437C77.8095 14.5216 77.7775 14.4922 77.7522 14.4573C77.7268 14.4224 77.7088 14.3826 77.699 14.3404C77.6804 14.257 77.6942 14.1694 77.7376 14.096C77.7811 14.0225 77.8508 13.9688 77.9323 13.946C77.9734 13.934 78.0164 13.9306 78.0588 13.9359C78.1012 13.9413 78.1421 13.9553 78.179 13.9772C78.2159 13.9991 78.248 14.0283 78.2734 14.0632C78.2987 14.098 78.3168 14.1377 78.3265 14.1799Z" fill="#263238"/>
<path d="M78.1236 13.6768C78.0909 13.7287 77.8087 13.5989 77.4634 13.6768C77.1182 13.7547 76.8989 13.9815 76.8522 13.946C76.8056 13.9106 76.8522 13.8445 76.9479 13.7406C77.0762 13.6033 77.2432 13.5093 77.4261 13.4713C77.6066 13.4319 77.7947 13.4526 77.9626 13.5304C78.0933 13.5847 78.1376 13.6555 78.1236 13.6768Z" fill="#263238"/>
<path d="M74.9394 14.9545C74.958 15.038 74.9442 15.1255 74.9007 15.1989C74.8573 15.2724 74.7876 15.3261 74.7061 15.3489C74.6658 15.3607 74.6236 15.3644 74.5819 15.3596C74.5402 15.3549 74.4999 15.3418 74.4632 15.3212C74.4266 15.3005 74.3943 15.2727 74.3683 15.2394C74.3423 15.206 74.3232 15.1678 74.3119 15.1269C74.2932 15.0431 74.3069 14.9552 74.3503 14.8814C74.3937 14.8075 74.4635 14.7534 74.5451 14.7301C74.5856 14.7183 74.6279 14.7147 74.6697 14.7196C74.7116 14.7245 74.752 14.7378 74.7887 14.7587C74.8254 14.7796 74.8576 14.8076 74.8835 14.8412C74.9093 14.8748 74.9283 14.9133 74.9394 14.9545Z" fill="#263238"/>
<path d="M74.7691 14.5105C74.7388 14.5624 74.4542 14.4302 74.1089 14.5105C73.7637 14.5908 73.5444 14.8128 73.4978 14.7797C73.4511 14.7466 73.4978 14.6782 73.5934 14.5719C73.7223 14.4358 73.8891 14.3427 74.0716 14.305C74.2519 14.2662 74.4397 14.286 74.6081 14.3617C74.7318 14.4184 74.7854 14.4821 74.7691 14.5105Z" fill="#263238"/>
<path d="M76.5257 16.7305C76.6967 16.635 76.8784 16.5605 77.0669 16.5085C77.1532 16.4802 77.2348 16.4447 77.2372 16.381C77.2249 16.287 77.1851 16.199 77.1229 16.1283L76.7193 15.5C76.1548 14.605 75.7256 13.8634 75.7605 13.8468C75.7955 13.8303 76.2831 14.5317 76.8476 15.4268L77.2418 16.0598C77.3193 16.1566 77.3613 16.2776 77.3608 16.4022C77.3538 16.4362 77.3396 16.4682 77.319 16.496C77.2984 16.5237 77.2721 16.5465 77.2418 16.5628C77.1962 16.5873 77.1476 16.6055 77.0972 16.6171C76.9127 16.6811 76.7204 16.7192 76.5257 16.7305Z" fill="#263238"/>
<path d="M77.6266 20.8352C76.4467 21.1052 75.216 21.0381 74.0715 20.6415C74.0715 20.6415 75.2939 22.257 77.7596 21.4847L77.6266 20.8352Z" fill="#EB996E"/>
<path d="M74.8274 14.0098C74.804 14.1113 74.4471 14.109 74.0412 14.2105C73.6353 14.3121 73.3134 14.4656 73.2481 14.3853C73.2201 14.3475 73.2668 14.2483 73.3904 14.1491C73.5547 14.009 73.7499 13.911 73.9596 13.8634C74.1674 13.8134 74.3839 13.8134 74.5917 13.8634C74.7574 13.8941 74.8437 13.9626 74.8274 14.0098Z" fill="#263238"/>
<path d="M77.9905 12.562C77.9345 12.6565 77.6359 12.6329 77.2907 12.7014C76.9454 12.7699 76.6725 12.888 76.5908 12.8195C76.5535 12.784 76.5908 12.6943 76.6912 12.5833C76.8452 12.4521 77.0314 12.3656 77.23 12.333C77.4254 12.2931 77.6278 12.3078 77.8155 12.3755C77.9578 12.4416 78.0138 12.5148 77.9905 12.562Z" fill="#263238"/>
<path d="M71.7272 10.2499C71.7788 10.5058 71.8855 10.7469 72.0395 10.9564C72.1936 11.1658 72.3913 11.3383 72.6187 11.4616C72.846 11.5849 73.0974 11.656 73.355 11.6699C73.6125 11.6837 73.87 11.64 74.1089 11.5418C74.4775 11.3906 74.8601 11.1072 75.2333 11.2442C75.6066 11.3812 75.7605 11.9196 76.1174 12.1204C76.6423 12.418 77.2838 11.9031 77.8693 11.9551C78.3359 11.9952 78.6881 12.3566 79.0497 12.6636C79.4113 12.9706 79.9105 13.2021 80.3187 12.9801C80.2252 12.5857 80.0867 12.2036 79.9058 11.8417C79.7234 11.4774 79.4216 11.1885 79.052 11.0246C78.8467 10.9419 78.6251 10.9136 78.4292 10.812C78.007 10.5947 77.818 10.1035 77.5124 9.73269C77.3117 9.49903 77.0589 9.31716 76.7749 9.20216C76.4909 9.08716 76.184 9.04234 75.8795 9.07141C75.3756 9.12337 74.8974 9.3808 74.3889 9.35954C74.0133 9.34301 73.654 9.17297 73.2785 9.18005C72.5483 9.18005 72.0001 9.84133 71.5942 10.4577" fill="#263238"/>
<path d="M74.1859 10.7907C73.85 10.7648 73.1641 10.6939 72.9379 10.453C72.708 10.1927 72.4146 9.9981 72.0871 9.88867C71.7596 9.77925 71.4094 9.75885 71.0717 9.82951C70.7365 9.93067 70.4423 10.1381 70.2323 10.4213C70.0223 10.7044 69.9077 11.0483 69.9053 11.4024C69.4971 11.5033 69.1235 11.7138 68.8237 12.0119C68.524 12.3099 68.3093 12.6844 68.2024 13.0958C68.0938 13.5264 68.0902 13.9773 68.1917 14.4096C68.2933 14.842 68.4971 15.2429 68.7856 15.5779C68.9257 15.7553 69.0535 15.9424 69.1681 16.1377C69.01 16.3363 68.8709 16.5499 68.7529 16.7753C68.2187 17.9704 69.6674 18.4285 69.6674 18.4285C69.6674 19.2315 70.4022 19.2268 70.8711 19.2244C71.3399 19.2221 71.5989 20.4903 71.9651 20.4407L71.5942 16.5274C71.6485 16.5487 71.7062 16.5599 71.7645 16.5604C72.6486 16.5769 72.4177 14.8812 72.1331 14.4349C72.3965 14.1029 72.6189 13.7397 72.7956 13.3532C72.9557 12.7624 72.9669 12.1404 72.8282 11.5441C73.1245 11.5063 74.3305 10.8002 74.1859 10.7907Z" fill="#263238"/>
<path d="M71.711 16.7352C71.6809 16.6108 71.6201 16.4962 71.5344 16.4021C71.4487 16.3079 71.3409 16.2373 71.2209 16.1967C71.101 16.1561 70.9728 16.147 70.8485 16.1701C70.7241 16.1933 70.6075 16.2479 70.5096 16.329C70.2763 16.5321 70.1527 16.8722 70.2927 17.4413C70.6706 18.9623 72.1005 18.2656 72.0912 18.2231C72.0819 18.1806 71.8743 17.3634 71.711 16.7352Z" fill="#FFBE9D"/>
<path d="M71.4895 17.7625C71.4895 17.7625 71.4685 17.7885 71.4288 17.8192C71.3737 17.862 71.3043 17.8815 71.2352 17.8735C71.0626 17.8546 70.8643 17.6374 70.7896 17.361C70.7541 17.2319 70.7469 17.0965 70.7686 16.9643C70.771 16.9129 70.7856 16.8629 70.8112 16.8185C70.8368 16.7741 70.8726 16.7366 70.9156 16.7092C70.9439 16.6937 70.9767 16.6888 71.0082 16.6953C71.0398 16.7018 71.0681 16.7192 71.0882 16.7446C71.1186 16.7801 71.1162 16.8131 71.1256 16.8155C71.1349 16.8178 71.1512 16.7801 71.1256 16.721C71.1077 16.686 71.079 16.6578 71.0439 16.6407C70.9945 16.6205 70.9393 16.6205 70.8899 16.6407C70.8314 16.6689 70.7807 16.7116 70.7428 16.7648C70.7049 16.8181 70.6809 16.8802 70.673 16.9454C70.6427 17.0941 70.6483 17.248 70.6893 17.3941C70.7154 17.5312 70.7808 17.6575 70.8775 17.7571C70.9742 17.8567 71.0979 17.9251 71.2329 17.9538C71.2768 17.9556 71.3205 17.9474 71.3609 17.9299C71.4013 17.9123 71.4372 17.8858 71.4661 17.8523C71.4965 17.8003 71.4965 17.7649 71.4895 17.7625Z" fill="#EB996E"/>
<path d="M79.7658 14.612C79.7658 14.612 79.9034 14.5057 80.0947 14.2696C80.3586 13.9293 80.5206 13.5194 80.5612 13.0887C80.5921 12.7947 80.5636 12.4973 80.4773 12.2149C80.3776 11.8908 80.193 11.6002 79.943 11.3741C79.6545 11.1189 79.3051 10.9446 78.9294 10.8684C78.5538 10.7922 78.165 10.8167 77.8016 10.9395C77.7316 10.9631 77.6663 10.9986 77.601 11.0269C77.5357 11.0553 77.4773 11.0978 77.4167 11.1332L77.3234 11.1851V11.0812C77.3214 10.8983 77.2543 10.7222 77.1344 10.5853C77.0117 10.4524 76.861 10.3491 76.6935 10.283C76.3767 10.1493 76.0257 10.1228 75.6928 10.2074C75.049 10.3562 74.5031 10.6538 73.9876 10.7152C73.5833 10.7863 73.1673 10.7021 72.8212 10.479C72.7298 10.4154 72.6508 10.3353 72.5879 10.2428C72.5506 10.1791 72.5319 10.1436 72.5366 10.1413C72.6211 10.2579 72.7244 10.3593 72.8422 10.4412C73.1827 10.6402 73.5828 10.7082 73.9689 10.6325C74.2375 10.5813 74.5002 10.5022 74.7527 10.3963C75.0492 10.2763 75.3531 10.1762 75.6625 10.0964C75.8349 10.0541 76.0123 10.0359 76.1897 10.0421C76.3768 10.0521 76.5608 10.0952 76.7332 10.1696C76.9116 10.2468 77.0709 10.3629 77.1997 10.5097C77.3377 10.6696 77.4154 10.8737 77.419 11.086L77.3257 11.034L77.5193 10.9206C77.5916 10.8923 77.6593 10.8545 77.7339 10.8285C78.1169 10.6957 78.5278 10.668 78.9248 10.748C79.3219 10.8281 79.6909 11.0131 79.9944 11.2843C80.2567 11.5248 80.4488 11.8336 80.5496 12.1771C80.6543 12.5411 80.6684 12.9257 80.5906 13.2965C80.5129 13.6674 80.3457 14.013 80.104 14.3026C80.0272 14.3914 79.9403 14.4707 79.8451 14.5388C79.8217 14.5664 79.795 14.5909 79.7658 14.612Z" fill="#455A64"/>
<path d="M79.4625 9.27215C79.3094 9.19344 79.146 9.13699 78.9773 9.10447C78.7844 9.07778 78.5881 9.09636 78.4034 9.15879C78.1643 9.23285 77.9565 9.38583 77.8133 9.59335L77.7549 9.67601L77.7199 9.58154C77.5982 9.29122 77.4021 9.03903 77.152 8.85098C76.9018 8.66292 76.6067 8.5458 76.297 8.51168C75.8105 8.49315 75.3311 8.63395 74.93 8.91317C74.5882 9.13871 74.2248 9.32862 73.8453 9.47998C73.5836 9.58019 73.3017 9.61424 73.0241 9.57917C72.9501 9.56534 72.8775 9.54479 72.8072 9.51777C72.7605 9.49652 72.7349 9.48471 72.7372 9.47998C72.7395 9.47526 72.8422 9.51069 73.0311 9.52958C73.2995 9.54655 73.5682 9.50216 73.8173 9.39969C74.1861 9.23685 74.5398 9.04083 74.874 8.81398C75.0804 8.68419 75.2993 8.57579 75.5272 8.49042C75.7777 8.39793 76.0455 8.36324 76.311 8.38887C76.6418 8.42544 76.9567 8.55216 77.222 8.75552C77.4874 8.95889 77.6933 9.23129 77.8179 9.54375H77.7269C77.8873 9.32181 78.1164 9.16053 78.3778 9.08558C78.5764 9.02729 78.7857 9.01677 78.989 9.05487C79.1177 9.07962 79.2409 9.12762 79.3529 9.19658C79.3928 9.21635 79.4297 9.2418 79.4625 9.27215Z" fill="#455A64"/>
<path d="M76.3904 17.4295C76.3359 17.3834 76.2724 17.3495 76.2041 17.3299C76.1358 17.3104 76.0641 17.3057 75.9938 17.3162C75.9117 17.3339 75.8341 17.369 75.7662 17.419C75.6983 17.469 75.6416 17.533 75.5996 17.6067C75.5996 17.6067 75.5879 17.6185 75.5856 17.6255C75.5535 17.6795 75.5388 17.7422 75.5436 17.805C75.5538 17.8734 75.5803 17.9383 75.621 17.9939C75.6617 18.0495 75.7152 18.0941 75.7769 18.1239C75.8755 18.1745 75.9871 18.193 76.0965 18.1769C76.2059 18.1609 76.3078 18.111 76.3881 18.0341C76.4643 17.9525 76.507 17.8446 76.5075 17.7323C76.5079 17.62 76.466 17.5117 76.3904 17.4295Z" fill="#009344"/>
<path d="M76.507 18.164C76.4884 18.164 76.4674 18.0932 76.4044 17.9963C76.3285 17.8665 76.2152 17.7634 76.0796 17.7009C75.944 17.6384 75.7927 17.6195 75.6462 17.6468C75.5319 17.6633 75.4619 17.6964 75.4549 17.6799C75.448 17.6633 75.5016 17.6066 75.6276 17.5618C75.7925 17.5081 75.9712 17.5182 76.1291 17.5901C76.2885 17.662 76.4146 17.793 76.4814 17.9562C76.5303 18.079 76.5233 18.1616 76.507 18.164Z" fill="#263238"/>
<path d="M71.746 18.4568C71.746 18.4568 71.8136 18.5749 71.725 18.7544C71.6748 18.8618 71.5865 18.9462 71.4777 18.9906C71.4098 19.0152 71.3371 19.0236 71.2655 19.0149C71.1939 19.0063 71.1252 18.981 71.0648 18.941C71.0034 18.9032 70.9515 18.8516 70.913 18.7901C70.8746 18.7287 70.8507 18.6591 70.8432 18.5867C70.8362 18.4701 70.87 18.3547 70.9388 18.2608C71.0601 18.105 71.1954 18.1002 71.1954 18.1144C71.1954 18.1286 71.0928 18.1687 71.0112 18.3104C70.9639 18.3898 70.9442 18.4829 70.9552 18.5749C70.9639 18.6288 70.984 18.6802 71.0142 18.7254C71.0444 18.7707 71.084 18.8088 71.1301 18.8371C71.1757 18.8666 71.2268 18.886 71.2803 18.8942C71.3337 18.9023 71.3883 18.8989 71.4404 18.8843C71.5265 18.8531 71.6008 18.7953 71.6527 18.719C71.7436 18.5726 71.7273 18.4568 71.746 18.4568Z" fill="#009344"/>
<path d="M70.9597 18.3648C70.9714 18.3648 70.9597 18.445 70.8501 18.497C70.7962 18.5197 70.7371 18.5262 70.6796 18.516C70.6222 18.5057 70.5689 18.479 70.5259 18.439C70.483 18.399 70.4523 18.3474 70.4374 18.2903C70.4225 18.2332 70.424 18.173 70.4419 18.1168C70.4647 18.0529 70.5083 17.9988 70.5655 17.9633C70.6611 17.9042 70.7335 17.9278 70.7311 17.942C70.7288 17.9562 70.6751 17.9727 70.6168 18.0318C70.5881 18.068 70.5706 18.1121 70.5666 18.1584C70.5625 18.2047 70.572 18.2512 70.5939 18.2921C70.6159 18.3329 70.6492 18.3663 70.6898 18.3881C70.7304 18.4098 70.7764 18.419 70.8221 18.4143C70.9014 18.3978 70.9434 18.3553 70.9597 18.3648Z" fill="#009344"/>
<path d="M73.5234 39.3392C73.5234 39.3392 79.2993 39.6793 82.7144 39.71C85.3574 39.736 86.5378 39.0251 87.065 37.3034C87.5082 35.8604 86.5565 33.0901 86.5565 33.0901C84.7672 33.0901 83.6639 33.3499 82.5138 33.8954L82.8194 35.1613L73.5071 35.9738L73.5234 39.3392Z" fill="#FFBE9D"/>
<path d="M84.7604 36.5122C84.5099 36.1825 84.2173 35.8879 83.8903 35.636C83.5394 35.4187 83.1612 35.2503 82.7659 35.1354C82.8904 35.1172 83.0173 35.1285 83.1368 35.1684C83.4303 35.2386 83.7086 35.3627 83.9579 35.5345C84.2077 35.7068 84.4236 35.9246 84.5947 36.1769C84.7254 36.3705 84.7744 36.5051 84.7604 36.5122Z" fill="#EB996E"/>
<path d="M71.41 33.886C71.41 33.886 69.6232 34.3206 68.3098 35.2086L69.7095 39.0487C70.176 40.3099 71.6013 40.9381 72.742 40.2768C74.4986 39.2589 75.1191 36.2926 75.1191 36.2926L77.0483 27.8188L73.8501 25.79L71.4217 33.886" fill="#FFBE9D"/>
<path d="M73.8384 25.79L73.969 23.0032L73.2528 20.1691C73.2132 20.0132 73.1945 19.8172 73.3205 19.7227C73.383 19.6742 73.4601 19.6491 73.5388 19.6517C73.6174 19.6543 73.6928 19.6844 73.7521 19.7369C73.9457 19.94 74.8788 22.4175 74.8788 22.4175C74.8788 22.4175 76.2947 21.5578 76.5467 21.5153C76.7986 21.4728 77.1135 22.2451 77.1345 22.3041C77.1438 22.4772 77.1438 22.6506 77.1345 22.8237C77.1345 22.8237 78.0093 22.8497 78.0886 22.9701C78.1522 23.2162 78.1859 23.4692 78.1889 23.7235C78.1889 23.7235 78.5598 23.8439 78.6181 24.1273C78.6765 24.4108 78.7978 24.8784 78.6181 24.9823C78.4385 25.0862 78.0746 25.2893 78.0746 25.2893C78.0746 25.2893 77.9277 26.7347 77.888 26.8669C77.8483 26.9992 77.0295 27.8116 77.0295 27.8116L73.8384 25.79Z" fill="#FFBE9D"/>
<path d="M70.8618 40.3335C70.8618 40.3335 70.9481 40.3855 71.1301 40.4445C71.3962 40.529 71.6776 40.5516 71.9535 40.5106C72.3968 40.4466 72.8119 40.2529 73.1479 39.9533C73.5919 39.5454 73.967 39.0668 74.2583 38.5362C74.4298 38.2244 74.5742 37.898 74.6899 37.5608C74.8112 37.1898 74.9117 36.8121 74.9908 36.4296C75.1727 35.6337 75.371 34.7764 75.581 33.8647C76.0009 32.0439 76.4721 30.0081 76.9806 27.814V27.7975H76.9923C77.1532 27.6369 77.3142 27.4739 77.4752 27.3039C77.5545 27.2189 77.6338 27.1338 77.7084 27.0465C77.7458 27.0016 77.7854 26.9567 77.8157 26.9118C77.8394 26.8674 77.8529 26.8182 77.8554 26.7678C77.9184 26.2954 77.9674 25.8066 78.0187 25.313V25.2822L78.0467 25.2681L78.4922 25.0154C78.5249 24.9941 78.5762 24.9705 78.5972 24.9516C78.6195 24.9312 78.6343 24.9037 78.6392 24.8737C78.6501 24.7953 78.6501 24.7158 78.6392 24.6375C78.6166 24.4643 78.5815 24.293 78.5342 24.125C78.4549 23.9781 78.3217 23.8687 78.1633 23.8203L78.1237 23.8062V23.766C78.1237 23.629 78.1097 23.4873 78.0933 23.348C78.087 23.2782 78.0769 23.2088 78.063 23.1402C78.0576 23.1099 78.0482 23.0805 78.035 23.0528C78.035 23.0362 78.035 23.0528 78.021 23.0386C78.0083 23.0319 77.9951 23.0263 77.9814 23.0221C77.7008 22.9602 77.4147 22.9277 77.1276 22.9253H77.0669V22.8638C77.0669 22.7174 77.0669 22.5545 77.0669 22.3915C77.0573 22.3359 77.0384 22.2824 77.0109 22.2333C76.9876 22.1766 76.9596 22.1223 76.9316 22.0656C76.877 21.9562 76.813 21.8519 76.7403 21.7538C76.7073 21.7081 76.6671 21.6683 76.6214 21.6357C76.6045 21.6213 76.5837 21.6122 76.5617 21.6097C76.5397 21.6072 76.5174 21.6113 76.4977 21.6216C76.3849 21.6653 76.275 21.7166 76.1688 21.7751C75.7349 22.0113 75.3104 22.2474 74.8951 22.5025L74.8345 22.5403L74.8088 22.4742C74.5896 21.9144 74.3703 21.3618 74.1557 20.821C74.0484 20.5494 73.9434 20.2778 73.8361 20.0109C73.8195 19.9511 73.7867 19.8972 73.7413 19.8555C73.6959 19.8137 73.6398 19.7857 73.5795 19.7747C73.5237 19.756 73.4633 19.757 73.4082 19.7776C73.3531 19.7982 73.3066 19.8372 73.2762 19.8881C73.2471 19.9387 73.2349 19.9975 73.2412 20.0558C73.2412 20.1077 73.2739 20.188 73.2879 20.2518C73.3252 20.3888 73.3602 20.5234 73.3952 20.658C73.4652 20.9296 73.5328 21.1965 73.6028 21.461C73.7397 21.9932 73.8742 22.5127 74.0064 23.0197V23.0363C73.9597 24.0061 73.9154 24.9351 73.8734 25.8231V25.8184L71.7483 32.8185L71.1487 34.7669C71.0788 34.9866 71.0251 35.159 70.9878 35.2794C70.9505 35.3999 70.9271 35.4518 70.9271 35.4518C70.9271 35.4518 70.9388 35.3904 70.9715 35.2747L71.1184 34.7575C71.2537 34.3017 71.4473 33.6427 71.6923 32.802C72.1961 31.111 72.9123 28.6973 73.7778 25.7877V25.7995C73.8182 24.9146 73.8594 23.9857 73.9014 23.0126V23.0292C73.7684 22.5214 73.6308 22.0018 73.4932 21.4728L73.2832 20.6698C73.2482 20.5352 73.2132 20.3982 73.1759 20.2636C73.1558 20.1929 73.1395 20.1211 73.1269 20.0487C73.1183 19.9667 73.1355 19.8841 73.1759 19.8125C73.2191 19.7388 73.2857 19.6822 73.3649 19.6519C73.4432 19.6287 73.526 19.6261 73.6056 19.6443C73.6852 19.6624 73.7589 19.7008 73.8197 19.7558C73.8783 19.8114 73.9217 19.8814 73.9457 19.9589L74.2653 20.769C74.4822 21.3122 74.6992 21.8648 74.9208 22.4222L74.8345 22.3915C75.2521 22.1412 75.6719 21.8908 76.1152 21.657C76.2272 21.5977 76.3425 21.5449 76.4604 21.4988C76.4973 21.4833 76.5374 21.4776 76.5771 21.4822C76.617 21.4881 76.6552 21.5026 76.689 21.5248C76.7452 21.5656 76.7948 21.615 76.836 21.6712C76.914 21.7745 76.982 21.8852 77.0389 22.0018C77.0693 22.0609 77.0973 22.1175 77.1229 22.1766C77.1561 22.2391 77.1782 22.3071 77.1882 22.3773C77.1882 22.545 77.1882 22.7009 77.1882 22.8497L77.1299 22.7859C77.4298 22.7879 77.7286 22.8228 78.021 22.8898C78.0411 22.8969 78.0606 22.9056 78.0793 22.9158C78.105 22.9299 78.126 22.9513 78.14 22.9772C78.1581 23.0155 78.1714 23.056 78.1797 23.0977C78.1936 23.1732 78.203 23.2441 78.2123 23.3173C78.2263 23.4614 78.2356 23.6031 78.2426 23.7448L78.2006 23.6881C78.296 23.7164 78.3847 23.7641 78.4613 23.8283C78.5379 23.8924 78.6008 23.9717 78.6462 24.0612C78.6973 24.2407 78.7348 24.4239 78.7582 24.6092C78.7744 24.7037 78.7744 24.8004 78.7582 24.8949C78.748 24.9522 78.7183 25.004 78.6742 25.0414C78.6359 25.0673 78.5962 25.0909 78.5552 25.1122L78.112 25.346L78.1423 25.3011C78.0887 25.7947 78.0397 26.2789 77.9744 26.7583L77.9604 26.8504C77.955 26.8877 77.9396 26.9228 77.916 26.952C77.8817 27.0037 77.8435 27.0526 77.8017 27.0984C77.7224 27.1882 77.6431 27.2755 77.5685 27.3606C77.4075 27.5306 77.2466 27.6936 77.0833 27.8542L77.0996 27.8258C76.5864 30.0175 76.1105 32.0533 75.6836 33.8742C75.4713 34.7835 75.2684 35.6408 75.0818 36.4343C75.0019 36.8197 74.8991 37.1998 74.7738 37.5726C74.6538 37.913 74.5055 38.2425 74.3306 38.5575C74.0326 39.0948 73.6487 39.5784 73.1946 39.9887C72.8486 40.2903 72.4227 40.4824 71.9699 40.5413C71.688 40.5796 71.4012 40.5505 71.1324 40.4563C71.0641 40.4309 70.9978 40.4001 70.9341 40.3642L70.8618 40.3335Z" fill="#EB996E"/>
<path d="M77.137 22.8308C77.137 22.8473 77.0577 22.8568 76.9341 22.8615C76.7771 22.8645 76.6208 22.8835 76.4675 22.9182C76.3196 22.955 76.1833 23.0289 76.071 23.1331C75.987 23.2134 75.9497 23.2819 75.931 23.2748C75.9124 23.2677 75.931 23.1827 76.008 23.074C76.1166 22.9365 76.2678 22.84 76.4372 22.8001C76.6005 22.7593 76.7701 22.7513 76.9364 22.7765C77.0624 22.793 77.137 22.8143 77.137 22.8308Z" fill="#EB996E"/>
<path d="M76.4604 22.8567C76.4301 22.8449 76.4277 22.7717 76.4604 22.6938C76.4931 22.6158 76.5397 22.5615 76.57 22.5733C76.6004 22.5851 76.605 22.6584 76.57 22.7363C76.535 22.8142 76.4837 22.8685 76.4604 22.8567Z" fill="#EB996E"/>
<path d="M78.2286 23.7141C78.0021 23.785 77.7657 23.8177 77.5287 23.8109C77.4542 23.8084 77.3801 23.824 77.3127 23.8565C77.2453 23.8889 77.1866 23.9373 77.1415 23.9975C77.0809 24.0943 77.1019 24.1746 77.0832 24.1793C77.0645 24.1841 77.0085 24.1014 77.0669 23.9597C77.099 23.8799 77.1575 23.8139 77.2325 23.7731C77.3188 23.7251 77.4142 23.6962 77.5124 23.6881C77.7506 23.6512 77.9936 23.66 78.2286 23.7141Z" fill="#EB996E"/>
<path d="M78.0747 24.5643C78.1074 24.5643 78.126 24.7391 78.1167 24.954C78.1074 25.1689 78.0724 25.3389 78.0397 25.3389C78.0071 25.3389 77.9861 25.1618 77.9954 24.9469C78.0047 24.732 78.0397 24.5619 78.0747 24.5643Z" fill="#EB996E"/>
<path d="M79.0427 30.9244L79.2503 30.2017C79.2598 30.1686 79.2777 30.1386 79.3021 30.1147C79.3266 30.0907 79.3567 30.0736 79.3897 30.065C79.4227 30.0564 79.4572 30.0567 79.4901 30.0657C79.5229 30.0748 79.5528 30.0924 79.5769 30.1167L79.8499 30.3977L80.0178 29.7152C80.0277 29.6758 80.0493 29.6404 80.0797 29.6138C80.1101 29.5872 80.1479 29.5708 80.1879 29.5666C80.2278 29.5625 80.2681 29.5709 80.3032 29.5907C80.3383 29.6106 80.3665 29.6408 80.3841 29.6774L80.7643 30.4851L79.0427 30.9244Z" fill="white"/>
<path d="M80.769 30.7946C80.5081 30.9222 80.231 31.0128 79.9456 31.0638C79.6696 31.1551 79.382 31.206 79.0918 31.2149C79.6289 30.9965 80.1934 30.855 80.769 30.7946Z" fill="white"/>
<path d="M66.8961 26.7631C66.8961 26.7631 66.8098 26.8528 66.6885 27.0441C66.5257 27.3165 66.4186 27.6193 66.3736 27.9345C66.3071 28.4037 66.293 28.8791 66.3316 29.3515C66.3573 29.8876 66.3993 30.4733 66.4646 31.0874C66.5751 32.136 66.7394 33.1782 66.9568 34.2096C67.0384 34.6063 67.1131 34.9181 67.1644 35.1543C67.1877 35.2534 67.2087 35.3361 67.2251 35.407C67.2414 35.4778 67.2437 35.4967 67.2437 35.4967C67.2437 35.4967 67.2321 35.4684 67.2157 35.4117C67.1994 35.355 67.1737 35.2558 67.1481 35.159C67.0898 34.9393 67.0105 34.6229 66.9148 34.2261C66.6881 33.1951 66.5191 32.1519 66.4086 31.1015C66.3433 30.4875 66.3036 29.8994 66.2803 29.3633C66.2449 28.8905 66.2622 28.4152 66.3316 27.9463C66.3817 27.627 66.4961 27.3216 66.6675 27.0488C66.7307 26.9436 66.8076 26.8475 66.8961 26.7631Z" fill="white"/>
<path d="M71.8067 23.5463L71.753 23.5747L71.5991 23.6503C71.4661 23.714 71.2725 23.8085 71.0415 23.9384C70.4395 24.2783 69.8548 24.6488 69.2896 25.0484C68.6225 25.5207 68.0323 25.9506 67.6007 26.2623L67.0899 26.6284L66.9476 26.7252C66.9317 26.7381 66.9145 26.7492 66.8962 26.7583C66.9095 26.7424 66.9253 26.7289 66.9429 26.7181L67.0782 26.6142L67.5797 26.234C68.0066 25.9151 68.5945 25.4711 69.2617 25.0082C69.8278 24.6069 70.4167 24.2395 71.0252 23.9077C71.2585 23.7825 71.4544 23.6928 71.5921 23.6337L71.7484 23.5676C71.795 23.5511 71.795 23.544 71.8067 23.5463Z" fill="white"/>
<path d="M82.9315 25.0838C82.9169 25.0756 82.9035 25.0653 82.8918 25.0531L82.7869 24.961C82.6569 24.8499 82.5206 24.7466 82.3786 24.6516C81.9051 24.346 81.4026 24.0888 80.8787 23.8841C80.3563 23.6746 79.8229 23.4948 79.2807 23.3456C79.0708 23.2866 78.9028 23.2441 78.7839 23.2157L78.6509 23.1803C78.6347 23.1769 78.619 23.1713 78.6042 23.1638H78.6532L78.7885 23.1897C78.9075 23.2134 79.0778 23.2511 79.2877 23.3055C79.835 23.4453 80.3727 23.6213 80.8973 23.8321C81.4243 24.0368 81.9273 24.2998 82.3973 24.6162C82.5929 24.7503 82.7722 24.9073 82.9315 25.0838Z" fill="white"/>
<path d="M71.8718 43.1109C71.8402 43.1052 71.8095 43.0949 71.7809 43.0802C71.6998 43.0441 71.6218 43.0015 71.5476 42.9527C71.4219 42.8764 71.3123 42.7758 71.2251 42.6567C71.1378 42.5376 71.0746 42.4022 71.0391 42.2583C70.975 41.9679 71.007 41.6642 71.13 41.3939C71.1656 41.31 71.211 41.2307 71.2653 41.1577C71.3027 41.1081 71.3283 41.0845 71.3307 41.0869C71.267 41.1876 71.2101 41.2926 71.1604 41.401C71.0519 41.6664 71.0267 41.959 71.088 42.2394C71.1549 42.5162 71.3212 42.7579 71.5546 42.9172C71.7482 43.0589 71.8765 43.1014 71.8718 43.1109Z" fill="white"/>
<path d="M71.1301 40.5531C71.1797 40.6468 71.2166 40.7469 71.2398 40.8507C71.2763 40.95 71.2983 41.0543 71.3051 41.1601C71.2521 41.0685 71.2142 40.9688 71.1931 40.8648C71.1549 40.7653 71.1336 40.6599 71.1301 40.5531Z" fill="white"/>
<path d="M74.2841 93.5053L81.3989 93.4698L81.2706 68.5655L81.203 43.2313L71.5618 43.1061L69.8285 46.4125C69.1194 47.7418 68.6673 49.1959 68.4965 50.6967C68.3799 51.8445 69.229 55.576 69.5229 56.5207L72.1753 65.0371L74.2841 93.5053Z" fill="#263238"/>
<path d="M83.2908 43.262L91.1101 64.841C91.5734 66.2314 91.7272 67.7083 91.5607 69.1659C91.3941 70.6235 90.9113 72.0258 90.1467 73.2724L81.0677 91.2215L75.9636 84.7551L83.559 68.6954L76.8641 57.7016L77.9908 43.2951L81.1446 43.2431L83.2908 43.262Z" fill="#263238"/>
<path d="M80.5544 50.4913C80.5544 50.4913 80.5544 50.5291 80.5544 50.6023C80.5544 50.6755 80.5661 50.7889 80.5754 50.9282C80.5918 51.2187 80.6128 51.6367 80.6408 52.1775C80.6944 53.271 80.7691 54.8416 80.874 56.7805C80.979 58.7195 81.0677 61.0316 81.1843 63.6059C81.2403 64.8907 81.3009 66.2392 81.3616 67.6374C81.4059 68.3459 81.3872 69.0544 81.3942 69.7629C81.4012 70.4714 81.3942 71.2177 81.3942 71.9593C81.3942 77.8943 81.4129 83.2672 81.4199 87.1617C81.4199 89.103 81.4199 90.6759 81.4199 91.7694C81.4199 92.3103 81.4199 92.7306 81.4199 93.0235C81.4199 93.1605 81.4199 93.2597 81.4199 93.3494C81.4199 93.4392 81.4199 93.4604 81.4199 93.4604C81.4199 93.4604 81.4199 93.4226 81.4199 93.3494V93.0235C81.4199 92.7306 81.4199 92.315 81.4059 91.7694C81.4059 90.6759 81.3872 89.1054 81.3732 87.1641C81.3569 83.2696 81.3359 77.8967 81.3126 71.9617C81.3126 71.2201 81.3126 70.488 81.3126 69.7653C81.3126 69.0426 81.3266 68.3293 81.2823 67.6397C81.224 66.2439 81.1656 64.8954 81.112 63.6106C81.0047 61.0411 80.9067 58.7289 80.8274 56.7829C80.7481 54.8368 80.6897 53.2734 80.6454 52.1799C80.6268 51.6414 80.6128 51.221 80.6034 50.9282C80.6034 50.7889 80.6034 50.692 80.6034 50.6023C80.6034 50.5125 80.5544 50.4913 80.5544 50.4913Z" fill="#455A64"/>
<path d="M80.3748 43.6871C80.402 43.7631 80.4185 43.8426 80.4238 43.9233C80.4494 44.0745 80.4774 44.2941 80.5101 44.5681C80.5707 45.1136 80.636 45.8717 80.6734 46.7101C80.7107 47.5485 80.713 48.309 80.7014 48.8593C80.7014 49.1333 80.685 49.3576 80.6734 49.5111C80.6757 49.5908 80.6663 49.6704 80.6454 49.7473C80.616 49.4523 80.6059 49.1557 80.6151 48.8593C80.6151 48.309 80.5894 47.5533 80.5521 46.7149C80.5147 45.8764 80.4634 45.1231 80.4238 44.5893C80.3906 44.2898 80.3742 43.9886 80.3748 43.6871Z" fill="#455A64"/>
<path d="M78.8072 44.1736C78.8188 44.1901 78.6859 44.2515 78.6485 44.4428C78.6381 44.4947 78.6409 44.5485 78.6569 44.5989C78.6728 44.6494 78.7012 44.6948 78.7395 44.731C78.7857 44.7744 78.8432 44.8035 78.9052 44.8148C78.9673 44.8261 79.0312 44.8192 79.0894 44.7947C79.1453 44.7656 79.192 44.7211 79.2242 44.6664C79.2563 44.6117 79.2727 44.549 79.2714 44.4853C79.2692 44.4325 79.2537 44.3811 79.2264 44.336C79.199 44.2909 79.1607 44.2537 79.1151 44.2279C79.0202 44.1814 78.9144 44.1626 78.8095 44.1736C78.8095 44.1736 78.8328 44.1429 78.8935 44.124C78.9809 44.1024 79.0731 44.1115 79.1547 44.15C79.2199 44.1774 79.2762 44.2226 79.3174 44.2806C79.3586 44.3386 79.383 44.407 79.388 44.4783C79.3973 44.5662 79.379 44.6549 79.3359 44.7318C79.2928 44.8087 79.2269 44.8699 79.1476 44.907C79.0683 44.944 78.9795 44.9549 78.8937 44.9381C78.808 44.9214 78.7296 44.8779 78.6695 44.8136C78.6199 44.7637 78.5848 44.701 78.5679 44.6323C78.5511 44.5636 78.5531 44.4915 78.5739 44.4239C78.5973 44.3356 78.65 44.258 78.7232 44.2043C78.7698 44.1712 78.8048 44.1665 78.8072 44.1736Z" fill="#455A64"/>
<path d="M75.0748 43.7462C75.1091 43.8206 75.1304 43.9005 75.1378 43.9823C75.1753 44.1943 75.1824 44.4107 75.1588 44.6247C75.1252 44.9434 75.0343 45.2532 74.8905 45.5387C74.7168 45.8938 74.4596 46.2004 74.1415 46.4314C73.8235 46.6624 73.4542 46.8108 73.0663 46.8636C72.7558 46.9106 72.4393 46.8985 72.1332 46.8282C71.926 46.7827 71.7265 46.7071 71.5407 46.6038C71.4704 46.5702 71.4059 46.5256 71.3494 46.4716C71.6072 46.589 71.8761 46.68 72.1518 46.7432C72.4836 46.813 72.8261 46.8125 73.1577 46.7415C73.4892 46.6706 73.8027 46.5309 74.0782 46.3312C74.3537 46.1314 74.5854 45.8761 74.7585 45.5811C74.9317 45.2862 75.0425 44.9581 75.0841 44.6176C75.1115 44.3276 75.1084 44.0355 75.0748 43.7462Z" fill="#455A64"/>
<path d="M84.2286 45.8151C84.0764 45.8328 83.9222 45.8142 83.7784 45.7607C83.426 45.6484 83.1095 45.4429 82.8616 45.1656C82.6114 44.8895 82.4397 44.55 82.3647 44.1831C82.328 44.0334 82.328 43.877 82.3647 43.7273C82.3857 43.7273 82.388 43.8997 82.458 44.1642C82.5526 44.506 82.7245 44.8208 82.9602 45.0836C83.1958 45.3464 83.4888 45.5499 83.8157 45.6781C84.0583 45.7749 84.2309 45.7914 84.2286 45.8151Z" fill="#455A64"/>
<path d="M87.0068 69.078C86.8899 69.213 86.7501 69.3258 86.5939 69.411C86.4301 69.5162 86.2516 69.5958 86.0644 69.6472C85.8288 69.7104 85.5803 69.7038 85.3482 69.6283C84.9408 69.4727 84.5917 69.1919 84.3498 68.8253C84.2388 68.6875 84.1469 68.5349 84.0769 68.3718C84.2028 68.4935 84.3169 68.6272 84.4175 68.771C84.6652 69.1035 84.9997 69.3595 85.3832 69.5102C85.579 69.5631 85.7834 69.5751 85.9839 69.5454C86.1845 69.5158 86.3769 69.4451 86.5496 69.3378C86.697 69.2424 86.8496 69.1557 87.0068 69.078Z" fill="#455A64"/>
<path d="M85.2246 70.4549C84.9489 70.1658 84.7027 69.8493 84.4898 69.5102C84.2445 69.1944 84.0304 68.8551 83.8506 68.497C84.1281 68.785 84.3752 69.1017 84.5877 69.4417C84.835 69.7555 85.0485 70.0952 85.2246 70.4549Z" fill="#455A64"/>
<path d="M73.2716 51.325C73.2389 51.3368 73.1573 51.2021 73.085 51.0203C73.0127 50.8384 72.9823 50.6849 73.0127 50.6707C73.043 50.6566 73.127 50.7936 73.197 50.9754C73.2669 51.1573 73.3019 51.325 73.2716 51.325Z" fill="#FAFAFA"/>
<path d="M77.7879 51.9815C77.753 51.9815 77.7273 51.8658 77.7273 51.7217C77.7273 51.5776 77.753 51.4595 77.7879 51.4595C77.8229 51.4595 77.8486 51.5776 77.8486 51.7217C77.8486 51.8658 77.8206 51.9815 77.7879 51.9815Z" fill="#FAFAFA"/>
<path d="M75.931 54.466C75.8983 54.466 75.861 54.3243 75.8493 54.1424C75.8376 53.9606 75.8493 53.8142 75.8866 53.8118C75.924 53.8094 75.959 53.9535 75.9706 54.1353C75.9823 54.3172 75.9636 54.4636 75.931 54.466Z" fill="#FAFAFA"/>
<path d="M72.5393 56.2846C72.5113 56.3058 72.4156 56.2184 72.2897 56.1287C72.1637 56.0389 72.0564 55.9705 72.0564 55.9374C72.0564 55.9043 72.2104 55.9232 72.3527 56.0271C72.495 56.1311 72.5673 56.2846 72.5393 56.2846Z" fill="#FAFAFA"/>
<path d="M78.5179 58.6014C78.4899 58.5825 78.5179 58.4809 78.5972 58.3652C78.6765 58.2495 78.7488 58.1833 78.7768 58.2022C78.8048 58.2211 78.7768 58.325 78.6975 58.4384C78.6182 58.5518 78.5459 58.6203 78.5179 58.6014Z" fill="#FAFAFA"/>
<path d="M74.8275 59.2556C74.7948 59.2556 74.7668 59.0596 74.7668 58.8211C74.7668 58.5825 74.7948 58.3842 74.8275 58.3842C74.8602 58.3842 74.8881 58.5802 74.8881 58.8211C74.8881 59.062 74.8532 59.2556 74.8275 59.2556Z" fill="#FAFAFA"/>
<path d="M73.6193 61.9054C73.6006 61.9314 73.4793 61.8771 73.3487 61.7802C73.218 61.6834 73.1154 61.5842 73.1457 61.5559C73.1761 61.5276 73.288 61.5842 73.4187 61.6811C73.5493 61.7779 73.6403 61.8771 73.6193 61.9054Z" fill="#FAFAFA"/>
<path d="M77.3562 62.8265C77.3702 62.8572 77.2955 62.921 77.1882 62.9706C77.0809 63.0202 76.9829 63.032 76.9689 63.0013C76.9549 62.9706 77.0319 62.9068 77.1392 62.8572C77.2465 62.8076 77.3445 62.7958 77.3562 62.8265Z" fill="#FAFAFA"/>
<path d="M74.8275 67.1485C74.7995 67.1626 74.6782 66.9808 74.5592 66.7399C74.4403 66.499 74.3679 66.2912 74.3983 66.2675C74.4286 66.2439 74.5499 66.4352 74.6665 66.6761C74.7832 66.917 74.8485 67.1225 74.8275 67.1485Z" fill="#FAFAFA"/>
<path d="M78.9497 66.747C78.9193 66.7304 78.973 66.5722 79.0663 66.3903C79.1596 66.2085 79.2646 66.0762 79.2996 66.0928C79.3346 66.1093 79.2762 66.2675 79.1806 66.4494C79.085 66.6312 78.9777 66.7635 78.9497 66.747Z" fill="#FAFAFA"/>
<path d="M77.1416 70.4053C77.1066 70.4053 77.1112 70.214 77.0739 69.992C77.0366 69.77 76.9806 69.5929 77.0133 69.5763C77.0459 69.5598 77.1579 69.7275 77.1952 69.9731C77.2325 70.2187 77.1742 70.4124 77.1416 70.4053Z" fill="#FAFAFA"/>
<path d="M75.2054 72.4954C75.1821 72.519 75.0654 72.4292 74.9465 72.297C74.8275 72.1647 74.7505 72.0395 74.7762 72.0159C74.8018 71.9923 74.9161 72.0821 75.0351 72.2143C75.1541 72.3466 75.2311 72.4718 75.2054 72.4954Z" fill="#FAFAFA"/>
<path d="M79.9037 73.289C79.8804 73.2654 79.9667 73.1378 80.0973 73.0032C80.2279 72.8686 80.3492 72.7812 80.3749 72.8048C80.4006 72.8284 80.3119 72.9583 80.1836 73.0906C80.0553 73.2228 79.9294 73.3126 79.9037 73.289Z" fill="#FAFAFA"/>
<path d="M77.2022 76.4182C77.1696 76.4182 77.1696 76.2316 77.2022 76.0144C77.2349 75.7971 77.2862 75.627 77.3212 75.6317C77.3562 75.6365 77.3539 75.816 77.3212 76.0332C77.2885 76.2505 77.2349 76.4229 77.2022 76.4182Z" fill="#FAFAFA"/>
<path d="M75.385 77.9368C75.3547 77.9533 75.252 77.8305 75.1517 77.6628C75.0514 77.4951 75.0001 77.3464 75.0281 77.3298C75.0561 77.3133 75.1587 77.4337 75.2614 77.6014C75.364 77.7691 75.413 77.9179 75.385 77.9368Z" fill="#FAFAFA"/>
<path d="M79.7636 79.8522C79.7846 79.8805 79.6657 80.0009 79.4977 80.1214C79.3297 80.2418 79.1828 80.3174 79.1618 80.2891C79.1408 80.2607 79.2621 80.1403 79.4277 80.0198C79.5934 79.8994 79.745 79.8262 79.7636 79.8522Z" fill="#FAFAFA"/>
<path d="M76.1154 82.3391C76.0827 82.3273 76.1154 82.1383 76.1457 81.9022C76.176 81.666 76.1574 81.4723 76.1924 81.4676C76.2274 81.4629 76.288 81.6613 76.2647 81.914C76.2414 82.1667 76.1457 82.3533 76.1154 82.3391Z" fill="#FAFAFA"/>
<path d="M77.5733 85.91C77.5453 85.9313 77.4473 85.851 77.3517 85.7305C77.2561 85.6101 77.2024 85.4943 77.2281 85.4731C77.2537 85.4518 77.3517 85.5321 77.4473 85.6526C77.543 85.773 77.599 85.8887 77.5733 85.91Z" fill="#FAFAFA"/>
<path d="M75.98 88.3047C75.952 88.3236 75.8237 88.1843 75.693 87.9906C75.5624 87.797 75.4808 87.6269 75.5064 87.608C75.5321 87.5891 75.6627 87.7285 75.7933 87.9221C75.924 88.1158 76.008 88.2858 75.98 88.3047Z" fill="#FAFAFA"/>
<path d="M80.3678 85.2983C80.3375 85.2865 80.3398 85.1991 80.3678 85.1046C80.3958 85.0102 80.4588 84.9393 80.4915 84.9511C80.5241 84.9629 80.5195 85.0503 80.4915 85.1471C80.4635 85.244 80.4005 85.3125 80.3678 85.2983Z" fill="#FAFAFA"/>
<path d="M78.4317 91.0018C78.4014 90.9853 78.4597 90.8176 78.5064 90.6074C78.553 90.3972 78.5693 90.2201 78.6043 90.2177C78.6393 90.2154 78.6743 90.4067 78.6253 90.6334C78.5763 90.8601 78.4597 91.0207 78.4317 91.0018Z" fill="#FAFAFA"/>
<path d="M79.6914 54.5038C79.6611 54.518 79.5864 54.4235 79.5258 54.2913C79.4651 54.159 79.4395 54.0409 79.4698 54.0267C79.5001 54.0126 79.5748 54.107 79.6354 54.2393C79.6961 54.3716 79.7264 54.4896 79.6914 54.5038Z" fill="#FAFAFA"/>
<path d="M76.4604 47.1494C76.4791 47.1778 76.3158 47.31 76.1408 47.499C75.9659 47.6879 75.8469 47.8627 75.8166 47.8461C75.7863 47.8296 75.8656 47.6099 76.0499 47.4163C76.2342 47.2226 76.4371 47.1187 76.4604 47.1494Z" fill="#FAFAFA"/>
<path d="M79.3368 47.0738C79.3018 47.0738 79.2482 46.9392 79.1665 46.7786C79.0849 46.618 79.0102 46.4857 79.0359 46.4621C79.0616 46.4385 79.1875 46.5424 79.2692 46.7219C79.3508 46.9014 79.3671 47.0549 79.3368 47.0738Z" fill="#FAFAFA"/>
<path d="M70.3557 49.4615C70.3253 49.4473 70.3557 49.2915 70.428 49.112C70.5003 48.9325 70.5796 48.7932 70.6123 48.8073C70.6449 48.8215 70.6123 48.975 70.54 49.1569C70.4676 49.3387 70.3953 49.4733 70.3557 49.4615Z" fill="#FAFAFA"/>
<path d="M70.6475 53.0277C70.6241 53.0537 70.4912 52.9781 70.3489 52.8577C70.2066 52.7372 70.1156 52.6215 70.1296 52.5932C70.1436 52.5648 70.2859 52.6428 70.4282 52.7632C70.5705 52.8837 70.6685 53.0017 70.6475 53.0277Z" fill="#FAFAFA"/>
<path d="M76.5398 44.3177C76.5094 44.3177 76.4441 44.2421 76.3975 44.1217C76.3508 44.0012 76.3368 43.8855 76.3671 43.8855C76.3975 43.8855 76.4628 43.9611 76.5094 44.0815C76.5561 44.202 76.5701 44.3059 76.5398 44.3177Z" fill="#FAFAFA"/>
<path d="M82.1828 46.0606C82.1501 46.0606 82.1525 45.9118 82.1828 45.7442C82.2131 45.5765 82.2738 45.4442 82.3064 45.4513C82.3391 45.4584 82.3368 45.6025 82.3064 45.7701C82.2761 45.9378 82.2155 46.0677 82.1828 46.0606Z" fill="#FAFAFA"/>
<path d="M83.5079 48.7601C83.4776 48.7459 83.5195 48.5712 83.6035 48.3657C83.6875 48.1602 83.7785 48.0067 83.8088 48.0185C83.8391 48.0303 83.8088 48.2075 83.7155 48.4129C83.6222 48.6184 83.5405 48.7719 83.5079 48.7601Z" fill="#FAFAFA"/>
<path d="M82.563 50.9376C82.5327 50.9518 82.4207 50.7888 82.3134 50.5739C82.2061 50.359 82.1454 50.1677 82.1758 50.1535C82.2061 50.1393 82.3157 50.3023 82.423 50.5172C82.5303 50.7321 82.5933 50.9211 82.563 50.9376Z" fill="#FAFAFA"/>
<path d="M84.5831 53.1151C84.5528 53.1033 84.5831 52.9663 84.6344 52.8105C84.6858 52.6546 84.7674 52.5365 84.8001 52.5483C84.8327 52.5601 84.8001 52.6971 84.7487 52.853C84.6974 53.0088 84.6251 53.1269 84.5831 53.1151Z" fill="#FAFAFA"/>
<path d="M82.7775 55.2477C82.7495 55.2666 82.6772 55.2028 82.6189 55.1084C82.5606 55.0139 82.5326 54.9194 82.5629 54.9005C82.5932 54.8816 82.6609 54.9454 82.7215 55.0422C82.7822 55.1391 82.8055 55.2312 82.7775 55.2477Z" fill="#FAFAFA"/>
<path d="M83.1625 59.65C83.1391 59.6712 82.9922 59.5555 82.8382 59.3855C82.6843 59.2154 82.5793 59.0619 82.6049 59.0383C82.6306 59.0147 82.7752 59.1328 82.9292 59.3028C83.0832 59.4728 83.1881 59.6264 83.1625 59.65Z" fill="#FAFAFA"/>
<path d="M85.5302 57.1205C85.5045 57.1418 85.3762 57.0237 85.2456 56.8537C85.1149 56.6836 85.031 56.5325 85.0566 56.5112C85.0823 56.49 85.2106 56.6104 85.3412 56.7781C85.4718 56.9458 85.5582 57.1017 85.5302 57.1205Z" fill="#FAFAFA"/>
<path d="M86.8295 60.6088C86.7992 60.5946 86.8528 60.4175 86.9485 60.2144C87.0441 60.0113 87.1444 59.8554 87.1818 59.8696C87.2191 59.8838 87.1608 60.0633 87.0651 60.2664C86.9695 60.4695 86.8599 60.6253 86.8295 60.6088Z" fill="#FAFAFA"/>
<path d="M84.0677 63.4807C84.0373 63.4973 83.93 63.3674 83.7808 63.228C83.6315 63.0887 83.4938 62.9919 83.5078 62.9564C83.5218 62.921 83.6991 62.9848 83.8624 63.1383C84.0257 63.2918 84.0957 63.4642 84.0677 63.4807Z" fill="#FAFAFA"/>
<path d="M84.2401 66.4399C84.2401 66.473 84.1235 66.5014 83.9812 66.5014C83.8389 66.5014 83.7246 66.473 83.7246 66.4399C83.7246 66.4069 83.8389 66.3785 83.9812 66.3785C84.1235 66.3785 84.2401 66.4069 84.2401 66.4399Z" fill="#FAFAFA"/>
<path d="M87.0792 65.6134C87.0489 65.5968 87.1095 65.448 87.1539 65.2638C87.1982 65.0796 87.2168 64.919 87.2518 64.9166C87.2868 64.9143 87.3241 65.0867 87.2728 65.2922C87.2215 65.4976 87.1049 65.6323 87.0792 65.6134Z" fill="#FAFAFA"/>
<path d="M89.8994 66.6076C89.8691 66.6194 89.7828 66.4518 89.7081 66.2369C89.6335 66.0219 89.5985 65.8377 89.6288 65.8283C89.6592 65.8188 89.7478 65.9818 89.8224 66.1967C89.8971 66.4116 89.9321 66.5958 89.8994 66.6076Z" fill="#FAFAFA"/>
<path d="M89.4494 70.6698C89.4214 70.6533 89.4937 70.4549 89.6103 70.2258C89.727 69.9967 89.8436 69.8243 89.8786 69.8408C89.9136 69.8574 89.8366 70.0557 89.7177 70.2825C89.5987 70.5092 89.4797 70.691 89.4494 70.6698Z" fill="#FAFAFA"/>
<path d="M86.8762 73.0528C86.8458 73.0646 86.7502 72.9016 86.6616 72.6867C86.5729 72.4718 86.5286 72.2876 86.5613 72.2734C86.5939 72.2593 86.6872 72.4246 86.7735 72.6395C86.8598 72.8544 86.9065 73.0528 86.8762 73.0528Z" fill="#FAFAFA"/>
<path d="M84.0256 73.9762C84.0256 74.0093 83.9276 74.0376 83.8086 74.0376C83.6896 74.0376 83.594 74.0093 83.594 73.9762C83.594 73.9431 83.692 73.9148 83.8086 73.9148C83.9253 73.9148 84.0256 73.9431 84.0256 73.9762Z" fill="#FAFAFA"/>
<path d="M85.6585 77.7762C85.6281 77.7762 85.5628 77.6463 85.5138 77.4669C85.4649 77.2874 85.4555 77.1315 85.4882 77.1244C85.5208 77.1173 85.5838 77.2543 85.6328 77.4338C85.6818 77.6133 85.6911 77.7573 85.6585 77.7762Z" fill="#FAFAFA"/>
<path d="M83.5941 76.5009C83.5661 76.4843 83.5941 76.3733 83.6711 76.2529C83.7481 76.1324 83.825 76.0498 83.853 76.0663C83.881 76.0828 83.853 76.1962 83.7761 76.3167C83.6991 76.4371 83.6244 76.5198 83.5941 76.5009Z" fill="#FAFAFA"/>
<path d="M83.5522 80.6835C83.5195 80.6835 83.4729 80.5253 83.4495 80.3198C83.4262 80.1143 83.4332 79.9467 83.4659 79.9419C83.4985 79.9372 83.5452 80.1002 83.5685 80.3056C83.5918 80.5111 83.5848 80.6788 83.5522 80.6835Z" fill="#FAFAFA"/>
</g>
<defs>
<clipPath id="clip0_29_640">
<rect width="103" height="100" fill="white"/>
</clipPath>
</defs>
</svg>
