<svg width="58" height="58" viewBox="0 0 58 58" fill="none" xmlns="http://www.w3.org/2000/svg">
<path d="M5.4375 9.0625V38.0625C5.4375 40.0563 7.06875 41.6875 9.0625 41.6875H48.9375C50.9313 41.6875 52.5625 40.0563 52.5625 38.0625V9.0625C52.5625 7.06875 50.9313 5.4375 48.9375 5.4375H9.0625C7.06875 5.4375 5.4375 7.06875 5.4375 9.0625Z" stroke="#009344" stroke-width="2" stroke-miterlimit="10" stroke-linecap="round" stroke-linejoin="round"/>
<path d="M16.3125 52.5625H41.6875" stroke="#009344" stroke-width="2" stroke-miterlimit="10" stroke-linecap="round" stroke-linejoin="round"/>
<path d="M23.5625 41.6875C23.5625 45.4937 22.2938 50.025 20.3 52.5625" stroke="#009344" stroke-width="2" stroke-miterlimit="10" stroke-linecap="round" stroke-linejoin="round"/>
<path d="M37.7 52.5625C35.7062 50.025 34.4375 45.4937 34.4375 41.6875" stroke="#009344" stroke-width="2" stroke-miterlimit="10" stroke-linecap="round" stroke-linejoin="round"/>
<path d="M18.125 16.3125V21.75C18.125 28.0937 22.8375 33.35 29 34.2562C35.1625 33.35 39.875 28.0937 39.875 21.75V16.3125L29 12.6875L18.125 16.3125Z" stroke="#009344" stroke-width="2" stroke-miterlimit="10" stroke-linecap="round" stroke-linejoin="round"/>
</svg>
